<?xml version="1.0" encoding="utf-8"?>
<!-- Generator: Adobe Illustrator 25.4.1, SVG Export Plug-In . SVG Version: 6.00 Build 0)  -->
<svg version="1.1" id="Layer_1" xmlns="http://www.w3.org/2000/svg" xmlns:xlink="http://www.w3.org/1999/xlink" x="0px" y="0px"
	 viewBox="0 0 387 289.6" style="enable-background:new 0 0 387 289.6;" xml:space="preserve">
<style type="text/css">
	.st0{fill:#04273A;}
	.st1{fill:#013658;}
	.st2{fill:#0C6596;}
	.st3{fill:#976E62;}
	.st4{opacity:0.4;fill:#976E62;}
	.st5{fill:#4A3129;}
	.st6{fill:#FF786A;}
	.st7{fill:#F4AE8C;}
	.st8{fill:#7096C3;}
	.st9{fill:#E8EEF2;}
	.st10{fill:#ABC3E4;}
	.st11{fill:#FFB494;}
	.st12{opacity:0.39;fill:#E8EEF2;}
</style>
<g>
	<g>
		<g>
			<polygon class="st0" points="375.7,194.5 163.7,150.6 14.8,179.6 9.1,178.6 9.1,180.7 185.7,273.2 380.5,195.5 380.5,193.4 			
				"/>
			<polygon class="st1" points="9.1,178.6 163.7,148.5 380.5,193.4 185.7,271.1 			"/>
			<polygon class="st2" points="35.3,181.3 163.1,155.6 342,194.1 191,252.7 			"/>
		</g>
		<g>
			<rect x="107.3" y="115.2" class="st3" width="6.1" height="57.2"/>
			<rect x="153" y="115.2" class="st3" width="6.1" height="57.2"/>
			<rect x="107.3" y="115.2" class="st4" width="6.1" height="57.2"/>
			<rect x="153" y="115.2" class="st4" width="6.1" height="57.2"/>
			<polygon class="st5" points="103.8,179 101.4,181.8 101.4,119.1 103.8,119.1 			"/>
			<polygon class="st5" points="115.7,169.6 113.3,172.4 113.3,119.1 115.7,119.1 			"/>
			<polygon class="st6" points="95.3,115.4 109.6,109.6 161.5,109.6 147.5,115.4 			"/>
			<polygon class="st5" points="147.3,115.2 147.3,119.1 147.3,133.5 147.3,181.8 149.7,179 149.7,132.2 159.1,127.2 159.1,172.4 
				161.5,169.7 161.5,125.9 161.5,114.9 161.5,109.6 			"/>
			<polygon class="st3" points="95.3,115.2 95.3,119.1 95.3,181.8 101.4,181.8 101.4,133.5 141.2,133.5 141.2,181.8 147.3,181.8 
				147.3,119.1 147.3,115.2 			"/>
		</g>
		<g>
			<g>
				<path class="st7" d="M209.5,235.3c-2.2,2-4.2,4.4-5.4,7.1c-2.1,4.5-6,8.6-13.1,10.3c-4.7,1.2-14.9-0.7-15.3-6.3
					c0.9-4.9,5.4-4.6,9.6-8.3c5.8-4,9.3-13,12.6-21.8c1.5-3.9,13.3-13.8,16-12.1c1,0.6-2.1,10-2.5,17.6
					C211.1,225.4,215.6,229.6,209.5,235.3z"/>
				<path class="st7" d="M233.4,201.4c-0.5-1.5-3.5-3.4-6.2-3.7c-4.6-0.6-9.5-0.3-14.6-3.1c-2.9-1.6-9-2.3-11.9,0.3
					c-1.8,1.7-5.1,3.2-7.5,3.3c1,2.7-1.1,9.3,2.6,10.8c3.7-0.3,8.8-0.7,21.6-1.7c2.5-0.2,12.3,3.5,15.5,2.3
					C235.2,208.6,235.1,205.5,233.4,201.4z"/>
				<path class="st7" d="M181.7,210c-2.8,0-5.2-2.2-5.4-5.1c-0.2-3,2-5.6,5-5.8l16-1.2c3-0.2,5.6,2,5.8,5c0.2,3-2,5.6-5,5.8l-16,1.2
					C182,209.9,181.8,210,181.7,210z"/>
				<path class="st8" d="M177.2,195.1c-14.9,3.4-28.1,4.1-36.3,11.2c-11.9,10.2-16.1,4.4-17.3-1.1c-0.1-0.3-0.1-0.6-0.1-0.9
					c-0.7-5,2.3-9.1,3.9-11.7c7.7-12.8,54.1-47.3,74.8-37.5c3.9,1.8,6.9,5.2,8.6,10.6C215.8,187,191.2,190.2,177.2,195.1z"/>
				<path class="st8" d="M177.2,195.1c-14.9,3.4-41.9-0.5-41.9-0.5s4-1.5,21.3-0.5c32.9,1.9,40.1-26.9,44-28.2
					c3.9,1.8,8.6-5.5,10.2-0.2C215.8,187,191.2,190.2,177.2,195.1z"/>
				<path class="st8" d="M161.7,196c4.7,0.2,28.7,0.7,28.7,0.7c3.9,0.2,4.6,12.6,2.1,13.6c-2.7,1.1-25.4,5.7-30.6,5.9
					c-5.2,0.2-10.3,0.3-15.5-0.1c-5.2-0.3-10.3-1.1-15.4-2.2c-5.3-1.2-8.6-6.4-7.4-11.7c1-4.7,5.3-7.8,9.9-7.6
					C133.5,194.5,157,195.8,161.7,196z"/>
				<g>
					<path class="st7" d="M167.4,160.6c0,0-8.6,10-4.2,12.8c4.4,2.8,8.5-1.1,10.2,0.8c1.2-1.8,1.3-10.5,1.3-10.5L167.4,160.6z"/>
					<path class="st7" d="M164.9,169.8c-0.4,0.6-0.8,1.1-1.3,1.7l-0.7,0.8c-0.2,0.3-0.5,0.5-0.5,0.7c-0.5,0.9-0.8,2.4-1,3.5l0,0.1
						c0,0.4-0.4,0.6-0.7,0.5c-0.3,0-0.5-0.3-0.6-0.6c0-0.8,0-1.4,0.1-2.1c0.1-0.7,0.2-1.4,0.4-2.2l0.9-1.9c0.3-0.6,0.5-1.2,0.7-1.8
						c0.3-0.8,1.1-1.2,1.9-0.9c0.8,0.3,1.2,1.1,0.9,1.9C165.1,169.6,165,169.7,164.9,169.8z"/>
					<path class="st7" d="M165.4,171.8l-1.3,2.3l-0.3,0.6c-0.1,0.1-0.1,0.2-0.2,0.4c-0.1,0.3-0.2,0.7-0.3,1.1
						c-0.3,1.6-0.5,3.3-0.7,5c0,0.5-0.5,0.9-1,0.8c-0.5,0-0.8-0.5-0.8-1c0.1-1.7,0.2-3.5,0.5-5.2c0.1-0.4,0.1-0.9,0.3-1.4
						c0.1-0.2,0.2-0.5,0.3-0.8l0.2-0.6l0.9-2.4l0-0.1c0.3-0.7,1-1,1.6-0.7c0.7,0.3,1,1,0.7,1.6C165.4,171.7,165.4,171.8,165.4,171.8
						z"/>
					<path class="st7" d="M167.8,172.8l-2.2,5c-0.2,0.5-0.4,1.5-0.6,2.4l-0.5,2.6l0,0c-0.1,0.5-0.6,0.8-1.1,0.7
						c-0.5-0.1-0.8-0.5-0.7-1l0.2-2.7c0.1-1,0.1-1.7,0.5-3l1.5-5.2c0.2-0.8,1.1-1.3,1.9-1.1c0.8,0.2,1.3,1.1,1,1.9
						C167.9,172.6,167.9,172.7,167.8,172.8z"/>
					<path class="st7" d="M170.8,172.8l-2.2,5l-2,5.1c-0.2,0.5-0.7,0.7-1.2,0.5c-0.4-0.2-0.7-0.6-0.6-1.1l1.3-5.4l1.5-5.3
						c0.2-0.9,1.2-1.4,2-1.1c0.9,0.2,1.4,1.2,1.1,2C170.8,172.6,170.8,172.7,170.8,172.8L170.8,172.8z"/>
					<path class="st7" d="M174,169.9c0.2,1.6,0.1,3.1-0.3,4.8c-0.1,0.4-0.2,0.8-0.4,1.3c-0.1,0.2-0.2,0.4-0.3,0.7l-0.3,0.4
						c-0.4,0.6-0.6,0.9-0.8,1.5c-0.2,0.5-0.7,0.7-1.2,0.6c-0.3-0.1-0.6-0.4-0.6-0.7c-0.1-0.8,0.1-1.8,0.4-2.5l0.2-0.5
						c0-0.1,0.1-0.2,0.1-0.3c0-0.2,0.1-0.5,0-0.8c0-1.1-0.3-2.5-0.6-3.6l0,0c-0.3-1.1,0.3-2.2,1.4-2.5c1.1-0.3,2.2,0.3,2.5,1.4
						C174,169.7,174,169.8,174,169.9z"/>
					<path class="st7" d="M163.1,173.4c4.4,2.8,8.5-1.8,10.2,0.8c1.2-1.8,1.3-10.5,1.3-10.5L163.1,173.4z"/>
				</g>
				<path class="st9" d="M196,109.5L196,109.5c-1.4,14.8-3.6,22.7-3.7,22.7c-1.9,4-7.7,21.4-15.5,32.5c0,0.1-0.1,0.1-0.1,0.2
					c0,0,0,0,0,0c-0.6,0.9-1.3,1.8-1.9,2.6c0-2.3-7.3-6.9-10.2-3.7c0.2-14.3,3.7-14.2,6.8-28.4c1.2-5.6,5.2-12.6,7.2-18
					c4.7-12.5,10.2-30.4,13.4-36.3C198.2,69.6,199.1,84,196,109.5z"/>
				<path class="st9" d="M196,109.6c-1.4,14.8-3.6,22.6-3.7,22.6c-1.9,4-7.7,21.4-15.5,32.5c2.1-2.8,0.5-16.6,0.3-25
					c-0.2-8.4,12.7-22.3,12.7-22.3S193.5,111.1,196,109.6z"/>
				<path class="st9" d="M252.8,95.7c-0.4,4.7-0.9,9.2-1.4,13.4c-3.3,25.4-9.1,41.6-15.9,54c-0.4,0.7-53.4,3.3-48-12
					c7.4-18.4-0.4-48.6,4.1-67.4c0.7-7.6,12.1-14,26-12.5C251.4,74.9,252.8,80.7,252.8,95.7z"/>
				<path class="st9" d="M251.4,109.1c-3.3,25.4-9.1,41.6-15.9,54c-0.4,0.7-0.8,1.5-1.2,2.2c-1.6-2.6-20.2-33.1-24.1-35.8
					c-4.1-2.8-2.5-11.2-2.5-11.2l4.5-7.4c0,0,16.1,4.7,21.2,4.9c5.1,0.2,1.1-21.2,1.1-21.2S243.1,101.9,251.4,109.1z"/>
				<path class="st5" d="M236.9,51.3c-6.2,13.1-4.1,5.1-16.9,3.6c-12.8-1.5-19.7,10.3-20.9-4.2c-1.4-16.9,1.3-30.6,13.7-28.8
					C231.6,24.7,245.6,33.1,236.9,51.3z"/>
				<path class="st7" d="M231.5,55.6l1.1,18.2c0.3,5-3.5,9.3-8.6,9.6c-5,0.3-9.3-3.5-9.6-8.6c0-0.4,0-0.7,0-1l1.1-18.2
					c0.3-4.4,4.1-7.8,8.5-7.6C228.1,48.3,231.3,51.6,231.5,55.6z"/>
				<path class="st7" d="M236.9,51.3c-1.1,11.3-9.8,24.8-22,24.8c-15.9,0-16-12.9-15.9-29.1c0.1-19,11-21.8,21.5-20.6
					C231,27.6,238.4,36.4,236.9,51.3z"/>
				<path class="st5" d="M199.1,48.7c0,0,1.8-17.9,3.9-15.9c3.5,3.3,9.9,3,22.1,3.7c7.4,0.5-2.3,15.4,3,19c2.8,3,3.9,9.9,3.9,9.9
					s6.5-7.8,7.8-21.1c2-21.5-26.9-22.2-26.9-22.2S196.2,20.2,199.1,48.7z"/>
				<path class="st7" d="M234.7,57.8c-1.2,3.3-3.6,5.4-5.4,4.7c-1.8-0.6-2.4-3.8-1.2-7.1c1.2-3.3,3.6-5.4,5.4-4.7
					C235.3,51.3,235.9,54.5,234.7,57.8z"/>
				<g>
					<polygon class="st0" points="187.9,77.9 186.5,75.3 195.3,107.6 197.9,111.6 					"/>
					<polygon class="st0" points="187.9,57.8 186.5,75.3 193.3,93.5 196.2,85 					"/>
					<polygon class="st10" points="187.9,77.4 188.1,77.9 219.7,68.1 219,67.9 					"/>
					<path class="st1" d="M230.9,105.5c-5.3,3.9-33,6.1-33,6.1l-1-3.3l-9-30.4l30.4-9.5l1.4-0.4C219.7,68,227.6,95,230.9,105.5z"/>
					<polygon class="st10" points="188.1,58.4 193.2,74.6 189.1,75.6 					"/>
					<path class="st9" d="M188.1,58.4l-0.9,16.9l0.7,2.1l31-9.5c0,0-20.8,2.6-29.9,7.7C190.1,71,188.8,60.1,188.1,58.4z"/>
					<path class="st1" d="M188,78C188,78,187.9,78,188,78l-1-2.7l1-17c0,0,0-0.1,0.1-0.1c0,0,0.1,0,0.1,0.1l-1,17l0.9,2.6
						C188.1,77.9,188.1,78,188,78C188,78,188,78,188,78z"/>
					<path class="st1" d="M230.9,105.5c-5.3,3.9-33,6.1-33,6.1l-1-3.3c2.8-1.5,6.3-3.6,10.5-6.7c10.7-7.8,11.2-25.8,10.9-33.2
						l1.4-0.4C219.7,68,227.6,95,230.9,105.5z"/>
				</g>
				<g>
					<path class="st7" d="M212.4,112.5c0,0-1.1-5.5-5-6.5c-3.9-1-10.9,2.6-7.9,6.5c3,3.9,6.4,4.9,9.9,4.9
						C212.9,117.3,212.4,112.5,212.4,112.5z"/>
					<path class="st7" d="M206.7,109.9c-0.1-1.9-0.2-3.7-0.2-5.7c0-1,0-1.9,0.3-3.2c0.4-1,0.7-1.8,1.4-2.9c0.4-0.6,1.2-0.8,1.8-0.4
						c0.5,0.3,0.7,0.9,0.6,1.4l-0.1,0.3c-0.1,0.6-0.3,1.5-0.4,2.3c0,0.4,0,1.4,0.2,2.2c0.2,1.7,0.6,3.5,0.9,5.2l0,0
						c0.3,1.3-0.5,2.5-1.8,2.8c-1.3,0.3-2.5-0.5-2.8-1.8C206.7,110.1,206.7,110,206.7,109.9z"/>
					<path class="st7" d="M203.5,109.2c-0.1-0.1-0.2-0.3-0.2-0.4l-0.1-0.1l-0.1-0.2l-0.2-0.4l-0.3-0.7l-0.4-1.4
						c-0.2-1-0.5-1.8-0.7-2.9c-0.5-2-0.9-3.9-1-6c0-0.6,0.4-1.1,1-1.2c0.5,0,1,0.3,1.1,0.8l0,0c0.6,1.8,1.2,3.7,1.9,5.5l1.2,2.7
						l0.5,1.4l0.2,0.7l0.1,0.3l0,0.1l0,0c0,0-0.1-0.2-0.1-0.2c0.5,0.8,0.3,1.9-0.5,2.4C205.1,110.2,204,110,203.5,109.2z"/>
					<path class="st7" d="M200.9,109.9l-1.3-3.1l-0.6-1.6c-0.1-0.3-0.2-0.5-0.3-0.7l-0.3-0.8c-0.4-1-0.7-2.1-1-3.2
						c-0.3-1.1-0.6-2.2-0.7-3.5c0-0.6,0.5-1.2,1.1-1.2c0.6,0,1.1,0.4,1.2,0.9l0,0.1c0.2,0.8,0.6,1.8,1,2.7c0.4,0.9,0.9,1.9,1.4,2.8
						l0.4,0.7c0.1,0.3,0.3,0.6,0.4,0.8l0.8,1.3l1.6,2.6l0,0.1c0.6,1,0.3,2.4-0.7,3c-1,0.6-2.4,0.3-3-0.7
						C201,110.1,200.9,110,200.9,109.9z"/>
					<path class="st7" d="M199.8,110.6l-2.9-4.9c-0.5-0.8-1-1.8-1.4-2.6c-0.4-0.9-0.8-1.8-1.1-2.7c-0.2-0.5,0.1-1,0.5-1.2
						c0.4-0.2,0.9,0,1.1,0.4c0.5,0.8,1,1.6,1.5,2.4c0.5,0.8,1,1.4,1.7,2.2l3.7,4.4c0.7,0.8,0.6,2-0.2,2.7c-0.8,0.7-2,0.6-2.7-0.2
						C199.9,110.8,199.8,110.7,199.8,110.6z"/>
					<path class="st7" d="M200,112.8c-1.1-0.9-2.2-1.7-3.2-2.8c-0.3-0.3-0.5-0.6-0.8-1c-0.2-0.4-0.4-0.6-0.5-1
						c-0.3-0.6-0.6-1.3-0.8-1.9c-0.2-0.5,0.1-1,0.5-1.2c0.4-0.2,0.9,0,1.1,0.4l0,0c0.3,0.5,0.7,1.1,1,1.6c0.4,0.6,0.6,0.9,1.1,1.3
						c0.9,0.7,2,1.5,3.1,2.1l0,0c0.7,0.4,1,1.3,0.5,2c-0.4,0.7-1.3,1-2,0.5C200.1,112.9,200,112.9,200,112.8z"/>
				</g>
				<path class="st9" d="M257.9,126.5c-0.5-8.1-1.5-34.5-7.5-44c-3.7-5.9-21.9,6.7-14.8,25.8c2.3,6.3,2.8,9,3.3,16.5
					c-4.7-1.7-19.3-13.9-26.6-14c-2.2,1-6,6.4-3.8,9.4c7.7,10.6,32.4,30.6,43.4,24.3C255.5,142.3,257.9,136.9,257.9,126.5z"/>
				<path class="st10" d="M242,176.5c-2.1,25.6-37.1,21.8-36.3-1.5c0.6-9.6,1.3-18.9,0.8-28.9c-0.2-3.7-0.5-7.5-1.2-11.5
					c7-30.3,28.9,4.5,35.2,27.9C242.2,168.2,242.8,173.2,242,176.5z"/>
				<path class="st10" d="M242,176.5c-2.1,25.6-37.1,21.8-36.3-1.5c0.6-9.6,1.3-18.9,0.8-28.9c9.1-5.7,17.4-10.9,17.4-10.9
					s0.7,39.2,5.5,41.5c10.2,4.8,12.5-7.9,11.2-14.2C242.2,168.2,242.8,173.2,242,176.5z"/>
				<path class="st10" d="M223.9,132.3c0.2,23-8.2,82.6-12.4,87c-1.4,2.7-14.5,1.4-14.9-1.7c-1.1-8.4-1.4-91.2,14.5-95.5
					C217.4,120.5,223.4,125.5,223.9,132.3z"/>
			</g>
		</g>
		<g>
			<path class="st6" d="M149.9,111.7c0,0.8-3,1.5-6.7,1.5c-3.7,0-6.7-0.7-6.7-1.5c0-0.4-0.7-1.7,6.7-1.5
				C150.3,110.4,149.9,110.9,149.9,111.7z"/>
			<path class="st11" d="M149.9,111.3c0,0.8-3,1.5-6.7,1.5c-1.3,0-2.5-0.1-3.5-0.2c-1.5-0.2-2.6-0.6-3-1c-0.1-0.1-0.1-0.2-0.1-0.3
				c0-0.8,3-1.5,6.7-1.5C146.9,109.8,149.9,110.5,149.9,111.3z"/>
			<path class="st11" d="M145.3,110.8H141c1.7-2.2,0.9-5.8,0-9.4h4.4C144.8,105,144.5,108.3,145.3,110.8z"/>
			<path class="st11" d="M141.7,111.3l-2,1.3c-1.5-0.2-2.6-0.6-3-1l4.3-0.8C140.9,111,141.1,111.1,141.7,111.3z"/>
			<path class="st11" d="M145.3,101.4h-1.4c-0.3,2.1-0.3,4-0.2,5.7c0.2,4.6-2.2,4.1-2.7,3.7c-0.2,0.8,4.6,0.8,4.4,0
				C144.5,108.3,144.8,105,145.3,101.4z"/>
			<path class="st11" d="M135.8,87.3c0.2,0.6,2.9,3.4,1.9,11c-1,7.7,10.8,8.5,10.5,1c-0.3-7.6,1.9-10.8,2.3-12
				C135.7,87.3,137.2,87.4,135.8,87.3z"/>
			<path class="st11" d="M147.6,98.4c-0.7,0-1.4-0.1-1.6-0.6l1.1-0.6c-0.1-0.1-0.1-0.2-0.1-0.2c0.3,0.1,1.9,0.2,3.3-0.7
				c1.4-0.9,2.1-2.3,2.1-4.3c0-0.8-0.2-1.3-0.6-1.5c-1-0.6-3,0.3-3.6,0.7l-0.6-1.1c0.3-0.2,3.2-1.7,4.9-0.6c0.8,0.5,1.2,1.4,1.2,2.6
				c0,4.7-3.6,5.9-4.7,6.2C148.6,98.3,148.1,98.4,147.6,98.4z"/>
			<path class="st6" d="M150.5,87.3c0,0.7-3.3,1.3-7.4,1.3c-4.1,0-7.4-0.6-7.4-1.3c0-0.7,3.3-1.3,7.4-1.3
				C147.2,86,150.5,86.6,150.5,87.3z"/>
			<path class="st0" d="M138.3,91.8c0.4,1.5,0.7,3.6,0.3,6.6c-0.8,6.5,9.1,7.2,8.9,0.8c-0.1-3.1,0.3-5.4,0.7-7
				C148.7,90.5,137.8,90.1,138.3,91.8z"/>
			<path class="st1" d="M148.2,92c0,0.8-2.3,1.4-5,1.4c-2.7-0.1-4.9-0.8-4.9-1.6c0-0.8,2.3-1.4,5-1.4C146,90.4,148.2,91.1,148.2,92z
				"/>
			<g>
				<path class="st10" d="M140.7,90.8c0,0.1-0.1,0.3-0.3,0.3c-0.1,0-0.3-0.1-0.3-0.3c0-0.1,0.1-0.3,0.3-0.3
					C140.6,90.5,140.7,90.7,140.7,90.8z"/>
				<path class="st0" d="M140.8,89.8c0,0.5-0.3,0.9-0.3,0.9s-0.3-0.4-0.3-0.9s0.3-0.9,0.3-0.9S140.8,89.3,140.8,89.8z"/>
				<path class="st0" d="M140.6,91.1C140.6,91.1,140.6,91.1,140.6,91.1c-0.1,0-0.1,0.1-0.1,0.1c-0.1,0.1-0.1,0.1-0.2,0.1
					c0,0.1-0.1,0.1-0.1,0.2c0-0.1,0-0.1,0-0.2c0-0.1,0.1-0.3,0.2-0.3c0,0,0,0,0,0c0-0.1,0.1-0.1,0.1-0.1s0,0,0.1,0.1
					C140.5,91,140.5,91,140.6,91.1C140.6,91.1,140.6,91.1,140.6,91.1z"/>
				<path class="st0" d="M139.5,90.5c0.5,0,0.9,0.3,0.9,0.3s-0.4,0.3-0.9,0.3c-0.5,0-0.9-0.3-0.9-0.3S139,90.5,139.5,90.5z"/>
				<path class="st0" d="M141.8,90.6c0,0.1-0.1,0.2-0.2,0.4c-0.1,0-0.1,0.1-0.2,0.1c-0.1,0-0.2,0-0.3,0c-0.2,0-0.3-0.1-0.4-0.2
					c0,0,0,0,0,0c-0.1-0.1-0.1-0.1-0.1-0.1s0.1-0.1,0.2-0.1c0,0,0,0,0,0c0.1-0.1,0.2-0.1,0.4-0.2c0.1,0,0.2,0,0.3,0
					C141.5,90.5,141.7,90.5,141.8,90.6C141.8,90.6,141.8,90.6,141.8,90.6z"/>
				<path class="st0" d="M140.4,90.9c0,0,0,0,0,0.1c0,0,0,0,0,0c0,0.1,0,0.2-0.1,0.3c0,0.1-0.1,0.1-0.1,0.2c0-0.1,0-0.1,0-0.2
					c0,0-0.1,0.1-0.1,0.1c0,0,0,0,0,0.1c0,0,0,0,0,0c-0.2,0.1-0.4,0.2-0.6,0c0,0-0.1,0-0.1-0.1c0-0.1,0.1-0.1,0.1-0.2
					c0.1-0.1,0.2-0.1,0.2-0.2c0.2-0.1,0.3-0.2,0.5-0.2c0,0,0,0,0,0C140.3,90.9,140.4,90.9,140.4,90.9z"/>
				<path class="st0" d="M140.9,89.9c0.4-0.4,0.9-0.4,0.9-0.4s-0.1,0.5-0.4,0.9c-0.4,0.4-0.9,0.4-0.9,0.4S140.6,90.2,140.9,89.9z"/>
				<path class="st0" d="M141.3,91.2C141.2,91.2,141.2,91.2,141.3,91.2c-0.1,0-0.6-0.2-0.6-0.2s0,0,0,0c0,0-0.1,0-0.1,0c0,0,0,0,0,0
					c0,0,0,0,0-0.1c0,0,0,0,0-0.1c0-0.1,0-0.1,0-0.1s0.1,0,0.1,0c0,0,0,0,0.1,0c0.1,0,0.3,0.1,0.4,0.2
					C141.2,91.1,141.2,91.2,141.3,91.2z"/>
				<path class="st0" d="M139.5,90.3c-0.4-0.4-0.4-0.9-0.4-0.9s0.5,0.1,0.9,0.4c0.4,0.4,0.4,0.9,0.4,0.9S139.9,90.7,139.5,90.3z"/>
				<path class="st8" d="M140.7,89.8c0,0.1,0,0.1,0,0.2c-0.1,0.2-0.2,0.4-0.2,0.4s-0.1-0.2-0.2-0.4c0-0.1,0-0.1,0-0.2
					c0-0.1,0-0.1,0-0.2c0.1-0.2,0.2-0.4,0.2-0.4s0.1,0.2,0.2,0.4C140.6,89.6,140.7,89.7,140.7,89.8z"/>
				<path class="st8" d="M140.1,90.8c0,0-0.2,0.1-0.4,0.2c-0.1,0-0.1,0-0.2,0c-0.1,0-0.2,0-0.2,0c-0.2-0.1-0.4-0.2-0.4-0.2
					s0.2-0.2,0.5-0.2c0,0,0.1,0,0.1,0c0,0,0.1,0,0.1,0C139.9,90.6,140.1,90.8,140.1,90.8z"/>
				<path class="st8" d="M141.8,90.6c0,0.1-0.1,0.2-0.2,0.4l0,0c0,0-0.1,0-0.1,0c-0.1,0-0.3,0-0.4-0.1c-0.1-0.1-0.2-0.1-0.2-0.1
					s0.1-0.1,0.3-0.2c0.1,0,0.2-0.1,0.3-0.1C141.6,90.6,141.7,90.6,141.8,90.6z"/>
				<path class="st8" d="M140.2,91.1c0,0,0,0.2-0.1,0.4c0,0,0,0,0,0.1c0,0,0,0,0,0c-0.2,0.1-0.4,0.2-0.6,0c0-0.1,0.1-0.1,0.1-0.2
					c0.1-0.1,0.1-0.1,0.2-0.1C140,91.1,140.2,91.1,140.2,91.1z"/>
				<path class="st8" d="M141.6,89.6c0,0,0,0.2-0.2,0.4c0,0.1-0.1,0.1-0.1,0.2c-0.1,0.1-0.1,0.1-0.2,0.1c-0.2,0.1-0.4,0.1-0.4,0.1
					s0-0.2,0.2-0.4c0-0.1,0.1-0.1,0.1-0.2c0,0,0.1-0.1,0.1-0.1C141.3,89.7,141.6,89.6,141.6,89.6z"/>
				<path class="st8" d="M140.2,90.5c0,0-0.2,0-0.4-0.1c-0.1,0-0.1-0.1-0.2-0.1c0,0,0,0,0,0c0,0,0,0,0,0c-0.2-0.2-0.2-0.5-0.2-0.5
					s0.2,0,0.5,0.2c0,0,0.1,0.1,0.1,0.1c0.1,0.1,0.1,0.2,0.2,0.3C140.2,90.4,140.2,90.5,140.2,90.5z"/>
				<path class="st3" d="M141.4,90.1c0,0.1-0.1,0.1-0.1,0.2c-0.1,0.1-0.1,0.1-0.2,0.1c-0.1,0-0.2-0.1-0.2-0.3c0,0,0,0,0,0
					c0-0.1,0.1-0.1,0.1-0.2c0,0,0.1-0.1,0.1-0.1c0,0,0,0,0,0C141.3,89.8,141.4,89.9,141.4,90.1z"/>
				<path class="st3" d="M140.7,89.8c0,0.1,0,0.1,0,0.2c0,0-0.1,0.1-0.2,0.1c-0.1,0-0.1,0-0.2-0.1c0-0.1,0-0.1,0-0.2
					c0-0.1,0-0.1,0-0.2c0.1,0,0.1-0.1,0.2-0.1c0.1,0,0.1,0,0.2,0.1C140.6,89.6,140.7,89.7,140.7,89.8z"/>
				<path class="st3" d="M139.8,90.8c0,0.1,0,0.1,0,0.2c-0.1,0-0.1,0-0.2,0c-0.1,0-0.2,0-0.2,0c0,0,0-0.1,0-0.2
					c0-0.1,0.1-0.2,0.1-0.2c0,0,0.1,0,0.1,0c0,0,0.1,0,0.1,0C139.8,90.6,139.8,90.7,139.8,90.8z"/>
				<path class="st3" d="M140,91.5c-0.2,0.1-0.4,0.2-0.6,0c0-0.1,0.1-0.1,0.1-0.2c0.1-0.1,0.1-0.1,0.2-0.1
					C139.9,91.2,140,91.4,140,91.5z"/>
				<path class="st3" d="M141.6,90.8c0,0.1,0,0.1-0.1,0.2c0,0-0.1,0-0.1,0c-0.1,0-0.3,0-0.4-0.1c0,0,0-0.1,0-0.1
					c0-0.1,0-0.1,0.1-0.2c0.1,0,0.2-0.1,0.3-0.1C141.6,90.6,141.6,90.7,141.6,90.8z"/>
				<path class="st3" d="M140.1,90.2c0,0.1-0.2,0.2-0.3,0.2c-0.1,0-0.1-0.1-0.2-0.1c0,0,0,0,0,0c0,0,0,0,0,0c0-0.1,0-0.1,0-0.2
					c0-0.1,0.1-0.2,0.2-0.2c0,0,0.1,0.1,0.1,0.1C140,90,140,90.1,140.1,90.2z"/>
			</g>
			<path class="st1" d="M140,91.5C140,91.5,140,91.5,140,91.5C140,91.5,140,91.5,140,91.5C140,91.5,140,91.5,140,91.5z"/>
			<path class="st1" d="M140.3,91.3c0,0.1-0.1,0.1-0.1,0.2C140.2,91.5,140.2,91.4,140.3,91.3C140.2,91.4,140.2,91.3,140.3,91.3z"/>
			<path class="st11" d="M150.5,87.3c-0.2,0.7-2.3,1-3.2,1.1c-0.8,1.8-1.5,3.9-1.3,9.6c0.2,4.4-3.8,6-6.9,5c3,2.9,9.3,1.9,9.1-3.6
				C147.9,91.8,150.2,88.5,150.5,87.3z"/>
			<path class="st11" d="M145.7,109.9c1.5,0.3,2.5,0.7,2.5,1.2c0,0.8-3,1.5-6.7,1.5c-0.9,0-1.7,0-2.5-0.1c0.2,0,0.4,0.1,0.7,0.1
				c1,0.1,2.2,0.2,3.5,0.2c3.7,0,6.7-0.7,6.7-1.5C149.9,110.7,148.2,110.1,145.7,109.9z"/>
			<path class="st12" d="M138.6,88.4c0,0,1.2,3.1,0.9,5.3c-0.3,2.2-0.4,5-0.2,6c0.2,1,1.6,1.9,2.1,0.4c0.5-1.5,0.2-3.9,0.2-5.7
				c0-1.8,0.1-5.2,0.5-5.7C138.6,88.4,138.6,88.4,138.6,88.4z"/>
		</g>
	</g>
	<g>
		<g>
			<path class="st3" d="M349.6,199.8c1.2,1.4,2.2,3,3,4.7c0.8,1.7,1.1,3.6,1.5,5.3c0,0.1,0.1,0.1,0.1,0.1c0,0,0.4,0.3,0.3,0.5
				c0.1,0.3,0,0.5,0.1,0.7c0,0.4,0.1,0.8,0.3,1.3c0.3,0.8,0.8,1.6,1.3,2.3c1.2,1.5,1.5,3.5,1.6,5.3l-0.1,0c-0.1-1.8-0.6-3.7-1.8-5
				c-0.7-0.7-1.1-1.5-1.5-2.4c-0.2-0.4-0.3-0.9-0.3-1.4c0-0.2-0.1-0.5-0.1-0.6c-0.1-0.1,0.1,0.1-0.1-0.1c-0.2-0.1-0.3-0.3-0.3-0.4
				c-0.7-1.9-1-3.6-1.7-5.2C351.1,203.2,350.3,201.6,349.6,199.8L349.6,199.8z"/>
			<path class="st3" d="M349.6,199.4c2.3,2.6,3.9,5.8,4.8,9.2c0.5,1.7,1,3.3,1.7,4.8c0.8,1.5,1.7,3.1,1.8,4.9l-0.1,0
				c-0.2-1.7-1.1-3.2-2-4.7c-0.8-1.5-1.5-3.2-2-4.8C352.7,205.6,350.8,202.8,349.6,199.4L349.6,199.4z"/>
			<path class="st3" d="M349.4,199.8c1.4,0.7,2.3,2.1,3.1,3.3c0.8,1.3,1.4,2.6,2.1,4c0.6,1.4,0.8,2.9,1.4,4.2
				c0.7,1.2,1.9,2.4,2.1,3.9l-0.1,0c-0.3-1.5-1.5-2.4-2.4-3.7c-0.7-1.4-1-2.9-1.6-4.2c-0.7-1.3-1.5-2.5-2.2-3.8
				C350.9,202.4,350.3,201,349.4,199.8L349.4,199.8z"/>
			<path class="st3" d="M356.9,218.5c-0.3-1.6-0.9-3.2-2-4.4c-1.3-1.1-2.1-2.8-2.5-4.4l-0.7-2.4c-0.2-0.8-0.6-1.5-0.7-2.4l-0.4-2.5
				c-0.2-0.8-0.2-1.7-0.8-2.2l0-0.1c0.8,0.4,1.1,1.4,1.4,2.1c0.3,0.8,0.4,1.6,0.6,2.4c0.1,0.8,0.5,1.5,0.7,2.4
				c0.2,0.8,0.3,1.6,0.5,2.4c0.3,1.6,0.9,3.1,2.1,4.3C356.4,215.2,356.8,216.9,356.9,218.5L356.9,218.5z"/>
			<path class="st3" d="M350.2,202.4c-0.5,0.1-0.5-0.9-0.7-2.1c-0.3-1.2-0.6-2.1-0.3-2.2c0.3-0.1,1.2,0.7,1.5,1.9
				C350.9,201.2,350.7,202.2,350.2,202.4z"/>
			<path class="st3" d="M350.8,201.2c-0.1,0.2-0.2,0.3-0.3,0.3c-0.5,0.2-0.6-0.8-1-2c-0.2-0.4-0.3-0.8-0.4-1.1
				c0,0.4,0.2,1.1,0.4,1.9c0.3,1.2,0.2,2.2,0.7,2.1C350.5,202.3,350.7,201.8,350.8,201.2z"/>
		</g>
		<g>
			<path class="st3" d="M351.6,213.5c1.1,1.5,1.9,3.1,2.6,4.9c0.6,1.8,0.8,3.6,1.1,5.4c0.3,1.8,0.5,3.6,1,5.3c0.3,1.8,2,3.1,1.8,5.1
				l-0.1,0c0.1-1.9-1.8-3.1-2.2-4.9c-0.6-1.8-0.8-3.6-1.2-5.3c-0.5-1.7-0.7-3.6-1.2-5.2C352.8,216.9,352.1,215.3,351.6,213.5
				L351.6,213.5z"/>
			<path class="st3" d="M351.6,213.1c1.7,2.4,2.9,5.1,3.6,7.9c0.9,2.8,1.2,5.7,2.9,8.1l-0.1,0.1c-2-2.2-2.5-5.3-3.5-7.9
				C353.4,218.6,352.3,216,351.6,213.1L351.6,213.1z"/>
			<path class="st3" d="M351.3,213.5c1.1,0.5,1.9,1.4,2.6,2.3c0.7,1,1.3,1.9,1.8,3c0.5,1.1,0.7,2.2,1.1,3.3c0.2,1.1,0.1,2.4,1.2,3
				l0,0.1c-1.2-0.5-1.3-2-1.6-3c-0.4-1-0.8-2.1-1.3-3.1c-0.6-1-1.2-1.9-1.9-2.8C352.6,215.4,352,214.4,351.3,213.5L351.3,213.5z"/>
			<path class="st3" d="M357.1,233.9c-1.1-1.4-1.7-3.1-2.2-4.8l-1.2-5.1c-0.4-1.7-0.8-3.3-1.1-5.2c0-0.9-0.1-1.7-0.2-2.6
				c-0.1-0.8-0.1-1.8-0.7-2.4l0-0.1c0.8,0.5,1,1.5,1.3,2.3c0.2,0.9,0.3,1.7,0.5,2.6c0.2,1.6,0.6,3.4,0.9,5.1l0.9,5.1
				C355.7,230.7,356.2,232.4,357.1,233.9L357.1,233.9z"/>
			<path class="st3" d="M351.9,216.1c-0.5,0.1-0.4-0.9-0.6-2.1c-0.2-1.2-0.4-2.1-0.1-2.2c0.3,0,1.1,0.8,1.3,2
				C352.8,215,352.5,216,351.9,216.1z"/>
			<path class="st3" d="M352.6,215c-0.1,0.2-0.2,0.3-0.3,0.3c-0.5,0.2-0.5-0.9-0.8-2c-0.1-0.4-0.2-0.8-0.3-1.1
				c0,0.4,0.1,1.1,0.3,1.9c0.2,1.2,0,2.2,0.6,2.1C352.3,216,352.5,215.6,352.6,215z"/>
		</g>
		<path class="st3" d="M337.6,179.8c-0.5-0.5-1.1-1-1.8-1.3c-0.2-0.1-0.5-0.2-0.7-0.4c-1-0.4-1.9-0.8-3-1c-0.7-0.2-1.5-0.3-2.2-0.4
			c-2.3-0.2-4.7-0.1-7,0.2c-0.8,0.1-1.6,0.2-2.4,0.3l-0.2,0c-2.9,0.4-5.7,0.7-8.6,1.1c-1.8,0.2-3.7,0.5-5.5,0.7
			c-3.3,0.4-6.6,0.8-9.9,1.2c-2.3,0.3-4.6,0.6-6.9,0.9c-3.2,0.4-6.4,0.9-9.5,1.4c-0.9,0.1-1.9,0.3-2.8,0.5c-2.8,0.5-5.5,1-8.2,1.5
			c-1,0.2-1.9,0.4-2.9,0.6c-2.3,0.5-4.7,1-7,1.6c-0.7,0.2-1.5,0.4-2.2,0.6c-1.5,0.4-3,0.8-4.5,1.3c-2.2,0.6-4.5,1.4-5.9,3.2
			c-1.8,2.2-1.7,5.4-1.4,8.3c0.5,4.1,1.8,8.7,5.6,10.3c1.7,0.7,3.6,0.7,5.5,0.7c1.7-0.1,3.3-0.1,5-0.2c19.6-0.9,37.2-1.3,55.7-5.8
			c4-1,8.3,0.1,11.3,2.9c4.3,4,9,8.3,10.9,10.3c5.5,5.6,8.5-2.7,12.8,1.8c0-6.1-1-29.8-9.2-29c-1.4,0.1-2.6,0.3-3.8,0.4
			c0.1-0.1,0.2-0.2,0.3-0.3l0.2-0.2c0.9-1,1.4-2.3,1.5-3.7c0-0.4,0-0.7,0-1.1c-0.2-2.1-1.1-4.2-2.6-5.8L337.6,179.8z"/>
		<path class="st5" d="M271.2,209.1l1.5-1.3c6.1-0.6,8.1-1.4,14.3-3c3.9-1,8-2,11.8-2.8l17.1-3.3c2.9-0.5,5.9-0.8,8.6-1.9
			c6.2-2.4,10-2.6,14.9-6.2l-0.7,0.8c-5,3.6-7.8,4.6-13.9,6.3c-2.9,0.8-5.8,1.4-8.7,1.9L299,203c-3.8,0.7-7.9,1.8-11.8,2.7
			C281.3,207.2,273.7,208.8,271.2,209.1z"/>
		<path class="st3" d="M248.8,207.7c2.1,1.8,4.8,2.5,7.5,2.6c2.7,0.1,9.8,0.7,12.3,0.2c0.3-0.1,3.8-2.6,4-2.8
			c0.4-0.3,3.2-4.2,3.3-4.6c0.8-5.6-3.3-8.7-8-12c-4.6-3.3-14.6-3.6-19.6-0.8C242.6,193.7,244.5,204,248.8,207.7z"/>
		<path class="st5" d="M250.6,205.6c1.6,1.4,3.8,2,5.9,2.1c2.1,0.1,7.7,0.5,9.7,0.2c0.2,0,3-2,3.2-2.2c0.3-0.2,2.5-3.3,2.6-3.6
			c0.6-4.4-2.6-6.8-6.2-9.4c-3.6-2.6-11.4-2.8-15.4-0.6C245.8,194.6,247.2,202.7,250.6,205.6z"/>
		<g>
			<g>
				<path class="st9" d="M331.9,184.5c0.7,4.8,0,8.2-2.7,10.7l-1.5,0.6c2.8-2.4,3.9-6.7,3.3-11.2c-0.2-1.3-0.3-1.4-1-2
					c-0.2-0.2-0.4-0.4-0.7-0.6c-1.7-1.7-4.2-3.2-6.9-4.2c-0.7-0.2-1.3-0.4-2-0.5l0.2,0c0.8-0.1,1.6-0.2,2.4-0.3c2.8,1,5.3,2.5,7,4.3
					c0.3,0.3,0.5,0.5,0.6,0.6C331.5,182.7,331.7,183,331.9,184.5z"/>
			</g>
			<g>
				<path class="st9" d="M320.8,191.7c-1,2.9-3.1,5-4.9,7.1l-1.1,0.2c1.9-2.2,4.1-4.9,5.1-7.6c1.1-2.9,0.6-6-1.1-7.8
					c-1.5-1.6-4.1-3.6-6-4c-2.1-0.5-4.1-0.5-6.2-0.5c-0.1,0-0.2,0-0.2,0c1.9-0.2,3.7-0.4,5.5-0.7c0.4,0.1,0.8,0.1,1.1,0.2
					c2.2,0.5,4.8,2.5,6.5,4.3C321.4,185,322,188.4,320.8,191.7z"/>
			</g>
			<g>
				<path class="st9" d="M308.7,193c-0.1,1.2-0.6,2.3-1.1,3.2c-1,1.9-1.5,2.9-2.7,4.7l-1.4,0.3c1.2-1.7,2.3-3.5,3.2-5.4
					c0.4-0.9,0.9-1.9,1-2.9c0.2-2.2-1-6.7-2.9-9.2c-1.2-1.6-5.2-2.1-7.8-2.4c-0.7-0.1-1.3-0.2-1.8-0.2c-0.8-0.1-1.8,0-2.7,0.1
					c-1,0.1-2.1,0.2-3,0c2.3-0.3,4.6-0.6,6.9-0.9c0.2,0,0.5,0.1,0.8,0.1c3,0.4,7,0.9,8.5,2.7C307.7,185.8,309,190.5,308.7,193z"/>
			</g>
			<g>
				<path class="st9" d="M293.3,197.8c-0.8,2.5-1.7,4.1-2.9,6.2l-1.2,0.2c1.2-2.1,2.5-4.3,3.2-6.7c0.8-2.6,0.7-5.1-0.1-7.1
					c-1.7-4-6.6-5.8-10.4-6.6c-0.9-0.2-1.9-0.4-2.8-0.5c-0.7-0.1-1.3-0.2-2-0.4c0.9-0.2,1.9-0.3,2.8-0.5c0.7,0.1,1.5,0.3,2.2,0.4
					c5.7,1.2,9.5,3.6,11.1,7.1C294.1,192.3,294.2,195,293.3,197.8z"/>
			</g>
			<g>
				<path class="st9" d="M283.6,195.1c0.1,2.7-0.3,8.3-3.9,11.3l-1.6,0c4.4-2.7,4.7-8.8,4.6-11.3c0-1-0.1-2.1-0.6-3
					c-0.6-1.3-1.9-2.2-3.1-2.9c-3.9-2.3-8.4-3.7-13-4.1c1-0.2,1.9-0.4,2.9-0.6c3.7,0.6,7.4,1.9,10.6,3.8c1.3,0.8,2.7,1.8,3.5,3.3
					C283.4,192.8,283.5,194,283.6,195.1z"/>
			</g>
			<g>
				<path class="st9" d="M277.8,201.4c-0.1,0.5-0.9,4.5-1.7,5c0,0-1.6,0.8-0.9,0c0.9-1.1,1.4-2.8,1.6-5.2c0.3-2.5-0.7-5.4-2.9-7.5
					c-2.2-2.1-5.2-3.3-7.5-4.1c-3.1-1.1-6.4-1.9-9.7-2.4c0.7-0.2,1.5-0.4,2.2-0.6c2.6,0.5,5.2,1.2,7.8,2c2.4,0.8,5.5,2.1,7.8,4.3
					C277,195.4,278.2,198.6,277.8,201.4z"/>
			</g>
			<path class="st9" d="M335.1,178.2c-2.1-0.3-4.3,0-6.3,0.3l-2.1,0.3l-1.6,0.2l-8.9,1.2l-1.5,0.2l-10.9,1.5l-2.1,0.3l-15.4,2.1
				l-2.1,0.3l-9.6,1.3c-0.2,0-0.4,0.1-0.7,0.1c-0.7,0.1-1.5,0.2-2.2,0.3c-1.2,0.2-2.4,0.4-3.5,0.6c-1.5,0.3-3,0.7-4.5,1.1
				c-0.6,0.2-1.1,0.3-1.7,0.5c-0.3,0.1-0.6,0.2-0.9,0.3l-1.5-0.1c0.4-0.1,1.9-1,2.3-1.1c2-0.7,4-1.2,6.1-1.6
				c0.4-0.1,0.8-0.2,1.3-0.2c0.8-0.2,1.7-0.3,2.5-0.4c0.9-0.1,1.8-0.3,2.7-0.4l7.1-0.9l2.6-0.4l14.5-1.9l3-0.4l11.3-1.5l1.8-0.2
				l8.6-1.2l1.8-0.2l3.4-0.5c1.1-0.1,2.3-0.3,3.5-0.4C333.2,177.4,334.2,177.7,335.1,178.2z"/>
			<path class="st9" d="M337.6,179.8c-2.2,0.9-4.4,1.7-6.7,2.3c-0.4,0.1-0.7,0.2-1.1,0.3c-3.1,0.8-6.2,1.4-9.3,1.9
				c-0.3,0.1-0.7,0.1-1,0.2c-4.1,0.6-8.2,1-12.3,1.3c-0.3,0-0.7,0.1-1,0.1c-0.6,0.1-1.2,0.1-1.9,0.2c-4.3,0.4-8.7,0.7-13,1.3
				c-0.4,0-0.8,0.1-1.2,0.2c-0.1,0-0.2,0-0.3,0c-3,0.4-6.1,1-9.1,1.6c-0.4,0.1-0.9,0.2-1.3,0.3c-2.4,0.5-4.8,1.1-7.2,1.8
				c-0.4,0.1-0.8,0.2-1.2,0.4c-0.2,0-1.4,0.5-1.6,0.5l0.9,0.7c0.5-0.1,1.3-0.4,1.8-0.5c0.4-0.1,0.8-0.2,1.2-0.3
				c2.4-0.7,4.8-1.2,7.2-1.8c0.4-0.1,0.8-0.2,1.2-0.2c2.8-0.6,5.6-1.1,8.3-1.4c0.3,0,0.7-0.1,1-0.1c0.4-0.1,0.7-0.1,1.1-0.1
				c4.1-0.5,8.3-0.8,12.3-1.2c0.7-0.1,1.5-0.1,2.2-0.2c0.3,0,0.7-0.1,1-0.1c4.1-0.3,8.3-0.7,12.4-1.4c0.3,0,0.6-0.1,1-0.1
				c3.3-0.5,6.5-1.2,9.7-2c0.3-0.1,0.6-0.2,0.9-0.3c2.3-0.7,4.5-1.4,6.7-2.4l-0.1-0.2L337.6,179.8z"/>
			<path class="st9" d="M340.7,186.2c-2.8,1.7-5.8,2.8-8.9,3.7c-0.3,0.1-0.7,0.2-1,0.3c-1,0.3-2,0.6-2.9,0.8c-2.5,0.7-5,1.4-7.6,2
				c-0.4,0.1-0.8,0.2-1.2,0.3c-1.6,0.4-3.2,0.7-4.7,1c-2.1,0.4-4.2,0.8-6.3,1.1c-0.4,0.1-0.7,0.1-1.1,0.2c-1.6,0.2-3.1,0.4-4.6,0.6
				l-8.8,1.2l-1,0.1l-9.1,1.2l-1,0.1l-4.6,0.6l-0.9,0.1l-1,0.1l0.1,0.9l0.9-0.1l1-0.1l4.3-0.6l1-0.1l8.9-1.2l1.1-0.1l9.2-1.2
				c1.3-0.2,2.6-0.4,3.9-0.5c0.4-0.1,0.8-0.1,1.2-0.2c2.3-0.3,4.7-0.7,7-1.2c1.3-0.3,2.6-0.5,3.8-0.8c0.4-0.1,0.9-0.2,1.3-0.3
				c2.8-0.7,5.7-1.5,8.4-2.2c0.8-0.2,1.6-0.4,2.4-0.7c0.4-0.1,0.7-0.2,1.1-0.3c3.1-0.9,6.3-2,9.2-3.7L340.7,186.2z"/>
			<path class="st9" d="M272.7,207.8l1-1.2c4.9-0.8,6.6-1.2,11.5-2.3c2.7-0.6,5.3-1.2,8-1.8l21.6-5c8.1-1.9,17.7-4.5,25.4-8
				c-0.3,0.6-0.6,1.1-1.1,1.7c-7.7,3.5-15.9,5.4-24,7.2l-21.6,5c-2.7,0.6-5.3,1.2-8,1.8C280.5,206.3,277.6,207,272.7,207.8z"/>
		</g>
		<path class="st3" d="M342.5,191.1c-1.1,2.2,4.5,3.7,1.8,5.4c-3.7,1.1-14.4,5.4-18.1,6.4c-21,6-37.9,6.5-59.6,7.5
			c2.6-2.1,2.5-3.8,5.2-5.2c6.2-3.1,35.7-6.7,52.2-12c10.5-3.4,11.8-13.2,6-16.5c2,0.2,4,0.7,5.8,1.7c4.5,2.5,6.8,9.5,2.9,13
			C339.9,191.4,341.2,191.2,342.5,191.1z"/>
	</g>
</g>
</svg>
