<?xml version="1.0" encoding="utf-8"?>
<!-- Generator: Adobe Illustrator 25.4.1, SVG Export Plug-In . SVG Version: 6.00 Build 0)  -->
<svg version="1.1" id="Layer_1" xmlns="http://www.w3.org/2000/svg" xmlns:xlink="http://www.w3.org/1999/xlink" x="0px" y="0px"
	 viewBox="0 0 387 289.6" style="enable-background:new 0 0 387 289.6;" xml:space="preserve">
<style type="text/css">
	.st0{fill:#478D6E;}
	.st1{opacity:0.2;fill:#478D6E;enable-background:new    ;}
	.st2{fill:#563B2C;}
	.st3{fill:#B06626;}
	.st4{fill:#FBBE5F;}
	.st5{fill:#FBE4C8;}
	.st6{opacity:0.86;fill:#FBE4C8;enable-background:new    ;}
	.st7{opacity:0.56;fill:#FBE4C8;enable-background:new    ;}
	.st8{opacity:0.47;fill:#FBBE5F;enable-background:new    ;}
	.st9{opacity:0.49;fill:#FBBE5F;enable-background:new    ;}
	.st10{fill:#3A1F22;}
	.st11{fill:#6A0006;}
	.st12{fill:#A4121A;}
	.st13{opacity:0.51;fill:#A4121A;enable-background:new    ;}
	.st14{fill:#F4AE8C;}
	.st15{opacity:0.5;fill:#F4AE8C;enable-background:new    ;}
	.st16{opacity:0.46;fill:#F4AE8C;enable-background:new    ;}
	.st17{fill:#759896;}
	.st18{opacity:0.3;fill:#759896;enable-background:new    ;}
	.st19{fill:#A0B4B3;}
	.st20{opacity:0.35;fill:#A0B4B3;enable-background:new    ;}
	.st21{opacity:0.58;fill:#F4AE8C;enable-background:new    ;}
	.st22{opacity:0.36;fill:#A0B4B3;enable-background:new    ;}
	.st23{opacity:0.47;fill:#FBE4C8;enable-background:new    ;}
	.st24{opacity:0.7;fill:#563B2C;enable-background:new    ;}
	.st25{opacity:0.32;fill:#FBE4C8;enable-background:new    ;}
	.st26{opacity:0.44;fill:#759896;enable-background:new    ;}
	.st27{opacity:0.76;fill:#A4121A;enable-background:new    ;}
	.st28{opacity:0.5;fill:#A0B4B3;enable-background:new    ;}
</style>
<g>
	<g>
		<g>
			<ellipse class="st0" cx="189.7" cy="224.2" rx="181.3" ry="46.8"/>
			<ellipse class="st1" cx="189.7" cy="224.2" rx="156.5" ry="36.8"/>
		</g>
		<g>
			<g>
				<path class="st2" d="M269.6,151.3l-5.6,34.5c-0.1,0.9-1,1.4-1.8,1.3c-0.8-0.1-1.4-0.9-1.3-1.6l2.3-35c0.1-1.8,1.6-3.1,3.4-3
					c1.8,0.1,3.1,1.6,3,3.4C269.6,151.1,269.6,151.2,269.6,151.3z"/>
				<path class="st2" d="M292.6,150.7l2.3,35c0.1,0.9-0.6,1.6-1.5,1.6c-0.9,0-1.5-0.5-1.6-1.3l-5.6-34.5c-0.3-1.7,1-3.4,2.7-3.8
					c1.7-0.3,3.4,1,3.8,2.7C292.5,150.4,292.5,150.6,292.6,150.7z"/>
				<path class="st3" d="M278.1,149.6c-8.7,0-26.5-0.5-26.5-0.5v7.1c0,3.6,11.9,6.5,26.5,6.5c14.6,0,26.5-2.9,26.5-6.5v-7.1
					C304.6,149.2,286.4,149.6,278.1,149.6z"/>
				<ellipse class="st4" cx="278.1" cy="149.2" rx="26.5" ry="6.5"/>
				<path class="st3" d="M264.8,158.4l-5.7,43.7c-0.1,0.9-1,1.5-1.8,1.4c-0.9-0.1-1.5-0.9-1.4-1.7l2.5-44c0.1-1.8,1.6-3.2,3.4-3.1
					s3.2,1.6,3.1,3.4C264.8,158.2,264.8,158.3,264.8,158.4z"/>
				<path class="st3" d="M298,157.4l2.5,44c0,1-0.6,1.7-1.6,1.7c-0.9,0-1.6-0.5-1.7-1.4l-5.7-43.7c-0.2-1.8,1.1-3.4,2.8-3.6
					c1.8-0.2,3.4,1.1,3.6,2.8C298,157.2,298,157.3,298,157.4z"/>
			</g>
			<g>
				<path class="st5" d="M287.8,126.7v20.2c0,1.4-1.5,2.5-3.4,2.5c-1.9,0-3.4-1.1-3.4-2.5v-20.2C283.3,127,285.7,127.1,287.8,126.7z
					"/>
				<path class="st6" d="M287.8,126.7v20.2c0,1.4-1.5,2.5-3.4,2.5c-1.9,0-3.4-1.1-3.4-2.5c0,0-0.4-3.6,0.3-7.7
					c0.3-1.7,1.4-3.1,3-3.9c3-1.5,3-5.9,3.2-8.6H287.8z"/>
				<path class="st5" d="M287.8,126.8c0,1.4-1.5,2.5-3.4,2.5c-1.9,0-3.4-1.1-3.4-2.5c0-0.6,1.5,0,3.4,0
					C286.2,126.8,287.8,126.3,287.8,126.8z"/>
				<path class="st5" d="M287.8,126.8c0,1.4-1.5,1.9-3.4,1.9c-1.9,0-3.4-0.5-3.4-1.9c0-0.6,1.5,0,3.4,0
					C286.2,126.8,287.8,126.3,287.8,126.8z"/>
				<path class="st2" d="M284.4,128.3c-0.1,0-0.1-0.1-0.1-0.2v-2.7c0-0.1,0.1-0.2,0.1-0.2c0.1,0,0.1,0.1,0.1,0.2v2.7
					C284.5,128.2,284.4,128.3,284.4,128.3z"/>
			</g>
			<g>
				<path class="st5" d="M284.3,134.8v14.4c0,1-2.7,1.7-5.9,1.7s-5.9-0.8-5.9-1.7v-14.4H284.3z"/>
				<path class="st7" d="M284.3,134.8v14.4c0,1-2.7,1.7-5.9,1.7s-5.9-0.8-5.9-1.7c0,0,4.9,0.9,8.3-2.9c3-3.4,2.4-9.3,2.7-11.6h0.9
					V134.8z"/>
				<path class="st5" d="M284.3,134.8c0,1-2.7,1.7-5.9,1.7s-5.9-0.8-5.9-1.7c0-1,2.7,0,5.9,0S284.3,133.8,284.3,134.8z"/>
				<path class="st5" d="M284.3,134.8c0,1-2.7,1.7-5.9,1.7s-5.9-0.8-5.9-1.7c0-1,2.7,0,5.9,0S284.3,133.8,284.3,134.8z"/>
				<path class="st2" d="M278.4,136.2c-0.1,0-0.2-0.1-0.2-0.2v-2.5c0-0.1,0.1-0.2,0.2-0.2s0.2,0.1,0.2,0.2v2.5
					C278.6,136.2,278.5,136.2,278.4,136.2z"/>
			</g>
		</g>
		<g>
			<g>
				<path class="st2" d="M71.1,90.6c-0.1,0-0.3-0.1-0.3-0.3V41.4c0-0.1,0.1-0.3,0.3-0.3c0.1,0,0.3,0.1,0.3,0.3v48.9
					C71.4,90.5,71.3,90.6,71.1,90.6z"/>
				<circle class="st2" cx="71.1" cy="90.9" r="1.1"/>
			</g>
			<g>
				<ellipse class="st2" cx="93.2" cy="212.2" rx="27" ry="6.8"/>
				<ellipse class="st3" cx="93.2" cy="208.8" rx="27" ry="6.8"/>
			</g>
			<path class="st2" d="M93.2,210.4c-1.1,0-2.1-0.9-2.1-2.1l-4.3-151c0-1.2,0.9-2.2,2.1-2.2c1.1,0,2.2,0.9,2.2,2.1l4.3,151
				C95.4,209.4,94.5,210.4,93.2,210.4C93.3,210.4,93.3,210.4,93.2,210.4z"/>
			<path class="st4" d="M122.2,60.6c-8-17.1-13.2-33.4-14.9-48.9H66.9c-1.7,16.3-6,32.6-12.8,48.9h0.2c-0.1,0.3-0.2,0.5-0.2,0.8
				c0,4,15.2,7.2,34,7.2s34-3.2,34-7.2c0-0.3-0.1-0.5-0.2-0.8H122.2z"/>
			<path class="st4" d="M107.3,11.6c0,2.3-9,4.3-20.2,4.3S66.9,14,66.9,11.6c0-2.3,9-4.3,20.2-4.3C98.3,7.4,107.3,9.3,107.3,11.6z"
				/>
			<path class="st8" d="M107.3,11.6c0,2.3-9,4.3-20.2,4.3S66.9,14,66.9,11.6c0-2.3,9-4.3,20.2-4.3C98.3,7.4,107.3,9.3,107.3,11.6z"
				/>
			<path class="st9" d="M122.2,60.6c-8-17.1-13.2-33.4-14.9-48.9c0,1.6-3.1,2.7-7.8,3.4C101.9,28,97.2,57,78.6,60
				c-8.5,1.4-18,1.2-23.4-2c-0.4,0.9-0.7,1.8-1,2.6h0.2c-0.1,0.3-0.2,0.5-0.2,0.8c0,4,15.2,7.2,34,7.2s34-3.2,34-7.2
				c0-0.3-0.1-0.5-0.2-0.8H122.2z"/>
		</g>
		<g>
			<path class="st3" d="M262.1,235c-4-0.6-11.4,2.1-11.4,2.1v1.6c0,0.6,0.7,1.1,2.2,1.5c0,0,13.7,3.5,18.6,3c4-0.4,7-2.3,7-3.6v-1.4
				C278.6,238.1,268.5,236,262.1,235z"/>
			<path class="st5" d="M253,238.7c0,0,13.7,3.5,18.6,3s8.3-3.2,6.6-4.4c-1.7-1.1-9-2.4-16.6-3.1C254.9,233.6,246.5,237.2,253,238.7
				z"/>
			<path class="st3" d="M275.4,234.1c0,0,0,0-5.2-1.5c-6.9-0.1-8.4,8-8.4,8c0.4,0.1,4.3,0.8,7.5,1.1c1.8,0.4,8.9-0.7,9.2-3.6
				C278.8,235.2,275.4,234.1,275.4,234.1z"/>
		</g>
		<g>
			<path class="st3" d="M249.4,240.3c-4-0.6-11.4,2.1-11.4,2.1v1.6c0,0.6,0.7,1.1,2.2,1.5c0,0,13.7,3.5,18.6,3c4-0.4,7-2.3,7-3.6
				v-1.4C265.9,243.4,255.8,241.3,249.4,240.3z"/>
			<path class="st5" d="M240.3,244c0,0,13.7,3.5,18.6,3s8.3-3.2,6.6-4.4c-1.7-1.1-9.9-1.5-16.6-3.1C242.3,238,233.8,242.5,240.3,244
				z"/>
			<path class="st3" d="M262.7,239.4c0,0,0,0-5.2-1.5c-6.9-0.1-8.4,8-8.4,8c0.4,0.1,4.3,0.8,7.5,1.1c1.8,0.4,8.9-0.7,9.2-3.6
				C266.2,240.5,262.7,239.4,262.7,239.4z"/>
		</g>
		<g>
			<path class="st10" d="M164.5,177.7l-2.1,34.3c-0.1,1.3-1.2,2.3-2.5,2.1c-1.2-0.1-2-1-2.1-2.1l-2.1-34.3c-0.1-2.5,1.7-4.6,4.2-4.7
				c2.5-0.1,4.6,1.7,4.7,4.2C164.5,177.3,164.5,177.5,164.5,177.7z"/>
			<path class="st2" d="M260.1,170.9l-2.6,33.9c-0.1,1.3-1.2,2.3-2.5,2.1c-1.2-0.1-2-1-2.1-2.1l-2.6-33.9c-0.2-2.7,1.8-5,4.5-5.3
				c2.7-0.2,5,1.8,5.3,4.5C260.1,170.4,260.1,170.7,260.1,170.9z"/>
			<path class="st2" d="M206.7,206.7l-2.9,37.1c-0.1,1.3-1.2,2.3-2.5,2.1c-1.2-0.1-2-1.1-2.1-2.1l-1.5-37.1
				c-0.1-2.5,1.8-4.5,4.3-4.6c2.5-0.1,4.5,1.8,4.6,4.3C206.7,206.2,206.7,206.4,206.7,206.7z"/>
			<path class="st11" d="M205.2,63.6c0,0-12.1-8.4-41,2.9c-29.9,11.6-25.4,34.7-21.7,46.3c5.6,17.1,10,36,8.8,60.9
				c-0.2,3.9,1.2,7.6,3.6,10.6l6.2,7.5L205.2,63.6z"/>
			<path class="st12" d="M219.5,148.8l-60.9,18.6c0,0,4.3-14.5-1-29.4c-8.4-23.7-16.2-56.2-0.4-65c25.6-14.4,39.5-11.5,45.7-10.3
				c7.3,1.4,11.6,21.7,13.8,42.9C219.1,127.3,219.5,148.8,219.5,148.8z"/>
			<path class="st11" d="M266.1,158.7c0,0,8.2,22.9-2.9,31.9c-3.3,2.7-8.3,5.5-12.7,10c-11.7,11.9-33.6,15.8-48.2,13.7
				c-29.2-4.1-45.2-27.5-45.2-27.5l1.5-19.3L266.1,158.7z"/>
			<path class="st13" d="M219.5,148.8l-60.9,18.6c0,0,4.3-14.5-1-29.4c6.2-9.1,3-17.9,7.2-31.9c4.8-16.1,28.5-10.5,51.9-0.5
				C219.1,127.3,219.5,148.8,219.5,148.8z"/>
			<path class="st12" d="M158.7,167.5l59.6-23.3c0,0,41.3,5.8,47.7,14.6c3.3,4.6-13.3,10.4-22.7,25.3c-1.8,2.9-5.5,4.6-11.5,4.7
				c-4.8,0.1-9.7,6-14.7,4.2c-1.8-0.6-3.8-1.2-5.7-1.3C182.6,191,158.7,167.5,158.7,167.5z"/>
			<path class="st11" d="M218,118.6c0,0,23.4-0.4,30.1,6.3c4.3,4.3,3.4,11.4,2.9,15.7c-0.5,4.2-1.1,10.6-1.1,10.6l-2.7,1.2
				l-28.2-13.9L218,118.6z"/>
			<path class="st12" d="M249.3,136.6c-0.5,6.2-1.2,10.8-1.6,13.4c-0.3,1.5-0.4,2.4-0.4,2.4l-32.5-5.3l3.4-2.9l-0.3-25.5
				c0,0,12.7,0,21.7,2.9C246,123.6,250,130,249.3,136.6z"/>
			<path class="st13" d="M247.7,150c-0.3,1.5-0.4,2.4-0.4,2.4l-29.1-8.2l-0.3-25.5c11,0.1,19.2,1.6,24.9,4.5c0,0,1,14.7,2.1,19.8
				C245.4,144.7,245.7,148.3,247.7,150z"/>
			<g>
				<path class="st14" d="M220.8,196.6c-4.9-0.9-7-3.5-8.2-5.8c-0.3-0.6-4-5.4-6.7-7.8c-0.6-0.6-1-1.3-1.2-1.9c0-0.1,0-0.1,0-0.2
					v-0.1c0-0.2,0-0.3,0-0.5c0.1-1.9,1.6-3.9,1.9-4.3c1.3-2,1.3-5.9,1.3-5.9s0.1,0,0.2-0.1c1.5-0.8,11.5-5.4,9.8,0.2
					c-0.1,0.3-0.2,0.8-0.3,1.1c-0.5,2.1-0.5,4-0.3,5.6c0.3,2.3,1.2,3.9,1.5,4.7c0.5,1.7,3.8,8.5,5.7,10.8
					C227.6,193.4,227.8,197.8,220.8,196.6z"/>
				<path class="st14" d="M218.8,85.8c0,0-2-3.5-2.1-5c-0.2-1.5,1.4-10.1-0.1-12.3c-1.4-2-10.7,8.5-11,10.8s3.2,3.3,3.8,4.3
					c0.5,1,1.6,4.4,1.6,4.4L218.8,85.8z"/>
				<path class="st15" d="M217.3,176.5L217.3,176.5c0,0-1.2,2-5.4,0.9c-4.3-1.3-5-1-5.4-0.5c-0.2,0.3-1.6,2-1.7,3.3
					c0.1-1.9,1.6-3.9,1.9-4.3c1.3-2,1.3-5.9,1.3-5.9s0.1,0,0.2-0.1l5.6,0.2l3.9,1C217,173.1,217,175,217.3,176.5z"/>
				<path class="st16" d="M216.2,69.3c0,0-1,4.2-1.4,5.5c-0.4,1.3-1.3,3.2-1.4,4c-0.1,0.8-0.6,2-1.5,2s-3.9,1.6-3.9,1.6
					S200.9,70.6,216.2,69.3z"/>
				<path class="st14" d="M232.2,187.2c-3-4-9.5-8.6-10.5-9c-3.2-1.7-2.1-4.4,0.2-7.3c0-0.1,0.9-1.9,1.1-3.1c0-0.1,0.1-0.3,0.1-0.4
					c0.2-1,0.4-2,0.8-3c0-0.2,0.1-0.4,0.1-0.5c0.4-1.6,0.6-2.9,0.8-3.1l8.5,2.8c-0.1,0.4-0.1,0.9-0.3,1.5c0,0.3-0.1,0.8-0.3,1.2
					c0,0.2-0.1,0.3-0.1,0.5c-0.2,1.1-0.4,2.4-0.8,3.6c-1.2,4.5,7.4,11.3,8.3,12C241.7,183.9,239.1,196.4,232.2,187.2z"/>
				<path class="st15" d="M232.6,165.5c0,0.2-0.1,0.4-0.1,0.6c0,0.2-0.1,0.3-0.1,0.5c-0.2,1.1-0.5,2.4-0.8,3.6
					c-1.2,0.5-3.8,0.1-5.4-0.4c-1.4-0.4-3.2-1.5-3.3-2.6c0-0.1,0-0.1,0-0.2c0.3-1.2,0.3-1.5,0.6-2.8l0,0L232.6,165.5z"/>
				<path class="st3" d="M239.8,128.5c-0.5,4.5-3.8,34.4-4.8,38.8c-0.9,3.5-13.3,0.8-12.8-2.5v-0.1c0.2-1.3,0.4-3.5,0.8-6.2
					c0.6-5.9,1.5-13.5,1.6-15.7l-11.3,13c-4.9,6.9-16.1,12.4-22.9,7.5c-6.9-4.9-11.7-12.3-6.8-19.2c0.8-1,38-30.8,38-30.8
					c3.9-3.1,11.8-3.6,15.2-0.1C239.8,116.3,240.3,124,239.8,128.5z"/>
				<path class="st3" d="M224.5,142.8c0,0,6.2-18.7,9.1-20.4C234.6,123.8,224.4,145,224.5,142.8z"/>
				<path class="st17" d="M225.3,111c-0.2,2.5-2,4.4-4.4,4.8l-0.5,0.1c-1.9,0.3-3.4,0-4.6-0.2c-1.2-0.3-2-0.6-2.9-1.1
					c-1.6-0.8-3-1.6-4.2-2.5c-2-1.4-3.9-2.8-5.6-4.3c-0.4-0.3-0.8-0.6-1.2-1c-2-1.8-4.1-3.6-6-5.6c-1.9-1.9-6.5-10.5-5.1-18.3
					c0.9-4.8,9.1-3,12.4,0.6c0.3,0.4,3.5,5.4,4.9,7.4c1.4,2,2.8,4,4.3,5.8c0.1,0.1,0.1,0.2,0.2,0.1c0,0,0-0.1,0-0.2
					c-0.1-0.6-0.9-2.6-1.2-4c-0.6-2.8-1.6-5-1.6-5c-0.2-1.3,4.5-3.1,7.6-3.4c1.2-0.1,2.1-0.1,2.4,0.3c0.9,2,1.5,4.1,2.3,6.1
					c0.6,2,1.3,4.2,1.8,6.3s1,4.3,1.3,6.7C225.3,105.8,225.5,108.3,225.3,111z"/>
				<path class="st2" d="M216.9,58.5c1.2,4.1,0.9,8.6-1.6,12.1c-6.9,9.9-25.5,15-33.3,17.8c-8.9,3.2,6.1-10.2,2.7-24.9
					c-2.6-11.2,10.8-16.7,13.8-17.4C204.5,44.7,213.8,48.1,216.9,58.5z"/>
				<path class="st18" d="M225.1,103.6c-0.3-2.4-0.8-4.5-1.3-6.7c1.9,7.5,0.5,19.3-4.2,13.4c-1.4-3.6-4.2-9.3-5.8-12
					c-0.9-2.6-2-6.7-1.5-8.6c0.9-2.9,4.5-4.8,4.5-4.8l0.6-0.8c-3,0.3-7.8,2.1-7.6,3.4c0,0,1.1,2.3,1.6,5c0.3,1.4,1.1,3.4,1.2,4
					l0.2,0.3c0-0.1-0.1-0.1-0.1-0.1c-0.1-0.1-0.1-0.1-0.2-0.1c1,2,5,10.4,3.2,10.5c-2.1,0.1-9.7-5.9-9.7-5.9l-2.9,6.5
					c1.7,1.4,3.5,2.9,5.6,4.3c1.3,0.9,2.6,1.7,4.2,2.5c0.9,0.4,1.7,0.8,2.9,1.1c1.2,0.3,2.7,0.5,4.6,0.2l0.5-0.1
					c2.4-0.3,4.2-2.4,4.4-4.8C225.5,108.3,225.3,105.8,225.1,103.6z"/>
				<path class="st19" d="M206.1,105.6L206.1,105.6c0,0.5-0.1,1-0.2,1.5v0.1v0.1l0,0c-0.4,1.8-4.3,20-0.6,25.4
					c4,5.8-8.5,11.3-14.6,14.6c-1.9,1.1-9.2,3-11,4.7c-4.5,4.1-6.7,14.1-8,13.1c-6.9-5-7-13.8-4.7-21.6c2-7,2.1-14.3,0.5-21.3
					c-2.8-12.7-2.9-27-2.8-27.5c0.5-3.6,1.4-4,1.7-4.7c3-6.3,18.5-12.9,26.7-12.1c11.6,1.1,10.6,6.8,11.3,14.2
					c0,0.4,0.1,0.9,0.1,1.4c0.2,1.6,0.5,3.3,1.1,4.9c0.3,1,0.5,1.9,0.6,2.9c0.1,0.4,0.1,1,0.1,1.4
					C206.3,103.6,206.2,104.6,206.1,105.6z"/>
				<path class="st14" d="M202,70.8L195.4,82c2.9,4.8-2.5,10-5.8,8.7c-2.4-0.9-6-2.7-7.1-5.8c-0.5-1.5-0.2-3.2,0.8-4.5
					c1.5-1.8,7-8.3,7.4-8.7C193.1,68.8,202.6,69.2,202,70.8z"/>
				<g>
					<g>
						<path class="st5" d="M204.4,93.4c-1.8,0.8-3.8,1.4-5.5,2.4c-0.9,0.5-1.7,1.1-2.8,1.2c-1.2,0.2-2.3-0.1-3.4,0
							c-2.1,0.1-4,1.7-6.1,1.9c-1.3,0.1-2.5-0.2-3.6-0.1c-1.4,0.2-2.7,0.8-4,1.4c-0.8,0.3-1.5-0.9-0.6-1.2c1.2-0.5,2.4-1.1,3.5-1.4
							c1.2-0.3,2.4-0.2,3.5-0.1c2.4,0.2,4.2-1.4,6.4-1.8c1.2-0.2,2.3,0,3.4,0c1.5,0,2.4-0.9,3.6-1.5c1.7-0.9,3.5-1.5,5.4-2.3
							C204.3,92.4,204.3,92.9,204.4,93.4z"/>
					</g>
					<g>
						<g>
							<path class="st17" d="M182.2,102.5c1,0.2,2,0.5,3,0.8c0.2,0.1,0.5-0.1,0.5-0.3c0.1-0.2-0.1-0.5-0.3-0.5c-1-0.2-2-0.5-3-0.8
								c-0.2-0.1-0.5,0.1-0.5,0.3C181.7,102.2,181.9,102.5,182.2,102.5L182.2,102.5z"/>
						</g>
						<g>
							<path class="st17" d="M185.1,100.9c-0.3,0.2-0.6,0.4-0.9,0.8c-0.1,0.1-0.2,0.3-0.3,0.4s-0.1,0.1-0.2,0.2c-0.1,0.1,0.1,0,0,0
								c0,0-0.1,0-0.1,0.1c-0.5,0.4-1.3,0.8-1.5,1.5c0,0.2,0.1,0.5,0.3,0.5c0.2,0,0.5-0.1,0.5-0.3V104l0,0c0,0,0,0.1,0,0
								c0,0,0-0.1,0.1-0.1c0,0,0.1-0.1,0,0l0.1-0.1c0,0,0,0,0.1-0.1s-0.1,0,0,0c0.2-0.2,0.5-0.3,0.8-0.5c0.3-0.2,0.5-0.4,0.8-0.8
								c0.1-0.1,0.2-0.2,0.3-0.4c0.1-0.1,0.1-0.1,0.2-0.2c-0.1,0.1,0,0,0,0l0.1-0.1c0.2-0.1,0.3-0.4,0.1-0.6
								C185.6,100.8,185.4,100.8,185.1,100.9L185.1,100.9z"/>
						</g>
						<g>
							<path class="st17" d="M183.1,100.5c0,1.5,0.4,2.9,1.1,4.2c0.3,0.5,1.1,0.1,0.8-0.4c-0.6-1.2-1-2.5-1-3.8
								C184,99.8,183,99.8,183.1,100.5L183.1,100.5z"/>
						</g>
						<g>
							<path class="st17" d="M181.7,103.7c1.5-0.4,3-1,4.5-1.4c0.5-0.2,0.3-1.1-0.2-0.9c-1.5,0.4-3,1-4.5,1.4
								C181,103,181.2,103.9,181.7,103.7L181.7,103.7z"/>
						</g>
					</g>
					<g>
						<g>
							<path class="st17" d="M192.9,99c0.3,1,0.6,1.9,0.9,3c0.1,0.2,0.3,0.4,0.5,0.3s0.4-0.3,0.3-0.5c-0.3-1-0.5-1.9-0.9-3
								c-0.1-0.2-0.3-0.4-0.5-0.3C193,98.4,192.8,98.7,192.9,99L192.9,99z"/>
						</g>
						<g>
							<path class="st17" d="M195.9,100.7c-0.6-0.3-1.4-0.2-2-0.5c-0.6-0.3-1.3-0.8-2-0.5c-0.2,0.1-0.4,0.3-0.3,0.5
								c0.1,0.2,0.3,0.4,0.5,0.3c0.2-0.1,0.4,0,0.6,0.1c0.3,0.1,0.6,0.3,0.9,0.4c0.5,0.2,1.3,0.1,1.8,0.4
								C195.9,101.7,196.3,100.9,195.9,100.7L195.9,100.7z"/>
						</g>
						<g>
							<path class="st17" d="M195.2,98.6c-1.3,0.8-2.3,1.8-3.1,3.1c-0.1,0.2,0,0.5,0.1,0.6c0.2,0.1,0.5,0,0.6-0.1
								c0.3-0.6,0.8-1.1,1.2-1.6c0.5-0.5,1-0.9,1.5-1.3c0.2-0.1,0.3-0.4,0.1-0.6C195.7,98.6,195.4,98.5,195.2,98.6L195.2,98.6z"/>
						</g>
						<g>
							<path class="st17" d="M191.7,99.2c1.2,1.1,2.4,2.1,3.5,3.2c0.2,0.2,0.4,0.2,0.6,0c0.2-0.2,0.2-0.4,0-0.6
								c-1.2-1.1-2.4-2.1-3.5-3.2c-0.2-0.2-0.4-0.2-0.6,0C191.5,98.7,191.5,99.1,191.7,99.2L191.7,99.2z"/>
						</g>
					</g>
					<g>
						<g>
							<path class="st17" d="M202.2,96.3c-0.6,0.9-1.3,1.6-1.9,2.5c-0.1,0.2-0.2,0.4,0,0.6c0.1,0.1,0.4,0.2,0.6,0
								c0.6-0.9,1.3-1.6,1.9-2.5c0.1-0.2,0.2-0.4,0-0.6C202.7,96.2,202.3,96.1,202.2,96.3L202.2,96.3z"/>
						</g>
						<g>
							<path class="st17" d="M202.4,99.7c-0.1-0.8-0.6-1.4-0.8-2.1c-0.1-0.3-0.1-0.6-0.2-1c-0.1-0.4-0.3-0.6-0.6-1
								c-0.2-0.1-0.5,0-0.6,0.1c-0.1,0.2,0,0.4,0.1,0.6l0.1,0.1l0.1,0.1c0,0,0,0.1,0,0v0.1c0,0.1,0,0.1,0,0.2
								c0.1,0.3,0.1,0.6,0.1,0.9c0.1,0.3,0.2,0.6,0.3,1s0.3,0.5,0.3,0.9c0,0.2,0.2,0.4,0.4,0.4C202.2,100.2,202.6,100,202.4,99.7
								L202.4,99.7z"/>
						</g>
						<g>
							<path class="st17" d="M203.6,98c-1.3-0.5-2.8-0.8-4.2-0.6c-0.2,0-0.4,0.2-0.4,0.4c0,0.2,0.2,0.4,0.4,0.4
								c1.4-0.1,2.7,0.1,4,0.6c0.2,0.1,0.5-0.1,0.5-0.3C204.1,98.3,203.8,98.1,203.6,98L203.6,98z"/>
						</g>
						<g>
							<path class="st17" d="M201.3,95.5c-0.2,1.6-0.4,3.1-0.5,4.7c0,0.2,0.2,0.4,0.4,0.4s0.4-0.2,0.4-0.4c0.2-1.6,0.4-3.1,0.5-4.7
								c0-0.2-0.2-0.4-0.4-0.4C201.5,95.1,201.3,95.3,201.3,95.5L201.3,95.5z"/>
						</g>
					</g>
					<g>
						<path class="st5" d="M206.2,102.6c-0.2,0-0.4-0.1-0.6-0.1c-0.5,0-0.5,0.1-0.9,0.5c-0.2,0.3-0.5,0.8-0.8,1.1
							c-0.6,0.9-1.4,1.5-2.5,1.3c-0.6-0.1-1.2-0.5-1.7-0.6c-1-0.2-1.6,0.3-2,1.1c-0.5,0.8-1,2.4-2,2.5c-0.5,0.1-1.2-0.3-1.6-0.5
							s-0.8-0.4-1.1-0.5c-0.2-0.1-0.9-0.5-1.2-0.5c-0.6,0-1.7,1.3-2.3,1.7c-0.5,0.4-1.1,1.1-1.7,1.3c-1.2,0.5-2.6-0.4-3.6-1
							c-0.4-0.2-1.1-0.6-1.5-0.4c-0.3,0.1-0.6,0.8-0.8,1c-0.5,0.6-1.1,1.3-1.5,2c-0.5,0.6-1.5-0.3-1-1c0.6-0.8,1.2-1.5,1.8-2.4
							c0.3-0.4,0.8-1.1,1.3-1.2c0.6-0.1,1.3,0.3,1.8,0.5c0.8,0.3,1.7,1,2.5,1.1c0.9,0.1,2-1.2,2.7-1.7c0.5-0.4,1.1-1.1,1.7-1.3
							c1.3-0.5,2.7,1,3.8,1.3c1,0.3,1.2-0.9,1.6-1.5c0.3-0.4,0.6-0.9,1.1-1.2c1.1-0.9,2.1-0.6,3.2-0.2c0.3,0.1,0.8,0.4,1.1,0.3
							c0.6-0.1,0.9-0.8,1.2-1.2c0.3-0.5,0.6-1.2,1.2-1.6c0.4-0.3,0.9-0.2,1.4-0.1c0.1,0,0.2,0,0.3,0
							C206.1,101.7,206.2,102.2,206.2,102.6z"/>
					</g>
					<g>
						<path class="st12" d="M206.1,105.6l-0.3,1.7l0,0c-8.8,4.6-15.6,7.1-25.5,7.7l0,0c-0.4,0-1,0.1-1.2,0.1c0-0.8,0-1.2,0-1.3
							c0.3,0,0.6,0,1-0.1C189.7,113,197.5,110.3,206.1,105.6z"/>
					</g>
					<g>
						<path class="st12" d="M187,106.2c0.9,0,0.9-1.4,0-1.4C186.1,105,186.1,106.2,187,106.2L187,106.2z"/>
					</g>
					<g>
						<path class="st12" d="M195,104.4c0.9,0,0.9-1.4,0-1.4S194.2,104.4,195,104.4L195,104.4z"/>
					</g>
					<g>
						<path class="st12" d="M201.9,102.6c0.9,0,0.9-1.4,0-1.4C201.1,101.2,201.1,102.6,201.9,102.6L201.9,102.6z"/>
					</g>
					<g>
						<path class="st17" d="M183.7,111.9c0.9,0,0.9-1.4,0-1.4S182.8,111.9,183.7,111.9L183.7,111.9z"/>
					</g>
					<g>
						<path class="st17" d="M191.5,110.1c0.9,0,0.9-1.4,0-1.4C190.6,108.8,190.6,110.1,191.5,110.1L191.5,110.1z"/>
					</g>
					<g>
						<path class="st17" d="M199.1,107.6c0.9,0,0.9-1.4,0-1.4C198.3,106.2,198.3,107.6,199.1,107.6L199.1,107.6z"/>
					</g>
					<g>
						<path class="st17" d="M205.2,105.6c0.9,0,0.9-1.4,0-1.4C204.4,104.2,204.4,105.6,205.2,105.6L205.2,105.6z"/>
					</g>
					<g>
						<path class="st17" d="M204.4,113c-0.1,0.3-0.2,0.8-0.3,1.1c-0.1,0.1-0.3,0.1-0.5-0.1c-0.5-0.3-1.1-0.8-1.7-1
							c-0.6-0.3-0.9-0.3-1.2,0.3c-0.4,0.6-0.6,1.4-1.3,1.9c-0.5,0.4-1.3,0.6-1.9,0.4c-0.8-0.2-1.2-0.9-1.8-1.2
							c-0.5,0.6-0.8,1.5-1.4,2c-0.8,0.6-1.9,0.9-2.9,0.8c-0.5-0.1-1.1-0.3-1.6-0.6c-0.6-0.3-1.2-0.9-1.7-0.1c-0.3,0.4-0.4,1-0.8,1.4
							c-0.3,0.4-0.8,0.9-1.3,1.2c-0.8,0.5-1.4-0.6-0.6-1.2c1.1-0.8,1.2-2,2-2.8c0.8-0.6,1.7-0.4,2.5,0c1.1,0.5,2.4,1.4,3.5,0.3
							c0.6-0.6,0.8-1.7,1.6-2.3c0.8-0.5,1.5,0.3,2.1,0.8c0.4,0.3,0.9,0.6,1.4,0.2c0.4-0.3,0.6-0.9,0.9-1.3c0.4-0.8,0.9-1.5,1.8-1.6
							c1.1-0.1,2.3,1,3.1,1.5C204.3,112.9,204.4,112.9,204.4,113z"/>
					</g>
					<path class="st11" d="M180.2,115c-0.4,0-1,0.1-1.2,0.1c0-0.8,0-1.2,0-1.3c0.3,0,0.6,0,1-0.1L180.2,115z"/>
				</g>
				<path class="st20" d="M203,131.8c0,0-27.4,15.8-30.4,9.5c-0.4-1,2.3-1.2,6-2.7c3.3-1.4,4.2-5.8,1.7-8.4
					c-6.9-6.9-14.3-20.1-14.2-30.4l11-6.3c0,0,9.5,9.8,15.1,15.1c1.8,1.7,4.6,1.9,6.7,0.4c2.8-2,5.5-4.2,7.2-5.8
					C210.4,99.6,203,131.8,203,131.8z"/>
				<path class="st4" d="M232.8,130.2c-0.1-5.7-1.6-7.3-2.7-8.7c-2.6-3.3-9.7-5.7-14.2-1.4c-3.3,1.4-41.9,26.6-44.1,30.6
					c-1.5,2.7-4.2,12,1.3,16.2c13,10,25.1-1.4,26.6-2.8l4.4-4.1c1.7-1.6,3.3-3.2,5-4.8c0,0.1-3.3,15.6-3.3,15.6
					c-1,4.9,11.8,6,13.6,3c0.9-1.4,11.5-32.8,12.2-36C232.5,134.6,232.8,130.2,232.8,130.2z"/>
				<path class="st3" d="M209.3,155.2c0,0,11.5-19.8,12.4-20.8C220.9,139.4,209.3,155.2,209.3,155.2z"/>
				<path class="st17" d="M185.9,77.4c0,0-4.6,6.5,1.9,9.7c6.4,3.1,7.4-5.1,7.4-5.1s1.9,2.8,2.3,5.3c0.5,4.5-1.8,5.3-5.4,6
					c-4.2,0.9-9.1-1.6-10.9-4.4C179.5,86,179.7,78.8,185.9,77.4z"/>
				<path class="st19" d="M187.6,77.3c0,0-5.9,5.8,0.3,8.7c6,2.9,7.4-4,7.4-4s1.1,2.8,1.4,5.1c0.3,2.1,0.1,4.5-3.8,5.3
					c-4,0.8-8.7-0.5-10.9-4C180.4,85.8,180.8,76.1,187.6,77.3z"/>
				<path class="st21" d="M196.8,80.5c0,0,4,5.1,0.9,6.8c-3.1,1.6-7.3-5.6-8.2-7.7c-0.3-1-1.5-1.4-2.5-1.1c-1.7,0.6-3.9,1.9-3.9,1.9
					l6.1-7.2C189.7,72.7,196.8,80.5,196.8,80.5z"/>
				<path class="st22" d="M182.9,83c0.5,4.1,6.7,7,10.4,5.5c3.4-1.4,2-6.5,2-6.5s-1.3,6.9-7.4,4c-3.5-1.7-3.6-5-0.3-8.7
					C185.4,77.3,182.5,79.8,182.9,83z"/>
				<g>
					<path class="st5" d="M223.9,96.3l-6.1,2.5c-1.3,0.5-2.8-0.1-3.3-1.4l-3.8-9.4l10.9-4.3l3.8,9.4
						C225.8,94.2,225.2,95.7,223.9,96.3z"/>
					<path class="st5" d="M212.9,96.4c-0.8,0.3-1.5,0.4-2.4,0.2c-0.9-0.2-1.5-0.9-1.9-1.9c-0.4-1.1-0.4-2,0.1-2.9
						c1-1.6,3.3-1.8,3.4-1.8l0.1,1c0,0-2,0.2-2.8,1.4c-0.3,0.5-0.3,1.2,0,2c0.3,0.8,0.8,1.2,1.3,1.4c1.2,0.3,2.8-0.8,3.3-1.1
						l0.5,0.8C214.7,95.3,213.9,96,212.9,96.4z"/>
					<path class="st23" d="M216,94.2l-2.9-7.4l-2.5,1l2.9,7.4C214.6,97.7,216.9,96.7,216,94.2z"/>
					<path class="st5" d="M219,84.6l2.9,7.4c1.7,4-0.1,5.1-0.1,5.1c2.5-1,3.6-3.8,2.7-6.2l-2.9-7.4L219,84.6z"/>
					<path class="st5" d="M221.5,83.5c0.4,1.1-1.6,3-4.6,4.2c-3,1.2-5.8,1.3-6.2,0.1c-0.4-1.1,1.6-3,4.6-4.2
						C218.3,82.4,221.1,82.4,221.5,83.5z"/>
					<path class="st5" d="M221.5,83.5c0.4,1.1-1.6,3-4.6,4.2c-3,1.2-5.8,1.3-6.2,0.1c-0.4-1.1,1.6-3,4.6-4.2
						C218.3,82.4,221.1,82.4,221.5,83.5z"/>
					<path class="st2" d="M210.8,88.3c0,0,0-0.4,0.6-0.8c0.6-0.3,0.6-1,1-1.3c0.3-0.3,1-0.6,2-0.8c1,0,1.6,0,1.8-0.3
						c0.2-0.3,0.2-0.5,1.4-0.8c1.1-0.3,1.1-0.1,1.3,0.1s1.3-0.4,1.4-0.4c0.2-0.1,0.4-0.2,0.8,0c0.1,0.1,0.8,0.1,0.8,0.3
						c0,0.1-1.2,2.1-4.5,3.4C213.9,89.1,211.2,88.9,210.8,88.3z"/>
					<g>
						<path class="st24" d="M216.1,85.7c0,0,0.6-0.5,1.1-0.6c0.4-0.1,0.5-0.5,0.8-0.5c0.1,0,1,0.5,0.4,0.8s-0.9,0.3-1.1,0.3
							s-0.4,0.4-0.6,0.5C216.5,86.2,216.1,85.7,216.1,85.7z"/>
						<path class="st24" d="M221,84.8c-0.3,0.1-0.4,0.2-0.5,0.4c0,0.1,0.2,0.2,0.2,0.3c0,0.1,0.2,0.4-0.3,0.6
							c-0.5,0.2-1,0.2-1.1,0.4c-0.1,0.1-1,0.4-0.9,0.2c0-0.2-0.5,0.1-0.6,0.1c-0.4,0,0.1-0.3-0.2-0.3c-0.2,0,0-0.4,0.4-0.8
							c0.5-0.2,1.8-1.5,1.9-1.6C220.7,83.7,221.3,84.6,221,84.8z"/>
						<path class="st24" d="M211.7,87.8c-0.3,0.1-0.5,0.1-0.5,0.3c-0.1,0.3,0.6,0.8,0.9,0.6c0.3-0.1,1.3-0.2,1.5-0.3
							c0.2-0.1,0.8-0.2,0.8-0.4c0.1-0.3-0.3-0.4,0-0.5c0.2-0.1,0.3-0.3,0.3-0.3c-0.1-0.2,0.2-0.2,0.3-0.2s0.6-0.2,0.6-0.1
							c0,0.2,0,0.5-0.2,0.6s-0.3,0.6,0,0.5c0.2-0.1,0.1,0.3,0.3,0.2c0.1,0,1.4-0.5,1.4-0.8s-0.1-0.4,0.1-0.5c0.2-0.2,0-0.4,0.1-0.4
							c0.1-0.1,0.2-0.1,0.2-0.2s0.2-0.4,0-0.4c-0.3,0-1.3,0.8-1.3,0.8l-1.5-0.4L211.7,87.8z"/>
					</g>
					<path class="st10" d="M215.3,83.6c3-1.2,5.8-1.3,6.2-0.1c0.4,1.1-1.6,3-4.6,4.2c-3,1.2-5.8,1.3-6.2,0.1
						C210.2,86.7,212.3,84.9,215.3,83.6L215.3,83.6z M215.2,83.3c-2.8,1.1-5.5,3.1-4.8,4.7c0.6,1.6,4,1.2,6.8,0.1
						c2.8-1.1,5.5-3.1,4.8-4.7C221.3,81.8,218,82.2,215.2,83.3L215.2,83.3z"/>
					<g>
						<path class="st5" d="M214.5,86.9L214.5,86.9l-1,1.2l-0.3-0.3l-1.2-1.1l0.9-0.8l0,0c0.1-0.1,0.1-0.1,0.2-0.2
							c0.2-0.1,0.5-0.2,0.8-0.2s0.5,0.2,0.8,0.6C214.7,86.5,214.7,86.8,214.5,86.9z"/>
						<path class="st5" d="M214.5,86.9L214.5,86.9l-1,1.2l-0.3-0.3c0.3-0.2,0.9-0.8,1.1-1.3c0.1-0.4-0.1-0.9-0.3-1
							c0.2,0,0.5,0.2,0.8,0.6C214.7,86.5,214.7,86.8,214.5,86.9z"/>
						<path class="st5" d="M211.6,87.6c0.4-1.3,1.4-1.5,2-0.1C214.3,88.8,211.1,88.9,211.6,87.6z"/>
						<path class="st25" d="M211.6,87.6c0.4-1.3,1.4-1.5,2-0.1C214.3,88.8,211.1,88.9,211.6,87.6z"/>
					</g>
					<g>
						<path class="st5" d="M220.6,84c-0.1,0.2,0,0.4-0.1,0.6c-0.1,0.3-0.5,0.4-0.5,0.5c-0.1,0.3-1.6,0.3-1.9,0.3c0,0-0.1,0-0.1-0.1
							s-0.1-0.3-0.1-0.4c-0.1-0.3-0.1-0.5-0.1-0.9c0-0.1,0-0.1,0.1-0.1c1.1-0.2,1.9-0.3,2.6-0.2C220.4,83.8,220.7,83.9,220.6,84z"/>
						<path class="st5" d="M220.6,84.3c0,0.3-0.3,0.6-0.6,0.9c-0.3,0.3-1.6,0.3-1.9,0.3c0,0-0.1,0-0.1-0.1s-0.1-0.3-0.1-0.4
							c0.2,0.1,0.4,0.2,0.8,0.1C219.2,85,220.3,84.6,220.6,84.3z"/>
					</g>
					<g>
						<path class="st5" d="M216.8,85.3c-0.1,0.1,0,0.3-0.1,0.5c-0.1,0.2-0.4,0.3-0.5,0.4c-0.1,0.2-1.4,0.3-1.6,0.3
							c0,0-0.1,0-0.1-0.1s-0.1-0.2-0.1-0.4c0-0.2-0.1-0.4-0.1-0.8v-0.1c0.9-0.2,1.7-0.2,2.1-0.1C216.6,85.1,216.8,85.2,216.8,85.3z"
							/>
						<path class="st5" d="M216.7,85.5c0,0.3-0.3,0.5-0.5,0.8c-0.3,0.2-1.4,0.3-1.6,0.3c0,0-0.1,0-0.1-0.1s-0.1-0.2-0.1-0.4
							c0.1,0.1,0.3,0.1,0.6,0.1C215.6,86.2,216.5,85.8,216.7,85.5z"/>
					</g>
					<g>
						<path class="st5" d="M215.1,87.2c0,0,0.3,1,1.1,0.6c0.8-0.3,0.6-0.9,0.5-1.1c-0.2-0.2-0.8-0.6-1.1-0.3
							C215.1,86.6,215.1,87.2,215.1,87.2z"/>
						<path class="st5" d="M215.5,86.3c0,0,1-0.5,1.6-0.5s-0.5,1.6-0.5,1.6L215.5,86.3z"/>
						<path class="st5" d="M215.1,87.2c0,0,0.3,1,1.1,0.6c0.8-0.3,0.6-0.9,0.5-1.1c-0.2-0.2-0.8-0.6-1.1-0.3
							C215.1,86.6,215.1,87.2,215.1,87.2z"/>
					</g>
					<g>
						<path class="st5" d="M218.1,86.5L218.1,86.5h1v-0.3v-1.1l-0.8,0.1l0,0c0,0-0.1,0-0.2,0.1c-0.1,0.1-0.3,0.1-0.4,0.3
							c-0.1,0.1-0.1,0.3,0,0.5C217.9,86.5,218,86.5,218.1,86.5z"/>
						<path class="st5" d="M219.6,85.2c-0.9-0.3-1.3,0.1-0.9,1C219.2,87,220.4,85.5,219.6,85.2z"/>
						<path class="st5" d="M219.6,85.2c-0.9-0.3-1.3,0.1-0.9,1C219.2,87,220.4,85.5,219.6,85.2z"/>
					</g>
				</g>
				<path class="st14" d="M195.2,71.9c-0.8,2-0.5,4.4-1.8,4.5c-1.3,0.1-2.5-1.6-2.8-4.1c-0.3-2.4-0.2-4.3,1.8-4.5
					C194.4,67.6,196,69.7,195.2,71.9z"/>
				<g>
					<path class="st14" d="M209.5,100c0,0,3.6-3.3,4-4.9c1.2,0.1,3.5-3.9,5.6-3.5c-0.5,2,1.5,4.9,4.3,5.9c-2.6,3.3-3.1,3.5-5,4.8
						c-1.9,0.5-3.3,4.4-3.3,4.4L209.5,100z"/>
					<path class="st14" d="M210.2,99.4l0.8-7c0.1-0.6,0.4-1.5,1-1.5c0.1,0.3,0.8,1.9,0.8,1.9c0.4,1,0.8,1.8,1.3,2.4l0.4,4.1
						c0.2,1.2-0.6,2.1-1.7,2.4C211.5,101.9,210.2,99.6,210.2,99.4z"/>
					<g>
						<g>
							<path class="st14" d="M214.6,94.8c0.9-1.1,1.8-2.1,2.6-3.2c0.4-0.5,0.9-1.2,1.3-1.7l1.4-1.6c0.4-0.4,1.2-0.5,1.6-0.1
								c0.4,0.4,0.5,1.1,0.2,1.5l0,0l-1.2,1.7c-0.4,0.5-0.8,1.1-1.1,1.7c-0.9,1.3-1.6,2.4-2.5,3.5c-0.4,0.6-1.4,0.8-2,0.3
								C214.1,96.4,214,95.5,214.6,94.8C214.5,94.8,214.6,94.8,214.6,94.8L214.6,94.8z"/>
						</g>
					</g>
					<g>
						<path class="st14" d="M216.6,94.9l1.7-1.2c0.5-0.4,1.2-0.9,1.6-1.2c0.2-0.2,0.2-0.1,0.4-0.5l0.4-1c0.3-0.6,0.6-1.3,1-1.9l0,0
							c0.2-0.4,0.9-0.6,1.4-0.4c0.4,0.2,0.6,0.8,0.4,1.2c-0.2,0.8-0.4,1.4-0.6,2.1l-0.3,1.1c0,0.2-0.4,1.1-0.8,1.3
							c-0.6,0.6-1.2,1.2-1.8,1.6c-0.6,0.5-1.2,1-1.8,1.4c-0.6,0.4-1.6,0.3-2-0.4C215.8,96.3,215.9,95.3,216.6,94.9L216.6,94.9
							L216.6,94.9z"/>
					</g>
					<g>
						<path class="st14" d="M218.8,96.2c0.5-0.3,1-0.6,1.5-1c0.4-0.3,1-0.8,1.2-0.9l1.4-3l0,0c0.2-0.4,0.8-0.6,1.2-0.4
							c0.4,0.2,0.6,0.6,0.4,1.1l-0.5,1.7l-0.3,0.9l-0.1,0.4c-0.1,0.1,0,0.2-0.3,0.6c-0.5,0.8-1,1.1-1.5,1.5c-0.4,0.4-1,0.8-1.5,1.2
							c-0.5,0.4-1.4,0.3-1.8-0.2c-0.4-0.5-0.3-1.4,0.2-1.8C218.6,96.2,218.6,96.2,218.8,96.2z"/>
					</g>
					<g>
						<g>
							<path class="st14" d="M219.4,98.1c0.8-0.5,1.6-1.1,2.3-1.6l0.4-0.3l0,0c0,0.1-0.1,0.1-0.1,0.2s0-0.1,0-0.1l0.1-0.4l0.4-1.5
								c0.1-0.4,0.5-0.6,1-0.5s0.6,0.5,0.5,1v0.1l-0.3,1.3l-0.1,0.3v0.2c0,0.1-0.1,0.2-0.1,0.3l-0.1,0.1c-0.2,0.3-0.4,0.5-0.5,0.8
								c-0.8,0.8-1.5,1.4-2.3,2c-0.4,0.4-1.2,0.3-1.6-0.1s-0.3-1.2,0.1-1.6C219.4,98.2,219.4,98.1,219.4,98.1L219.4,98.1z"/>
						</g>
					</g>
				</g>
				<path class="st19" d="M215.8,107.1c-1.7,5-8.6,14.9-9.8,17.4c-4,8.3-10.5,8.4-10.5,8.4s-6.4,1.5-15.2-8.9l0,0
					c-0.5-0.8-1.1-1.4-1.6-2.1c-2.5-3.4-4.9-7-7-10.1c-0.3-0.4-0.5-0.8-0.8-1.2c-0.8-1.2-1.5-2.4-2-3.3c-0.3-0.4-0.5-0.9-0.8-1.2
					l-0.4-0.6c-2.7-4.7-4.7-12.6-1.4-15.3c3.4-2.9,9.4,0.3,13.8,6l0,0c0.2,0.3,0.5,0.6,0.8,1c0.5,0.8,1.1,1.4,1.5,2.1
					c0.2,0.3,0.4,0.6,0.8,1c0.5,0.8,1,1.4,1.4,2.1c0.2,0.4,0.5,0.9,0.8,1.2c1.2,1.8,2.3,3.5,3,4.9l1.4,2.5c0.5,0.9,1.2,1.6,1.8,2.3
					l0,0c0.4,0.3,0.8,0.8,1.2,1.1c1,0.8,1.8,1.5,2.7,2.3c0.3,0.2,0.8,0.2,1-0.1c1.9-3.2,13.1-17.2,13.1-17.2
					C210.4,97.3,216.3,105.5,215.8,107.1z"/>
				<g>
					<g>
						<path class="st12" d="M183.1,100.1c-0.5,0.3-0.9,0.9-1.4,1.3c-0.5,0.4-1.3,0.8-2,0.8s-1.4-0.2-2-0.3c-1.1-0.2-1.7,0-2.1,1.1
							c-0.8,1.6-1.5,3.5-3.6,3.5c-1.2,0-1.9-0.3-2.9,0.6c-0.1,0.1-0.2,0.2-0.3,0.3c-0.3-0.4-0.5-0.9-0.8-1.2c0.5-0.5,1.1-1,1.9-1.2
							c1.2-0.3,2.4,0.5,3.3-0.6c0.8-0.9,0.9-2,1.5-2.9c1.1-1.5,2.8-1,4.3-0.6c1.4,0.2,2.3-0.9,3.3-1.6
							C182.6,99.4,182.8,99.7,183.1,100.1z"/>
					</g>
					<g>
						<path class="st5" d="M185.3,103.5c-3.3,4.4-8.6,6.5-13.7,8.3c-0.3-0.4-0.5-0.8-0.8-1.2c5.1-1.6,10.5-3.8,13.7-8.3
							C184.7,102.6,185.1,103,185.3,103.5z"/>
					</g>
					<g>
						<path class="st5" d="M172.2,108.9c0.8-0.4,0.1-1.6-0.6-1.2C170.8,108.2,171.4,109.4,172.2,108.9L172.2,108.9z"/>
					</g>
					<g>
						<path class="st5" d="M178,105.5c0.8-0.4,0.1-1.6-0.6-1.2C176.6,104.7,177.2,105.9,178,105.5L178,105.5z"/>
					</g>
					<g>
						<path class="st5" d="M182.9,102.9c0.8-0.4,0.1-1.6-0.6-1.2S182.2,103.4,182.9,102.9L182.9,102.9z"/>
					</g>
					<g>
						<path class="st5" d="M178.3,112.9c0.8-0.4,0.1-1.6-0.6-1.2C176.9,112.3,177.6,113.3,178.3,112.9L178.3,112.9z"/>
					</g>
					<g>
						<path class="st5" d="M184,113.8c0.8-0.4,0.1-1.6-0.6-1.2C182.6,113,183.2,114.2,184,113.8L184,113.8z"/>
					</g>
					<g>
						<path class="st5" d="M181.5,120.2c0.8-0.4,0.1-1.6-0.6-1.2C180.1,119.4,180.8,120.6,181.5,120.2L181.5,120.2z"/>
					</g>
					<g>
						<path class="st5" d="M190.8,118.1c0.8-0.4,0.1-1.6-0.6-1.2C189.4,117.3,190,118.5,190.8,118.1L190.8,118.1z"/>
					</g>
					<g>
						<path class="st5" d="M186.5,127.4c0.8-0.4,0.1-1.6-0.6-1.2C185.1,126.6,185.7,127.8,186.5,127.4L186.5,127.4z"/>
					</g>
					<g>
						<path class="st5" d="M185.9,106.9c0.8-0.4,0.1-1.6-0.6-1.2C184.4,106.1,185.2,107.3,185.9,106.9L185.9,106.9z"/>
					</g>
					<g>
						<path class="st5" d="M191.6,124.4c0.8-0.4,0.1-1.6-0.6-1.2C190.1,123.7,190.9,124.8,191.6,124.4L191.6,124.4z"/>
					</g>
					<g>
						<path class="st5" d="M198.5,120.6c0.8-0.4,0.1-1.6-0.6-1.2C197.1,119.9,197.7,121.1,198.5,120.6L198.5,120.6z"/>
					</g>
					<g>
						<path class="st5" d="M196.2,128.8c0.8-0.4,0.1-1.6-0.6-1.2C194.8,128,195.5,129.2,196.2,128.8L196.2,128.8z"/>
					</g>
					<g>
						<path class="st5" d="M204.6,125.6c0.8-0.4,0.1-1.6-0.6-1.2C203.2,124.8,203.8,126,204.6,125.6L204.6,125.6z"/>
					</g>
					<g>
						<path class="st5" d="M200.4,113c0.8-0.4,0.1-1.6-0.6-1.2C199,112.3,199.7,113.4,200.4,113L200.4,113z"/>
					</g>
					<g>
						<path class="st5" d="M205.6,118.1c0.8-0.4,0.1-1.6-0.6-1.2C204.2,117.3,204.8,118.5,205.6,118.1L205.6,118.1z"/>
					</g>
					<g>
						<path class="st5" d="M210.5,117c0.8-0.4,0.1-1.6-0.6-1.2C209.1,116.3,209.7,117.5,210.5,117L210.5,117z"/>
					</g>
					<g>
						<path class="st5" d="M207.9,109.8c0.8-0.4,0.1-1.6-0.6-1.2C206.5,109,207.2,110.2,207.9,109.8L207.9,109.8z"/>
					</g>
					<g>
						<path class="st5" d="M206,105.8c0.8-0.4,0.1-1.6-0.6-1.2C204.5,105.1,205.2,106.2,206,105.8L206,105.8z"/>
					</g>
					<g>
						<path class="st5" d="M211.7,103.1c0.8-0.4,0.1-1.6-0.6-1.2C210.2,102.4,210.9,103.6,211.7,103.1L211.7,103.1z"/>
					</g>
					<g>
						<path class="st5" d="M212.9,110.9c0.8-0.4,0.1-1.6-0.6-1.2C211.5,110.1,212.1,111.3,212.9,110.9L212.9,110.9z"/>
					</g>
					<g>
						<path class="st17" d="M192.7,114.1c-0.1,0.1-0.2,0.1-0.3,0.1c-0.9,0.1-1.8-0.1-2.7,0.1s-0.8,1.2-0.9,1.8s-0.2,1.3-0.6,1.7
							c-0.6,0.6-1.4,0.4-2.3,0.5c-1.3,0.2-1.3,1.7-1.4,2.7c-0.1,0.9-0.4,1.7-1.1,2.3c-1,1-2.3,0.9-3.4,0.4l0,0
							c-0.5-0.8-1.1-1.4-1.6-2.1c0.1,0,0.3,0,0.5,0.1c0.9,0.5,1.9,1.3,3,1.1c1-0.2,1.2-1.4,1.3-2.3c0.3-1.7,0.9-3.4,2.9-3.5
							c0.4,0,0.9,0.1,1.1-0.2c0.2-0.2,0.2-0.6,0.2-0.9c0.1-0.6,0.1-1.3,0.4-1.8c0.8-1.4,2.1-1.1,3.5-1.2l0,0
							C191.9,113.4,192.4,113.8,192.7,114.1z"/>
					</g>
				</g>
				<path class="st2" d="M191.9,93.6c0.6-1.9,0.5-4.5-0.6-6.3c-0.3-0.4-0.5-0.8-0.9-1.1c0-1.6-0.5-3.4-1.6-4.8
					c1.3-1.8,2-4.4,1.3-6.7c-1.6-4.7-5.1-1.1-5.1-1.1s-4.2,3.5-1.8,7.7c-0.2,0.5-0.2,1-0.2,1s-1.3,4.8,2.4,7.1
					c-0.6,1.7-1,4.3,1.4,6.3c-0.4,1.7-0.9,5.4,2.7,7.2C193.9,105.3,195.4,97.1,191.9,93.6z"/>
				<path class="st14" d="M215.9,63.9c-0.3,10.8-10.2,24.2-16.1,20.9c-11.8-6.5-9.1-11.2-8.9-17.5c-5.9-9.7-5-13.6,2.3-16.7
					C203.8,46.3,216.2,54.3,215.9,63.9z"/>
				<path class="st2" d="M208.3,64c0,0,7,1.5,7.8,5.4c1.2-3.8,1.4-15.1-7.2-18.8s-16.6-1.6-18.6,0.8c-1.7,2.1-3.1,2.5-5.9,7.7
					c-1.4,2.6-3.3,8.3-1.5,14.2c0.5,1.7,2.6,5.9,4,4.8c1.1-0.8,3.8-2.4,4.4-3C196.4,68,208.3,64,208.3,64z"/>
				<path class="st2" d="M208.7,63.4c-0.9,1.6-1.8,3-2.8,4.3c-1,1.4-2.1,2.6-3,4c-1.7,2.8-2.9,6.1-2.6,9.5h-0.2
					c-0.4-1.7-0.5-3.5-0.3-5.3c0.3-1.8,0.9-3.5,1.5-5.1c0.8-1.6,1.6-3.3,2.8-4.6c1.3-1.3,2.7-2.4,4.4-3L208.7,63.4z"/>
				<path class="st2" d="M192.9,101.2c0,0,1.5,1.8,1.1,3.2c-0.3,1-2.4,7.8,1.1,8.8c0,0-5,1-7.1-3.8C187,107.2,187.6,98,192.9,101.2z
					"/>
				<path class="st4" d="M190.8,103c-1.2,0-2.3-0.3-2.4-0.3c-0.1,0-0.2-0.2-0.1-0.3c0-0.1,0.2-0.2,0.3-0.1c0,0,3.5,1.1,4.5-0.6
					c0.1-0.1,0.2-0.1,0.3-0.1c0.1,0.1,0.1,0.2,0.1,0.3C192.9,102.7,191.7,103,190.8,103z"/>
				<path class="st20" d="M196.4,116.2c0,0,2.6,2.3,3,6.1C197.5,122.3,196.4,116.2,196.4,116.2z"/>
			</g>
			<path class="st12" d="M195.9,173.6c-1.5,11.3-1.5,11.3-1.5,11.3l-3.9,2.6l-13.3-16.2l-19.4-23.6l2-0.6c0,0,15.1,0.3,22.5,4.7
				c4.8,2.9,9.8,6.5,12.2,11.8C195.9,166.3,196.4,169.7,195.9,173.6z"/>
			<path class="st13" d="M195.9,173.6c-1.5,11.3-1.5,11.3-1.5,11.3l-3.9,2.6l-13.3-16.2l1.2-4.3c0,0,10.4,6.1,16.2-3.3
				C195.9,166.3,196.4,169.7,195.9,173.6z"/>
			<path class="st11" d="M150.8,147c0,0,43,1,41.3,26.8c-1.7,25.9-8.7,34.5-8.7,34.5L154.1,172L150.8,147z"/>
		</g>
		<g>
			<g>
				<g>
					<path class="st14" d="M109.4,274.4c-1.7,1.6-3.2,3.3-4.2,5.5c-1.6,3.4-4.6,6.5-10.1,7.9c-3.6,0.9-11.5-0.5-11.8-4.8
						c0.8-3.8,4.2-3.5,7.4-6.4c4.4-3.1,7.2-10,9.7-16.7c1.1-3,10.3-10.6,12.3-9.3c0.8,0.4-1.6,7.7-1.9,13.5
						C110.7,266.8,114.1,270,109.4,274.4z"/>
					<path class="st14" d="M127.8,248.3c-0.4-1.1-2.7-2.6-4.8-2.9c-3.5-0.4-7.3-0.2-11.3-2.4c-2.3-1.3-7-1.8-9.1,0.2
						c-1.4,1.3-4,2.5-5.8,2.6c0.8,2.1-0.9,7.2,2,8.3c2.9-0.2,6.8-0.5,16.6-1.3c1.9-0.1,9.4,2.7,11.9,1.7
						C129.2,253.9,129.1,251.4,127.8,248.3z"/>
					<path class="st14" d="M88,254.9c-2.1,0-4-1.7-4.2-3.9c-0.2-2.4,1.6-4.3,3.9-4.5l12.3-1c2.4-0.2,4.3,1.6,4.5,3.9
						c0.2,2.4-1.6,4.3-3.9,4.5l-12.3,1C88.2,254.9,88.1,254.9,88,254.9z"/>
					<path class="st17" d="M84.5,243.5c-11.5,2.7-21.6,3.2-28,8.6c-9.1,7.8-12.4,3.4-13.3-0.9c0-0.2-0.1-0.4-0.1-0.6
						c-0.5-3.9,1.7-7,3-9c5.9-9.9,41.6-36.4,57.6-28.9c3,1.4,5.4,4,6.7,8.2C114.3,237.3,95.3,239.8,84.5,243.5z"/>
					<path class="st26" d="M84.5,243.5c-11.5,2.7-32.2-0.3-32.2-0.3s3-1.2,16.4-0.4c25.3,1.5,30.9-20.7,33.8-21.7
						c3,1.4,6.5-4.3,7.8-0.1C114.3,237.3,95.3,239.8,84.5,243.5z"/>
					<path class="st17" d="M72.7,244.2c3.5,0.1,22.1,0.5,22.1,0.5c3,0.2,3.5,9.7,1.6,10.4c-2,0.9-19.5,4.4-23.5,4.6
						c-4,0.2-7.9,0.2-11.9-0.1c-4-0.2-7.9-0.9-11.8-1.7c-4.1-0.9-6.5-4.9-5.7-9c0.9-3.5,4.1-6,7.6-5.9C51,243.1,69,244,72.7,244.2z"
						/>
					<g>
						<path class="st14" d="M77,217c0,0-6.7,7.7-3.2,9.9c3.3,2.1,6.5-0.9,7.8,0.6c0.9-1.4,1.1-8,1.1-8L77,217z"/>
						<path class="st14" d="M75.2,224.1c-0.3,0.4-0.6,0.9-1,1.3l-0.5,0.6c-0.2,0.2-0.3,0.4-0.4,0.5c-0.3,0.8-0.6,1.8-0.8,2.7l0,0
							c0,0.3-0.3,0.4-0.5,0.4s-0.4-0.2-0.4-0.4c0-0.5,0-1.1,0.1-1.6c0.1-0.5,0.1-1.1,0.3-1.7l0.6-1.5c0.2-0.4,0.4-1,0.5-1.4
							c0.2-0.6,0.9-1,1.5-0.6c0.6,0.2,1,0.9,0.6,1.5C75.3,223.9,75.2,224,75.2,224.1z"/>
						<path class="st14" d="M75.5,225.6l-1,1.8l-0.2,0.4c0,0.1-0.1,0.2-0.1,0.3c-0.1,0.2-0.1,0.5-0.2,0.9c-0.2,1.3-0.4,2.6-0.5,3.9
							c0,0.4-0.4,0.6-0.8,0.6c-0.3,0-0.6-0.3-0.6-0.8c0.1-1.4,0.2-2.7,0.4-4c0-0.3,0.1-0.6,0.2-1.1c0-0.2,0.1-0.4,0.2-0.6l0.2-0.4
							l0.8-1.8l0,0c0.2-0.5,0.8-0.8,1.3-0.5C75.5,224.4,75.7,225,75.5,225.6C75.6,225.5,75.5,225.6,75.5,225.6z"/>
						<path class="st14" d="M77.4,226.3l-1.7,3.9c-0.2,0.4-0.3,1.2-0.4,1.8l-0.4,2l0,0c-0.1,0.4-0.4,0.6-0.9,0.5
							c-0.3-0.1-0.5-0.4-0.5-0.8l0.2-2.1c0.1-0.8,0.1-1.3,0.3-2.3l1.2-4l0,0c0.2-0.6,0.9-1,1.5-0.8s1,0.9,0.8,1.5
							C77.4,226.2,77.4,226.2,77.4,226.3z"/>
						<path class="st14" d="M79.7,226.3l-1.7,3.9l-1.5,4c-0.1,0.3-0.5,0.5-0.9,0.4s-0.5-0.5-0.4-0.9l1-4.2l1.2-4.1
							c0.2-0.6,0.9-1.1,1.6-0.9c0.6,0.2,1.1,0.9,0.9,1.6C79.7,226.2,79.7,226.2,79.7,226.3L79.7,226.3z"/>
						<path class="st14" d="M82.1,224.1c0.1,1.3,0.1,2.4-0.2,3.6c-0.1,0.3-0.2,0.6-0.3,1c-0.1,0.2-0.2,0.3-0.3,0.5l-0.2,0.3
							c-0.3,0.4-0.5,0.8-0.6,1.2c-0.1,0.4-0.5,0.5-1,0.4c-0.2-0.1-0.4-0.3-0.4-0.5c-0.1-0.6,0.1-1.4,0.3-1.9l0.1-0.4
							c0-0.1,0-0.1,0-0.2c0-0.2,0-0.4,0-0.6c0-0.9-0.2-1.9-0.4-2.8l0,0c-0.2-0.9,0.2-1.7,1.1-1.9c0.9-0.2,1.7,0.2,1.9,1.1
							C82.1,224,82.1,224.1,82.1,224.1z"/>
						<path class="st14" d="M73.8,226.8c3.3,2.1,6.5-1.4,7.8,0.6c0.9-1.4,1.1-8,1.1-8L73.8,226.8z"/>
					</g>
					<path class="st5" d="M99.1,177.6L99.1,177.6c-1.1,11.4-2.8,17.5-2.9,17.5c-1.5,3.1-5.9,16.5-11.9,25c0,0.1-0.1,0.1-0.1,0.2l0,0
						c-0.5,0.8-1,1.4-1.5,1.9c0-1.8-5.6-5.4-7.8-2.9c0.2-10.9,2.9-10.9,5.3-21.8c1-4.3,4-9.7,5.6-13.8c3.6-9.7,7.8-23.4,10.3-27.9
						C100.7,147,101.4,158,99.1,177.6z"/>
					<path class="st5" d="M99.1,177.7c-1.1,11.4-2.8,17.4-2.9,17.4c-1.5,3.1-5.9,16.5-11.9,25c1.6-2.1,0.4-12.8,0.2-19.2
						c-0.1-6.4,9.8-17.2,9.8-17.2S97,178.9,99.1,177.7z"/>
					<path class="st5" d="M142.7,167.1c-0.3,3.6-0.6,7.1-1.1,10.3c-2.5,19.5-7,32-12.2,41.5c-0.3,0.5-41.1,2.6-36.9-9.2
						c5.7-14.2-0.3-37.3,3.2-51.8c0.5-5.9,9.3-10.7,20.1-9.7C141.7,151,142.7,155.4,142.7,167.1z"/>
					<path class="st5" d="M141.7,177.4c-2.5,19.5-7,32-12.2,41.5c-0.3,0.5-0.6,1.2-1,1.7c-1.2-1.9-15.6-25.4-18.6-27.5
						c-3.2-2.1-1.9-8.7-1.9-8.7l3.4-5.7c0,0,12.4,3.6,16.3,3.8c4,0.1,0.9-16.3,0.9-16.3S135.3,171.8,141.7,177.4z"/>
					<path class="st10" d="M130.5,132.9c-4.8,10.1-3.1,3.9-13,2.8c-9.9-1.1-15.1,7.9-16.1-3.2c-1.1-13,1-23.5,10.5-22.1
						C126.4,112.5,137.2,119,130.5,132.9z"/>
					<path class="st14" d="M126.3,136.2l0.9,13.9c0.2,3.9-2.7,7.2-6.5,7.4s-7.2-2.7-7.4-6.5c0-0.3,0-0.5,0-0.9l0.9-13.9
						c0.2-3.4,3.1-6,6.5-5.8C123.7,130.5,126.2,133.1,126.3,136.2z"/>
					<path class="st14" d="M130.5,132.9c-0.9,8.7-7.6,19.1-16.9,19.1c-12.2,0-12.3-10-12.2-22.3c0.1-14.6,8.5-16.7,16.5-15.9
						C125.9,114.7,131.6,121.4,130.5,132.9z"/>
					<path class="st10" d="M101.4,130.9c0,0,1.4-13.7,3-12.2c2.7,2.5,7.6,2.3,16.9,2.9c5.7,0.3-1.7,11.8,2.3,14.6
						c2.1,2.3,3,7.6,3,7.6s5-6,6-16.2c1.6-16.5-20.7-17.1-20.7-17.1S99.2,109,101.4,130.9z"/>
					<path class="st14" d="M128.8,137.8c-0.9,2.5-2.8,4.2-4.2,3.6s-1.8-2.9-1-5.5c0.9-2.5,2.8-4.2,4.2-3.6
						C129.2,132.9,129.6,135.4,128.8,137.8z"/>
					<g>
						<polygon class="st11" points="92.9,153.4 91.8,151.4 98.5,176.2 100.5,179.2 						"/>
						<polygon class="st11" points="92.9,137.9 91.8,151.4 96.9,165.3 99.2,158.8 						"/>
						<polygon class="st4" points="92.9,153 93,153.4 117.3,145.8 116.7,145.7 						"/>
						<path class="st12" d="M125.9,174.6c-4.1,3-25.4,4.7-25.4,4.7l-0.8-2.5l-7-23.4l23.4-7.3l1.1-0.3
							C117.3,145.8,123.3,166.6,125.9,174.6z"/>
						<polygon class="st4" points="93,138.4 96.8,150.8 93.7,151.6 						"/>
						<path class="st5" d="M93,138.4l-0.8,13l0.5,1.6l23.9-7.3c0,0-16,2-23,5.9C94.6,148,93.5,139.7,93,138.4z"/>
						<path class="st12" d="M92.9,153.4L92.9,153.4l-0.8-2l0.8-13.1c0,0,0-0.1,0.1-0.1c0,0,0.1,0,0.1,0.1l-0.8,13.1L92.9,153.4
							C93,153.4,93,153.4,92.9,153.4L92.9,153.4z"/>
						<path class="st27" d="M125.9,174.6c-4.1,3-25.4,4.7-25.4,4.7l-0.8-2.5c2.1-1.1,4.8-2.8,8-5.1c8.3-6,8.6-19.8,8.4-25.5l1.1-0.3
							C117.3,145.8,123.3,166.6,125.9,174.6z"/>
					</g>
					<g>
						<path class="st14" d="M111.6,180c0,0-0.9-4.3-3.9-5c-3-0.8-8.4,2-6.1,5c2.4,3,4.9,3.8,7.6,3.8
							C112.1,183.6,111.6,180,111.6,180z"/>
						<path class="st14" d="M107.2,178c-0.1-1.5-0.2-2.9-0.1-4.4c0-0.8,0-1.5,0.2-2.5c0.3-0.8,0.5-1.4,1.1-2.1
							c0.3-0.4,1-0.6,1.4-0.3c0.4,0.2,0.5,0.6,0.4,1.1l-0.1,0.2c-0.1,0.4-0.2,1.2-0.3,1.8c0,0.3,0,1.1,0.1,1.7
							c0.2,1.3,0.4,2.7,0.8,4l0,0c0.2,1-0.4,1.9-1.4,2.1c-1,0.2-1.9-0.4-2.1-1.4C107.3,178.2,107.2,178.1,107.2,178z"/>
						<path class="st14" d="M104.8,177.4c-0.1-0.1-0.1-0.2-0.2-0.3V177l-0.1-0.2l-0.1-0.3l-0.2-0.5l-0.3-1.1
							c-0.1-0.8-0.3-1.4-0.5-2.3c-0.3-1.5-0.6-3-0.8-4.6c0-0.4,0.3-0.9,0.8-0.9c0.4,0,0.8,0.2,0.9,0.5l0,0c0.4,1.4,1,2.8,1.5,4.2
							l0.9,2.1l0.3,1.1l0.1,0.5v0.2v0.1l0,0c0,0-0.1-0.1-0.1-0.2c0.4,0.6,0.2,1.4-0.3,1.8C106,178.2,105.2,178.1,104.8,177.4z"/>
						<path class="st14" d="M102.8,178l-1-2.5l-0.5-1.2c-0.1-0.2-0.1-0.3-0.2-0.5l-0.2-0.5c-0.3-0.8-0.5-1.6-0.8-2.5
							c-0.2-0.9-0.4-1.7-0.5-2.7c0-0.5,0.3-0.9,0.9-1c0.4,0,0.9,0.3,0.9,0.6v0.1c0.1,0.6,0.4,1.4,0.8,2.1c0.3,0.8,0.8,1.4,1.1,2.1
							l0.3,0.5c0.1,0.2,0.2,0.4,0.3,0.5l0.6,1l1.3,2l0,0c0.5,0.8,0.2,1.8-0.5,2.4c-0.8,0.5-1.8,0.2-2.4-0.5
							C102.8,178.1,102.8,178.1,102.8,178z"/>
						<path class="st14" d="M102,178.5l-2.3-3.8c-0.3-0.6-0.8-1.4-1.1-2c-0.3-0.8-0.5-1.4-0.9-2.1c-0.1-0.3,0.1-0.8,0.4-0.9
							s0.6,0,0.9,0.3l0,0c0.3,0.6,0.8,1.3,1.2,1.8c0.4,0.6,0.8,1.1,1.3,1.6l2.9,3.3c0.5,0.6,0.4,1.5-0.1,2c-0.6,0.5-1.5,0.4-2-0.1
							C102,178.7,102,178.6,102,178.5z"/>
						<path class="st14" d="M102.1,180.2c-0.9-0.6-1.6-1.3-2.5-2.1c-0.2-0.2-0.4-0.4-0.5-0.8c-0.2-0.3-0.3-0.5-0.4-0.8
							c-0.2-0.5-0.4-1-0.6-1.5c-0.1-0.3,0-0.8,0.4-0.9c0.3-0.1,0.6,0,0.9,0.3l0,0c0.2,0.4,0.5,0.9,0.8,1.2c0.3,0.4,0.5,0.6,0.9,1
							c0.8,0.5,1.6,1.1,2.4,1.6l0,0c0.5,0.3,0.8,1,0.4,1.6c-0.3,0.5-1,0.8-1.6,0.4C102.2,180.3,102.1,180.2,102.1,180.2z"/>
					</g>
					<path class="st5" d="M146.6,190.7c-0.4-6.2-1.2-26.5-5.7-33.8c-2.9-4.5-16.8,5.1-11.4,19.8c1.8,4.8,2.1,7,2.5,12.7
						c-3.6-1.3-14.8-10.7-20.5-10.8c-1.7,0.8-4.6,4.9-2.9,7.2c5.9,8.2,24.9,23.5,33.4,18.7C144.8,203,146.6,198.8,146.6,190.7z"/>
					<path class="st19" d="M134.4,229.1c-1.6,19.7-28.5,16.7-27.9-1.2c0.4-7.4,1-14.5,0.6-22.2c-0.1-2.9-0.4-5.8-0.9-8.9
						c5.4-23.3,22.2,3.4,27.1,21.5C134.6,222.8,135,226.7,134.4,229.1z"/>
					<path class="st28" d="M134.4,229.1c-1.6,19.7-28.5,16.7-27.9-1.2c0.4-7.4,1-14.5,0.6-22.2c7-4.4,13.4-8.4,13.4-8.4
						s0.5,30.1,4.3,31.9c7.8,3.6,9.7-6.1,8.6-10.9C134.6,222.8,135,226.7,134.4,229.1z"/>
					<path class="st19" d="M120.4,195.2c0.2,17.7-6.3,63.6-9.5,66.8c-1.1,2-11.2,1.1-11.5-1.3c-0.9-6.4-1.1-70.2,11.2-73.4
						C115.5,186.1,120.1,190,120.4,195.2z"/>
				</g>
			</g>
		</g>
	</g>
</g>
</svg>
