<?xml version="1.0" encoding="utf-8"?>
<!-- Generator: Adobe Illustrator 25.4.1, SVG Export Plug-In . SVG Version: 6.00 Build 0)  -->
<svg version="1.1" id="Layer_1" xmlns="http://www.w3.org/2000/svg" xmlns:xlink="http://www.w3.org/1999/xlink" x="0px" y="0px"
	 viewBox="0 0 387 289.6" style="enable-background:new 0 0 387 289.6;" xml:space="preserve">
<style type="text/css">
	.st0{opacity:0.56;fill:#B7B7B7;}
	.st1{fill:#DDCFC7;}
	.st2{fill:#C4C4C3;}
	.st3{fill:#4A725F;}
	.st4{fill:url(#SVGID_1_);}
	.st5{fill:#20754A;}
	.st6{fill:#6A897B;}
	
		.st7{opacity:0.5;clip-path:url(#SVGID_00000045619730773269974360000010838541207664763810_);fill:url(#SVGID_00000117676043453977265420000001584835194125940887_);}
	
		.st8{opacity:0.5;clip-path:url(#SVGID_00000045619730773269974360000010838541207664763810_);fill:url(#SVGID_00000039131994652945660840000000259483321025746323_);}
	.st9{opacity:0.47;fill:#FFFFFF;}
	.st10{fill:#EEE6DE;}
	.st11{fill:#EFD5BF;}
	.st12{opacity:0.58;}
	.st13{fill:#E8D3C1;}
	.st14{fill:#94B228;}
	.st15{fill:#A8C430;}
	.st16{fill:#EE6D4A;}
	.st17{fill:#E0BA1B;}
	.st18{fill:#EACC4B;}
	.st19{fill:#F9DC62;}
	.st20{opacity:0.72;}
	.st21{fill:#D5554A;}
	.st22{fill:#C4413B;}
	.st23{fill:#E5544C;}
	.st24{fill:#275B4B;}
	.st25{fill:#2F6858;}
	.st26{fill:#29554A;}
	.st27{fill:#3E8771;}
	.st28{fill:#F9A0A0;}
	.st29{fill:#CE9393;}
	.st30{fill:#BD8583;}
	.st31{opacity:0.37;fill:#FFFFFF;}
	.st32{fill:#778E16;}
	.st33{fill:#F4A56E;}
	.st34{fill:#EA9357;}
	.st35{fill:#081C21;}
	.st36{fill:#040F11;}
	.st37{fill:#7FA57F;}
	.st38{fill:#9CBA9C;}
	.st39{fill:#8AAA8A;}
	.st40{fill:#A5C6A5;}
	.st41{fill:#0D2C35;}
	.st42{fill:#103441;}
	.st43{fill:#FFFFFF;}
	.st44{fill:#E05A3B;}
	.st45{fill:#14404C;}
	.st46{fill:#EF9A60;}
	.st47{fill:#722F01;}
</style>
<g>
	<g>
		<g>
			<path class="st0" d="M54.9,241.5c0,0-17,3.4-19,5.3c-2,2,2.2,3.8,26.3,9.2c24.1,5.4,70.9,17.2,78.7,16.7
				c7.8-0.5,31.4-3.4,35.4-3.4c4,0,18.1,4,27.5,0c9.5-4,31.4,4.5,39.7,5.3c8.4,0.8,5.4,3,7.3,5.1c1.9,2.1,32.3,8.4,42.3,7.8
				c10-0.6,1.3-4.8-6.5-7c-7.8-2.2-38.4-10.7-47.1-14.5c-8.6-3.8-4.7-6.6,1.9-6.1c6.6,0.5,46,4.7,59.5,7.8c13.5,3.1,15.9,5.8,30,5
				c14.1-0.9,24.7-6.9,9.5-8.2c-15.1-1.3-17.8-1.1-36.9-4.6c-19.1-3.5-45.8-8.1-59.9-9.6c-14.1-1.6-28.7-1.8-32-2.2
				C208.4,247.8,54.9,241.5,54.9,241.5z"/>
			<g>
				<g>
					<g>
						<g>
							<g>
								<g>
									<g>
										<path class="st1" d="M179.2,26.2c17.8,24.4,12.5,58.6-11.9,76.4c-24.4,17.8-58.6,12.5-76.4-11.9
											c-17.8-24.4-12.5-58.6,11.9-76.4C127.2-3.5,161.4,1.8,179.2,26.2z"/>
									</g>
									<g>
										<path class="st2" d="M141.5,90.3c0-0.1-0.1-0.2-0.1-0.3c0,0,0,0-0.1,0L141.5,90.3z"/>
									</g>
									<g>
										<path class="st3" d="M90.7,29.5c0.4-0.4,0.9-0.5,1.4-0.8c1-0.8,1.5-1.8,2.3-2.9c0.5-0.6,1.8-2.5,2.7-1.9
											c0,0.3-0.5,1-0.2,1.3c0.3,0.3,0.9-0.2,1.2-0.3c0,0.6-0.1,1.3,0.1,1.9c0.9,0.1,0.9-0.9,1-1.5c0.1-0.7,0.2-1.3,0.6-1.9
											c0.3-0.5,0.6-0.8,0.7-1.4c0.2-0.6,0.1-1.2,0.5-1.8c0.6-1.1,1.4-1.9,2.2-2.8c0.4-0.5,1-0.8,1.4-1.3
											c0.5-0.5,0.8-1.1,1.3-1.6c0.7-0.8,1.9-2.4,3.1-2.2c-0.4,0.7-1.5,1.1-1.9,1.9c-0.3,0.5,0,0.6-0.5,1c-0.4,0.3-1.1,0.5-1,1.1
											c0.3,0,0.6-0.1,0.7,0.2c0.6,0,1-0.8,1.4-0.4c0.5,0.6-0.5,1-0.4,1.5c0.1,0.6,1-0.5,1.2-0.8c0.2-0.5,0.2-1.1,0.6-1.6
											c0.4-0.6,1.2-1,1.6-1.5c0.4-0.4,0.8-0.7,1.4-1c0.6-0.3,1.3-0.6,1.9-0.9c0.4-0.2,0.8-0.7,1.3-0.7c0,0,0.1,0.1,0.1,0.1
											c0.3-0.2,0.7-0.5,1-0.7c0.3-0.2,0.6-0.6,0.9-0.7c0.8-0.5,2-0.9,2.9-1.3c0.6-0.2,0.8-0.8,1.4-0.9c0.2,0,0.3,0.1,0.6,0
											c0.3-0.1,0.5-0.4,0.6-0.5c0.4-0.3,3.1-0.7,2.7-1.3c-0.3-0.5-3.2,0-3.7,0c-1,0-1.9,0.2-2.9,0.3c-5.6,1.7-11,4.4-16,8
											c-2.4,1.7-4.6,3.6-6.6,5.6c-1.9,2.1-3.7,4.2-5.4,6.5c-0.5,0.6-0.9,1.2-1.4,1.8c-0.5,0.8-1.1,1.7-1.6,2.5
											c-0.2,0.5-0.4,1-0.5,1.6c0.7-0.6,1.4-1.2,2.2-1.8C90,30.3,90.3,29.8,90.7,29.5z"/>
										<path class="st3" d="M120.4,16.5c-0.7-0.2-0.8,0.4-1.3,0.6c0-0.1,0-0.2,0-0.4c-0.3,0-0.6,0-0.9,0.1c0-0.1,0-0.5,0-0.6
											c0,0,0.2-0.1,0.3-0.1c0-0.1-0.1-0.2-0.1-0.3c0.3-0.2,0.2-0.3,0.3-0.7c0,0-0.1-0.2-0.2-0.2c-0.3,0.1-0.8,0.3-0.9,0.4
											c-0.2,0.1-0.6-0.1-0.6,0.4c-0.4,0.1-1.3,0.3-1.3,0.4c-0.5,0.8,0.7,0.5,0.4,1.2c-0.4-0.3-0.9-0.2-1.3-0.1
											c-0.3,0.1-0.6,0.2-1,0.3c0.2,0.7,0,0.7-0.3,1.2c-0.1,0.1-0.4,0.1-0.5,0.3c-0.1,0.2,0.1,0.6,0,0.7
											c-0.5,0.6-2.2,0.7-1.6,1.9c0.5-0.5,1.2,0.2,1.6-0.4c0.3,0.2,1.5-0.8,1.8-1.1c0.3-0.4,0.2-0.7,0.7-1c0.1-0.1,0.7,0,1-0.1
											c-0.2,0.8-1.5,1.3-1.6,2c-0.1,0.8,0.5,0.4,0.8,0.2c0.2-0.1,0.3-1.2,0.7-0.3c0.6-0.2,1.5-0.6,1.6-1.2
											c0.2,0.3,0.5,0.4,0.9,0.4c0.1-0.5,0.8-0.6,0.7-1.3c0.1,0.1,0.3,0.1,0.4,0.2c0.3-0.3,0.1-0.7-0.1-1
											C120.2,17.7,120.3,17,120.4,16.5z"/>
										<radialGradient id="SVGID_1_" cx="141.0905" cy="89.6706" r="0.1237" gradientUnits="userSpaceOnUse">
											<stop  offset="0" style="stop-color:#FFFFFF"/>
											<stop  offset="0.2051" style="stop-color:#E9E9F3"/>
											<stop  offset="1" style="stop-color:#9997C6"/>
										</radialGradient>
										<path class="st4" d="M141.2,89.8c0-0.1-0.1-0.2-0.1-0.3c0,0,0,0-0.1,0L141.2,89.8z"/>
										<path class="st3" d="M186.5,39.9c-1.7-4.8-4.1-9.4-7.3-13.7c-10.8-14.8-27.7-22.6-44.7-22.4c-0.4,0.2-0.8,0.5-1,0.9
											c-0.3,0.5-0.3,0.3,0,0.8c0.3,0.4,1.7,0.3,1.9,0.7c0.8,1.1-1.2,0.7-0.9,1.5c-0.3,0.1-1.7-0.2-0.8,0.7c-0.1,0-0.2,0-0.2,0.1
											c0.1,1,0.9,0.6,1.6,0.8c0.9,0.1,1.4,0.7,0.5,1.4c0.3,0.5,0.5,1.3-0.3,1.3c-0.3-0.9-0.6,0.1-0.9,0
											c-0.4-0.1-0.7-0.3-0.3-0.8c-0.5,0.1-1,0-1.3-0.2c0.1-0.1,0.3-0.2,0.4-0.3c-0.3,0-1,0.2-1.2,0c-0.4-0.4,0.1-0.6,0.4-0.7
											c-0.4-0.1-0.8-0.1-1.2-0.3c0.3-0.3,0.7-0.4,1-0.8c-0.3-0.4-1.3-0.3-1.7-0.3c-0.6,0-1.3-0.4-1.9-0.3
											c-1.4,0.2-2.6,0.6-3.4,1.7c-0.9,1.2-2.1,1.1-3.3,2c-0.8,0.5-2.2,1.8-2,2.8c0.1,0.1,0.2-0.1,0.2,0c-0.3,1.2,1.5,0.5,1-0.5
											c0.2,0.1,0.4,0,0.6,0.2c0.2-0.3,1.1-2,1.4-0.6c0.5,0,0.6-0.5,1.1-0.5c0,0.8-0.2,1.7-0.1,2.4c0.9,0.2,2.1-0.9,1.7-1.7
											c1-0.2,0.2-1.2,0.5-1.9c0.1-0.2,0.6-0.8,0.7-0.9c0.3-0.3,0.4-0.6,1-0.5c0.1,0.6-0.6,1-0.5,1.6c1.1,0.1,1,0.8,2.1,0.2
											c0.7-0.3,1.4-0.7,1.4,0.5c0.7,0.2,1.4-0.1,2,0.1c0.3,0.1,0.3,0.4,0.5,0.5c0.1,0.1,0.8,0.2,0.8,0.2
											c1.4,1.7-1.9,0.8-2.1,0.9c-0.3-0.7-1.7-0.2-2,0.4c-0.4,0.8,0.6,1.1-0.6,1.1c-0.4,0-0.5-0.2-1-0.1
											c-0.3,0.1-0.5,0.5-0.9,0.6c-0.3,0.1-0.8,0.1-1.2,0.2c-0.3,0.1-1,0.5-1.2,0.5c-0.6,0-1.1-0.7-1.9-0.5
											c-0.6,0.2-0.5,0.4-1,0.8c-0.4,0.3-0.8,0.1-1.1,0.3c-0.8,0.5-0.4,1.4-0.9,2c-0.2,0.3-0.6,0.3-0.8,0.5
											c-0.2,0.3-0.2,0.7-0.5,1c-0.4-0.1-0.8,0-1.1-0.2c-0.5,0.7-1.8-0.2-2.2,0.8c0.1,0,0.2,0,0.4,0c-0.1,0.1-0.2,0.4-0.3,0.5
											c1.7-0.1,0.8,1.9-0.1,2.4c-0.3-0.4-1.1,0.3-1.6,0.4c-0.2,0-0.2,0.3-0.4,0.3c-0.2,0-0.2-0.2-0.4-0.2
											c-0.5,0.1-0.8,0.2-1.1-0.1c-0.4,0.3-0.6,0.8-0.8,1.3c-0.3,0.6-0.3,1-0.4,1.7c-0.1,1-1.7,3.1,0.4,2.7
											c0.4-0.1,1.1-0.6,1.5-0.8c0.2-0.1,0.2-0.4,0.4-0.5c0.2-0.1,0.4,0.1,0.6,0c0.3-0.2,0.7-0.2,1-0.5c0.4-0.4,0.7-0.8,1-1.2
											c0.3-0.3,0.8-1,0.9-1.4c2.1,0.1,0.5-1.4,1.8-1.9c0.7-0.3,1,0.4,1.7,0c0.3-0.2,0.2-0.6,0.5-0.8c0.3-0.2,0.5-0.1,0.8-0.2
											c0.7-0.3,0.7-0.5,1.5-0.3c0.2,0.1,0.4,0.3,0.6,0.4c0.3,0.1,0.5,0,0.8,0.1c0.6,0.2,2.5,1.7,2.7,0.1c-0.8,0-2.4-0.3-2.1-1.5
											c1.9-0.8,2.9,0.6,4.3,1.4c0.5,0.3,1.3,0.8,1.6,1.4c0.3,0.8,0,1.7,1.2,1.5c0-0.2,0.2-0.5,0.2-0.6c0-0.1-0.1-0.1-0.1-0.2
											c0.8-0.4,0-0.5,0-0.9c0-0.2-0.3-0.1-0.2-0.5c0-0.2,0.6-0.1,0.7-0.4c0.2-0.6-0.8-0.6,0.1-1c0.5-0.2,1.2,0,0.9,0.6
											c0.3,0.2,0.5,0.4,0.4,0.8c0.1,0,0.2,0,0.4,0c0.1,0.6-0.2,1.7,0.5,2c0,0.1,0,0.3,0,0.5c0.9,0.1,1.4-0.3,2.1-0.6
											c0.5-0.2,1.5-0.6,2-0.5c0.4,0.1,0.3,0.5,0.8,0.5c0.3,0,0.6-0.6,0.8-0.7c1.2-0.6,0.6,0.3,1.1,1c-0.1,0-0.3,0-0.4-0.1
											c0.3,0.2,0.7,0.4,0.9,0.7c-0.5,0.1-0.9-0.1-1.5-0.1c0.4,0.1,1.3,0.4,1.3,1.1c0.2,0,0.4,0,0.6,0c0,0.1,0,0.2,0,0.3
											c-0.1,0.1-0.1,0.1-0.2,0.3c-0.1,0-0.3,0-0.5,0c0,0.4-0.3,0.6-0.7,0.6c0-0.1-0.1-0.2-0.1-0.3c-0.5,0.3-2.6,1.2-2.7,0.5
											c-0.3,0-0.4-0.2-0.7,0c-0.2-0.4-0.5-0.6-0.9-0.6c-0.3,0.4-0.1,0.8-0.3,1.1c-0.2,0.4-0.7,0.4-0.9,0.8
											c0.2,0.3,0.2,0.6,0,0.9c-0.7,0-0.5-0.8-1-1c-0.2-0.1-0.4,0.1-0.7,0c-0.2-0.1-0.7-0.4-0.9-0.4c-1.9-0.3-0.1,2-1.5,2.1
											c-0.2-0.2-3.6,1.5-3.2,0.2c-1-0.1-0.1-0.6-0.4-1c-0.3-0.5-0.9-0.2-1.4-0.2c-0.6,0-3,0.1-2.2-1.2c-0.1,0-0.2-0.1-0.4-0.1
											c0.2-0.8-0.2-1-0.5-1.6c-0.5-0.2-0.8,0.2-1.2,0.4c-0.4,0.1-1.2,0.1-1.6,0.1c-0.7,0-2.3-0.1-2.7,0.7
											c-1.2,0.1-1.7,0.7-2.6,1.4c-0.7,0.5-0.6,0.5-1.3,0.3c-0.4-0.1-1.1-0.8-1.4,0c-0.6-0.1-0.7,0.2-1.1,0.5
											c-0.2,0.2-0.8,0.7-0.9,0.9c-0.4,0.7-0.5,2.1-1.3,2.4c0.1,0.5-0.6,1.1-0.9,1.4c-0.5,0.7-0.7,0.8-1.5,1.2
											c0,0.5-0.8,1.3-1.2,1.6c0.1,0,0.2,0.1,0.4,0.1c-0.1,0.8-1.3,1.4-1.5,2.2c0.2,0,0.4,0.1,0.6,0c-0.1,0.6,0.4,1,0.1,1.5
											c-0.7,0-0.9,0.7-1.5,0.8c0.1,0.3-0.1,0.3,0.3,0.5c-0.2,0.4-0.6,1.2-0.5,1.7c0.1,0.8,0.5,0.8,0.2,1.7
											c-0.4,1.2-1.3,1.9-1.4,3.1c0.1,0,0.2,0,0.4,0c0.2,0.2,0.4,0.6,0.3,0.9c0.1,0,0.3,0,0.5,0c0.2,0.4,0.2,0.8-0.1,1.1
											c0.1,0.3,0.3,0.5,0.5,0.7c0-0.1,0.2-0.3,0.2-0.4c1-0.1,1.3,1.4,1.8,2c0.3,0.5,0.5,0.7,0.8,1.2c0.2,0.4,0.3,0.9,0.5,1.3
											c0.3,0.5,0.7,0.5,1.1,0.9c0.5,0.5,0.2,0.9,1.1,1.1c0.8,0.1,2.3-0.3,2.2-1.2c0.6-0.2,0.7,0.4,1.2,0.4
											c0.5,0,0.6-0.2,1.1-0.2c0.7,0,1.5,0.8,1.8-0.6c0.6,0,0.8-0.5,1.3-0.9c0.5-0.4,1.1-0.4,1.5-0.7c0.7-0.6,0.8-2.7,1.8-1.4
											c0,0.1,0,0.2,0,0.3c1-0.1,1.4,1.2,1.7,1.9c0.1,0.2,0.2,1.3,0.3,1.3c0.5,0.3,1.2-0.3,1.2-0.8c0.4-0.1,0.6,0.3,0.9,0.2
											c0.3-0.1,0.5-0.5,0.9-0.6c0.3-0.1,0.8,0,1.1,0.1c0.6,0.3,0.2,0.2,0.6,0.7c0.4,0.5,0.8,1.1,0.9,1.8
											c0.1,0.9-0.5,1.6-0.6,2.4c0,0.8,0.4,1.2,0.9,1.6c0.5,0.4,0.7,0.8,1.3,1.3c0.7,0.5,3.9,0.8,2.6,2c1.3,0.1,0.3,0.9,0.6,1.5
											c0,0,0.1,0.1,0.1,0.1c-0.3,0.6-0.4,1.5,0.6,1.6c0,0.4,0,0.7,0,1.1c0,0.2-0.3,0.3-0.3,0.4c0,0.2,0.5,0.4,0.5,0.5
											c0,0.7-0.2,1.1-0.7,1.7c-0.5,0.7-1,0.9-1.2,1.7c-0.1,0.5-0.2,0.4-0.2,0.8c0,0,0.2,1.2,0.2,1.2c0.2,0.5,1.4,0.9,1.9,1.1
											c0.8,0.3,1,0.9,1.6,1.2c0.3,0.2,0.7,0,1.1,0.1c0.4,0.1,0.6,0.3,1,0.4c1,0.2,1.6-0.1,0.8,0.9c-0.3,0.3-0.8,0.2-0.8,0.8
											c1,0.5-1.1,1.5-0.2,2.4c0.3,0.3,1,0.1,1.4,0.5c0.4,0.4,0,1.1,0.7,1.5c0,0.1,0,0.3,0,0.5c0.3,0.2,0.2,0.1,0.4,0.4
											c0.5,0,1.1,0.6,1.4,1.1c0.2,0.1,0.1,0.2,0.2,0.5c0,0.1-0.1,0.3-0.1,0.5c0.1,0.1,0.3,0.1,0.4,0.2c0.2,0.6,0.2,0.9,0.2,1.6
											c0.8,0.1,1.6,0.2,1.6,1.2c0.8,0.1,0.6-0.8,0.8-1.2c0.2-0.5,0.5-0.7,0.9-1.2c0.6-0.7,0.2-0.5,1.1-0.7
											c0.6-0.2,1.1-0.2,1.2-1c1.3-0.1,2.1-0.6,3.2-1.2c0.6-0.3,1-0.4,1.4-1c0.5-0.8,0.1-0.8,0.2-1.5c-0.9-0.3,0.2-1.5-0.9-1.7
											c0.3-1.1,2.3-0.4,2.4-1.4c0.6-0.3,1.2-0.4,1.6-0.9c0.5-0.7,0.6-1.1,0.3-1.6c-0.2-0.3-0.4-0.5-0.6-0.9
											c-0.1-0.3,0.1-0.3-0.3-0.7c-0.5-0.5-1.2-0.3-1.4-1c-0.2-1,0.9-0.9,1.6-1.1c1.1-0.3,0.9-0.8,1.5-1.6
											c0.2-0.3,0.7-0.3,0.9-0.5c0.2-0.3,0.1-0.9,0.3-1.2c0.2-0.3,0.5-0.3,0.7-0.8c0.1-0.3,0.1-0.5,0.2-0.9
											c-0.2-0.2,0.1-1.1,0-1.6c-0.1-0.7-0.5-1.2-0.3-1.9c-0.1,0-0.2-0.1-0.4-0.1c0.4-1.1-0.7-1.1-1.4-1.3c0,0,0,0,0,0
											c0-0.1-0.1-0.1-0.1-0.2c-0.2-0.4-0.5-0.7-0.9-1.1c-0.4-0.4-0.9-0.4-1-1c-0.5-0.2-2.9,0.3-1.9-1.1c0.3-0.4,1-0.2,1.4-0.4
											c0.6-0.3,0.5-0.3,0.7-1.1c0.2,0.1,0.5,0,0.7,0.1c0.3-0.6,0-1.4,0.2-1.9c0.1-0.3,0.6-0.4,0.9-0.7c0.4-0.4,0.3-0.4,0.5-0.9
											c0.3-0.7,0.5-1,1-1.6c0.6-0.5,0.8-0.7,0.8-1.6c-0.1,0-0.3,0-0.5,0c-0.1-0.5,0.4-0.7,0.5-1.2c1.3-0.3,0.5-1.2,1-2
											c0.2-0.4,0.8-0.4,1-0.7c0.2-0.4-0.3-0.9-0.2-1.4c1.1-0.2,1.9-1,2-2.2c-0.1,0-0.2-0.1-0.3-0.1c0-1,0.8-1.8,1-2.8
											c0.2-0.9,0.8-2.3,0.3-3.1c-1-0.2-0.6,1-1,1.4c-0.5,0.5-1.5-0.1-1.5,0.8c-0.9,0.1-1.1,1.3-1.9,1.5c-0.7,0.3-2-0.3-2,1.1
											c-0.9-0.1-3.4,1.4-3.8-0.1c0.4-0.2,2.4-1.3,0.8-1.4c0.2-0.3,0.1-0.7-0.1-1c-1.1-0.2-1.4,1.4-2-0.2c-0.4,0-0.7,0.1-1,0.1
											c0.1-0.9-0.2-1-0.7-1.5c-0.3-0.4-0.3,0-0.5-0.6c-0.1-0.4-0.1-1-0.2-1.4c-0.5-0.1-1.2-0.2-1.5-0.6c-0.2-0.2,0-0.7-0.2-0.8
											c-0.2-0.2-0.6-0.2-0.9-0.3c-0.9-0.4-1.8-0.6-2.8-1.1c0.4-1-1.2-0.7-1.6-1c-1-0.6-0.5-1.1,0.2-1.4c0.5-0.2,1.7,0.1,1.4-0.5
											c-0.4-0.8-1.2-0.2-1.9-0.3c-0.4-0.7,0.5-1.1,1.5-1.6c0.5,0.2,0.9,1,1.1,1.3c0.3,0.4,1.1,0.7,1,1.3c0.5-0.1,1,0.2,1.2,0.7
											c1.3-0.1,2.4,0.8,3.6,1.3c0.6,0.3,3.4,1.3,3.4,1.6c1.3,0.1,1,1.2,0.8,2c1,0.1-0.3,1.5,1,2c1,0.3,1.9,0,2.8-0.4
											c0.6-0.2,1.1-0.3,1.7-0.5c0.3-0.1,0.6,0,0.9-0.2c0.5-0.3,0.1-0.4,0.3-0.7c0.5-0.7,1.5-1.1,2.1-1.8
											c-0.6-0.6,0.5-1.3,0.7-1.9c-1.1,0-0.9-1.2-0.7-1.9c-0.2,0.1-0.5,0-0.7,0.1c0-0.3,0.9-3.1-0.5-1.7c0.1-0.9-0.5-0.5-0.9-0.6
											c-0.7-0.2-0.5,0.2-0.8-0.7c-0.2-0.6-0.5-2-1.4-1.7c-0.3,0.7-0.1,2-1.4,1.8c-0.4-0.1-0.4-0.5-0.8-0.6
											c-0.5-0.1-0.6,0.2-1.1,0c-0.6-0.3-1-1.3-1.3-1.7c-0.5-0.5-1.6-0.6-1.2-1.6c-1-0.1-0.4-1.8,0.6-1.5c0.7,0.2,0.5,1.4,1.7,1
											c0,0.7,0,0.9,0.4,1.2c0.3,0.3,0.7,0,1,0.7c0.7,0.2,1.1-0.6,1.8-0.5c0.1,0.3,1.1,1,1.3,1.1c0.3,0.1,1.7,0.1,2,0
											c0.4-0.1,0.2-0.6,0.5-0.7c0.3-0.2,0.6,0,0.8,0c0.6-0.1,1.6-0.6,1.4,0.7c0.5-0.1,1,0.2,1.5,0.2c0.9,0.1,0.7-0.2,1.3,0.5
											c-0.1,1,2.8,1.2,3.5,1.1c0.4,0.5,1.3,0.3,1.1,1.1c0.7,0.3,0.1,0.6,0.3,1.1c0.2,0.5,0.5,0.4,1,0.8c0.1,0.1,0.2,0.4,0.2,0.5
											c0,0,0.6,0.3,0.6,0.3c0.4,0.5,0.4,0.6,0.4,1.3c1,0.2,1.5,1.1,1.5,2.1c0,0.4-0.3,0.8-0.1,1.2c0.3,0.6,0.7,0.3,1.1,0.6
											c0.8,0.6,0.5,1.4,1.2,1.9v-7.4c-0.8-0.3,0.2-1.2-0.3-1.8c-0.3-0.4-1.6-0.5-2-0.8c-0.3-0.2-0.4-0.6-0.5-0.8
											c-0.2-0.3-0.7-0.4-0.5-1c0.1-0.3,0.7-0.2,0.9-0.5c0.2-0.4,0-0.8,0.1-1.3c0.1,0,0.3,0,0.5,0c0-0.6-0.2-1.5,0.7-1.2
											c-0.1,0.7,0.1,1.9,1,1.8c0.4,0.8-0.5,1.2,0.2,1.9c0.3,0.3,0.8,0,1,0.3c0.2,0.2,0.1,0.8,0.1,1.1c1,0.4,1,1.7,2.2,1.5
											c-0.1-0.3,0-0.5-0.3-0.8c0.7-0.7,0.5,0.4,0.6,0.6c0.2,0.3,0.5,0.5,0.7,1c0.1,0.4,0,0.9,0.1,1.3c0.1,0.4,0.4,0.6,0.3,1.1
											C183.9,38.2,185.7,39.8,186.5,39.9z"/>
										<path class="st5" d="M159.3,84.6c0.7,0.2,1.1,0.1,1.6-0.4c0.2-0.2,0.2-0.6,0.4-0.7c0.2-0.2,0.6-0.2,0.8-0.4
											c0.2-0.2,0-0.7,0.2-0.9c0.2-0.3,0.6-0.1,0.9-0.4c0.6-0.5,0.2-0.9,0.4-1.7c0.2-1.2,1.4-1.2,2.4-1.8c0.4-0.2,1.1-0.5,0.8-1
											c-0.3-0.5-1-0.1-1.5-0.2c0.1-0.9,0.3-1-0.8-1.2c-0.1-0.6,0.3-1,0.9-1.1c-0.1-0.3,0-0.5-0.1-0.7c1,0,0.8-1.3,0.9-1.9
											c0.1-0.4,0.3-0.6,0.3-1.1c0-0.4-0.2-0.8-0.1-1c0.1-0.7,0.6-3.6-0.7-4c-0.2-0.3-0.3-0.4-0.5-0.6l-0.6,0.1
											c0.8,1.1,0.4,1.1-0.1,2c-0.3,0.6,0.1,1.6-0.4,2.2c-0.2,0.3-0.8,0.4-1.1,0.7c-0.3,0.2-0.5,0.8-0.7,1.1
											c-0.2,0.3-0.2,0.8-0.4,1.1c-0.3,0.5-0.8,0.5-1.1,0.8c-0.8,0.7-0.5,1.3-0.3,2.1c0.1,0.6,0.2,1.4,0,2.2
											c-0.1,0.4-0.3,0.8-0.4,1.2c0,0-0.3,0.6-0.3,0.5c0,0.2,0.4,0.5,0.4,0.5c0,0.8-0.2,1.5-0.4,2.3
											C159.6,83,159.7,84,159.3,84.6z"/>
										<path class="st3" d="M102,101.3c-0.2-0.3-0.4-0.8-0.6-1.1c-0.5-0.6-0.9-1.3-1.4-1.9c-0.6-0.7-1.5-1.2-1.8-2
											c-0.3-0.7-0.3-1.9-1.2-2.2c0.1-0.7-0.5-1.1-0.4-1.8c-0.3,0-1-0.6-1.2-0.8c-0.4-0.5-0.3-0.7-0.5-1.3
											c-0.1-0.2-0.4-0.3-0.4-0.6c0,0,0.2-0.6,0.2-0.6c0.2-0.6,0-0.7,0.7-1c0.6-0.3,0.8,0.3,1.1-0.5c0.1-0.3-0.2-0.9-0.3-1.2
											c-0.4-0.9-0.4-1.5-1.5-1.6c-0.5-0.3-0.2-0.6-0.4-1c-0.2-0.6-0.5-1.3-0.7-1.9c-0.1-0.3,0-1-0.2-1.3
											c-0.2-0.3-0.6-0.2-0.8-0.5c-0.8-0.8-0.2-0.9,0.2-1.4c0.3-0.4,0.3-0.3,0.5-0.8c0,0-0.2-0.3-0.2-0.4
											c0.1-0.2,0.4-0.2,0.4-0.3c0.3-0.6,0.8-1.2,0.8-2c0.1-0.8-0.4-1.2-0.5-2c-0.1-0.9,0.3-1.1-0.6-1.8c-0.4-0.3-1.6-0.5-1.7-1
											c-0.7-0.1-1.6,0.8-1.7-0.4c-1.1-0.3-1,1.1-1.9,0.8c-0.2-0.6-0.9-2.1-1.6-2.2c-0.1-0.6,0.7-2.3-0.6-2c0-0.3,0-0.7,0-1
											c-0.3-0.2-0.2-0.1-0.3-0.4c-0.2-1.2,0.6-3.1-0.8-3.9c-0.6-0.4-1.2,0.2-1.8-0.3c-0.5-0.4-0.5-1.6-0.4-2.2
											c0.2-1,0-1.3-0.3-2.3c-0.3-0.8-0.1-1.4-0.3-2.2c-0.3-1.3-0.5-2.5-0.8-3.9c-2,13.7,1.1,28.2,9.9,40.3
											c3.2,4.4,7,8.2,11.1,11.3c0.4,0,0.7,0,1.1,0C102.8,101.7,102.3,101.6,102,101.3z"/>
										<path class="st6" d="M168.1,99.2v-0.1c-0.2,0.4-0.2,0.7-0.6,1.1c-0.4,0.4-0.4,0.4-0.5,0.9c-0.1,0.3-0.1,0.4-0.3,0.6
											c0,0-0.4,0.5-0.3,0.5c-0.2,0.2-0.6,0.2-0.8,0.5c-0.4,0.4-0.3,0.5-0.8,0.8c-0.4,0.2-0.8,0.4-1.2,0.5c-1,0.2-0.9-1.2-1.8-1
											c-0.1,0.3-0.5,0.3-0.8,0.4c-0.3-0.5-0.6-0.3-1-0.2c-0.4,0.7-1,1.4-1.8,1.6c-0.6,0.1-0.5-0.1-1.1-0.2
											c-0.1,0-0.6,0.1-0.7,0.1c-0.3,0.2-0.2,0.4-0.4,0.5c-0.4,0.2-0.7,0.3-1.1,0.5c-0.4,0.3-0.7,0.6-1.1,0.8
											c-0.6,0.2-1.1,0.2-1.7,0.4c-0.4,0.2-1.1,0.2-1.5,0.5c-0.2-0.1-0.4-0.3-0.7-0.2c0,0.1,0,0.3,0,0.4c-0.3,0-0.5,0.3-0.8,0.5
											c-0.2,0.1-0.3,0.1-0.5,0.2c-0.2,0.1-0.2,0.2-0.3,0.4c0.4,0.1,0.2,0.2,0.2,0.5c0,0-0.4,0.6-0.4,0.6
											c-0.4,0.3-1.5,0.2-1.7-0.3c-0.3,0.3-0.7,0.3-0.9,0.6c-0.4-0.1-0.6-0.3-1-0.4c-0.6-0.1-0.8,0.2-1.2,0.4
											c-0.7,0.3-1.5-0.2-2.2-0.1c-0.1-0.6-0.6-0.5-0.5,0.1c-0.3,0-0.6,0-0.9,0.1c-0.3-0.1-0.7-0.2-1,0c-0.7-0.7-2.5,0.8-3.1,1.3
											c-0.1,0.1-0.1,0.4-0.3,0.5c-0.1,0.1-0.3,0.1-0.5,0.3c-0.2,0.2-0.4,0.4-0.6,0.6c-0.1,0.1-0.4,0.3-0.6,0.4
											c11.6,0.3,23.4-3.1,33.5-10.5c0.1-0.1,0.2-0.1,0.3-0.2c0-0.3,0-0.6,0.1-0.9c0.1-0.2,0.9-0.8,0.1-0.9
											c0.4-0.3,0.1-0.4,0.2-0.7C168.1,99.7,168.3,99.5,168.1,99.2z"/>
										<path class="st3" d="M113.3,15.4c0,0,1.3-0.6,1.4-0.7c0.4-0.3,0.1-1,0.9-0.9c0.5-0.8,1-1.3,1.4-2.1c0.2,0,0.3-0.2,0.5-0.3
											L118,11c-0.3,0.2-1.9,1-2.4,1.1c-0.4,0.1-0.8,0-1.2,0.1c-1,0.3-0.5,0.3-0.9,1C113.3,13.6,112,15.3,113.3,15.4z"/>
									</g>
									<g>
										<defs>
											<path id="SVGID_00000004531563398950218300000005988821531833312154_" d="M179.2,26.2c17.8,24.4,12.5,58.6-11.9,76.4
												c-24.4,17.8-58.6,12.5-76.4-11.9c-17.8-24.4-12.5-58.6,11.9-76.4C127.2-3.5,161.4,1.8,179.2,26.2z"/>
										</defs>
										<clipPath id="SVGID_00000049913837294940797290000004998286642720902551_">
											<use xlink:href="#SVGID_00000004531563398950218300000005988821531833312154_"  style="overflow:visible;"/>
										</clipPath>
										
											<radialGradient id="SVGID_00000033371327568651464260000005377445182708178345_" cx="104.5909" cy="-40.5182" r="47.05" gradientTransform="matrix(0.8077 -0.5896 0.5896 0.8077 -41.5582 139.0248)" gradientUnits="userSpaceOnUse">
											<stop  offset="0" style="stop-color:#FFFFFF"/>
											<stop  offset="0.2683" style="stop-color:#FBFBFB;stop-opacity:0.7317"/>
											<stop  offset="0.5196" style="stop-color:#F0F0F0;stop-opacity:0.4804"/>
											<stop  offset="0.7632" style="stop-color:#DEDEDD;stop-opacity:0.2368"/>
											<stop  offset="1" style="stop-color:#C4C4C3;stop-opacity:0"/>
										</radialGradient>
										
											<path style="opacity:0.5;clip-path:url(#SVGID_00000049913837294940797290000004998286642720902551_);fill:url(#SVGID_00000033371327568651464260000005377445182708178345_);" d="
											M63.4,22.7c15.3,21,10.7,50.5-10.3,65.8c-21,15.3-50.5,10.7-65.8-10.3c-15.3-21-10.7-50.5,10.3-65.8
											C18.7-2.9,48.1,1.7,63.4,22.7z"/>
										
											<radialGradient id="SVGID_00000008117215178928823910000013028851284988771506_" cx="107.1786" cy="-34.5321" r="34.0542" gradientTransform="matrix(0.8077 -0.5896 0.5896 0.8077 -41.5582 139.0248)" gradientUnits="userSpaceOnUse">
											<stop  offset="0" style="stop-color:#FFFFFF"/>
											<stop  offset="0.9607" style="stop-color:#C6C6C5;stop-opacity:3.934383e-02"/>
											<stop  offset="1" style="stop-color:#C4C4C3;stop-opacity:0"/>
										</radialGradient>
										
											<path style="opacity:0.5;clip-path:url(#SVGID_00000049913837294940797290000004998286642720902551_);fill:url(#SVGID_00000008117215178928823910000013028851284988771506_);" d="
											M59.5,25.6c13.7,18.8,9.6,45.2-9.2,58.9C31.5,98.2,5.1,94.1-8.6,75.3c-13.7-18.8-9.6-45.2,9.2-58.9
											C19.4,2.7,45.7,6.8,59.5,25.6z"/>
									</g>
								</g>
							</g>
						</g>
					</g>
				</g>
				<path class="st9" d="M179.2,26.2c-0.8-1-1.6-2.1-2.4-3c-5-3.7-13.4-7.7-27.1-8.3c-26.6-1.2-44.9,10.4-49.3,34.5
					c-4.4,24.2,17.9,49.9,53.4,44c25.8-4.3,32.1-19.3,35.6-29.3C190.8,51.1,187.5,37.6,179.2,26.2z"/>
			</g>
			<g>
				<g>
					<g>
						<g>
							<g>
								<g>
									<g>
										<path class="st10" d="M183.7,109.5l0,26.1c0,0-30.7,2.4-37.4,0.3c-6.7-2.1-3.5-10.9-3.5-15.1c0-4.2,0.1-14.4,1.2-16.9
											c1.1-2.4,6.1-1.2,12.4-0.4C162.5,104.3,183.7,109.5,183.7,109.5z"/>
									</g>
									<path class="st11" d="M142.8,120.7c0-4.2,0.1-14.4,1.2-16.9c1.1-2.4,6.1-1.2,12.4-0.4c6.2,0.8,27.4,6,27.4,6l0,4.4
										c-5.7-1.4-20.5-4.2-25.4-4.8c-6.2-0.8-10.6-1.6-11.7,0.8c-1.1,2.4-1.4,11.6-1.4,15.8c0,2.3-0.9,6-0.7,9.2
										C140.3,131.9,142.8,124.5,142.8,120.7z"/>
									<g class="st12">
										<g>
											<path class="st13" d="M143,104.3l40.4,7.4C183.4,111.6,150.9,104.5,143,104.3z"/>
											<path class="st13" d="M141.9,119.2l40.8,3.2C182.7,122.4,149.8,118.7,141.9,119.2z"/>
											<path class="st13" d="M141.9,117.6l40.8,4.2C182.7,121.8,149.8,117.2,141.9,117.6z"/>
											<path class="st13" d="M141.9,116.6l40.8,4.2C182.7,120.8,149.8,116.2,141.9,116.6z"/>
											<path class="st13" d="M141.9,115.2l40.7,4.6C182.6,119.9,149.9,114.9,141.9,115.2z"/>
											<path class="st13" d="M141.9,113.5l40.7,5.5C182.6,119,149.9,113.3,141.9,113.5z"/>
											<path class="st13" d="M141.9,112.2l40.7,5.5C182.6,117.7,149.9,112.1,141.9,112.2z"/>
											<path class="st13" d="M142,110.6l40.6,5.9C182.6,116.5,149.9,110.6,142,110.6z"/>
											<path class="st13" d="M142,109.2l40.6,5.9C182.6,115.1,149.9,109.1,142,109.2z"/>
											<path class="st13" d="M142,107.7l40.6,6.3C182.6,114,150,107.7,142,107.7z"/>
											<path class="st13" d="M141.8,106.1l40.6,6.3C182.4,112.4,149.8,106.1,141.8,106.1z"/>
										</g>
										<g>
											<path class="st13" d="M143,133.1l39.3-0.1C182.4,133,151,134.2,143,133.1z"/>
											<path class="st13" d="M142,120.5l40.5,2.7C182.5,123.2,150,121.9,142,120.5z"/>
											<path class="st13" d="M142.1,121.8l40.4,2.3C182.5,124.1,149.9,123.5,142.1,121.8z"/>
											<path class="st13" d="M142.1,123.6l40.4,1.4C182.5,125.1,150,125.1,142.1,123.6z"/>
											<path class="st13" d="M142.1,124.9l40.4,1.5C182.4,126.3,150,126.4,142.1,124.9z"/>
											<path class="st13" d="M142.1,126.5l40.3,1C182.4,127.5,150,127.9,142.1,126.5z"/>
											<path class="st13" d="M142.1,127.9l40.3,1C182.4,129,150,129.3,142.1,127.9z"/>
											<path class="st13" d="M142.1,129.4l40.3,0.6C182.4,130,150,130.8,142.1,129.4z"/>
											<path class="st13" d="M141.9,131.1l40.3,0.6C182.2,131.7,149.8,132.4,141.9,131.1z"/>
										</g>
										<path class="st13" d="M142.7,134.3l40.5,0.5C183.2,134.7,150.7,135.4,142.7,134.3z"/>
									</g>
									<g>
										<g>
											<g>
												<path class="st14" d="M147,100.3c0,0-66.9,7.2-72.4,8.8c-5.5,1.6-4.2,17.8-3.3,22.8c0.9,5,4.6,6.5,8.5,6.6
													c3.9,0.2,72.9-0.1,72.9-0.1s-9.3-1.7-10.3-8.8c-1-7.1,0.6-21.1,0.9-23.5C143.7,103.8,147,100.3,147,100.3z"/>
											</g>
										</g>
										<g>
											<path class="st15" d="M140.7,119c0.1-1.1,0.1-2.1,0.1-3.1c0-0.6,0-1.3,0.1-1.9c0.1-5.1,0.3-10.3,3.2-12.6
												c1.3-1.1,3.1-1.4,5.1-1c6,1.1,31.1,6.5,36.6,7.6l0,3.6c-3.5-0.8-31-6.6-37.1-7.7c-1.4-0.2-2,0.1-2.3,0.3
												c-1.7,1.4-1.9,6-2,10.1c0,0.7,0,1.3-0.1,2c0,1-0.1,2.7-0.1,3.1c0,0.9-0.5,13.5,1.6,14.9c2.4,1.2,22,2.2,39.9,1.3l0,3.5
												c-6.9,0.3-22.9-0.2-33-0.6c-4.2-0.2-7.3-0.5-8.5-1.1C139.9,134.9,140.3,126.8,140.7,119z"/>
										</g>
									</g>
								</g>
								<path class="st11" d="M146.4,123.8c0,0,0.6,8.7,0.6,14.2c3.3,0.4,6.9,0.5,6.9,0.5S152.3,124.2,146.4,123.8z"/>
							</g>
							<path class="st15" d="M75.6,110.1c0,0,45.3-5.3,52.7-6c7.4-0.7,9.9-1.4,10.9-0.7c1,0.7,0.6,7.3,0,8.2s-5.1,0.9-10.1,1
								c-5,0.1-53.6,2.3-55,2.4c-1.4,0-1.1-2.2-0.6-3.1C73.9,111,74.5,110.2,75.6,110.1z"/>
						</g>
					</g>
					<g>
						<path class="st16" d="M185.8,164.9c0,0,3.4,9.1,3.3,16.6c1.2-1.8,2.5-4.1,2.5-4.1l4,3.6c0,0-2.5-16.7-5.7-21.8
							C186.7,154.1,185.8,164.9,185.8,164.9z"/>
						<g>
							<path class="st17" d="M64.5,165.2l12.2,7.8h101.9l11.3-7.8c0,0-49.2-1.7-65.4-2.9C108.4,161.1,64.5,165.2,64.5,165.2z"/>
							<g>
								<g>
									<g>
										<g>
											<path class="st18" d="M64.5,138c0,0,120.6,0.5,125,1c2.7,0.8,2.5,7.8,2.7,13.7c0.2,5.9,0.3,11.6-2.3,12.5
												c-2.6,0.9-123.4,0.1-125.4,0c-2-0.1-3.3-3.9-3.6-10.1C60.8,148.9,60.1,137.9,64.5,138z"/>
										</g>
									</g>
								</g>
								<path class="st19" d="M64.5,139.8c0,0,65.8,0,86.5,0s32.8,0,35.7,0c2.8,0,3.8,1.3,4,3.5c0.2,2.3-0.7,2.6-6.3,2.6
									c-5.6-0.1-116.1,0-119.8,0S61.7,139.8,64.5,139.8z"/>
								<g class="st20">
									<g>
										<g>
											<g>
												<g>
													<path class="st17" d="M192.2,152.7c-0.2-5.9,0-12.9-2.7-13.7c-0.9-0.1-7.1-0.2-16.2-0.3c0.9,2.9,0.6,6.1-1.4,8.2
														c-6.5,7.7-16.5,11.5-23,18.8c22.1,0,40-0.1,41-0.4C192.5,164.3,192.4,158.6,192.2,152.7z"/>
												</g>
											</g>
										</g>
									</g>
								</g>
							</g>
						</g>
					</g>
					<g>
						<g>
							<g>
								<g>
									<g>
										<path class="st21" d="M131.4,259.9c0,0-78.7-15.6-84.6-17.4c-5.9-1.8-7.7-19.1-1-21.3c6.6-2.2,81.7-6.8,81.7-6.8l87.3,5
											L131.4,259.9z"/>
									</g>
									<path class="st22" d="M46.9,242.5c5.9,1.8,84.6,17.4,84.6,17.4l45-22.9l-133-13.9C39.8,228.3,41.9,241,46.9,242.5z"/>
								</g>
								<g>
									<path class="st10" d="M212.7,221.5c-16.2,1.3-74,6.4-81.9,10.8c-9.2,5.1-6.1,25.3,1.5,25.8c6.2,0.4,60.1-11.1,80.4-15.4
										V221.5z"/>
								</g>
								<path class="st11" d="M135.1,238.6c2-1.1,7.4-2.3,14.5-3.4c0.7-0.1,7.2,17.1,7.9,17c18.5-2.8,43-12.3,57.1-13.5l-1.7-17.1
									c-16.2,1.3-74,6.4-81.9,10.8c-8.3,4.6-6.6,21.7-0.5,25.2C128.3,251,129.3,241.8,135.1,238.6z"/>
								<g>
									<g>
										<path class="st23" d="M214.8,240.2c-24.7,5.4-75,15.9-82,15.9c-0.1,0-0.2,0-0.3,0c-2-0.1-4-2.9-4.9-7
											c-1.3-5.7-0.2-12.7,4.2-15.2c7-3.9,60.3-8.9,83.1-10.7v-3.8c-13.8,1.1-76.2,6.3-85,11.2c-6.4,3.5-7.6,12.5-6.1,19.4
											c1.3,5.9,4.1,9.7,7.9,10c0.1,0,0.7,0,0.9,0c8.4,0,62.9-11.7,82.2-15.9V240.2z"/>
									</g>
								</g>
								<g>
									<path class="st22" d="M214.8,244.1v-3.9c-15,3.3-39.4,8.4-57.9,12c0.2,1.3,0.3,2.6,0.4,3.8
										C177,252.3,202.8,246.7,214.8,244.1z"/>
									<path class="st22" d="M148.1,230.3c19.5-2.9,50.7-5.8,66.8-7.1v-3.8c-10.4,0.8-48.3,4-70.2,7.6
										C145.9,228.1,147,229.2,148.1,230.3z"/>
								</g>
								<path class="st13" d="M132.3,235.5l79.4-10.8C211.7,224.6,147.5,231.7,132.3,235.5z"/>
								<path class="st13" d="M131.4,237.7l79.4-10.8C210.8,226.9,146.6,233.9,131.4,237.7z"/>
								<path class="st13" d="M129.3,240.2l80.8-11.3C210.1,228.8,144.5,236.4,129.3,240.2z"/>
								<path class="st13" d="M129.3,242.7l80.7-12.2C210,230.5,144.4,238.9,129.3,242.7z"/>
								<path class="st13" d="M129.3,244.9l80.7-12.7C210,232.3,144.4,241.1,129.3,244.9z"/>
								<path class="st13" d="M129.3,247l80.7-13.3C210,233.7,144.4,243.2,129.3,247z"/>
								<path class="st13" d="M129.9,248.5l80.2-13.2C210.1,235.4,145.1,244.7,129.9,248.5z"/>
								<path class="st13" d="M129.9,250.4L210,237C210,237,145.1,246.5,129.9,250.4z"/>
								<path class="st13" d="M131,252.5l79.3-14.3C210.3,238.1,146.2,248.6,131,252.5z"/>
								<path class="st13" d="M132.3,254.3l78.4-14.8C210.8,239.5,147.5,250.5,132.3,254.3z"/>
							</g>
							<g>
								<path class="st23" d="M44.4,224.3c0,0,53.3,7.8,64.4,9.5c11.1,1.6,13.8,1.1,13.4,5.8c-0.4,4.6-1.9,4.6-17.7,2.4
									c-15.8-2.2-57.1-10.2-60.1-10.7C41.4,230.8,42.7,224,44.4,224.3z"/>
							</g>
						</g>
						<path class="st11" d="M133.1,244.1c0,0,0.7,9.7,0.6,15.8c1.8-0.1,7.2-0.9,7.2-0.9S139.5,244.3,133.1,244.1z"/>
						<path class="st14" d="M133.1,244.1c0,0,6.5,4.2,6.9,23.7c3.1-3.2,5.2-5.2,5.2-5.2l5.5,3.2c0,0-3.6-20.7-7.9-23.6
							C136.5,242.9,133.1,244.1,133.1,244.1z"/>
					</g>
					<g>
						<g>
							<g>
								<g>
									<g>
										<g>
											<g>
												<path class="st24" d="M121.9,228.9c0,0,68.7-8.3,73.8-10.2c5.1-1.8,6.6-16.9,0.9-18.4c-5.7-1.5-70.5-4.9-70.5-4.9
													l-75.4,2.6L121.9,228.9z"/>
											</g>
										</g>
										<g>
											<path class="st25" d="M195.7,218.7c-5.1,1.8-73.8,10.2-73.8,10.2l-33.4-19.7l33.6-6.6l76.7-0.8
												C201.8,206.1,200,217.1,195.7,218.7z"/>
										</g>
										<g>
											<path class="st26" d="M198.7,201.8l-65.4,0.7c3.5,7.7,3.7,17.1,0.4,24.9c19.9-2.5,58.3-7.4,62-8.7
												C200,217.1,201.8,206.1,198.7,201.8z"/>
										</g>
									</g>
									<g>
										<path class="st10" d="M52.5,199.6c14,0.3,63.9,1.8,70.7,5.2c7.9,3.9,5.3,21.5-1.3,22.3c-5.4,0.7-51.9-6.5-69.4-9.3V199.6z
											"/>
									</g>
									<path class="st11" d="M119.6,210.4c-6.3-3.1-49.6-4.6-67-5.1v-5.8c14,0.3,63.9,1.8,70.7,5.2c7.2,3.6,5.7,18.4,0.4,21.7
										C125.4,220.8,124.6,212.9,119.6,210.4z"/>
									<g>
										<g>
											<path class="st26" d="M50.7,215.8c21.3,3.4,64.7,10,70.8,9.6c0.1,0,0.2,0,0.3,0c1.8-0.2,3.5-2.7,4.2-6.3
												c1.1-5,0.2-11-3.6-12.9c-6-3-52.1-4.6-71.7-5v-3.3c11.9,0.3,65.8,1.6,73.3,5.4c5.5,2.7,6.6,10.4,5.2,16.4
												c-1.1,5.2-3.9,8.6-7.2,9c-0.1,0-0.2,0-0.4,0c-7.2,0.4-54.3-6.9-71-9.5V215.8z"/>
										</g>
									</g>
									<g class="st12">
										<path class="st13" d="M121.9,207.6l-68.5-5.4C53.4,202.2,108.8,205.1,121.9,207.6z"/>
										<path class="st13" d="M122.8,209.5l-68.5-5.4C54.2,204.1,109.7,206.9,122.8,209.5z"/>
										<path class="st13" d="M124.5,211.5l-69.7-5.7C54.8,205.8,111.4,209,124.5,211.5z"/>
										<path class="st13" d="M124.6,213.7l-69.7-6.4C54.9,207.2,111.5,211.1,124.6,213.7z"/>
										<path class="st13" d="M124.6,215.6l-69.7-6.9C54.9,208.7,111.5,213.1,124.6,215.6z"/>
										<path class="st13" d="M124.6,217.4L54.9,210C54.9,210,111.5,214.9,124.6,217.4z"/>
										<path class="st13" d="M124.1,218.7l-69.3-7.3C54.8,211.4,111,216.2,124.1,218.7z"/>
										<path class="st13" d="M124.1,220.3l-69.2-7.5C54.9,212.8,111,217.8,124.1,220.3z"/>
										<path class="st13" d="M123.1,222.2l-68.4-8.4C54.6,213.8,110,219.7,123.1,222.2z"/>
										<path class="st13" d="M121.9,223.9L54.2,215C54.2,215,108.8,221.3,121.9,223.9z"/>
									</g>
								</g>
								<g>
									<g>
										<g>
											<path class="st27" d="M197.9,203.4c0,0-43.2,3.4-54.5,4.5c-9.7,1-12.5,0.3-12.2,4.3s5.9,3.1,19.7,1.7
												c15.3-1.6,44.3-4.4,46.8-5C200.4,208.3,199.4,203.1,197.9,203.4z"/>
										</g>
									</g>
								</g>
								<g>
									<path class="st28" d="M191.2,219.6c-0.1,0-0.2-0.1-0.2-0.2c0-0.1,0-0.2,0.2-0.3c0.7-0.2,3.1-1.7,3.5-3.3
										c0.4-1.7,0.9-5.6,1.1-8.9c0.2-3.1-1.9-4.3-2-4.4c-0.1-0.1-0.2-0.2-0.1-0.3c0.1-0.1,0.2-0.1,0.3-0.1c0,0,2.5,1.4,2.2,4.8
										c-0.2,3.3-0.7,7.2-1.1,8.9C194.7,217.8,192.2,219.4,191.2,219.6C191.2,219.6,191.2,219.6,191.2,219.6z"/>
								</g>
								<g>
									<path class="st28" d="M188.2,219.9c-0.1,0-0.2-0.1-0.2-0.2c0-0.1,0-0.2,0.2-0.3c0.7-0.2,3.1-1.7,3.5-3.3
										c0.4-1.7,0.9-5.6,1.1-8.9c0.2-3.1-1.9-4.3-2-4.4c-0.1-0.1-0.2-0.2-0.1-0.3c0.1-0.1,0.2-0.1,0.3-0.1c0,0,2.5,1.4,2.2,4.8
										c-0.2,3.3-0.7,7.2-1.1,8.9C191.7,218.1,189.2,219.7,188.2,219.9C188.3,219.9,188.3,219.9,188.2,219.9z"/>
								</g>
							</g>
						</g>
						<path class="st11" d="M119.2,212.8c0,0-0.6,10.2-0.6,15.9c-1.7-0.1-6.9-0.6-6.9-0.6S113.2,213,119.2,212.8z"/>
						<path class="st17" d="M119.2,212.8c0,0-6.1,4.6-6.5,22.8c-2.9-3-4.8-4.8-4.8-4.8l-5.2,3c0,0,3.4-19.3,7.4-22
							C116,212.4,119.2,212.8,119.2,212.8z"/>
					</g>
					<g>
						<g>
							<g>
								<path class="st10" d="M73.7,168v26.2c0,0,30.3,3.6,36.9,1.8c6.6-1.8,3.5-10.8,3.5-15c0-4.2-0.1-14.5-1.1-17
									c-1.1-2.5-6.1-1.4-12.2-0.9C94.6,163.7,73.7,168,73.7,168z"/>
							</g>
							<path class="st11" d="M114.1,181c0-4.2-0.1-14.5-1.1-17c-1.1-2.5-6.1-1.4-12.2-0.9c-6.1,0.5-27.1,4.9-27.1,4.9v4.4
								c5.6-1.2,20.2-3.4,25.1-3.8c6.1-0.5,10.5-1.2,11.5,1.3c1.1,2.5,1.4,11.7,1.4,15.9c0,2.3,0.9,6.1,0.7,9.3
								C116.5,192.2,114.1,184.7,114.1,181z"/>
							<g class="st12">
								<g>
									<path class="st13" d="M113.9,164.4l-40,5.8C74,170.2,106,164.3,113.9,164.4z"/>
									<path class="st13" d="M114.9,179.5L74.6,181C74.6,181,107.1,178.6,114.9,179.5z"/>
									<path class="st13" d="M114.9,177.8l-40.3,2.6C74.7,180.4,107.1,177.1,114.9,177.8z"/>
									<path class="st13" d="M114.9,176.8l-40.3,2.6C74.7,179.4,107.1,176.1,114.9,176.8z"/>
									<path class="st13" d="M114.9,175.5l-40.3,3C74.7,178.5,107.1,174.8,114.9,175.5z"/>
									<path class="st13" d="M114.9,173.7l-40.2,3.9C74.7,177.5,107,173.2,114.9,173.7z"/>
									<path class="st13" d="M114.9,172.4l-40.2,3.9C74.7,176.3,107,172,114.9,172.4z"/>
									<path class="st13" d="M114.9,170.9l-40.1,4.3C74.7,175.1,107,170.5,114.9,170.9z"/>
									<path class="st13" d="M114.9,169.4l-40.1,4.3C74.7,173.7,107,169,114.9,169.4z"/>
									<path class="st13" d="M114.9,167.9l-40.1,4.7C74.8,172.6,107,167.6,114.9,167.9z"/>
									<path class="st13" d="M115,166.3l-40.1,4.7C74.9,170.9,107.1,166,115,166.3z"/>
								</g>
								<g>
									<path class="st13" d="M113.8,193.3l-39.7-2.1C74.1,191.2,105.9,194.1,113.8,193.3z"/>
									<path class="st13" d="M114.8,180.7l-40,1.1C74.8,181.8,106.9,181.9,114.8,180.7z"/>
									<path class="st13" d="M114.8,182.1l-40,0.7C74.8,182.8,107,183.4,114.8,182.1z"/>
									<path class="st13" d="M114.7,183.9l-39.9-0.2C74.9,183.7,106.9,185,114.7,183.9z"/>
									<path class="st13" d="M114.7,185.1L74.9,185C74.9,185,106.9,186.3,114.7,185.1z"/>
									<path class="st13" d="M114.7,186.7l-39.8-0.6C74.9,186.1,106.9,187.8,114.7,186.7z"/>
									<path class="st13" d="M114.7,188.2l-39.8-0.6C74.9,187.6,106.9,189.3,114.7,188.2z"/>
									<path class="st13" d="M114.7,189.7l-39.8-1C74.9,188.7,106.9,190.7,114.7,189.7z"/>
									<path class="st13" d="M114.9,191.3l-39.8-1C75.1,190.3,107.1,192.4,114.9,191.3z"/>
								</g>
								<path class="st13" d="M114.1,194.5l-40.3-1.9C73.8,192.7,106.2,195.4,114.1,194.5z"/>
							</g>
							<g>
								<g>
									<path class="st29" d="M110,160.2c0,0,66.1,9.9,71.5,11.8c5.4,1.8,4.7,15.7,3.7,20.7c-0.9,5-4.6,6.3-8.4,6.3
										c-3.9,0-68.4-0.8-68.4-0.8s5.1-1.2,6-8.3c1-7.1-0.6-21.2-0.9-23.6S110,160.2,110,160.2z"/>
								</g>
								<g>
									<path class="st30" d="M181.4,172c-2.5-0.9-18.1-3.5-34-6c-9.4,7.7-14.5,20.2-15.4,32.5c18.8,0.2,42.4,0.5,44.7,0.5
										c3.9,0,7.5-1.3,8.4-6.3S186.8,173.9,181.4,172z"/>
								</g>
								<g>
									<g>
										<path class="st30" d="M116.1,179.3c-0.1-1.1-0.1-2.1-0.1-3.1c0-0.6,0-1.3-0.1-1.9c-0.1-5.1-0.2-10.3-3.2-12.8
											c-1.3-1.1-3-1.5-5.1-1.2c-5.9,0.8-30.8,5.2-36.1,6.2v3.6c3.5-0.6,30.6-5.4,36.6-6.2c1.4-0.2,2,0.2,2.3,0.4
											c1.7,1.4,1.8,6.1,1.9,10.2c0,0.7,0,1.3,0.1,2c0,1,0.1,2.7,0.1,3.1c0,0.9,0.5,13.6-1.6,14.9c-2.3,1.1-21.8,0.1-39.4-1.5
											v3.5c6.9,0.6,22.6,1.9,32.6,1.9c4.1,0,7.2-0.2,8.4-0.8C116.9,195.3,116.5,187.2,116.1,179.3z"/>
									</g>
								</g>
							</g>
						</g>
						<path class="st11" d="M110.5,183.8c0,0-0.6,8.7-0.6,14.3c-3.3,0.2-6.8,0.2-6.8,0.2S104.6,184,110.5,183.8z"/>
						<path class="st22" d="M110.5,183.8c0,0-6.4,5.3-6.7,23.3c-2.8-2.5-4.7-4.1-4.7-4.1l-5.1,3.7c0,0,3.6-19.8,7.5-23
							C107.2,183.6,110.5,183.8,110.5,183.8z"/>
					</g>
					<g>
						<path class="st31" d="M116.8,163.2c0,0,59.9,9.4,62.1,9.8c2.2,0.4,2.5,2.5,3,4.2c0.5,1.6-1.3,1-4.9,0.6
							c-3.6-0.3-53.6-6.7-56.3-7.1c-2.7-0.4-3.1-1.4-3.6-2.9c-0.5-1.5-1.1-3.7-1-4.1C116.1,163.3,116.3,163.1,116.8,163.2z"/>
					</g>
					<path class="st32" d="M146.4,123.8c0,0,6.5,5.5,6.8,23.5c2.8-2.4,4.8-3.9,4.8-3.9l5.1,3.9c0,0-3.6-19.9-7.6-23.3
						C149.7,123.6,146.4,123.8,146.4,123.8z"/>
				</g>
			</g>
			<g>
				<g>
					<path class="st33" d="M313.5,256.9c0,0,4.5,2.8,5.9,6.1c1.4,3.3,2.9,4,5.2,4c2.3,0,15.7-17.2,15.8-19.8c0.1-2.6-3.3-3.1-7.3,0
						c-4,3.1-8.1,5.3-12.8,2.3C315.5,250.7,313.5,256.9,313.5,256.9z"/>
					<path class="st34" d="M320.5,261.8c-3.9-4.7,1.5-7.2,3.7-10.8c-1.2-0.1-2.5-0.5-3.8-1.3c-4.9,1.1-6.9,7.3-6.9,7.3
						s4.5,2.8,5.9,6.1c1.4,3.3,2.9,4,5.2,4c0.2,0,0.4-0.1,0.7-0.3C323.6,265.2,322,263.4,320.5,261.8z"/>
					<g>
						<path class="st35" d="M319.2,262.6c0,0,2,5.5,9.9,7.9c3.7-2.5,6.3-6.7,6.3-6.7l-1-1.3c0,0,2.7-3.6,7-8.6c4.3-5,6-8.8,6.6-11.5
							c0.5-2.7-3.2-4.5-5.1-2.8c-1.9,1.7-13.4,9.4-15.4,10c-2,0.6-1.6,3.4,1.3,3.2c1.7,0.9-1.7,4.9-4.1,6.4
							C322.2,260.6,319.2,262.6,319.2,262.6z"/>
						<path class="st36" d="M346.4,239.4c0,1.7-0.6,5.1-4.2,9.8c-5.2,6.7-10.7,14.5-17.7,19.1c1.3,0.8,2.8,1.5,4.6,2.1
							c3.7-2.5,6.3-6.7,6.3-6.7l-1-1.3c0,0,2.7-3.6,7-8.6c4.3-5,6-8.8,6.6-11.5C348.2,241.1,347.4,240,346.4,239.4z"/>
					</g>
				</g>
				<g>
					<path class="st33" d="M262.8,255c0,0,2.3,4.7,4.4,7.3c2,2.6,8,5.7,9.2,6.7c1.2,1-3.6,4.1-10.1,3.8c-6.4-0.3-11.4-1.7-11.8-2.5
						c-0.4-0.7,1-4.2-1.9-13C253.2,253.1,262.8,255,262.8,255z"/>
					<path class="st34" d="M257.8,263.5c0.7-2.1,5.3-1.3,8-3.3c-1.6-2.5-2.9-5.2-2.9-5.2s-9.6-1.9-10.2,2.3c2.9,8.7,1.5,12.2,1.9,13
						c0.1,0.2,0.7,0.5,1.6,0.8C255.9,268.3,256.9,265.4,257.8,263.5z"/>
					<g>
						<path class="st35" d="M254.5,265.9c0,0-1.5,4.7-1.2,12c5.5,3.2,10.1,3.5,10.1,3.5l0.8-2c0,0,3.8,2.5,9.8,3.9
							c6,1.4,11.9,2.5,16.7,0.8c4.8-1.7,2.7-5-4.6-8.3c-7.3-3.3-10.2-8-13.1-10.4c-2.9-2.4-6.2,0.7-5.2,4.3
							C261.6,270.8,256.9,269.2,254.5,265.9z"/>
						<path class="st36" d="M269.8,278.8c-7.9-2.5-14.1-6.5-16.3-8.1c-0.2,1.9-0.4,4.4-0.2,7.2c5.5,3.2,10.1,3.5,10.1,3.5l0.8-2
							c0,0,3.8,2.5,9.8,3.9c6,1.4,11.9,2.5,16.7,0.8c2.8-1,3.2-2.5,1.7-4.3C291.4,284.7,279.2,281.7,269.8,278.8z"/>
					</g>
				</g>
				<g>
					<path class="st37" d="M164.1,246.9c0,0,2.4,4.8,11-4.2c8.6-9-0.2-18-0.2-18S163.9,237.4,164.1,246.9z"/>
					<path class="st38" d="M188.7,221.2c0,0-20.4,8.6-24.6,25.6c-13.3-27.9-19.8-53.3-13.9-72.9c5.8-19.6,27.4-22,31.9-21.4
						c4.5,0.6,18.3,1.6,24.2,13.3s2.9,51.9,2.9,51.9L188.7,221.2z"/>
					<path class="st39" d="M159,208c9.7-8.9,10.5-21.7,5.6-33c-6.8,5.3-10.8,12.7-16.5,18.3c0.3,6.5,1.5,13.5,3.4,20.7
						c2.9-3,4.8-6.8,7.5-10C159,205.6,159,206.4,159,208z"/>
					<path class="st39" d="M179.9,201.5c-10,3.9-19.2,8.1-28.4,12.5c2.8,10.4,7.1,21.4,12.5,32.8c0.7-2.9,1.9-5.6,3.4-8.1
						c-1.9-6.1-3.5-12.3,1.1-16.3c8.2-7.1,18.2-5.7,27.8-2.5l12.7-2.1c0,0,0.3-3.5,0.5-8.8C200.5,203.6,189.5,197.8,179.9,201.5z"/>
					<path class="st40" d="M196.3,160c0.2-1.7-0.3-3.1-1-4.3c-5.3-2.4-10.7-2.8-13.2-3.2c-1.9-0.3-6.8,0-12.3,1.9
						c1.1,0.5,3.7,1.8,4.8,4.3c1.4,3.1,5,8.4,10,8C189.5,166.2,195.7,165.1,196.3,160z"/>
				</g>
				<path class="st41" d="M211.9,225.3c0,0,50.3-12.5,60.2-14.4c10-1.9,41,31.9,50.4,39.6c-7,7.7-9,8.9-9,8.9s-27-16.3-40.5-28.6
					c-22,10.8-48.1,25.4-60.3,25.4c-12.3,0-17.2-8.3-17.1-9.3C195.7,245.9,211.9,225.3,211.9,225.3z"/>
				<path class="st42" d="M322.5,250.5c-9.4-7.7-40.4-41.5-50.4-39.6c-6.2,1.2-28.1,6.5-43.6,10.3c0.6,0.3,1.8,0.5,3.7,0.4
					c7.2-0.6,36.3-5.7,39.8-6.5c3.5-0.8,3.8,3.8,7.4,4.6c3.4,0.8,24.6,21.8,40.6,33.5C320.8,252.4,321.6,251.5,322.5,250.5z"/>
				<g>
					<path class="st33" d="M183.3,194.1c0,0,2.2-9.5,9.9-10.7c0.7,4.1-0.6,6.6-0.6,6.6l-7.2,10.5L183.3,194.1z"/>
					<g>
						<g>
							<path class="st43" d="M181.2,208.1c0,0,14.9-45.1,16.4-47.7c5.4,1.8,27.9,13,27.9,13l3.3,4.3l-26.5-11l-16.6,43.2
								L181.2,208.1z"/>
							<polygon class="st16" points="217.7,217.1 185.8,209.9 202.4,166.7 228.9,177.7 							"/>
						</g>
						<polygon class="st43" points="227.4,160 225.6,173.4 230.6,180 234.3,161.7 						"/>
						<polygon class="st16" points="234.3,161.1 231.2,177.2 233.1,176.2 235.5,161.4 						"/>
						<polygon class="st44" points="228.9,177.7 233.1,176.2 221.6,214 217.7,217.1 						"/>
					</g>
					<g>
						<path class="st33" d="M145.5,184c0,0-6.4,18.8-6,33.6c0.4,14.8,33.7-5.5,44.1-14.4l5.2-3.6l-2.8-9.3c0,0-29.1,13.5-30.2,14
							c-1.1,0.4,3.1-15.1,3.1-15.1S150.2,182.6,145.5,184z"/>
						<path class="st34" d="M146.8,215.2c-3.4-5.1-2.5-11,0-15.2c2.2-2.2,6.4-1.2,9.1,0.8c0.9-4.5,2.9-11.6,2.9-11.6
							s-8.6-6.6-13.3-5.3c0,0-6.4,18.8-6,33.6c0.2,6.8,7.3,6.2,15.9,2.7C151.9,219.8,148.7,218.3,146.8,215.2z"/>
						<path class="st40" d="M141.2,192.6c0,0,7.2-21.1,11.7-25c4.5-3.9,14.7,3.6,13.6,13.1c-1,9.5-6.1,19.7-6.1,19.7
							S151.6,193.4,141.2,192.6z"/>
					</g>
					<path class="st33" d="M183.8,191.9c0,0,3.7-2.5,6.1-4.1c2.4-1.6,8.4-2.9,11.6-1.8c2,1.5-0.7,1.7-1.5,1.7
						c-0.8,0-4.8,1.2-6.9,2.8c3.7-1.3,7.4-2.4,10.4-1.7c1.5,0.6,1,2.5-0.6,2.5c-1.6,0-5.3,0.3-10.3,3c2.8-0.6,7.7-2,10.5-1.2
						c1.2,0.7,1,1.9-1.3,2.1c-2.3,0.2-8.9,2.2-8.9,2.2c6-0.8,7.3-0.3,8.1,0.1c0.8,0.4,0.1,1.6-1.6,1.5c-1.8-0.2-4.3-0.1-6.6,1.2
						s-5.8,2-8.6,1.3C181.3,200.9,183.8,191.9,183.8,191.9z"/>
				</g>
				<path class="st42" d="M166.6,240.4c0,0-0.4,17.1,19.2,22.1c19.6,5,41.3-49.3,44.5-54.6c4.6,23.7,13.4,35.7,20.7,52.7
					c11.1-1.8,14.4-4.7,14.4-4.7s-15.1-49.5-18.9-63.9c-3.8-14.4-18.2-19.3-29-8c-10.9,11.2-30.9,37.5-37.4,41.9
					C170.7,231.9,166.6,240.4,166.6,240.4z"/>
				<path class="st41" d="M179.1,250.6c-3.2-8.4-2.3-18.3,2.4-26.1c-0.6,0.5-1.1,0.9-1.5,1.2c-9.3,6.2-13.4,14.7-13.4,14.7
					s-0.4,17.1,19.2,22.1c0.6,0.1,1.1,0.2,1.7,0.3C183.8,259.6,180.8,255.5,179.1,250.6z"/>
				<path class="st45" d="M265.3,255.8c0,0-15.1-49.5-18.9-63.9c-2.4-9-8.9-14.3-16.1-14.2c-0.5,0.3-1,0.8-1.4,1.4
					c-3.4,4.7,2.5,13.5,7.9,16.3c5.4,2.9,3.8,13.3,5.5,17.9c1.5,3.8,13.5,35.5,17.2,45.4C263.9,257.2,265.3,255.8,265.3,255.8z"/>
				<g>
					<g>
						<path class="st33" d="M172.3,153.7c0,0,5.5-7.9,7.8-17.4c5,4,13.4,8,13.4,8s-1.8,8.5-0.7,10.8c1.1,2.3,2.8,4.9-0.2,6.8
							c-3,1.9-9.2,3.3-13-0.6C175.7,157.5,174.9,155,172.3,153.7z"/>
						<path class="st34" d="M178.5,154.1c4.7-1.8,9.5,2.3,14.2,0.7c-0.8-2.6,0.8-10.5,0.8-10.5s-8.3-4.1-13.4-8
							c-2.4,9.5-7.8,17.4-7.8,17.4c1.1,0.6,1.9,1.4,2.8,2.4C176,155.1,177.1,154.4,178.5,154.1z"/>
					</g>
					<g>
						<g>
							<path class="st33" d="M206.4,128.2c0,0,1.4,2-3.8,11.8c-5.2,9.8-5.9,12.8-9.7,13c-3.8,0.2-12-5.6-11.8-11
								c0.2-5.5,1.4-10.1,4.2-13.7c2.8-3.6,5.1-6.2,10.3-5.3C200.8,123.8,205.3,125.1,206.4,128.2z"/>
							<path class="st46" d="M206.4,128.2c-1.1-3.2-5.6-4.5-10.8-5.3c-5.2-0.9-7.5,1.7-10.3,5.3c-2.8,3.6-4,8.2-4.2,13.7
								c-0.1,2.1,1.1,4.3,2.8,6.1c-2-3.9,0.3-12.1,4.1-13.5c5.4-2.8,7,4.5,10.9,3.2c0,0,0-1.3,0-2c1,1.4,2.6,2.5,4,3.8
								C207.7,130.2,206.4,128.2,206.4,128.2z"/>
							<path class="st46" d="M182.6,134.8c0-0.1,0.8-2.7-1.2-4.9c-1.9-2.2-4.1,0.8-4.1,4.1c0.1,3.3,0.2,5,1.9,5.2
								C181,139.5,182.5,137.9,182.6,134.8z"/>
							<path class="st33" d="M178.9,135.3c-0.1-2.7,1.4-5.2,3.1-4.7c-0.1-0.2-0.3-0.4-0.5-0.6c-1.9-2.2-4.1,0.8-4.1,4.1
								c0.1,3.3,0.2,5,1.9,5.2l0,0C179,138.4,178.9,137.1,178.9,135.3z"/>
						</g>
						<path class="st47" d="M209,130.5c0,0,3.4,6-1.7,8.1s-8.3-8.1-8.3-8.1c0.6,5.2-5.3,2.8-8.2-2.4c-0.3,3.6-3.6,5-4.9,4.5
							c-1.3-0.5-3,4.3-3,4.3l-1.3-1c0,0,1.6-4.9-0.6-6s-3.4,2.1-3.4,2.1s-0.6-14.5,9.2-15c1.1-4.2,6.3-6.7,9.4-5.4
							c3.1,1.3-0.6,2.8-0.6,2.8c9.5-0.3,14.4,4.5,14.2,6.6c-0.2,2.1-3.4,0.8-3.4,0.8s5.4,3.4,5.8,6.8
							C212.6,132.2,209,130.5,209,130.5z"/>
					</g>
				</g>
			</g>
		</g>
	</g>
</g>
</svg>
