<?xml version="1.0" encoding="utf-8"?>
<!-- Generator: Adobe Illustrator 25.4.1, SVG Export Plug-In . SVG Version: 6.00 Build 0)  -->
<svg version="1.1" id="Layer_1" xmlns="http://www.w3.org/2000/svg" xmlns:xlink="http://www.w3.org/1999/xlink" x="0px" y="0px"
	 viewBox="0 0 387 289.6" style="enable-background:new 0 0 387 289.6;" xml:space="preserve">
<style type="text/css">
	.st0{opacity:0.5;fill:#6B4B34;}
	.st1{fill:#8787C4;}
	.st2{fill:#A5A1DB;}
	.st3{fill:#BEB7EA;}
	.st4{fill:#E5D6C7;}
	.st5{fill:#2C1D1B;}
	.st6{fill:#D8C6B6;}
	.st7{fill:#F4E9DF;}
	.st8{fill:#3F2A28;}
	.st9{fill:#FFFFFF;}
	.st10{fill:#292A26;}
	.st11{fill:#3D2828;}
	.st12{fill:#493030;}
	.st13{fill:#563B3A;}
	.st14{fill:#6D4E4E;}
	.st15{fill:#513736;}
	.st16{fill:#E5A25E;}
	.st17{fill:#9B6C57;}
	.st18{fill:#FAC582;}
	.st19{fill:#F4B46E;}
	.st20{fill:#C43131;}
	.st21{fill:#D34444;}
	.st22{opacity:0.5;fill:#EA5454;}
	.st23{fill:#EA5454;}
	.st24{fill:#F9F7F7;}
	.st25{fill:#BAA593;}
	.st26{fill:#A08673;}
	.st27{fill:#C6B3A1;}
	.st28{fill:#C6B3A3;}
	.st29{fill:#FFB9A4;}
	.st30{fill:#FFC9B6;}
	.st31{fill:#9B7E65;}
	.st32{opacity:0.5;fill:#E5D6C7;}
	.st33{fill:#845C41;}
	.st34{fill:#ADBC2B;}
	.st35{fill:#9EA514;}
	.st36{fill:#898910;}
</style>
<g>
	<path class="st0" d="M176.1,276.2L34.4,194.4c-11.9-6.9-10.4-19,3.4-27l130.1-75.1c13.8-8,34.8-8.8,46.7-1.9l141.7,81.8
		c11.9,6.9,10.4,19-3.4,27l-130.1,75.1C209.1,282.2,188.1,283.1,176.1,276.2z"/>
	<g>
		<g>
			<path class="st1" d="M355.3,175.1c0,0-4.9-4.2-7.6-5.8L213.6,92c-11.3-6.5-31.2-5.7-44.2,1.8l-123,71c-4.6,2.6-10.8,9.3-10.8,9.3
				v6.7l0.2,0.1c0.6,3.6,3,6.9,7.5,9.5l134,77.4c11.3,6.5,31.2,5.7,44.2-1.8l123-71c6.7-3.9,10.3-8.8,10.7-13.6l0,0L355.3,175.1z"/>
			<path class="st2" d="M177.2,263l-134-77.4c-11.3-6.5-9.9-18,3.2-25.5l123-71c13-7.5,32.9-8.3,44.2-1.8l134,77.4
				c11.3,6.5,9.9,18-3.2,25.5l-123,71C208.4,268.7,188.5,269.6,177.2,263z"/>
			<path class="st1" d="M158.4,95.4c0,0,20.5,17.8,54.8,33.3c34.3,15.5,46.2,13.9,70.4,28.4c24.3,14.4,55.9,36.4,55.9,36.4l4.9-3.4
				c0,0-29.4-20.9-62.6-38.7c-35-18.8-54.4-20.7-77.7-32.7c-22.4-11.5-42.1-25.5-42.1-25.5L158.4,95.4z"/>
			<path class="st3" d="M139.2,106.5c0,0,40.7,25.5,59.5,43s58.9,23.7,80.2,36.8c21.3,13.1,35.6,21.1,35.6,21.1l5.8-3.3
				c0,0-17.8-12.5-43.8-26c-26-13.6-54.5-14.6-75.2-33.4c-20.7-18.8-58.2-40.5-58.2-40.5L139.2,106.5z"/>
			<path class="st3" d="M175.8,86.1c0,0,20.3,14.2,39.8,23.2c18.7,8.7,50,23.2,66.7,31.7c8.7,4.5,26.8,17.5,42.9,27.8
				c13.8,8.8,26.6,15.4,26.6,15.4s1.3-1.4,2.3-3.6c-19.4-9.9-37-22.8-56.3-35.1c-19.3-12.3-41-21.2-66.1-33.2
				c-25.1-12-36.8-16.8-51.1-27.7C179.4,84.5,175.8,86.1,175.8,86.1z"/>
			<path class="st1" d="M332.6,197c0,0-28.7-19-50.2-28.2c-23.5-10.1-87.7-23-106.5-29.2c-18.8-6.3-46.6-27.3-46.6-27.3l-6.6,3.8
				c0,0,25.3,16.8,51.5,27.3c26.2,10.5,44.4,12.1,62.4,16.2c18,4.1,35.5,8.5,55.2,18.5c19.6,9.9,36.6,21.5,36.6,21.5L332.6,197z"/>
			<path class="st3" d="M114.7,120.6c0,0,20.2,19.9,38.6,40.8c18.4,20.8,43.8,49.2,69.3,63.1c25.4,13.9,31.5,17.8,31.5,17.8l4-2.3
				c0,0-18-10.5-36.1-22.5c-18.1-12-32.8-21.9-50-42.4c-17.2-20.5-27.7-33.3-38.7-43.4c-11-10.1-14.2-13.6-14.2-13.6L114.7,120.6z"
				/>
			<path class="st3" d="M98.2,130.2c0,0,24.8,32.4,47.3,56.6c22.5,24.2,59.7,40.9,71.9,49.1c12.3,8.3,21.9,14.9,21.9,14.9l6-3.5
				c0,0-32-18.9-47.9-29.4c-15.9-10.4-36.6-20.5-48.6-35c-12.1-14.5-46.3-55.4-46.3-55.4L98.2,130.2z"/>
			<path class="st1" d="M300.1,215.8c0,0-59.4-30-82.7-37.7c-23.3-7.7-96-19.7-112.2-27.7c-16.2-8-21-12.2-21-12.2l-4.9,2.8
				c0,0,7.4,6.7,26.9,14.8c23.5,9.8,66.1,14.7,90.5,20.5c24.4,5.8,35.6,13,54.7,21.9c19,8.9,42.4,21.2,42.4,21.2L300.1,215.8z"/>
			<path class="st1" d="M278.8,228.1c0,0-17.8-9.7-30.3-14.8c-12.5-5.1-65-12.1-90.1-22.2c-25.1-10.1-37.2-14.6-53.4-25.4
				c-16.1-10.8-31.4-21.3-31.4-21.3l-4.1,2.4c0,0,20.8,14.1,35.5,23.9c14.7,9.8,32.2,16.6,49.7,22.9c17.5,6.3,35,12.2,55.6,16.1
				c20.6,3.9,24.3,3.9,36.6,8.4c12.3,4.5,27.5,12.6,27.5,12.6L278.8,228.1z"/>
			<path class="st1" d="M53.6,155.9c0,0,15.3,10.5,33.7,20.2c11.9,6.3,27.7,12.9,36.4,16.5c24.3,10.2,50.5,27.4,71.7,41.3
				c21.2,13.9,35.7,21.6,35.7,21.6L227,258c0,0-16-9.5-40.5-25.2c-24-15.3-43.7-28.2-74.8-41.2c-29.9-12.5-61.1-33.9-61.1-33.9
				L53.6,155.9z"/>
			<path class="st3" d="M40.1,164.9c0,0,7.2,5.5,17.6,10.2c13.7,6.2,30.8,14.8,43.7,27.4c23.9,23.3,52.1,32.7,69.7,39.8
				c19.7,8,42.5,22.3,42.5,22.3l4.9-2c0,0-9.9-8.9-35.4-19.8c-25.5-10.9-41.7-12.9-60.6-28.9c-17.3-14.5-34.5-29.3-53.1-37.7
				c-17.9-8-20.9-9.9-25.8-14.5C42.5,162,40.1,164.9,40.1,164.9z"/>
		</g>
		<g>
			<g>
				<path class="st4" d="M241.1,188.4L241.1,188.4c0.9,1.5,2.8,2.1,4.3,1.2l18-10.1c1.5-0.9,2.1-2.8,1.2-4.3v0
					c-0.9-1.5-2.8-2.1-4.3-1.2l-18,10.1C240.8,185,240.2,186.9,241.1,188.4z"/>
				<circle class="st5" cx="239.4" cy="190.4" r="6.1"/>
				<path class="st6" d="M213.8,196.6L213.8,196.6c0.3,1.5,1.9,2.5,3.4,2.2l19.3-4.1c1.5-0.3,2.5-1.9,2.2-3.4l0,0
					c-0.3-1.5-1.9-2.5-3.4-2.2l-19.3,4.1C214.5,193.5,213.5,195.1,213.8,196.6z"/>
				<path class="st5" d="M252.3,179.8c0,3.1,2.5,5.6,5.6,5.6c3.1,0,5.6-2.5,5.6-5.6c0-3.1-2.5-5.6-5.6-5.6
					C254.8,174.2,252.3,176.7,252.3,179.8z"/>
			</g>
			<g>
				<g>
					<path class="st6" d="M213.8,190.3c-5.5,2-5.5,4.5-5.3,9.3c0.1,3.1,1.9,4.4,4.2,4.3c1.5,0,7.5-12.6,6.8-13.2
						C217.9,189.5,215.9,189.5,213.8,190.3z"/>
					<path class="st7" d="M215.8,191.1c-5.5,2-5.5,4.5-5.3,9.3c0.3,5.6,4.8,3.3,7.6,1.3c2.9-2.1,3.2-3,2.9-6.5
						C220.6,190.6,219.7,189.7,215.8,191.1z"/>
				</g>
				<g>
					<path class="st5" d="M208.9,194.5c-1.2,0.2-2.3,0.6-3.7,1.3c-1.4,0.7-0.9,2.1,0.7,1.8c1.6-0.2,3.7-0.7,4-1.5
						C210.3,195.2,209.9,194.4,208.9,194.5z"/>
					<path class="st7" d="M206.3,196.7c0,0.7-0.6,1.2-1.3,1.2c-0.7,0-1.2-0.6-1.2-1.3c0-0.7,0.6-1.2,1.3-1.2
						C205.7,195.5,206.3,196,206.3,196.7z"/>
					<path class="st5" d="M203.8,196.3c-1.1,0.3-1.1,0.4-2.3,0.9c-0.7,0.3-1.6,0.5-1.4,1.1c0.1,0.4,0.6,0.7,1.6,0.5
						c0.8-0.2,2.2-0.7,2.7-1C205.4,197.4,204.8,196,203.8,196.3z"/>
				</g>
				<g>
					<path class="st5" d="M208.9,198.3c-1.2,0.2-2.3,0.6-3.7,1.3c-1.3,0.7-0.9,2.1,0.8,1.8c1.6-0.3,3.6-0.8,4-1.6
						C210.3,198.9,209.9,198.1,208.9,198.3z"/>
					<path class="st7" d="M206.3,200.5c0,0.7-0.6,1.3-1.3,1.3c-0.7,0-1.3-0.6-1.3-1.3c0-0.7,0.6-1.3,1.3-1.3
						C205.7,199.3,206.3,199.8,206.3,200.5z"/>
					<path class="st5" d="M203.9,200.2c-1.1,0.4-1.1,0.4-2.3,0.9c-0.7,0.3-1.6,0.6-1.4,1.1c0.1,0.4,0.6,0.7,1.6,0.5
						c0.8-0.2,2.2-0.8,2.7-1C205.4,201.2,204.8,199.9,203.9,200.2z"/>
				</g>
				<g>
					<path class="st5" d="M209.2,201.8c-1.1,0.3-2.2,0.8-3.6,1.7c-1.3,0.8-0.7,2.2,0.9,1.8c1.6-0.4,3.6-1.1,3.8-2
						C210.7,202.4,210.2,201.6,209.2,201.8z"/>
					<path class="st7" d="M206.9,204.3c0.1,0.7-0.5,1.3-1.1,1.4c-0.7,0.1-1.3-0.5-1.4-1.1c-0.1-0.7,0.5-1.3,1.1-1.4
						C206.2,203.1,206.8,203.6,206.9,204.3z"/>
					<path class="st5" d="M204.4,204.2c-1,0.4-1.1,0.5-2.2,1.1c-0.7,0.4-1.5,0.7-1.3,1.2c0.1,0.4,0.7,0.7,1.7,0.3
						c0.8-0.2,2.1-1,2.6-1.2C206,205,205.3,203.8,204.4,204.2z"/>
				</g>
				<path class="st5" d="M208.7,190.5c-1.3,0.9-1.1,1.4,0.3,1.5c1.7,0.1,3.6,0.1,5-0.4c1.4-0.5,1.5-1.5,0-1.9
					C212.5,189.3,209.8,189.8,208.7,190.5z"/>
				<path class="st7" d="M209.7,191.3c0,0.7-0.6,1.2-1.3,1.2c-0.7,0-1.2-0.6-1.2-1.3c0-0.7,0.6-1.2,1.3-1.2
					C209.2,190,209.7,190.6,209.7,191.3z"/>
				<path class="st5" d="M207.5,190.8c-1.1,0.3-2.5,1-2.5,1.5c0,1.2,2.5,0.2,3,0C209.1,191.8,208.5,190.5,207.5,190.8z"/>
			</g>
			<g>
				<g>
					<path class="st5" d="M270.8,181.1l0.1-1.3c0,0-3.2-1.9-3.7-2.1l0,0l0,0c-2.1-0.9-4.7-0.6-7.5,1c-7,4-12.6,14.8-12.6,24.1
						c0,5,1.6,8.5,4.2,10.1c0,0,0,0,0,0l2.6,1.5l0.6-0.6c1.6,0.1,3.4-0.4,5.2-1.5c7-4,12.6-14.8,12.6-24.1
						C272.3,185.3,271.8,183,270.8,181.1z"/>
					<path class="st8" d="M249.7,204.3c0,9.3,5.6,13.5,12.6,9.5c7-4,12.6-14.8,12.6-24.1c0-9.3-5.6-13.5-12.6-9.5
						C255.3,184.3,249.7,195,249.7,204.3z"/>
					<path class="st7" d="M274.3,191.6c0,7.8-4.7,16.8-10.5,20.2c-5.8,3.4-10.5-0.2-10.5-8c0-7.8,4.7-16.8,10.5-20.2
						C269.6,180.2,274.3,183.8,274.3,191.6z"/>
					<g>
						<path class="st9" d="M270.3,185.7c-1.5-0.9-3.5-0.8-5.6,0.4c-2.2,1.3-4.2,3.5-5.7,6.2l5.7,4.4L270.3,185.7z"/>
						<path class="st9" d="M258.4,193.5c-1.4,2.9-2.3,6.1-2.3,9.1c0,2.8,0.8,4.9,2,6.2l5.9-11L258.4,193.5z"/>
						<path class="st9" d="M259,209.5c1.5,0.9,3.5,0.9,5.7-0.4c2.3-1.3,4.3-3.7,5.8-6.4l-5.8-4.4L259,209.5z"/>
						<path class="st9" d="M271.2,186.4l-5.8,10.8l5.8,4.4c1.4-2.8,2.2-6,2.2-8.9C273.3,189.8,272.5,187.6,271.2,186.4z"/>
					</g>
					<path class="st10" d="M267.6,196c0,2.1-1.3,4.5-2.9,5.4c-1.6,0.9-2.9-0.1-2.9-2.2c0-2.1,1.3-4.5,2.9-5.4
						C266.3,192.9,267.6,193.9,267.6,196z"/>
				</g>
				<g>
					<path class="st11" d="M299.5,180.7c1.4,3.3,2.1,7,2.1,10.8c0,15.6-12.7,28.3-28.3,28.3c-8.5,0-16.1-3.7-21.2-9.6
						c4.2,10.3,14.4,17.5,26.1,17.5c15.6,0,28.3-12.7,28.3-28.3C306.5,192.2,303.8,185.7,299.5,180.7z"/>
					<path class="st12" d="M273.3,219.8c15.6,0,28.3-12.7,28.3-28.3c0-3.8-0.8-7.5-2.1-10.8c-5.2-5.9-12.8-9.6-21.2-9.6
						c-15.6,0-28.3,12.7-28.3,28.3c0,3.8,0.8,7.5,2.1,10.8C257.3,216,264.8,219.8,273.3,219.8z"/>
				</g>
				<path class="st13" d="M286.7,176.1c7.3,6.5,6.1,19.6-2.5,29.2c-8.6,9.6-21.5,12.1-28.8,5.6c-7.3-6.5-6.1-19.6,2.5-29.2
					C266.5,172.1,279.4,169.6,286.7,176.1z"/>
				<path class="st14" d="M276.7,179.3c4.9,4.4,4.1,13.2-1.7,19.7c-5.8,6.5-14.5,8.2-19.4,3.8c-4.9-4.4-4.1-13.2,1.7-19.7
					C263.1,176.6,271.8,174.9,276.7,179.3z"/>
				<g>
					<path class="st5" d="M306.8,202.1l0.1-1.3c0,0-3.2-1.9-3.7-2.1l0,0l0,0c-2.1-0.9-4.7-0.6-7.5,1c-7,4-12.6,14.8-12.6,24.1
						c0,5,1.6,8.5,4.2,10.1c0,0,0,0,0,0l2.6,1.5l0.6-0.6c1.6,0.1,3.4-0.4,5.2-1.5c7-4,12.6-14.8,12.6-24.1
						C308.3,206.3,307.8,203.9,306.8,202.1z"/>
					<path class="st8" d="M285.7,225.2c0,9.3,5.6,13.5,12.6,9.5s12.6-14.8,12.6-24.1c0-9.3-5.6-13.5-12.6-9.5
						C291.4,205.2,285.7,216,285.7,225.2z"/>
					
						<ellipse transform="matrix(0.3916 -0.9202 0.9202 0.3916 -18.7509 408.8135)" class="st6" cx="299.7" cy="218.6" rx="16.2" ry="9.2"/>
					<g>
						<path class="st9" d="M306.3,206.7c-1.5-0.9-3.5-0.8-5.6,0.4c-2.2,1.3-4.2,3.5-5.7,6.2l5.7,4.4L306.3,206.7z"/>
						<path class="st9" d="M294.4,214.5c-1.4,2.9-2.3,6.1-2.3,9.1c0,2.8,0.8,4.9,2,6.2l5.9-11L294.4,214.5z"/>
						<path class="st9" d="M295,230.4c1.5,0.9,3.5,0.9,5.7-0.4c2.3-1.3,4.3-3.7,5.8-6.4l-5.8-4.4L295,230.4z"/>
						<path class="st9" d="M307.2,207.3l-5.8,10.8l5.8,4.4c1.4-2.8,2.2-6,2.2-8.9C309.3,210.7,308.5,208.6,307.2,207.3z"/>
					</g>
					<path class="st5" d="M303.6,216.9c0,2.1-1.3,4.5-2.9,5.4c-1.6,0.9-2.9-0.1-2.9-2.2c0-2.1,1.3-4.5,2.9-5.4
						C302.3,213.9,303.6,214.8,303.6,216.9z"/>
				</g>
				<path class="st13" d="M278.2,171c0,0-10.2,1.7-16.5,13.2c-4,7.4-5.9,11.9-5.2,14.4c0.4,1.4,2,2,3.3,2.5c3.7,1.4,4.4-2,6.8-7.3
					c0.9-2,2.6-5,3.9-7.1c3-4.8,8.2-10,12.8-11.8c4.9-1.9,9-0.2,9-0.2s-1.9-1.2-5-2.2C284.4,171.6,280.6,170.8,278.2,171z"/>
				<path class="st5" d="M270.6,186.3v-16.9c0-2.4,2-4.4,4.4-4.4l0,0c2.4,0,4.4,2,4.4,4.4v7.8c0,0-3.4,2.6-4.4,3.6
					C273.7,182.1,270.6,186.3,270.6,186.3z"/>
				<path class="st4" d="M296.6,168H296c-2.3-5-10.8-8.7-21-8.7c-10.2,0-18.7,3.7-21,8.7h-0.6v2.6h0c0,0,0,0.1,0,0.1
					c0,6.3,9.7,11.5,21.6,11.5c11.9,0,21.6-5.1,21.6-11.5c0,0,0-0.1,0-0.1h0V168z"/>
				<path class="st5" d="M296.6,168.1c0-0.1,0-0.1,0-0.2c0-0.2,0-0.4-0.1-0.6c-0.6-11.4-10-20.6-21.6-20.6c-11.6,0-21,9.1-21.6,20.6
					c0,0.2-0.1,0.4-0.1,0.5c0,0.1,0,0.1,0,0.2c0,0.1,0,0.2,0,0.3h0c0.5,6.1,9.9,11,21.6,11c11.7,0,21.1-4.9,21.6-11h0
					C296.6,168.3,296.6,168.2,296.6,168.1z"/>
				<path class="st8" d="M275.1,146.8c-7.2,0-13,3.1-13,6.9c0,3.8,5.8,6.9,13,6.9c7.2,0,13-3.1,13-6.9
					C288.1,149.9,282.3,146.8,275.1,146.8z"/>
				<path class="st15" d="M275,146.8c-3.9,0-7.1,1.7-7.1,3.8c0,2.1,3.2,3.8,7.1,3.8c3.9,0,7.1-1.7,7.1-3.8
					C282.1,148.5,278.9,146.8,275,146.8z"/>
				<path class="st9" d="M263.4,160.3c-0.8-1.2-2.6-1-3.7-0.4c-1.9,1.1-2.9,2.5-3.8,4.4c-0.4,0.7,0.2,1.6,0.9,0.5
					c0.6-1.1,2.2-5.1,5.3-4.2c1.1,0.3,0.1,3.5,0.1,3.9c-0.1,0.6-1.8,5.4-2.2,6.3c-0.2,0.5,0.4,1.1,0.8,0.4c0.3-0.6,1.9-4.8,2.5-7.7
					C263.4,162.7,263.8,161,263.4,160.3z"/>
				<path class="st9" d="M273.4,166.1c-0.4-1.3-1.1-2.8-2.7-3c-1.8-0.2-2.7,1.7-3.4,3c-0.9,1.9-1.8,4.7-2.3,7.4
					c-0.1,0.6,0.7,1,0.8,0.2c0.4-1.7,2.1-10.6,5.2-9.2c1.5,0.7,1.7,3.4,1.9,4.7c0.2,1.7,0.3,3.9,0.1,5.6c-0.1,0.6,0.8,0.6,0.8,0
					C274.4,172,274.3,168.7,273.4,166.1z"/>
				<path class="st9" d="M292,170.6c0,1.7-1,3.6-2.3,4.3c-1.3,0.7-2.3,0-2.3-1.7c0-1.7,1-3.6,2.3-4.3C291,168.2,292,168.9,292,170.6
					z"/>
				<path class="st5" d="M250.6,205.4c0,0,1.8,3.9,8.4,6.3c7.1,2.6,12.6,0.9,13.7,3.1c1.1,2.3,0.9,5.2-2.1,6.1
					c-3,0.9-11.3-1.2-14.2-3.8C251.3,212.9,250.6,205.4,250.6,205.4z"/>
			</g>
			<g>
				<path class="st16" d="M236.6,194.8c23.1,0,41.8,10.1,41.8,22.6c0,12.5-18.7,22.6-41.8,22.6c-23.1,0-41.8-10.1-41.8-22.6
					C194.8,204.9,213.5,194.8,236.6,194.8z"/>
				<rect x="194.8" y="212.7" class="st17" width="83.6" height="5.3"/>
				<path class="st18" d="M236.6,190.9c23.1,0,41.8,10.1,41.8,22.6c0,12.5-18.7,22.6-41.8,22.6c-23.1,0-41.8-10.1-41.8-22.6
					C194.8,201,213.5,190.9,236.6,190.9z"/>
				<g>
					<path class="st16" d="M236.6,194.2c21.5,0,39,9,40,20.3c0-0.3,0-0.6,0-1c0-11.8-17.9-21.3-40-21.3c-22.1,0-40,9.5-40,21.3
						c0,0.3,0,0.6,0,1C197.6,203.2,215.1,194.2,236.6,194.2z"/>
					<path class="st19" d="M236.6,234.8c21.5,0,39-9,40-20.3c-0.9-11.3-18.5-20.3-40-20.3c-21.5,0-39,9-40,20.3
						C197.6,225.8,215.1,234.8,236.6,234.8z"/>
				</g>
				<g>
					<path class="st20" d="M214.4,183.4c0,0-2.2-2.9-5.8-3.2c-5.7-0.5-8.7,5.4-7,10.6c1.7,5.1,4.5,9.6,4.5,9.6h2.3
						c0,0-3.7-7-4.3-10.1c-0.6-3.1,0-7.1,3.1-7.4c3.1-0.3,5,4,5,4L214.4,183.4z"/>
					<path class="st21" d="M234.2,212.2c0,3.6-4.8,6.5-10.6,6.5c-5.9,0-10.6-2.9-10.6-6.5c0-3.6,4.8-6.5,10.6-6.5
						C229.4,205.6,234.2,208.6,234.2,212.2z"/>
					<g>
						
							<ellipse transform="matrix(0.2298 -0.9732 0.9732 0.2298 -20.1158 369.7617)" class="st21" cx="223.5" cy="197.6" rx="17.9" ry="17.9"/>
						<g>
							<path class="st20" d="M236.8,185.7c1.4,2.5,2.1,5.4,2.1,8.5c0,9.9-8,17.9-17.9,17.9c-5.3,0-10-2.3-13.3-6
								c3,5.6,8.9,9.4,15.7,9.4c9.9,0,17.9-8,17.9-17.9C241.4,193,239.7,188.9,236.8,185.7z"/>
						</g>
						<path class="st22" d="M219.4,206.6c8.3,0,15.1-6.8,15.1-15.1c0-4.1-1.6-7.8-4.3-10.5c-2.1-0.8-4.3-1.3-6.7-1.3
							c-9.9,0-17.9,8-17.9,17.9c0,0.1,0,0.2,0,0.3C208.1,203.1,213.3,206.6,219.4,206.6z"/>
					</g>
					<path class="st20" d="M234.2,182.4c0,3.6-4.8,6.5-10.6,6.5c-5.9,0-10.6-2.9-10.6-6.5c0-3.6,4.8-6.5,10.6-6.5
						C229.4,175.9,234.2,178.8,234.2,182.4z"/>
					<path class="st21" d="M231.5,180.8c0,2.7-3.6,4.9-8,4.9s-8-2.2-8-4.9c0-2.7,3.6-4.9,8-4.9S231.5,178.1,231.5,180.8z"/>
					<path class="st9" d="M225.9,176.7c0,1.3-1,2.3-2.3,2.3c-1.3,0-2.3-1-2.3-2.3c0-1.3,1-2.3,2.3-2.3
						C224.8,174.3,225.9,175.4,225.9,176.7z"/>
					<path class="st23" d="M245.3,188.8c-1.1-0.1-1.5,0.3-2.4,1.3c-2.1,2.4-2.5,6.2-5.7,8.5c-2.7-0.4-5.7,0.4-6.5,6.4
						c-0.3,2.4,0.2,6.2,3.1,7c3.5,1,9.7-3.8,9.9-10.5c0.2-4.8-1.4-8.3,1.8-9.7C245.5,191.6,245.3,188.8,245.3,188.8z"/>
					<path class="st21" d="M239.7,201.1c-1.1,3.2-3.6,6.6-7.2,7.1c-0.5,0.1-1.1,0-1.6-0.1c0.3,1.7,1.2,3.3,2.9,3.8
						c3.5,1,9.7-3.8,9.9-10.5c0.2-4.8-1.4-8.3,1.8-9.7c0,0-0.1-1.7-0.2-2.5C241.5,192.1,241.2,196.7,239.7,201.1z"/>
					<path class="st20" d="M245.3,188.8c-0.8,0.3-0.9,1.3-0.8,1.9c0.1,0.8,0.3,1.6,1,1C246.1,191.1,245.8,188.6,245.3,188.8z"/>
				</g>
				<g>
					<g>
						<path class="st7" d="M257,207.5c7.2,0,13,3.5,13,7.8c0,4.3-5.8,7.8-13,7.8c-7.2,0-13-3.5-13-7.8
							C244.1,211,249.9,207.5,257,207.5z"/>
						<path class="st9" d="M257,206.9c7.2,0,13,3.5,13,7.8c0,4.3-5.8,7.8-13,7.8c-7.2,0-13-3.5-13-7.8
							C244.1,210.4,249.9,206.9,257,206.9z"/>
						<path class="st7" d="M257,207.5c6.6,0,12,3.2,12,7.2c0,4-5.4,7.2-12,7.2c-6.6,0-12-3.2-12-7.2
							C245,210.7,250.4,207.5,257,207.5z"/>
						<path class="st6" d="M257,212.2c3.2,0,5.8,1.6,5.8,3.5c0,1.9-2.6,3.5-5.8,3.5c-3.2,0-5.8-1.6-5.8-3.5
							C251.2,213.7,253.8,212.2,257,212.2z"/>
					</g>
					<g>
						<path class="st6" d="M261.5,203.7c0,0,4.7-1.2,5.6,1.6c0.7,2.3,0.2,5.9-2.6,7.3c-1.8,0.9-3,0-3,0V203.7z"/>
						<g>
							<path class="st24" d="M257.1,212.9c2.2,0,3.9,1.1,3.9,2.4c0,1.3-1.8,2.4-3.9,2.4c-2.2,0-3.9-1.1-3.9-2.4
								C253.2,213.9,254.9,212.9,257.1,212.9z"/>
							<path class="st4" d="M248,207.5c0.1,5,4.1,9,9.1,9c5,0,9-4,9.1-9H248z"/>
							<path class="st9" d="M257.1,202c5,0,9.1,2.4,9.1,5.4s-4.1,5.4-9.1,5.4c-5,0-9.1-2.4-9.1-5.4S252.1,202,257.1,202z"/>
							<g>
								<path class="st7" d="M257.1,204.8c3.9,0,7.2,1.6,8.1,3.7c0.2-0.4,0.3-0.8,0.3-1.2c0-2.7-3.8-4.9-8.4-4.9
									c-4.7,0-8.4,2.2-8.4,4.9c0,0.4,0.1,0.8,0.3,1.2C249.9,206.4,253.2,204.8,257.1,204.8z"/>
								<ellipse class="st8" cx="257.1" cy="208.5" rx="8.1" ry="3.7"/>
							</g>
						</g>
					</g>
				</g>
			</g>
			<g>
				<path class="st4" d="M287.7,216.5L287.7,216.5c-1.7-0.2-3-1.7-2.9-3.5l1.9-20.6c0.2-1.7,1.7-3,3.5-2.9l0,0
					c1.7,0.2,3,1.7,2.9,3.5l-1.9,20.6C291,215.4,289.4,216.6,287.7,216.5z"/>
				<path class="st5" d="M284.1,190.6c0,3.4,2.7,6.1,6.1,6.1s6.1-2.7,6.1-6.1c0-3.4-2.7-6.1-6.1-6.1S284.1,187.2,284.1,190.6z"/>
				<circle class="st5" cx="286.6" cy="215.9" r="6.1"/>
				<path class="st4" d="M285.4,216.9L285.4,216.9c-1-1.2-2.8-1.4-4.1-0.3l-15.1,12.8c-1.2,1-1.4,2.8-0.3,4.1l0,0
					c1,1.2,2.8,1.4,4.1,0.3l15.1-12.8C286.3,219.9,286.4,218.1,285.4,216.9z"/>
			</g>
			<g>
				<g>
					<path class="st6" d="M265.3,224.9c-5.5,2-5.5,4.5-5.3,9.3c0.1,3.1,1.9,4.4,4.2,4.3c1.5,0,7.5-12.6,6.8-13.2
						C269.4,224,267.4,224.1,265.3,224.9z"/>
					<path class="st9" d="M267.3,225.7c-5.5,2-5.5,4.5-5.3,9.3c0.3,5.6,4.8,3.3,7.6,1.3c2.9-2.1,3.2-3,2.9-6.5
						C272.1,225.2,271.2,224.3,267.3,225.7z"/>
				</g>
				<g>
					<path class="st5" d="M260.4,229.1c-1.2,0.2-2.3,0.6-3.7,1.3c-1.4,0.7-0.9,2.1,0.7,1.8c1.6-0.2,3.7-0.7,4-1.5
						C261.8,229.8,261.4,229,260.4,229.1z"/>
					<path class="st7" d="M257.8,231.3c0,0.7-0.6,1.2-1.3,1.2c-0.7,0-1.2-0.6-1.2-1.3c0-0.7,0.6-1.2,1.3-1.2
						C257.2,230,257.8,230.6,257.8,231.3z"/>
					<path class="st5" d="M255.3,230.9c-1.1,0.3-1.1,0.4-2.3,0.9c-0.7,0.3-1.6,0.5-1.4,1.1c0.1,0.4,0.6,0.7,1.6,0.5
						c0.8-0.2,2.2-0.7,2.7-1C256.9,231.9,256.3,230.6,255.3,230.9z"/>
				</g>
				<g>
					<path class="st5" d="M260.4,232.8c-1.2,0.2-2.3,0.6-3.7,1.3c-1.3,0.7-0.9,2.1,0.8,1.8c1.6-0.3,3.6-0.8,4-1.6
						C261.8,233.5,261.4,232.7,260.4,232.8z"/>
					<path class="st7" d="M257.8,235.1c0,0.7-0.6,1.3-1.3,1.3s-1.3-0.6-1.3-1.3c0-0.7,0.6-1.3,1.3-1.3S257.8,234.4,257.8,235.1z"/>
					<path class="st5" d="M255.4,234.8c-1.1,0.4-1.1,0.4-2.3,0.9c-0.7,0.3-1.5,0.6-1.4,1.1c0.1,0.4,0.6,0.7,1.6,0.5
						c0.8-0.2,2.2-0.8,2.7-1C256.9,235.7,256.3,234.4,255.4,234.8z"/>
				</g>
				<g>
					<path class="st5" d="M260.7,236.4c-1.1,0.3-2.2,0.8-3.6,1.7c-1.3,0.8-0.7,2.2,0.9,1.8c1.6-0.4,3.6-1.1,3.8-2
						C262.1,236.9,261.7,236.2,260.7,236.4z"/>
					<path class="st7" d="M258.3,238.9c0.1,0.7-0.5,1.3-1.1,1.4c-0.7,0.1-1.3-0.5-1.4-1.1c-0.1-0.7,0.5-1.3,1.1-1.4
						C257.7,237.7,258.3,238.2,258.3,238.9z"/>
					<path class="st5" d="M255.9,238.8c-1,0.4-1.1,0.5-2.2,1.1c-0.7,0.4-1.5,0.7-1.3,1.2c0.1,0.4,0.7,0.7,1.7,0.3
						c0.8-0.2,2.1-1,2.6-1.2C257.5,239.6,256.8,238.4,255.9,238.8z"/>
				</g>
				<path class="st5" d="M260.2,225.1c-1.3,0.9-1.1,1.4,0.3,1.5c1.7,0.1,3.6,0.1,5-0.4c1.4-0.5,1.5-1.5,0-1.9
					C264,223.8,261.3,224.3,260.2,225.1z"/>
				<path class="st7" d="M261.2,225.9c0,0.7-0.6,1.2-1.3,1.2c-0.7,0-1.2-0.6-1.2-1.3c0-0.7,0.6-1.2,1.3-1.2
					C260.7,224.6,261.2,225.2,261.2,225.9z"/>
				<path class="st5" d="M259,225.4c-1.1,0.3-2.5,1-2.5,1.5c0,1.2,2.5,0.2,3,0C260.5,226.4,260,225.1,259,225.4z"/>
			</g>
		</g>
		<g>
			<g>
				<g>
					<polygon class="st8" points="194.3,184.8 196.4,183.5 198.5,141.6 194.3,144 					"/>
					<polygon class="st5" points="194.3,184.8 190.1,182.3 190.1,141.6 194.3,144 					"/>
				</g>
				<g>
					<polygon class="st8" points="253.6,150.7 255.7,149.2 255.7,108.5 251.5,110.9 					"/>
					<polygon class="st5" points="253.6,150.7 249.4,148.3 247.3,108.5 251.5,110.9 					"/>
				</g>
			</g>
			<g>
				<g>
					<polygon class="st8" points="139.3,149.8 141.4,148.5 143.5,106.6 139.3,109 					"/>
					<polygon class="st5" points="139.3,149.8 135.1,147.3 135.1,106.6 139.3,109 					"/>
				</g>
				<g>
					<polygon class="st8" points="198.7,115.7 200.8,114.2 200.8,73.5 196.6,75.9 					"/>
					<polygon class="st5" points="198.7,115.7 194.5,113.3 192.4,73.5 196.6,75.9 					"/>
				</g>
			</g>
			<g>
				<g>
					<path class="st25" d="M140.6,60.5l28.9-16.7c1.9-1.1,3.6-1.2,5-0.4l9.6,5.3l-6.9,12v18.1c0,5.6-3.4,12.2-7.7,14.6l-16.8,9.7
						l-7.4,12.8l-8.9-5.1l0,0c-2.1-0.6-3.5-3-3.5-6.6V75.2C132.9,69.5,136.4,63,140.6,60.5z"/>
					<path class="st26" d="M150.3,115.6l28.9-16.7c4.2-2.4,7.7-9,7.7-14.6V55c0-5.6-3.4-8.2-7.7-5.8l-28.9,16.7
						c-4.2,2.4-7.7,9-7.7,14.6v29.2C142.6,115.4,146,118,150.3,115.6z"/>
				</g>
				<g>
					<path class="st4" d="M256.2,44.7c0,1.1-61-36-61-36l-14.9,82.6l61,36L256.2,44.7z"/>
					<path class="st27" d="M241.3,127.4l14.9-8.6v-74l-3.3,1.9c-6.4,3.7-11.5,13.5-11.5,22V127.4z"/>
					<path class="st4" d="M180.3,91.4l14.9-8.6v-74l-3.3,1.9c-6.4,3.7-11.5,13.5-11.5,22V91.4z"/>
				</g>
				<g>
					<path class="st26" d="M129.5,116.4l0-11.8l14.5,0.4l29.7-17.1c5.1-3,12.9-3.3,17.3-0.7l34.1,20l17.3,0.5v12.6l0,0
						c-0.1,1.9-1.5,3.8-4.2,5.4l-40,23.1c-5.1,3-12.9,3.3-17.3,0.7l-48.4-28.4C130.4,119.7,129.5,118.1,129.5,116.4L129.5,116.4z"/>
					<path class="st28" d="M132.5,108.9l48.4,28.4c4.4,2.6,12.2,2.2,17.3-0.7l40-23.1c5.1-3,5.7-7.4,1.2-10l-48.4-28.4
						c-4.4-2.6-12.2-2.2-17.3,0.7l-40,23.1C128.6,101.8,128.1,106.3,132.5,108.9z"/>
				</g>
				<g>
					<path class="st25" d="M210.6,100.4l28.9-16.7c1.9-1.1,3.6-1.2,5-0.4l9.6,5.3l-6.9,12v15.1c0,5.6-3.4,12.2-7.7,14.6l-16.8,9.7
						l-7.4,12.8l-8.9-5.1c-2.1-0.6-3.5-3-3.5-6.6V115C203,109.4,206.4,102.8,210.6,100.4z"/>
					<path class="st26" d="M220.3,152.4l28.9-16.7c4.2-2.4,7.7-9,7.7-14.6V94.9c0-5.6-3.4-8.2-7.7-5.8l-28.9,16.7
						c-4.2,2.4-7.7,9-7.7,14.6v26.2C212.7,152.3,216.1,154.9,220.3,152.4z"/>
				</g>
			</g>
			<path class="st21" d="M172.2,36.2c2.8,0.8,1,6.1,1,6.1s2.6,5.4,6,12.8c3.8,8.1,4.9,16.3,4.9,16.3s3.5-0.1,4.3,3.3
				c0.9,3.4-5.5,2.7-5.5,2.7s-2.8,6.2-10.8,10.9c-7.9,4.7-16.1,4.6-16.1,4.6s-0.7,7.6-4.9,5.9c-4.2-1.7-1.9-6.4-1.9-6.4
				s-5.5-7.2-8-17.2c-2.5-10.1-1.3-15.4-1.3-15.4s-6.2-2.5-2.8-5.7c2.1-2,6.3-1.2,6.3-1.2s3.7-4.7,10-8.5c6.3-3.9,13.1-5.5,13.1-5.5
				S169.2,35.3,172.2,36.2z"/>
			<path class="st20" d="M137.2,53.9c2.1-2,6.3-1.2,6.3-1.2s0.6-0.7,1.7-1.9c1.3,4.2,1.1,9.2,1.6,14c0.5,5.5,2.1,11.7,8,13.8
				c6.4,2.3,13.5-1.8,18.4-5.5c3.2-2.4,6.7-5.5,9.4-9c1.2,4.2,1.6,7.2,1.6,7.2s3.5-0.1,4.3,3.3c0.9,3.4-5.5,2.7-5.5,2.7
				s-2.8,6.2-10.8,10.9c-7.9,4.7-16.1,4.6-16.1,4.6s-0.7,7.6-4.9,5.9c-4.2-1.7-1.9-6.4-1.9-6.4s-5.5-7.2-8-17.2
				c-2.5-10.1-1.3-15.4-1.3-15.4S133.8,57,137.2,53.9z"/>
			<path class="st7" d="M249.9,118.2c2.1,4.2,4.1,7.5,10.3,10.6c6.3,3.1,10.6,3.5,7.8,8c-2.8,4.5-6.7,3-10,2.2
				c-3.3-0.8-11.3-3.7-12.1-6.9c-0.9-3.3-3.8-10.6-3.8-10.6L249.9,118.2z"/>
			<path class="st1" d="M168.1,37.3c0,0,2.4-4.8,8.5-2.7c6,2.1,9.2,7.5,11.2,11c2,3.4,3.4,6.8,3.4,6.8s5.1,1.5,6.7,2.6
				c1.6,1.2,4.8,10.9,2.1,15.1c-2.7,4.3-7.6,3.4-7.6,3.4s-11.2-13.2-13-16.7C177.5,53.3,168.1,37.3,168.1,37.3z"/>
			<path class="st5" d="M188.8,68.9c1.6,1,3.4,2.5,5.2,3c1.7,0.5,2.6-2.1,3.4-3.4c1-1.6,2.1-3.1,3.3-4.6c4.2-5.6,9-10.8,14.3-15.5
				c4.1-3.7,9.3-7.4,14.6-3.6c5.4,3.8,6.2,11.4,7.1,17.4c1.2,7.8,1.9,15.7,2,23.6c-3.5,1.6-7.5,1.9-11.4,1.8
				c-2.1-5.2-3.9-10.6-5.5-16c-0.4-1.6-1-3.6-1.3-5.5c-2.3,7.2-6.3,15.4-8.5,20.2c-1.6,3.4-4.2,6.6-8.1,7.4
				c-3.4,0.7-6.8-0.7-9.6-2.6c-5.3,2.3-12.2-0.4-15-5.5C181.3,79.2,184.3,73.7,188.8,68.9z"/>
			<path class="st8" d="M175.5,82.4c2-2.2,4.1-4.2,6.5-6c2,0.9,4.1,3,7.2,6.9c2.1-0.7,7.2-1.8,9.4-1.8c3.3,0,6.4,0.7,9.2,2.1
				c6.3-2.6,13.3-3.2,20-1.7c2.5,0.6,8.1,0.2,10.9,2.8c2.1,1.5,5.8,13.9,8.3,20.7c1.9,5,3.5,10.1,5.6,15.1c-1.3,1.5-2.8,2.6-5,3.2
				c-1.1,0.3-3.5,0.8-5.4,0.8c-4.1-5.1-7.5-11.5-10.8-16.9c-1.7-2.8-4.5-7-5.1-10c-2.9,1.1-4.5,3.4-7.4,4.4
				c-4.7,1.6-13.3,1.7-18,1.5c-6.2,5-10.6,7.9-18.2,4.7c-7-2.9-10.8-8.8-13.1-15.6C171.4,89.2,172.8,85.5,175.5,82.4z"/>
			<g>
				<path class="st5" d="M160.3,19c0,0-2.7-4.8-9.3,1.4c-6.9,6.5-4.6,8-4.6,14.1c0,7.4-6.1,3.9-6.1,3.9s-1.2,5.5,5,5.5
					c3.5,0,5.7-4.3,5.7-4.3s0.9,2,4.5-0.5c1.6-1.1,3-5.1,1.8-10.9C156.3,22.9,160.3,19,160.3,19z"/>
				<path class="st2" d="M165.1,15.9c0,0-5.4-0.5-7.8,2.1c-2.4,2.6-1,8.9,3.2,8.9C164.6,27,165.1,15.9,165.1,15.9z"/>
				<path class="st2" d="M175.4,37.6c-3.6-4.6-5.4-5-9.8-2.4c-5.4,3.1-11.5,7.8-13.2,10.3c-3.5,5.3-3.9,14.4,5.1,27.9
					c5.2,7.7,10.7,16.4,12.8,21.3c14-8.1,20.4-19.7,23.6-22.6c-1.3-2.8-2-3.8-5.3-3.1c0-4.7-3.9-7.1-4.6-9.7
					c5.9-2.7,3.5-8.2,1.7-10.1C181.3,44.5,176.5,38.9,175.4,37.6z"/>
				<path class="st29" d="M173,39.1c-1-0.2-3.7-1.5-2.9-6.4c0.2-1.4-6-5.1-6-4.9c0.1,4.5-0.6,9.5-2.7,11.9
					c2.2,5.4,7.8,11.5,12.4,9.4C177.3,47.4,175,44.7,173,39.1z"/>
				<path class="st30" d="M178.3,21.2c-4.2-0.9-6.4-1.1-10.1,0.4c-2.1,0.6-4.1,1.5-6,2.7c-0.1,0.1-0.3,0.3-0.2,0.5
					c1,5.5,2.8,11.4,9,13.8c5.1,2,8-3.6,8.8-7.3C180.9,27,181.2,21.9,178.3,21.2z"/>
				<path class="st5" d="M184,24.6c0,0-6.9,4.2-11.9,0.9c-3.4,3.4-8,2.3-8,2.3l-0.6,6.8c0,0-5.4-9.3-5.1-14.1
					c0.3-4.7,10.4-12.9,18.3-7.4C184.7,18.6,184,24.6,184,24.6z"/>
				<path class="st30" d="M167.6,29.1c0,0-1-3.4-3.2-1.7c-2.2,1.7,0.9,5.2,0.9,5.2L167.6,29.1z"/>
			</g>
			<path class="st1" d="M154.7,44.2c5.2,1.1,6.4,8.9,6.3,12.7c-0.1,3.8-2.1,10.9-2.1,10.9c1.7,1.3,1.7,2.1,1.7,3.4
				c0,1.2-2.3,3.1-2.3,3.1s4.5,0.7,8.4,0.2c3.9-0.5,8.5,2.7,8.5,2.7l-1.4,3.3c0,0-3.6,3.7-9.6,5.4c-6,1.7-14.1,1.9-17-3.2
				c-2.9-5.2-1.8-17-1.8-17S145.9,42.3,154.7,44.2z"/>
			<g>
				<path class="st9" d="M205.4,51.9l2.9,3l-10.1,11.6l-16.4,3.6l-2.6-4.3c0,0,10.6-4.6,17.5-1.8C199.7,55.9,205.4,51.9,205.4,51.9z
					"/>
				<polygon class="st4" points="179.2,66 181.8,70.3 174.2,84 171.4,79.9 				"/>
				<polygon class="st21" points="198.5,67.3 190.9,81 172.2,85.2 179.7,71.5 				"/>
				<polygon class="st20" points="210.1,54 202.6,67.7 190.9,81 198.5,67.3 				"/>
				<polygon class="st20" points="179.7,71.5 178.9,70.3 171.5,84 172.2,85.2 				"/>
				<polygon class="st23" points="210.1,54 208.9,53.1 198,66.2 178.9,70.3 179.7,71.5 198.5,67.3 				"/>
			</g>
			<path class="st30" d="M170.3,76.2c0.2-0.7,1.9-2.6,2.9-3.1c1-0.5,2.6-1.6,2.6-1.6l0.1,2.6c0,0,1.2,1.9,4.4,2c1.5,0,6.7-1.2,5.3,1
				c1,1.2,0.2,2.4-1.2,3.1c0.1,1.1-3.4,2.2-5.2,2.7c-3.6,0.9-7.8-1.3-7.8-1.3C170.1,81,169.6,79.5,170.3,76.2z"/>
			<path class="st29" d="M207.9,58.2c0,0,0.2,3.5-0.6,5.3c-0.8,1.8-4.7,3-5.7,2.9c-1-0.1,0.8-3.1,3-5.2
				C206.7,59,207.9,58.2,207.9,58.2z"/>
		</g>
		<g>
			<path class="st16" d="M152.6,185.1L129,198.8c-0.9,0.5-2.2,0.2-2.7-0.7l0,0c-0.5-0.9-0.2-2.2,0.7-2.7l23.6-13.6
				c0.9-0.5,2.2-0.2,2.7,0.7l0,0C153.9,183.4,153.5,184.6,152.6,185.1z"/>
			<path class="st31" d="M92.5,155.5l-23.6,13.6c-0.9,0.5-2.2,0.2-2.7-0.7l0,0c-0.5-0.9-0.2-2.2,0.7-2.7L90.5,152
				c0.9-0.5,2.2-0.2,2.7,0.7l0,0C93.8,153.7,93.4,154.9,92.5,155.5z"/>
			<path class="st16" d="M70.1,169.2l55.2,32c0.9,0.5,2.2,0.2,2.7-0.7l0,0c0.5-0.9,0.2-2.2-0.7-2.7l-55.2-32
				c-0.9-0.5-2.2-0.2-2.7,0.7l0,0C68.8,167.4,69.2,168.6,70.1,169.2z"/>
			<path class="st31" d="M95.5,152.8l55.2,32c0.9,0.5,2.2,0.2,2.7-0.7l0,0c0.5-0.9,0.2-2.2-0.7-2.7l-55.2-32
				c-0.9-0.5-2.2-0.2-2.7,0.7l0,0C94.2,151,94.5,152.2,95.5,152.8z"/>
			<path class="st8" d="M133.6,225.1l-9.5-58.9c-0.3-1.6-1.8-2.7-3.3-2.4l0,0c-1.6,0.3-2.7,1.8-2.4,3.3l9.5,58.9
				c0.3,1.6,1.8,2.7,3.3,2.4l0,0C132.8,228.2,133.9,226.7,133.6,225.1z"/>
			<path class="st8" d="M60.2,185.7l31.2-50.9c0.8-1.4,0.4-3.2-1-4v0c-1.4-0.8-3.2-0.4-4,1l-31.2,50.9c-0.8,1.4-0.4,3.2,1,4h0
				C57.6,187.5,59.4,187.1,60.2,185.7z"/>
			<path class="st8" d="M164,208.4l-17.8-57c-0.5-1.5-2.1-2.4-3.6-1.9v0c-1.5,0.5-2.4,2.1-1.9,3.6l17.8,57c0.5,1.5,2.1,2.4,3.6,1.9
				h0C163.6,211.5,164.5,209.9,164,208.4z"/>
			<g>
				<polygon class="st18" points="50.7,146.4 124.1,188.7 169.8,162.3 96.4,119.9 				"/>
				<polygon class="st19" points="50.7,146.4 50.7,151 124.1,193.4 124.1,188.7 				"/>
				<polygon class="st16" points="169.8,162.3 169.8,167 124.1,193.4 124.1,188.7 				"/>
			</g>
		</g>
		<g>
			<g>
				<path class="st25" d="M100.4,147.5c3.5-4.4,1.5-12.1-0.3-15.6c-2.4-4.7-7.5,1.3-11.3,5.3c-0.8-0.1-1.5-0.1-2.4-0.1
					c-0.8,0-1.6,0-2.3,0.1c-3.8-4-8.9-10.1-11.3-5.4c-1.6,3.1-3.6,10-1.2,14.2c3.1,5.5,9.9,7,14.8,7
					C91.2,153,96.7,152.1,100.4,147.5z"/>
				<path class="st32" d="M89.7,145.8c3.8-1.5,6.8-4.7,7.5-8.8c0.4-2.3,0.2-4.5-0.5-6.6c-2.5,0.8-5.5,4.2-8,6.8
					c-0.8-0.1-1.5-0.1-2.4-0.1c-0.8,0-1.6,0-2.3,0.1c-3.8-4-8.9-10.1-11.3-5.4c-1,2-2.2,5.5-2.3,8.9
					C75.6,145.7,82.5,148.7,89.7,145.8z"/>
				<g>
					<ellipse class="st28" cx="86.4" cy="133.3" rx="13.9" ry="7"/>
					<ellipse class="st26" cx="86.4" cy="133.3" rx="12.3" ry="5.5"/>
					<path class="st33" d="M86.9,130.2c-3.8,0.1-9.8,0.9-12.4,4.4c1.3,2.4,6.1,4.2,11.9,4.2c5.8,0,10.7-1.8,11.9-4.3
						C95.9,131.2,91,130.1,86.9,130.2z"/>
				</g>
			</g>
			<g>
				<path class="st34" d="M78.8,84.4c-2.6-1.4-7.9-3.1-10.5-2.5c-7.4,1.6-15,9.9-11.4,18.2c1.4,3.2,4.7,5.7,8.4,5.2
					c1.7-0.3,3.6-1.4,4.8-2.9c1.9,1.4,4.4,2,6.6,1.7c4.3-0.6,7.6-4.5,8.1-8.7C85.3,90.9,82.7,86.5,78.8,84.4z"/>
				<path class="st35" d="M83.5,89.1c-0.1,2.1-1.2,4.2-3.2,6c-3.3,2.8-7.5,3-10.5,0.9c-2.5,2.3-6.4,1.9-8.6-1.4
					c-1.6-2.4-2-5.2-1.4-7.7c-3.3,3.5-5,8.3-2.8,13.2c1.4,3.2,4.7,5.7,8.4,5.2c1.7-0.3,3.6-1.4,4.8-2.9c1.9,1.4,4.4,2,6.6,1.7
					c4.3-0.6,7.6-4.5,8.1-8.7C85.1,93.1,84.6,91,83.5,89.1z"/>
				<path class="st36" d="M85.1,122.1c-1.7-3.9-4.5-7.1-7.3-10.2c-3.1-3.6-6.1-7.3-7.6-11.8c2.7,1.8,6.3,1.7,8.7-0.6
					c2.1-2,3.1-6.2,0.4-8.2c-0.2-0.1-0.4,0.1-0.3,0.3c1.6,2.5,1.6,5.4-0.8,7.5c-2.3,2-5.5,1.8-8.1,0.6c-0.3-1.1-0.6-2.2-0.8-3.3
					c2.9,0.8,6.8-1.8,6.2-5c0-0.2-0.3-0.1-0.3,0C74.6,92.7,74.3,94,73,95c-1.1,0.8-2.4,0.9-3.7,0.9c-0.2-1-0.3-2.1-0.3-3.2
					c0,0,0,0,0,0c2.8-0.3,5.4-3.7,3.8-6.4c-0.1-0.1-0.4-0.1-0.3,0.1c0.1,1.5,0.3,2.7-0.6,4c-0.7,1-1.7,1.6-2.8,1.9c0,0,0,0-0.1-0.1
					c-0.1-2.4,0.4-5.8,0.9-7.3c0.4-1.2-0.1-1.4-0.4-0.4c-0.8,2.3-0.7,5.3-0.7,7.7c-3.6-0.1-3.1-3.9-2.8-6.5c0-0.1-0.1-0.1-0.1,0
					c-0.7,1.7-1,3.8,0,5.5c0.6,1,1.8,1.8,3,1.6c0,1,0.1,2,0.2,3c-1.1,1.7-4,2.2-5.7,0.4c-1.6-1.8-1.6-4.3-1.4-6.6
					c0-0.1-0.1-0.1-0.2,0c-0.7,2.8-0.6,6.1,2,7.9c1.6,1.1,4.2,1.1,5.4-0.6c0.2,1,0.4,2,0.7,3c0,0-0.1,0-0.1,0c-1.8,1-3.3,2-5.4,1.7
					c-1.9-0.3-3.8-1.4-4.9-3c-0.1-0.1-0.3,0-0.2,0.1c1,2,2.7,3.4,5,3.7c2,0.3,4.6-0.4,5.8-2.1c1,2.9,2.5,5.8,4.5,8.3
					c2.8,3.6,6.2,6.8,8.6,10.7c1.2,2,2.2,4.2,2.6,6.5c0.6,2.7,0,4.9-0.7,7.5c-0.1,0.3,0.3,0.4,0.5,0.2
					C87.6,130.3,86.5,125.4,85.1,122.1z"/>
			</g>
			<g>
				<path class="st34" d="M68.5,116.2c-2.9-3.3-7.3-3.6-11-2c-2.7-4.3-9.4-3.9-12.5-0.2c-3.7,4.5-2.5,11,1.8,14.6
					c4.9,4.2,12.1,3.9,17.6,1.1C69.5,127,72.9,121.1,68.5,116.2z"/>
				<path class="st35" d="M68.5,116.2c-0.3-0.4-0.6-0.7-1-1c-0.9,4.2-6.4,7.2-10.1,8.2c-4.3,1.2-10.5,1.9-13.6-2.1
					c-0.4-0.5-0.7-1.1-1-1.7c-0.1,3.3,1.4,6.6,4,8.9c4.9,4.2,12.1,3.9,17.6,1.1C69.5,127,72.9,121.1,68.5,116.2z"/>
				<path class="st36" d="M82.4,134.6c-2.1-1.7-3.8-3.6-4.9-6c-1.2-2.7-1.4-5.6-2.1-8.4c-1-4.1-3.4-8.2-7.7-9.5
					c-4-1.2-8.2,0.8-10.9,3.8c-0.2,0.3-0.4,0.5-0.6,0.8c-4.3-2.7-11.1,0.3-10.9,5.7c0,0.2,0.3,0.2,0.3,0c0.6-2.1,1.5-4,3.4-5.2
					c2.1-1.3,4.7-1.2,6.9-0.2c-0.3,0.5-0.6,1-0.9,1.5c-4.7,0.1-8.7,5.1-7.4,9.8c0.1,0.3,0.5,0.2,0.5-0.1c-0.2-2.4,0.1-4.8,1.7-6.7
					c1.3-1.5,2.9-2.2,4.7-2.6c0,0,0,0,0,0c0.1,0,0.1,0.1,0.2,0.1c-1.7,3.2-3.1,7-3,10.6c0,1,0.7,1.1,0.8,0.4c0.2-2.3,0.5-5,1.3-7.2
					c0.4,0.9,1,1.7,1.6,2.6c1.1,1.5,1.5,2.9,1.4,4.8c0,0.3,0.3,0.3,0.5,0.1c1.7-2.6-1.8-5.9-3.3-8c0.4-1,0.8-1.9,1.3-2.8
					c1.6,1.1,3.4,2.1,4.7,3.5c1.8,2,2,4,1.7,6.5c0,0.3,0.4,0.4,0.5,0.1c1.2-2,0.1-4.8-1.2-6.5c-1.4-1.8-3.5-3.1-5.6-4
					c0.4-0.7,0.8-1.3,1.3-1.9c2.8,0,5.7,0.3,7.9,2.3c2.3,2.1,2.7,5.2,1,7.8c-0.2,0.3,0.3,0.7,0.5,0.4c1.9-2.3,1.5-5.7-0.4-7.9
					c-2.2-2.5-5.6-3.3-8.8-2.8c0.1-0.1,0.2-0.3,0.3-0.4c3.1-3.5,8.3-5.3,12.5-2.5c4.2,2.9,4.8,7.9,5.8,12.5
					c0.9,4.1,2.9,7.7,6.4,10.1C82.3,135.4,82.7,134.8,82.4,134.6z"/>
			</g>
			<g>
				<path class="st34" d="M90.1,108.3c0.3-4.4,3.5-7.4,7.4-8.3c-0.5-5.1,5.1-8.8,9.7-7.8c5.7,1.2,8.7,7.2,7.5,12.7
					c-1.3,6.3-7.1,10.5-13.2,11.6C95.9,117.4,89.7,114.8,90.1,108.3z"/>
				<path class="st35" d="M90.1,108.3c0-0.5,0.1-0.9,0.2-1.4c3.3,2.8,9.5,1.7,13,0.3c4.1-1.7,9.5-4.9,9.5-10c0-0.7-0.1-1.3-0.2-1.9
					c2.1,2.5,3,6.1,2.3,9.4c-1.3,6.3-7.1,10.5-13.2,11.6C95.9,117.4,89.7,114.8,90.1,108.3z"/>
				<path class="st36" d="M90.4,131.3c0.6-2.6,0.8-5.2,0.2-7.8c-0.7-2.8-2.3-5.3-3.5-7.9c-1.7-3.8-2.3-8.6,0.2-12.2
					c2.4-3.4,7-4.4,10.9-3.6c0.3,0.1,0.7,0.1,1,0.2c1.7-4.8,8.9-6.6,12.1-2.2c0.1,0.1-0.1,0.3-0.2,0.2c-1.8-1.3-3.6-2.2-5.9-2
					c-2.5,0.2-4.4,2-5.6,4.1c0.6,0.2,1.1,0.4,1.6,0.6c3.8-2.8,10-1.3,11.8,3.2c0.1,0.3-0.3,0.5-0.4,0.3c-1.4-2-3-3.7-5.5-4.2
					c-1.9-0.4-3.7,0-5.4,0.8c0,0,0,0,0,0c0,0.1,0,0.1-0.1,0.2c3.3,1.5,6.7,3.6,8.9,6.5c0.6,0.8,0.1,1.4-0.4,0.8
					c-1.6-1.7-3.4-3.6-5.4-4.9c0.3,1,0.3,2,0.3,3c0.1,1.9,0.6,3.2,1.8,4.6c0.2,0.2-0.1,0.5-0.3,0.4c-2.9-1-2.2-5.8-2.3-8.3
					c-0.9-0.5-1.8-1-2.7-1.4c-0.6,1.9-1.4,3.7-1.6,5.7c-0.2,2.6,0.8,4.4,2.6,6.2c0.2,0.2-0.1,0.5-0.3,0.4c-2.2-0.8-3.1-3.7-3.1-5.8
					c0-2.3,0.9-4.6,2-6.6c-0.7-0.3-1.4-0.5-2.2-0.7c-2.2,1.7-4.4,3.7-4.9,6.6c-0.5,3.1,1,5.8,3.9,6.8c0.4,0.1,0.2,0.7-0.2,0.7
					c-2.9-0.7-4.7-3.6-4.6-6.5c0.2-3.3,2.4-6.1,5.2-7.6c-0.2,0-0.3-0.1-0.5-0.1c-4.6-0.8-9.8,0.9-11.4,5.7
					c-1.6,4.9,1.1,9.2,3.1,13.4c1.8,3.8,2.4,7.9,1.2,11.9C91,131.9,90.4,131.7,90.4,131.3z"/>
			</g>
			<path class="st34" d="M126.6,123.7c-1.1-2.3-4-2.9-6.2-3.6c-1.8-0.6-3.7-1.1-5.5-1.7c-1.4-0.4-3.1-1.1-4.6-0.8
				c-1.1,0.2-2.1,1.3-2,2.3c-1.8,0-3.5,0.6-4.6,2.1c-1.2,1.8-0.6,4,1,5.3c2.5,2,6.6,2,9.6,2.5c3.6,0.6,8.5,1.3,11.4,2.7
				c0.7-1.4,0.8-3.2,1.1-4.7C127,126.5,127.2,125.1,126.6,123.7z"/>
			<path class="st35" d="M126,131.8c-0.5-3.6-3-6.8-7-7.8c-2.5-0.6-5.2-0.7-7.6-1.6c-1.1-0.4-2-1-3.1-1.5c-0.9-0.4-1.7-0.5-2.4-0.5
				c-0.9,0.3-1.6,0.9-2.2,1.7c-1.2,1.8-0.6,4,1,5.3c2.5,2,6.6,2,9.6,2.5c3.6,0.6,8.5,1.3,11.4,2.7C125.8,132.3,125.9,132,126,131.8z
				"/>
			<path class="st36" d="M123.5,131.7c-0.7-0.7-1.6-1.2-2.2-2c-0.7-0.9-1.2-2-1.5-3.1c0-0.1-0.2-0.1-0.2,0c0.1,1.2,0.6,2.7,1.5,3.8
				c-0.5-0.2-1.1-0.4-1.7-0.5c-0.8-0.5-1.7-0.9-2.4-1.6c-1-0.9-1.7-2-2.2-3.3c0-0.1-0.2,0-0.2,0.1c0.4,1.4,1,2.7,2.1,3.7
				c0.2,0.2,0.5,0.5,0.8,0.7c-1.2-0.1-2.5-0.2-3.7-0.3c-0.3-0.2-0.6-0.3-0.9-0.5c-0.6-0.3-1.1-0.8-1.6-1.3c-0.9-1-1.5-2.3-1.7-3.6
				c0-0.1-0.2-0.1-0.2,0c0,1.5,0.5,2.9,1.4,4c0.3,0.4,0.8,0.9,1.3,1.2c-1.2-0.1-2.4-0.2-3.6-0.5c-0.6-0.7-1.3-1.4-1.7-2.3
				c-0.6-1.4-0.6-2.8-0.3-4.2c0-0.1-0.1-0.2-0.2-0.1c-0.9,1.6-0.6,4.6,0.7,6.1c-1.9-0.7-3.3-2-4.8-3.3c-1.9-1.6-4.9-2.7-6.4-0.1
				c-0.8,1.4-0.7,3-0.8,4.5c-0.2,2.7-1.4,4.2-3.5,5.6c-0.3,0.2-0.1,0.6,0.2,0.5c2.6-0.8,3.8-3.6,3.9-6.1c0.1-2.1,0.1-5.6,3.1-5.5
				c2.3,0.1,3.7,2.3,5.3,3.5c2,1.5,4,2.4,6.4,2.5c1.9,0.1,3.7,0.1,6.9,0.7C120.4,131,123.6,131.7,123.5,131.7z"/>
		</g>
	</g>
</g>
</svg>
