<?xml version="1.0" encoding="utf-8"?>
<!-- Generator: Adobe Illustrator 25.4.1, SVG Export Plug-In . SVG Version: 6.00 Build 0)  -->
<svg version="1.1" id="Layer_1" xmlns="http://www.w3.org/2000/svg" xmlns:xlink="http://www.w3.org/1999/xlink" x="0px" y="0px"
	 viewBox="0 0 387 289.6" style="enable-background:new 0 0 387 289.6;" xml:space="preserve">
<style type="text/css">
	.st0{fill:#FAECC3;}
	.st1{fill:#FFFAEB;}
	.st2{fill:#F0DDA8;}
	.st3{fill:#98716A;}
	.st4{fill:#855A52;}
	.st5{fill:#28878B;}
	.st6{fill:#01676B;}
	.st7{fill:#F8ED60;}
	.st8{fill:#FFBD00;}
	.st9{fill:#483E49;}
	.st10{fill:#210026;}
	.st11{fill:#666666;}
	.st12{fill:#FFFFFF;}
	.st13{fill:#72E3C5;}
	.st14{fill:#316154;}
	.st15{fill:#FCC786;}
	.st16{fill:#B86500;}
	.st17{fill:#FCE3AF;}
	.st18{fill:#FFF0D1;}
	.st19{fill:#49917E;}
</style>
<g>
	<path class="st0" d="M365,128.3c1.5-0.4,3.1-0.8,4.6-1.2c1.3-0.3,2.8-0.8,3.3-2.1c-1.5,0.6-3.1,0.9-4.7,0.8c2-1.2,4-3,6.3-3.6
		c-0.1-0.3-0.3-0.5-0.7-0.6c-1.5-0.2-2.9-0.2-4.4,0.1c1.1-0.8,2.4-1.4,3.8-1.6c-2.7-1.6-6-1.1-9-0.6c1-1.4,2.5-2.4,4.3-2.7
		c-3.1-0.6-6.3-0.7-9.4-0.2c0.8-1.5,2.7-2.2,4.3-1.8c-0.4-1.4-2.1-1.7-3.6-1.9c-2.3-0.2-4.6-0.4-6.9-0.6c1.5-0.8,3.2-1.1,4.9-0.8
		c-1.5-1.4-3.6-1.8-5.5-1.9c-2-0.1-4,0-6-0.5c1.3-0.1,2.6-0.1,3.9-0.2c0.1-0.8-0.7-1.3-1.4-1.7c-2.3-1.2-4.8-2.1-7.4-2.5
		c-0.5-0.1-1.2-0.4-1-0.9c1.8,0.1,3.5-0.1,5.2-0.5c-3-2.1-7-2.1-10.7-2c1-0.9,2.5-1.2,3.8-0.9c-2.6-2.4-6.8-1.7-10.1-2.9
		c1.2-0.2,2.5-0.5,3.7-0.7c-0.3-0.7-1.2-1-1.9-1.2c-2.3-0.6-4.6-1.1-6.9-1.7c0.3-1.8,2.7-1.6,4-1.6c0.2-0.9-1-1.4-1.9-1.6
		c-3.7-0.8-7.4-1.5-11-2.3c1.4-0.3,2.9-0.5,4.4-0.5c-3.8-1.6-7.9-2.4-11.9-3.1c1.2-0.2,2.3-0.5,3.5-0.7c-3.1-2.3-7.1-2.9-10.9-3.4
		c1.3-0.3,2.6-0.6,3.9-0.9c-3-1.8-6.5-2.8-10-2.7c0.5-0.9,1.7-2.4,3-1.6c-3.7-2.2-7.9-3.6-12.1-4c1.2-0.7,2.6-1.1,3.9-1.1
		c-3.1-1.7-6.6-2.8-10.1-3.4c1.3-0.3,2.6-0.7,3.8-1.2c-2.1-1.4-4.8-1.9-7.3-1.4c-0.6,0.1-1.3,0.3-2,0.3c-0.7,0-1.4-0.2-1.7-0.8
		c-0.6-1,0.3-2.1,1.3-2.3c-1.1,0.3-2.4-0.2-3-1.2c1.1-1.1,2.1-2.2,3.2-3.4c-5.1-0.5-10.4,0.7-14.8,3.3c1.2-1.4,2.4-2.7,3.6-4.1
		c-4.8,1.1-9.2,4-12.2,8c1.5-2.3,3-4.6,4.6-7c-4.9,2.1-9.2,5.4-12.6,9.4c1.3-1.9,2.6-3.9,3.9-5.8c-5.6,3.1-10.5,7.4-14.2,12.5
		c1.1-2.1,2.2-4.3,3.4-6.4c-4.9,2.9-9.1,6.9-12.4,11.6c1.1-1.8,2.2-3.7,3.3-5.5c-7.9,3.2-15.1,8.1-21,14.2c0.9-1.9,1.8-3.8,2.7-5.7
		c-5.4,3.9-10.2,8.7-14.2,14c0.8-2.1,2-4.1,3.5-5.8c-7.1,3-13.5,7.8-18.2,13.9c1.2-2.8,2.4-5.7,3.5-8.5c-5.8,3.1-10.5,8.1-13.1,14.1
		c0.9-2.1,1.9-4.2,2.8-6.3c-5.3,3.2-9.8,7.5-13.3,12.5c1.1-2.2,1.7-4.6,1.8-7c-6.2,4.2-11.7,9.4-16.2,15.4c0.7-2,1.4-4,2.1-6
		c-5.8,2.9-10.9,7.3-14.6,12.7c0.9-2.2,1.7-4.5,2.6-6.7c-6.4,4-12,9.3-16.5,15.4c0.7-2.7,1.3-5.3,2-8c-5.4,3.1-10,7.7-13.3,13
		c0.4-2.2,0.7-4.3,1.1-6.5c-5,4.1-9.3,9-12.8,14.5c0.5-1.8,1.1-3.6,1.6-5.4c-4.5,2.1-8.4,5.7-10.9,10c0.7-2,1.4-4.1,2.1-6.1
		c-6.1,2.8-11.1,7.8-13.7,14c-0.3-2.2,0.3-4.4,1.6-6.2c-6.2,4.4-11.6,10-15.8,16.3c0.1-2.2,0.2-4.4,0.2-6.6
		c-5.4,4.2-10.1,9.3-13.9,15c0.8-2.6,1.6-5.2,2.4-7.9c-5.9,3.4-11,8.1-14.9,13.7c0.6-2.2,1.2-4.4,1.8-6.6c-0.4,1.6-2.9,3.6-4,4.9
		c-1.3,1.5-1.8,2.9-2.6,4.7c-0.6-1.3-1.1-2.8-1.6-4.2c-0.1,2.5,0.3,4.9,1.1,7.3c-1.6-1.1-3.1-2.5-4.3-4c0.8,4.5,3.3,8.7,6.9,11.5
		c-1.5-0.7-3-1.3-4.6-2c2.5,2.9,6.3,4.6,10.1,4.4c-1.3,0.2-2.6,0.3-4,0.5c3.6,1.8,7.5,2.9,11.5,3.5c-1.5,0.2-3,0.3-4.5,0.5
		c4.1,2,8.5,3.7,12.9,5c-1.5,0-2.9,0.1-4.4,0.1c3.4,2.1,7.2,3.5,11.2,4c-1.4,0.2-2.8,0.3-4.2,0.5c4.2,2.5,9,4,13.8,4.3
		c-1.8-0.2-3.7,0.1-5.4,0.9c3.7,2,7.9,3.1,12.1,3.2c-1.8,0.2-3.6,0.5-5.4,0.7c3.8,1.8,7.7,3.2,11.8,4.1c-1.7,0.1-3.4,0.3-5.1,0.7
		c3.1,1.8,6.8,2.7,10.4,2.3c-1.7,0.2-3.4,0.4-5.1,0.7c3.7,1.7,7.9,2.4,11.9,1.9c-1.7,0.3-3.4,0.6-5.1,0.9c4.2,2.6,9.1,4,14,4.1
		c-1.8,0.1-3.6,0.6-5.2,1.3c3.7,1.2,7.4,2.5,11.1,3.7c-1.8-0.1-3.6,0.1-5.3,0.7c4.9,2.1,10.1,3.6,15.3,4.4c-1.5,0.3-3.1,0.6-4.6,0.8
		c3.9,1,7.8,2,11.7,3.1c-1.2-0.3-3.7,1-4.7,1.6c4.2,1,7.8,2.4,12.2,1.3c-1.3,0.3-2.1,1.6-2.2,2.9c-0.1,1.3,0.4,2.6,0.9,3.8
		c0.8-1.5,1.6-3,2.4-4.5c-0.1,1.6,0.6,3.3,1.9,4.4c0.6-1.9,0.6-4,0.1-5.9c3,1.5,6.6,1.9,9.9,1.1c-1.7,0-3.5-0.7-4.7-1.9
		c4.6-0.6,8.9-2.5,12.5-5.4c-1.5,0.6-3.3,0.2-4.4-1c5-0.4,9.5-3.2,13.7-5.9c-1.7,0.7-3.6,0.7-5.2,0c7.2-1.3,14.1-4.3,20-8.6
		c-1.8,0.6-3.7,0.8-5.5,0.5c5-1.5,9.9-3.4,14.6-5.6c-1.4,0.2-2.8,0.3-4.1,0.5c1.7-0.2,3.7-1.4,5.2-2.1c1.3-0.6,2.5-0.6,3.9-0.9
		c3.5-0.8,6.9-2.9,9.7-5c-1.8,0.7-3.7,0.9-5.6,0.5c3.6-0.9,7.1-1.8,10.6-2.8c1.2-0.4,2.5-0.8,3.3-1.8c-2.3,0.6-4.8,0.6-7.2,0
		c6.4-1.4,12.9-2.8,18.4-6.3c-2.8,0.8-5.7,0.9-8.6,0.5c5.4-1.4,11.1-2.8,15.5-6.3c-2.8,0.8-5.6,1.3-8.5,1.6
		c4.3-1.8,9.2-2.3,12.9-5.1c-1.6,1-3.5,1.4-5.3,1.2c2.6-1.5,4.7-2.6,7.7-3.3c3.4-0.7,6.8-1.5,10.2-2.2c1.4-0.3,2.9-0.7,3.9-1.7
		c-2.3,0.5-4.7,1-6.9,0c4.1-0.5,8.1-1.9,11.7-4c-2.5,1.1-5.4,1.4-8.1,0.9c6.1-1.5,12.2-3.4,17.2-7.2c-2.4,1.3-5.1,1.9-7.8,1.8
		c4.5-1.2,8.8-3,12.8-5.3c-1.7,1-3.8,1.3-5.7,1c4.3-0.9,8.6-2.1,12.7-3.7c0.8-0.3,1.6-0.7,2-1.4c-2.6,1-5.5,1.5-8.3,1.3
		c5.9-1.3,11.6-3.5,16.8-6.5c-3,1.2-6.2,1.8-9.4,1.7c5.1-1.3,10.3-2.7,14.3-6c-2.2,0.6-4.5,1.2-6.7,1.8c1.4-0.4,2.4-1.5,3.7-2
		c1.3-0.6,2.9-0.9,4.3-1.3c3.3-1.2,6.6-2.5,9.8-4c-1.8,0.4-3.6,0.7-5.3,1.1c3.4-2,6.8-4,10.3-6c-1.7,0.3-3.4,0.7-5.1,1
		c6-1.5,11.9-3.3,17.7-5.4c-2.5-0.4-5.1-0.3-7.7-0.1c5.6-1,11-3.1,15.8-6.2c-2.7,1.2-5.7,2.3-8.6,1.7c5.9-1.3,11.7-3.4,17.1-6.3
		c-2.3,0.4-4.7,0.8-7,1.2c1.1-1.6,3.3-1.8,5.3-2c3.8-0.5,7.4-2.2,10.3-4.7c-1.7,1-3.7,1.3-5.5,0.8c6.1-0.9,12-3.2,17.2-6.6
		c-2.1,1-4.5,1.2-6.7,0.6c4.7-0.3,9.9-0.9,13.2-4.2c-2.5,0.7-5.1,1.4-7.5,0.6c4.2-0.5,8.2-1.9,11.8-4.1c-1.9,0.2-3.8,0.4-5.7,0.5
		C362,129.1,363.5,128.7,365,128.3z"/>
	<path class="st1" d="M346.9,128.9c1.4-0.4,2.8-0.7,4.2-1.1c1.2-0.3,2.6-0.8,3-1.9c-1.3,0.6-2.8,0.8-4.3,0.7
		c1.8-1.1,3.7-2.7,5.7-3.2c-0.1-0.3-0.3-0.5-0.6-0.5c-1.3-0.2-2.7-0.2-4,0.1c1-0.7,2.2-1.2,3.5-1.4c-2.4-1.4-5.4-1-8.2-0.6
		c0.9-1.3,2.3-2.2,3.9-2.4c-2.8-0.6-5.7-0.6-8.6-0.2c0.8-1.3,2.5-2,3.9-1.6c-0.4-1.3-2-1.6-3.3-1.7c-2.1-0.2-4.2-0.4-6.3-0.5
		c1.3-0.7,2.9-1,4.4-0.7c-1.3-1.2-3.2-1.6-5.1-1.7c-1.8-0.1-3.7,0-5.4-0.5c1.2,0,2.4-0.1,3.6-0.1c0.1-0.7-0.6-1.2-1.3-1.5
		c-2.1-1.1-4.4-1.9-6.7-2.3c-0.5-0.1-1.1-0.4-0.9-0.8c1.6,0.1,3.2-0.1,4.8-0.5c-2.7-2-6.4-1.9-9.7-1.9c0.9-0.8,2.2-1.1,3.4-0.8
		c-2.4-2.2-6.2-1.5-9.2-2.7c1.1-0.2,2.3-0.4,3.4-0.7c-0.3-0.7-1.1-0.9-1.8-1.1c-2.1-0.5-4.2-1-6.3-1.5c0.2-1.6,2.5-1.5,3.6-1.4
		c0.2-0.8-0.9-1.3-1.7-1.5c-3.3-0.7-6.7-1.4-10-2.1c1.3-0.3,2.7-0.5,4-0.4c-3.4-1.5-7.2-2.2-10.8-2.9c1.1-0.2,2.1-0.4,3.2-0.6
		c-2.8-2.1-6.5-2.6-9.9-3.1c1.2-0.3,2.4-0.5,3.6-0.8c-2.7-1.7-5.9-2.5-9.1-2.5c0.4-0.8,1.5-2.2,2.7-1.5c-3.3-2-7.2-3.3-11.1-3.6
		c1.1-0.6,2.3-1,3.6-1c-2.8-1.6-6-2.6-9.2-3.1c1.2-0.3,2.4-0.6,3.5-1.1c-1.9-1.3-4.4-1.7-6.6-1.2c-0.6,0.1-1.2,0.3-1.8,0.3
		c-0.6,0-1.3-0.2-1.6-0.7c-0.6-0.9,0.2-1.9,1.1-2.1c-1,0.2-2.2-0.2-2.7-1.1c1-1,1.9-2,2.9-3.1c-4.6-0.4-9.4,0.6-13.4,3
		c1.1-1.2,2.2-2.5,3.3-3.7c-4.4,1-8.4,3.7-11.1,7.3c1.4-2.1,2.8-4.2,4.2-6.3c-4.4,1.9-8.4,4.9-11.5,8.6c1.2-1.8,2.4-3.5,3.6-5.3
		c-5.1,2.8-9.5,6.7-12.9,11.4c1-1.9,2-3.9,3.1-5.8c-4.5,2.7-8.3,6.3-11.3,10.6c1-1.7,2-3.4,3-5c-7.2,2.9-13.7,7.3-19.1,12.9
		c0.8-1.7,1.6-3.5,2.5-5.2c-4.9,3.6-9.3,7.9-12.9,12.7c0.7-1.9,1.8-3.7,3.2-5.3c-6.5,2.7-12.3,7.1-16.6,12.6
		c1.1-2.6,2.2-5.2,3.2-7.7c-5.3,2.8-9.5,7.4-11.9,12.8c0.9-1.9,1.7-3.8,2.6-5.7c-4.8,2.9-8.9,6.8-12.1,11.4c1-2,1.6-4.2,1.6-6.4
		c-5.6,3.8-10.6,8.6-14.7,14c0.6-1.8,1.3-3.6,1.9-5.4c-5.3,2.6-9.9,6.6-13.3,11.5c0.8-2,1.6-4.1,2.4-6.1c-5.8,3.7-10.9,8.5-15,14
		c0.6-2.4,1.2-4.9,1.8-7.3c-4.9,2.9-9.1,7-12.1,11.8c0.3-2,0.7-3.9,1-5.9c-4.5,3.8-8.5,8.2-11.7,13.2c0.5-1.6,1-3.3,1.5-4.9
		c-4.1,2-7.6,5.2-9.9,9.1c0.6-1.9,1.3-3.7,1.9-5.6c-5.5,2.5-10.1,7.1-12.5,12.7c-0.3-2,0.3-4,1.5-5.6c-5.6,4-10.5,9.1-14.4,14.9
		c0.1-2,0.2-4,0.2-6c-4.9,3.9-9.2,8.5-12.6,13.7c0.7-2.4,1.4-4.8,2.2-7.1c-5.4,3.1-10,7.4-13.6,12.4c0.5-2,1.1-4,1.6-6
		c-0.4,1.4-2.6,3.3-3.6,4.4c-1.2,1.3-1.6,2.7-2.4,4.3c-0.6-1.2-1-2.5-1.4-3.8c-0.1,2.2,0.2,4.5,1,6.6c-1.5-1-2.8-2.3-3.9-3.7
		c0.7,4.1,3,7.9,6.3,10.5c-1.4-0.6-2.8-1.2-4.2-1.8c2.2,2.6,5.8,4.2,9.2,4c-1.2,0.2-2.4,0.3-3.6,0.5c3.3,1.6,6.9,2.7,10.5,3.1
		c-1.4,0.1-2.7,0.3-4.1,0.4c3.8,1.8,7.7,3.4,11.7,4.5c-1.3,0-2.6,0.1-4,0.1c3.1,1.9,6.6,3.2,10.2,3.7c-1.3,0.2-2.6,0.3-3.9,0.5
		c3.8,2.3,8.2,3.6,12.6,3.9c-1.7-0.2-3.4,0.1-4.9,0.8c3.4,1.9,7.2,2.9,11,2.9c-1.6,0.2-3.3,0.4-4.9,0.6c3.4,1.7,7.1,2.9,10.8,3.7
		c-1.6,0.1-3.1,0.3-4.6,0.7c2.8,1.7,6.2,2.4,9.4,2.1c-1.5,0.2-3.1,0.4-4.6,0.6c3.4,1.6,7.2,2.2,10.9,1.8c-1.5,0.3-3.1,0.6-4.6,0.9
		c3.8,2.3,8.3,3.7,12.7,3.7c-1.6,0.1-3.2,0.5-4.7,1.2c3.4,1.1,6.7,2.3,10.1,3.4c-1.6-0.1-3.3,0.1-4.8,0.6c4.5,1.9,9.2,3.3,14,4
		c-1.4,0.3-2.8,0.5-4.2,0.8c3.5,0.9,7.1,1.9,10.6,2.8c-1.1-0.3-3.3,0.9-4.2,1.4c3.8,0.9,7.1,2.2,11.1,1.2c-1.2,0.2-2,1.5-2,2.7
		c-0.1,1.2,0.4,2.4,0.8,3.5c0.7-1.4,1.4-2.7,2.2-4.1c-0.1,1.5,0.5,3,1.7,4c0.5-1.7,0.5-3.6,0.1-5.4c2.8,1.4,6,1.7,9,1
		c-1.6,0-3.2-0.6-4.3-1.8c4.1-0.6,8.1-2.3,11.4-4.9c-1.4,0.5-3,0.2-4-0.9c4.6-0.4,8.6-2.9,12.5-5.3c-1.5,0.6-3.3,0.6-4.8,0
		c6.6-1.2,12.8-3.9,18.2-7.9c-1.6,0.6-3.4,0.7-5,0.4c4.5-1.4,9-3.1,13.3-5.1c-1.3,0.1-2.5,0.3-3.8,0.4c1.5-0.2,3.3-1.3,4.8-1.9
		c1.2-0.5,2.3-0.5,3.6-0.8c3.1-0.8,6.3-2.6,8.9-4.5c-1.6,0.6-3.4,0.8-5.1,0.5c3.2-0.8,6.5-1.6,9.7-2.5c1.1-0.3,2.3-0.7,3-1.6
		c-2.1,0.5-4.4,0.5-6.5,0c5.8-1.3,11.7-2.6,16.8-5.7c-2.5,0.7-5.2,0.9-7.8,0.4c5-1.3,10.1-2.6,14.1-5.7c-2.5,0.7-5.1,1.2-7.8,1.4
		c3.9-1.6,8.4-2.1,11.7-4.7c-1.4,0.9-3.2,1.3-4.8,1.1c2.4-1.4,4.3-2.4,7-3c3.1-0.7,6.2-1.4,9.3-2c1.3-0.3,2.7-0.6,3.5-1.6
		c-2.1,0.5-4.3,0.9-6.2,0c3.7-0.5,7.4-1.7,10.6-3.7c-2.3,1-4.9,1.2-7.3,0.8c5.5-1.4,11.1-3.1,15.6-6.6c-2.2,1.2-4.6,1.8-7.1,1.6
		c4.1-1.1,8-2.7,11.6-4.8c-1.6,0.9-3.4,1.2-5.2,0.9c3.9-0.8,7.8-1.9,11.5-3.4c0.7-0.3,1.5-0.6,1.8-1.3c-2.4,0.9-5,1.3-7.6,1.2
		c5.4-1.2,10.5-3.1,15.3-5.9c-2.7,1.1-5.7,1.7-8.6,1.5c4.6-1.2,9.4-2.4,13-5.5c-2,0.6-4.1,1.1-6.1,1.7c1.2-0.3,2.2-1.4,3.4-1.9
		c1.2-0.5,2.7-0.8,4-1.2c3-1.1,6-2.3,9-3.7c-1.6,0.3-3.2,0.6-4.9,1c3.1-1.8,6.2-3.6,9.3-5.4c-1.5,0.3-3.1,0.6-4.6,0.9
		c5.4-1.4,10.8-3,16.1-4.9c-2.3-0.4-4.7-0.2-7-0.1c5.1-0.9,10-2.8,14.4-5.7c-2.5,1.1-5.2,2.1-7.8,1.5c5.4-1.2,10.7-3.1,15.5-5.7
		c-2.1,0.4-4.3,0.7-6.4,1.1c1-1.5,3-1.6,4.8-1.8c3.4-0.5,6.7-2,9.4-4.3c-1.5,0.9-3.3,1.1-5,0.8c5.6-0.9,10.9-2.9,15.7-6
		c-1.9,0.9-4.1,1.1-6.1,0.5c4.3-0.3,9-0.8,12-3.8c-2.2,0.7-4.6,1.3-6.8,0.5c3.8-0.5,7.5-1.7,10.7-3.7c-1.7,0.2-3.5,0.3-5.2,0.5
		C344.2,129.6,345.5,129.3,346.9,128.9z"/>
	<g>
		<path class="st2" d="M106.8,190.3c-2.7,0.6-6.3,0.6-8.5,2.5c-2.3,2,0.2,3.3,1.9,4.6c1.7,1.3,2.9,3.4,3.5,5.4
			c1.2,3.7,1.6,8,4.5,10.6c0.8,0.8,1.9,1.4,2.2,2.5c0.2,0.8,0,1.6-0.2,2.3c-0.6,1.9-1.2,3.9-1.7,5.8c-0.3,1.4,1.6,2.6,2.1,3.9
			c0.4,1.2,0.4,2.5,0.7,3.7c0.1,0.3,0.2,0.6,0.4,0.8c0.6,0.6,1.5,0.3,2.3,0c3.4-1.3,6.8-2.5,10.1-4.1c4-1.9,8-4.1,12-6.1
			c4.7-2.3,9.1-5,13.9-7.1c6.2-2.7,12.6-4.8,19.2-6c7-1.2,14-2.2,21-3.6c1.7-0.3,3.3-0.7,5-1.1c3.6-0.9,7.2-2,10.7-3.3
			c5.6-2.2,11.2-5.4,13.6-10.9c3.7-8.1-0.9-18.4,3.4-26.2c2.4-4.3,7.1-6.9,11.5-9.1c9.3-4.8,50.3-28.1,54.8-30.8
			c0.4-0.2,0.7-0.4,1.1-0.7c5.5-3.3,11.1-6.7,16.3-10.5c1.5-1.1,3-2.3,4.2-3.8c2-2.5,2.7-6.2,2.5-9.3c-0.4-5.9-4.5-11.2-9.8-14
			c-5.2-2.9-11.3-3.7-17.3-3.7c-19.7,0-36.3,9.9-51.7,21.1c-12.1,8.8-23.5,18.4-36.3,26.3c-14.1,8.6-29.4,14.9-45,20.4
			c-6.2,2.2-12.7,4.5-17.7,8.8c-5.5,4.7-8.9,11.4-12.8,17.6C119,182.6,113.8,188.6,106.8,190.3z"/>
		<g>
			<g>
				<path class="st3" d="M140.5,159.9c0,0.7-0.3,1.3-0.6,1.9c-0.7,1.5-1.5,2.9-2.5,4.2c-0.9,1.4-2,2.6-3.1,3.9
					c-2.1,2.7-4.4,5.1-7,7.4c-2.9,2.6-10.4,9.7-11.3,10.6c-1.1,1-2.1,2.1-3,3.3c-1,1.3-1.7,2.8-2.8,4.1c-1.2,1.4-2.6,2.5-4.2,3.4
					c-1.9,1.1-4,1.8-6.1,2.3c-2.1,0.5-4.2,0.8-6.3,0.3c-0.7-0.2-1.5-0.4-1.9-1c-0.5-0.6-0.5-1.4-0.8-2.1c-0.3-0.8-0.2-1.4,0.1-2.2
					c0.9-2.3,2.6-3.9,4.4-5.5c1.2-1.1,2.4-2.2,3.6-3.3c1.4-1.3,3.4-0.9,5-1.5c1.2-0.4,2.4-1.1,3.5-1.9c1.2-0.9,4.3-5.1,4.9-6.1
					c2-3.1,3.7-6.4,5.5-9.6c0.9-1.6,4.8-8.4,5.9-10.2c0,0,0-0.1,0-0.1c1.1-1.8,2.4-3.3,3.8-4.9c0,0.4,0.1,0.8,0.4,1.1
					c0.6,0.5,1.1,0,1.7-0.1c0.7-0.1,1.5-0.2,2.2-0.1c1.5,0,3,0.4,4.3,1.3c0.9,0.6,1.6,1.5,2.1,2.4c0.2,0.5,0.5,1,0.6,1.5
					c0,0.3-0.2,1,0.3,1.2c0.1,0,0.2,0,0.2,0C140,160.1,140.2,160.1,140.5,159.9z"/>
				<path class="st4" d="M140.5,159.9c0,0.7-0.3,1.3-0.6,1.9c-0.7,1.5-1.5,2.9-2.5,4.2c-0.9,1.4-2,2.6-3.1,3.9
					c-2.1,2.7-4.4,5.1-7,7.4c-2.9,2.6-10.4,9.7-11.3,10.6c-1.1,1-2.1,2.1-3,3.3c-1,1.3-1.7,2.8-2.8,4.1c-1.2,1.4-2.6,2.5-4.2,3.4
					c2.9-5.6,6.6-10.7,11-15.2c5-5.1,11-9.4,14.8-15.5c0.5-0.9,1.1-1.9,0.9-2.9c-0.2-1-1-1.7-1.8-2.2c-0.9-0.5-1.8-0.7-2.7-1.1
					c-1.8-0.8-3.2-2.2-4.1-3.8c0,0,0-0.1-0.1-0.1c1.1-1.8,2.4-3.3,3.8-4.9c0,0.4,0.1,0.8,0.4,1.1c0.6,0.5,1.1,0,1.7-0.1
					c0.7-0.1,1.5-0.2,2.2-0.1c1.5,0,3,0.4,4.3,1.3c0.9,0.6,1.6,1.5,2.1,2.4c0.2,0.5,0.5,1,0.6,1.5c0,0.3-0.2,1,0.3,1.2
					c0.1,0,0.2,0,0.2,0C140,160.1,140.2,160.1,140.5,159.9z"/>
				<g>
					<path class="st5" d="M143.7,150c0,2.9-0.5,5.9-1.5,8.7c-0.3,0.8-0.6,2.2-1.3,2.8c-1,0.7-2.9,0.9-4,1c-0.5,0-1,0.1-1.5,0.1
						c-4.2-0.1-8.4-2.2-10.8-5.7c-0.1-0.2-0.2-0.4-0.3-0.6c0-0.4,0.2-0.8,0.4-1.3c0-0.1,0.1-0.2,0.1-0.2c0.1-0.2,0.2-0.4,0.3-0.6
						c0.4-0.7,0.8-1.5,1.2-2.2c0.7-1.3,1.6-2.4,2.6-3.5c0.2-0.2,0.3-0.4,0.5-0.6c2.2-2.2,5.3-3.9,8.5-3.8c0.7,0,1.5,0.1,2.2,0.4
						c0.8,0.3,1.5,0.9,2,1.6c0.2,0.4,0.3,0.7,0.4,1.1c0.2,0.4,0.6,0.7,0.9,1.1c0.2,0.3,0.3,0.7,0.3,1.1
						C143.7,149.6,143.7,149.8,143.7,150z"/>
				</g>
				<path class="st6" d="M143.7,150c0,2.9-0.5,5.9-1.5,8.7c-0.3,0.8-0.6,2.2-1.3,2.8c-1,0.7-2.9,0.9-4,1c-0.5,0-1,0.1-1.5,0.1
					c0.2-0.5,0.4-1,0.5-1.6c0.2-1.3-0.2-2.7-1.2-3.4c-0.8-0.6-1.8-0.7-2.7-0.8c-0.9-0.1-1.8-0.1-2.7-0.1c-1.3,0-3.1,0.2-3.9-1.1
					c-0.2-0.2-0.3-0.5-0.4-0.8c0.1-0.2,0.2-0.4,0.3-0.6c0.4-0.7,0.8-1.5,1.2-2.2c0.7-1.3,1.6-2.4,2.6-3.5c1.9-1.1,4-1.8,6.1-2
					c3.1-0.2,6.4,0.9,8.6,3C143.7,149.6,143.7,149.8,143.7,150z"/>
				<path class="st4" d="M266.4,60.7c-0.1,0.1-0.1,0.3-0.1,0.4c0,0.2,0.1,0.5,0.2,0.7c0.4,1.1,0.7,2.2,1.1,3.2
					c0.4,1.1,1,2.1,1.8,2.8c0.9,0.7,2,1.2,3.1,0.9c0.5-0.1,0.9-0.4,1.3-0.6c0.8-0.5,1.5-1,2-1.7c0.3-0.5,0.5-1.1,0.7-1.7
					c0.3-1.2,0.6-2.5,0.8-3.7c0.1-0.6,0.2-1.1,0.2-1.7c0-0.1,0-0.2-0.1-0.2c-0.1-0.1-0.1-0.1-0.2-0.1c-0.5-0.1-0.9,0.1-1.4,0
					c-0.3-0.1-0.6-0.4-0.8-0.7c-0.7-1-1-2.2-1.1-3.4c-0.1-0.7,0.1-1.4-0.1-2c-0.2-0.7-0.4-1.3-0.5-2c-1.6,2.1-3.2,4.2-4.7,6.3
					C267.7,58.2,266.9,59.4,266.4,60.7z"/>
				<g>
					<path class="st7" d="M276.7,64.2c-1.2,2.9-3.9,25.2-4.9,28.3c-0.8,2.5-2,4.8-3.4,7c-0.5,0.9-1.1,1.7-1.7,2.5
						c-0.4,0.5-0.9,1.1-1.4,1.5c0.7,0.5,1.3,1.1,2,1.6c-0.7,0.7-1.3,1.3-2.1,1.8c-5.1,3.9-12,5.1-18.3,6.9c-9,2.6-17.5,6.8-26.7,8.8
						c-5.4,1.1-10.9,1.4-16.3,2.4c-1.3,0.2-2.7,0.5-4,0.7c-1.6,0.2-3.2,0.4-4.8,0.2c-1.3-0.2-2.6-0.5-3.8-1c-0.9-0.4-2.7-0.9-3-1.9
						c-0.2-0.4-0.1-0.9-0.1-1.3c0.4-3.2,2.1-6.6,3.9-9.3c3.3-5,8.9-8,14.7-9.7c5.7-1.7,11.7-2.3,17.6-3.6c4.7-1.1,9.3-2.7,13.8-4.2
						c2.6-0.9,4.7-1.8,6.5-3.9c0.8-1,1.5-2,2.2-3c1.4-2,2.6-4.1,3.9-6.3c0.4-0.8,0.9-1.5,1.3-2.3c0.9-1.5,1.8-3.1,2.7-4.6
						c1.8-2.7,3.7-5.3,5.7-7.9c0-0.1,0.1-0.2,0.2-0.2c1.3-1.7,2.5-3.5,3.8-5.2c1.2-1.7,2.7-3.2,4.1-4.8c-0.4,0.4-0.5,1.2-0.7,1.7
						c-0.2,0.7-0.4,1.3-0.4,2c-0.2,1.3,0,2.7,0.7,3.8c0.4,0.7,1.1,1.3,1.8,1.7c0.7,0.4,1.6,0.6,2.5,0.6c0.6,0,1.1,0,1.6-0.2
						c0.2-0.1,0.4-0.2,0.7-0.3C275.5,65.4,276.2,64.9,276.7,64.2z"/>
				</g>
				<path class="st8" d="M276.7,64.2c-1.2,2.9-3.9,25.2-4.9,28.3c-0.8,2.5-2,4.8-3.4,7c-2.2-0.7-4.3-2-6-3.4
					c-3.9-3.3-6.5-7.8-8.5-12.4c-0.7-1.4-1.2-2.9-1.7-4.4c0.9-1.5,1.8-3.1,2.7-4.6c1.8-2.7,3.7-5.3,5.7-7.9c2.7,2,4.5,5.1,6.4,8
					c0.3,0.5,0.7,1,1.2,1.3c1.1,0.5,2.4-0.4,3.1-1.4c1.8-2.4,2.5-5.3,2.7-8.4c0.2-0.1,0.4-0.2,0.7-0.3
					C275.5,65.4,276.2,64.9,276.7,64.2z"/>
				<path class="st8" d="M265.3,106.8c-5.1,3.9-12,5.1-18.3,6.9c-9,2.6-17.5,6.8-26.7,8.8c-5.4,1.1-10.9,1.4-16.3,2.4
					c-1.3,0.2-2.7,0.5-4,0.7c-0.4-1.1-0.8-2.3-0.8-3.6c0-2.8,2.4-5.5,4.5-7.1c2.3-1.8,5.1-2.9,7.9-3.7c11.2-3.3,23.1-2.5,34.7-3.8
					c1.7-0.2,3.6-0.5,4.8-1.8c1.3-1.3,1.4-3.3,1.2-5.1c-0.2-2.7-1-5.3-2.3-7.7c-0.9-1.7-2.1-3.3-3-5c1.4-2,2.6-4.1,3.9-6.3
					c0.3,0.1,0.6,0.3,0.9,0.5c1.6,1,2.9,2.5,4.1,4c3,3.7,6,7.5,7.8,11.9C264.8,100.6,265.5,103.8,265.3,106.8z"/>
				<path class="st3" d="M255.4,61.7c-0.3,0.4-0.2,0.8-0.5,1.3c-0.6,0.9-0.7,2.1-1.4,3c-0.3,0.4-0.8,0.8-1.2,1.1
					c-1,0.8-2,1.6-3.1,2.2c-0.7,0.4-1.5,0.8-2.3,0.7c-0.7,0-1.4-0.4-1.7-1.1c-0.3-0.7-0.5-1.5-1.1-2c-0.5-0.5-1.2-0.8-1.9-1
					c0,0-0.1,0-0.1,0c-0.2,0-0.4-0.1-0.6-0.1c-2-0.3-4.1-0.4-6.2-0.8c-0.6-0.1-1.1-0.2-1.6-0.5c-0.6-0.4-0.9-1.1-1.1-1.8
					c-0.7-2.5,0.4-4.9,1.6-7c1.3-2.3,2.5-5.1,1.6-7.6c-1-2.8-4-4.3-5.2-7c-0.6-1.5-0.6-3.3,0.2-4.8c0.5-1,1.2-1.8,1.8-2.7
					c0.5-0.8,0.9-1.7,1.4-2.5c0.5-0.8,1.2-1.5,2.1-1.8c0.9-0.3,2,0,2.5,0.8c0.2,0.3,0.2,0.6,0.4,0.9c0.1,0.2,0.2,0.4,0.3,0.5
					c0.4,0.5,0.9,1,1.2,1.6c1.3,2.3-0.9,5.4,0.3,7.7c0.6,1.1,1.8,1.8,2.9,2.6c2.2,1.6,3.6,4.1,4.9,6.6c1.6,3,3,6,4.8,8.8
					C253.4,59,255.2,61.7,255.4,61.7z"/>
				<path class="st4" d="M255.4,61.7c-0.3,0.4-0.2,0.8-0.5,1.3c-0.6,0.9-0.7,2.1-1.4,3c-0.3,0.4-0.8,0.8-1.2,1.1
					c-1,0.8-2,1.6-3.1,2.2c-0.7,0.4-1.5,0.8-2.3,0.7c-0.7,0-1.4-0.4-1.7-1.1c-0.3-0.7-0.5-1.5-1.1-2c-0.5-0.5-1.2-0.8-1.9-1
					c1.3-0.7,3.2-0.6,4.5-1.3c1.6-0.8,3-2.3,3.2-4c0.1-1.1-0.2-2.2-0.4-3.2c-0.4-1.4-0.8-2.8-1.4-4.1c-1.7-3.6-5-6.1-7.8-8.9
					c-1.2-1.2-2.4-2.5-2.9-4.2c-1-2.9,0.3-6,1.8-8.7c0.4,0.5,0.9,1,1.2,1.6c1.3,2.3-0.9,5.4,0.3,7.7c0.6,1.1,1.8,1.8,2.9,2.6
					c2.2,1.6,3.6,4.1,4.9,6.6c1.6,3,3,6,4.8,8.8C253.4,59,255.2,61.7,255.4,61.7z"/>
				<g>
					<path class="st7" d="M286.5,116.7c-0.6,2-1.6,3.9-2.9,5.5c-2.7,3.3-6.3,5.5-9.9,7.7c-8.4,5-37.6,22.1-44.3,24.7
						c-4.6,1.8-9.5,3.1-14.4,3.3c1.4-1.2,2-3.1,2-4.9c0-1.8-0.5-3.6-1-5.4c-1-3.5-2-7.1-3.9-10.3c-2.2-3.7-5.3-6.6-8.6-9.3
						c-1.1-0.9-1.6-1.5-1.6-2.9v-0.1c-0.1-8.4,10.9-12.9,17.9-13.4c4.3-0.3,8.7,0.5,13,0.8c7.3,0.5,14.7-0.6,21.6-3.2
						c1.1-0.4,2.5-0.7,3.4-1.3c1.4-0.9,1.2-2.4,0.5-3.6c-1-1.7-2.2-3.3-3.1-5.1c-2.3-4.2-3.9-8.8-5.4-13.5c-1.1-3.2-2.1-6.4-3.2-9.7
						c-0.5-1.6-1-3.2-1.5-4.9c-0.1-0.3-1.2-4.5-1.3-4.5c1.9,0,3.9,0,5.7-0.7c0.9-0.3,1.7-0.8,2.4-1.4c0.4-0.3,0.7-0.6,1-0.9
						c0.4-0.4,2.3-2.3,1.8-3c1.8,2.2,3.5,4.4,5.1,6.7c4.1,5.8,7.3,12.1,11.2,18c4.2,6.5,8.1,13.2,12.1,19.8c1,1.6,2,3.1,2.7,4.8
						C286.6,112.1,287.2,114.3,286.5,116.7z"/>
				</g>
				<path class="st8" d="M286.5,116.7c-0.6,2-1.6,3.9-2.9,5.5c-2.7,3.3-6.3,5.5-9.9,7.7c-8.4,5-37.6,22.1-44.3,24.7
					c-4.6,1.8-9.5,3.1-14.4,3.3c1.4-1.2,2-3.1,2-4.9c0-1.8-0.5-3.6-1-5.4c-1-3.5-2-7.1-3.9-10.3c-2.2-3.7-5.3-6.6-8.6-9.3
					c-1.1-0.9-1.6-1.5-1.6-2.9v-0.1c0,0,0.1,0,0.1,0c1.2-0.2,2.5-0.6,3.7-0.4c1.1,0.2,2.1,0.9,3.1,1.5c3,2.2,5.7,4.7,8,7.6
					c0.3,0.4,0.7,0.9,1,1.3c2.2,3.1,3.5,7.5,7.1,9.5c3.3,1.8,7.4,0.7,11-0.6c14-5,27.2-12,39.1-20.9c2.6-1.9,5.8-4.7,3.7-8.2
					c-0.9-1.4-2.3-2.4-3.8-3.2c-2.2-1.2-4.6-2.1-7.1-2.7c-1.2-0.3-2.5-0.5-3.6-1c-0.3-0.1-0.7-0.5-0.5-0.8c0.1-0.1,0.2-0.1,0.3-0.2
					c1.4-0.3,2.9,0.2,4.3,0.5c2.6,0.7,5.4,1,8.1,0.9c5.9-0.3-4.4-14.1-5.7-16.1c-5.5-7.9-11.9-15.3-16.6-23.7
					c-0.2-0.3-2.3-3.9-2.1-4c0.4-0.3,0.7-0.6,1-0.9c0.4-0.4,2.3-2.3,1.8-3c1.8,2.2,3.5,4.4,5.1,6.7c4.1,5.8,7.3,12.1,11.2,18
					c4.2,6.5,8.1,13.2,12.1,19.8c1,1.6,2,3.1,2.7,4.8C286.6,112.1,287.2,114.3,286.5,116.7z"/>
				<g>
					<path class="st5" d="M222.8,156.2c-0.2,0.9-1.8,1.3-2.6,1.7c-6.2,3.2-12.6,6-19.2,8.3c-7.2,2.4-14.7,4.1-22.3,3.4
						c-6.5-0.6-12.8-3.1-18.6-6c-5.7-2.8-11.1-6.2-16.1-10.2c-2.6-2.2-3.6-5.2-4.1-8.4c-0.2-1.3-0.4-2.7-0.6-4.1
						c-0.5-3.6-1-7.4,0.3-10.8c1.1-2.8,3.3-5.1,5.6-7.1c2.2-1.8,4.5-3.6,7.3-4.2c4.8-1.2,9.5,0.9,14,2.2c1.3,0.4,2.7,0.7,4.1,1
						c3.5,0.8,7.1,1.2,10.8,0.9c1.3-0.1,2.6-0.3,3.7-1c0.7-0.4,1.3-1,2-1.5c2.7-1.9,6.4-1.6,9.6-0.7c7,2,12.4,6.2,16.6,11.9
						c0.9,1.3,1.8,2.6,2.6,4.1c1.5,2.7,3,5.5,4.1,8.4c0.9,2.2,1.6,4.5,2.2,6.9C222.5,152.4,223.2,154.7,222.8,156.2z"/>
				</g>
				<path class="st6" d="M222.8,156.2c-0.2,0.9-1.8,1.3-2.6,1.7c-6.2,3.2-12.6,6-19.2,8.3c-7.2,2.4-14.7,4.1-22.3,3.4
					c-6.5-0.6-12.8-3.1-18.6-6c-5.7-2.8-11.1-6.2-16.1-10.2c-2.6-2.2-3.6-5.2-4.1-8.4c0-0.1,0-0.2,0.1-0.3c0.3-0.7,0.8-1.3,1.4-1.8
					c3.2-2.5,7.9-1.6,11.9-2.6c2.2-0.6,4.2-1.4,6.4-0.5c2.3,0.9,4.5,1.8,6.9,2.4c4.9,1.2,10.1,1.4,15.1,0.8c2.9-0.3,5.7-0.8,8.5-1.6
					c8.1-2.1,15.7-5.8,23-9.9c0.9,1.3,1.8,2.6,2.6,4.1c1.5,2.7,3,5.5,4.1,8.4c0.9,2.2,1.6,4.5,2.2,6.9
					C222.5,152.4,223.2,154.7,222.8,156.2z"/>
				<g>
					<path class="st9" d="M156.9,113.2c0.6,0.5,1.1,1.1,1.4,1.8c0.2-0.3,0.7-0.1,1.1,0.1c0.7,0.5,1.3,1.2,1.7,2
						c0.1,0.2,0.1,0.6-0.1,0.6c0.4-0.1,0.8,0.2,1.1,0.6c1.1,1.5,1,3.8-0.2,5.2c0.6,0.3,0.9,1,1,1.7c0,0.7-0.2,1.3-0.5,1.9
						c-0.6,1-1.4,1.8-2.5,2.2c0.3,0.1,0.5,0.4,0.4,0.7c0,0.3-0.2,0.6-0.4,0.8c-0.9,1-2.4,1.2-3.7,1.4c-0.6,0.1-1.4,0.1-1.8-0.4
						c-0.1-0.1-0.1-0.3,0-0.3c0.1-0.1,0.3,0.1,0.2,0.1c-0.7,0.4-2.5-0.5-3-0.9c-0.9-0.6-1.3-1.4-1.9-2.2c-0.7-0.9-1.6-1.6-2.2-2.6
						c-0.6-1-1.1-2.1-1.3-3.3c-0.2-1.1-0.2-2.2-0.1-3.4c0.1-0.9,0.2-1.7,0.3-2.7c0-0.9,0.4-1.8,0.9-2.5c0.4-0.5,0.8-0.9,1.4-1.1
						c0.6-0.2,1.3-0.1,1.7,0.3c0.5-0.8,1.5-1.4,2.5-1.5c1-0.1,2,0.4,2.6,1.2C155.7,112.6,156.4,112.9,156.9,113.2z"/>
				</g>
				<path class="st10" d="M148.7,115.8c0.6-0.3,1.5-0.2,1.9,0.4c1-0.4,2.2-0.6,3.2-0.2c1,0.4,1.7,1.6,1.3,2.7
					c0.2-0.4,0.8-0.5,1.1-0.3c0.4,0.2,0.6,0.6,0.7,1.1c0.2,1.2-0.4,2.4-1.5,2.9c0.7-0.1,1.3,0.5,1.6,1.1c0.3,0.7,0.4,1.6,0.1,2.4
					c-0.3,0.8-1,1.4-1.8,1.5c0.4,0.1,0.7,0.6,0.6,1c-0.1,0.4-0.4,0.8-0.7,1c-0.7,0.6-1.6,1-2.6,1.1c-0.5,0.1-1,0.1-1.5-0.1
					c-0.7-0.3-1.2-0.8-1.5-1.5c-0.9-1.6-1-3.4-0.9-5.2c0-0.7,0.1-1.5-0.2-2.1c-0.3-0.6-0.8-1-1-1.5
					C146.7,118.9,147.3,116.5,148.7,115.8z"/>
				<path class="st3" d="M159.9,144.1c-0.2,1.8-0.5,3.5-1.3,5.1c-0.5,1.1-1.5,2.2-2.7,2.3c-0.7,0-1.5-0.3-2.2-0.6
					c-1.4-0.6-2.8-0.9-4.3-0.9c-1.1,0-2.3,0.2-3.4,0.7c-1,0.5-1.8,0.8-2.9,0.2c-0.6-0.3-1.1-0.8-1.6-1.3c-0.7-0.7-1.3-1.4-1.8-2.2
					c-0.5-1-0.6-2.1-0.6-3.2c0-3.2,1.1-6.4,3.1-8.9c0.6-0.7,1.3-1.4,2.2-1.8c0.8-0.3,1.6-0.2,2.4-0.2c1.5,0,3.1,0,4.6-0.2
					c1-0.1,1.9-0.2,2.9-0.1c1.9,0.3,3.5,1.8,4.4,3.5c0.4,0.7,0.7,1.3,0.9,2.1c0.2,0.7,0.3,1.3,0.4,2
					C160.1,141.8,160.1,143,159.9,144.1z"/>
				<path class="st4" d="M159.9,144.1c-0.2,1.8-0.5,3.5-1.3,5.1c-0.5,1.1-1.5,2.2-2.7,2.3c-0.7,0-1.5-0.3-2.2-0.6
					c-1.4-0.6-2.8-0.9-4.3-0.9c-1.1,0-2.3,0.2-3.4,0.7c-1,0.5-1.8,0.8-2.9,0.2c-0.5-2.4-0.5-4.9,0.2-7.2c0.8-2.5,2.4-4.7,4.6-6
					c0.3-0.2,0.6-0.3,0.9-0.4c1.4-0.2,2.4,1.1,2.8,2.3c0.5,1.3,0.2,2.9,1.2,4c0.9,1,2.5,0.9,3.6,0.3c1.1-0.7,1.8-1.8,2.3-3
					c0.3-0.7,0.6-1.4,0.8-2.2c0.2,0.7,0.3,1.3,0.4,2C160.1,141.8,160.1,143,159.9,144.1z"/>
				<path class="st3" d="M152.1,140.2c-0.1,1.2-0.8,2.4-1.8,3c-0.3,0.2-0.6,0.3-0.8,0.6c-0.1,0.2-0.2,0.4-0.2,0.7
					c-0.5,2.3-1.7,4.3-3.1,6.2c-0.7,0.9-1.3,1.8-2.1,2.6c-1.1,1.1-2.6,1.8-4,2.5c-1.2,0.6-2.5,1.2-3.9,1.3c-0.2,0-0.3,0-0.5,0
					c-2-0.2-3.6-1.9-5.6-1.8c-0.7,0-1.4,0.4-2.1,0.5c-0.7,0.1-1.6,0-2.1-0.5c-0.2-0.3-0.4-0.6-0.4-1c-0.5-1.9-0.1-4-0.9-5.7
					c-0.4-0.8-1-1.5-1.6-2.2c-1.3-1.7-2.4-3.5-3.3-5.5c-0.8-1.9-1.9-4.1-1.5-6.2c0.4-2.4,1.8-4,3.7-5c1.9-1,4.2-1.5,6.3-1.5
					c2.5,0,5.1,0.3,7.4,1.2c0.7,0.3,1.3,0.6,1.9,1c1.5,0.9,2.9,2.2,3.7,3.9c0.2,0.3,0.3,0.7,0.6,1c0.3,0.3,0.8,0.3,1.2,0.4
					c1.3,0.1,2.7,0,4.1,0.1c1.4,0.1,2.8,0.4,3.8,1.3C151.7,137.7,152.2,139,152.1,140.2z"/>
				<path class="st4" d="M152.1,140.2c-0.1,1.2-0.8,2.4-1.8,3c-0.3,0.2-0.6,0.3-0.8,0.6c-0.1,0.2-0.2,0.4-0.2,0.7
					c-0.5,2.3-1.7,4.3-3.1,6.2c-0.7,0.9-1.3,1.8-2.1,2.6c-1.1,1.1-2.6,1.8-4,2.5c-1.2,0.6-2.5,1.2-3.9,1.3c0.5-0.6,0.9-1.2,1.3-1.8
					c0.9-1.7,1.5-3.6,1.3-5.5c-0.1-1.3-0.6-2.5-1.3-3.5c-0.9-1.3-2.1-2.2-3.3-3.1c-1.2-0.9-2.4-1.9-3.3-3.2c-0.7-1-1-2.2-1-3.4
					c0-1.6,1.8-3,2.9-3.9c1.4-1.1,3-1.9,4.7-2.3c1.5,0.9,2.9,2.2,3.7,3.9c0.2,0.3,0.3,0.7,0.6,1c0.3,0.3,0.8,0.3,1.2,0.4
					c1.3,0.1,2.7,0,4.1,0.1c1.4,0.1,2.8,0.4,3.8,1.3C151.7,137.7,152.2,139,152.1,140.2z"/>
				<g>
					<path class="st9" d="M154.5,130.2c0,0.5,0,1,0,1.5c-0.1,1.3-0.3,2.7-0.8,3.9c-0.4,1.2-1.1,2.2-1.8,3.3
						c-0.1-0.2-0.2-0.4-0.3-0.6c-0.3-0.5-1.2-0.5-1.8-0.4c-1.1,0.2-1.9,1.2-2.4,2.1c-0.5,0.8-0.7,1.7-1.1,2.5
						c-0.4,0.6-1.8,0.3-2.5,0.3c-1.9-0.1-3.8-0.3-5.6-0.9c-2-0.6-3.9-1.7-5.8-2.8c-1.1-0.7-2.3-1.7-2.2-2.9v0c0,0,0-0.1,0-0.1
						c-2,2.1-5.2,2.9-8,2.1c-0.8-0.2-1.5-0.6-2.2-0.9c-2.6-0.8-3.7-3.9-2.3-6.3c-0.8-0.6-1.1-1.7-0.9-2.7c0.3-1,1.1-1.8,2.1-2
						c-0.1-1.1-0.6-1.7-0.2-2.9c0.3-0.9,1.2-1.7,2.1-1.7c-0.1-0.8-0.2-1.7,0.2-2.5c0.3-0.8,1.2-1.4,2-1.2c0.1-1.6,1.7-3,3.3-2.7
						c-0.2-0.8,0.4-1.6,1.1-1.9c0.7-0.3,1.6-0.3,2.4-0.2c0.1-0.6,0.8-1.1,1.5-1.1c0.7-0.1,1.3,0.1,1.9,0.3c0.9-1,2.7-1,3.6,0
						c0.3-0.1,0.7-0.2,1.1-0.2c0.3,0,0.5-0.1,0.8,0c0.6,0.1,1.2,0.5,1.3,1.1c1.1-0.6,2.6-0.2,3.3,0.9c0.7,0.1,1.4,0.2,2,0.5
						c0.6,0.3,1.1,0.8,1.2,1.5c0-0.3,1.6,0.1,1.7,0.2c0.6,0.4,0.8,0.8,1.1,1.5c0.5,1.4,1.8,2.4,2.6,3.6c0.4,0.7,0.8,1.3,1.2,2.1
						c0.1,0.2,0.2,0.5,0.3,0.7c0.1,0.3,0.2,0.5,0.3,0.8c0.2,0.7,0.4,1.4,0.6,2.1c0.1,0.4,0.2,0.8,0.2,1.2c0.1,0.3,0.1,0.7,0.1,1
						C154.5,129.4,154.5,129.8,154.5,130.2z"/>
				</g>
				<path class="st10" d="M154.5,130.2c0,0.5,0,1,0,1.5c-0.1,1.3-0.3,2.7-0.8,3.9c-0.4,1.2-1.1,2.2-1.8,3.3
					c-0.1-0.2-0.2-0.4-0.3-0.6c-0.3-0.5-1.2-0.5-1.8-0.4c-1.1,0.2-1.9,1.2-2.4,2.1c-0.5,0.8-0.7,1.7-1.1,2.5
					c-0.4,0.6-1.8,0.3-2.5,0.3c-1.9-0.1-3.8-0.3-5.6-0.9c-2-0.6-3.9-1.7-5.8-2.8c-1.1-0.7-2.3-1.7-2.2-2.9v0
					c0.1-0.5,1.3-0.7,1.6-0.8c0.7-0.4,1.4-0.9,2-1.5c1.3-1.1,2.4-2.4,3.3-3.8c0.8-1.2,1.4-2.5,1.9-3.8c1.8-4.6,0.6-9.7-1.2-14.1
					c0.3,0,0.5-0.1,0.8,0c0.6,0.1,1.2,0.5,1.3,1.1c1.1-0.6,2.6-0.2,3.3,0.9c0.7,0.1,1.4,0.2,2,0.5c0.6,0.3,1.1,0.8,1.2,1.5
					c0-0.3,1.6,0.1,1.7,0.2c0.6,0.4,0.8,0.8,1.1,1.5c0.5,1.4,1.8,2.4,2.6,3.6c0.4,0.7,0.8,1.3,1.2,2.1c0.1,0.2,0.2,0.5,0.3,0.7
					c0.1,0.3,0.2,0.5,0.3,0.8c0.2,0.7,0.4,1.4,0.6,2.1c0.1,0.4,0.2,0.8,0.2,1.2c0.1,0.3,0.1,0.7,0.1,1
					C154.5,129.4,154.5,129.8,154.5,130.2z"/>
				<polygon class="st11" points="76.5,205.6 92.9,220.7 111.5,232.7 138.8,218.3 120.6,207 104.2,191.6 				"/>
				<path class="st12" d="M93.3,218.9c0.2,0,11.5,4.1,15.8,8.8c0,0,1.6,1.8,4.6-0.2l22.6-10.3c0,0,2.1-1.5-0.6-2.6l-18-10.1
					L93.3,218.9z"/>
				<g>
					<polygon class="st11" points="93.5,219.2 93.2,218.8 117.4,204.2 117.7,204.6 					"/>
				</g>
				<path class="st12" d="M93.4,219l-15.5-16.3c0,0-1.3-1.4,1.5-2.5c2.8-1.2,22-9.3,22-9.3s1.7-1.6,3.7,0.2
					c1.9,1.8,12.5,13.4,12.5,13.4L93.4,219z"/>
				<path class="st3" d="M190,194.1c-0.8,3-1.5,7.2-4.9,8.3c-6.8,2.2-14,3.4-21.1,3.7c-3.7,0.2-14.5-0.8-16.3-0.9
					c-1.8-0.1-3.7,0-5.5,0.2c-0.6,0-1.3,0.1-1.8,0.4c-0.5,0.3-0.9,0.9-1.3,1.3c-1,1-2.1,1.9-3.2,2.8c-1.5,1.2-3.1,2.4-4.9,3.2
					c-1.8,0.9-3.7,1.5-5.5,2.2c-0.2,0-0.3,0.1-0.4,0.2c-1.4,0.5-2.9,1-4.3,0.8c-0.2,0-0.3,0-0.4-0.1c-0.2-0.1-0.3-0.4-0.3-0.7
					c0-0.2,0.2-0.5,0.3-0.7c0.7-0.9,1.8-1.5,2.9-2.1c0.8-0.4,1.5-0.8,2.3-1.2c0.1-0.1,0.3-0.1,0.4-0.3c0.1-0.1,0.2-0.3,0.1-0.4
					c-0.1-0.2-0.5-0.2-0.7-0.2c-0.3,0.1-0.7,0.3-1,0.4c-2.2,1.2-4.3,2.4-6.6,3.1c-1,0.3-2.1,0.6-3.2,0.5c-0.7-0.1-1.7-0.6-1.2-1.4
					c0.2-0.4,0.6-0.6,1-0.8c1.3-0.6,2.7-1.3,4.1-1.9c0.2-0.1,0.5-0.3,0.3-0.5c-1.3,0.1-2.5,0.9-3.7,1.5c-0.1,0-0.1,0.1-0.2,0.1
					c-1.1,0.6-2.4,1-3.6,0.6c-0.3-0.1-0.7-0.3-0.9-0.5c-0.9-1.1,0.7-2,1.5-2.4c0.9-0.5,2-0.9,2.9-1.3c0.5-0.2,1-0.4,1.5-0.7
					c0.4-0.2,1-0.4,1.3-0.8c0.3-0.3,0-0.7-0.4-0.6c-0.1,0-0.3,0.1-0.4,0.1c-0.2,0.1-0.5,0-0.7,0.1c-0.9,0.1-1.8,0.4-2.7,0.5
					c-0.9,0.1-1.8,0.2-2.7,0.2c-0.7,0-1.4,0.1-1.9-0.4c-0.5-0.6-0.5-1.7,0-2.2c0.5-0.6,1.4-0.7,2.2-0.7c1.2-0.2,2.4-0.4,3.6-0.8
					c0.7-0.2,1.4-0.5,2.2-0.6c0.3,0,0.6-0.1,0.7-0.3c-0.2-0.2-0.5-0.4-0.8-0.7c-0.2-0.2-0.4-0.3-0.4-0.6c-0.4-0.9,0.7-1.3,1.4-1.3
					c1.2,0,2.3,0.4,3.4,0.4c1.8,0,3.3-1,5-1.6c1.5-0.6,3.1-1,4.8-1.1c1.1-0.1,2.5-0.2,3.7,0c1.2,0.2,21.1-4,27.6-5.2
					c2-0.4,10.4-1.4,11-2c0.7-0.9,0.2-6.5,0.2-8V181c-0.1-2.1-0.1-4.3-0.2-6.4c0-0.9-0.1-1.7-0.1-2.6c0,0.6,1.1,0.8,1.5,0.6
					c0.5-0.3,0.9-1.4,1.3-1.9c1-1.3,2.2-2.3,3.7-3c2.9-1.3,6.7-0.8,8.8,1.6c0.1,0.2,0.3,0.3,0.4,0.5c0.3,0.4,0.6,0.9,0.8,1.3
					c0.1,0.4-0.1,1.2,0.6,1.2c0.4,0,0.7-0.3,0.9-0.5c0.1,1,0.2,2,0.3,3C191.9,181.3,191.7,187.9,190,194.1z"/>
				<path class="st4" d="M190,194.1c-0.8,3-1.5,7.2-4.9,8.3c-6.8,2.2-14,3.4-21.1,3.7c-3.7,0.2-14.5-0.8-16.3-0.9
					c-1.8-0.1-3.7,0-5.5,0.2c-0.6,0-1.3,0.1-1.8,0.4c-0.5,0.3-0.9,0.9-1.3,1.3c-1,1-2.1,1.9-3.2,2.8c-1.5,1.2-3.1,2.4-4.9,3.2
					c-1.8,0.9-3.7,1.5-5.5,2.2c-0.2,0-0.3,0.1-0.4,0.2c2.1-1.5,4.2-3.1,6.1-4.9c2.7-2.5,5.2-5.3,8.4-7.1c5.8-3.4,13-3.3,19.7-2.6
					s13.7,1.5,20.1-0.5c1.7-0.5,4.2-0.9,3.6-3.3c-0.2-1-1-1.7-1.7-2.3c-0.8-0.6-1.6-1.1-2.4-1.8c-0.2-0.2-0.4-0.6-0.2-0.8
					c0.1-0.1,0.2-0.1,0.3-0.1c1-0.1,1.8,0.6,2.6,1.2c1,0.6,2.1,1.1,3.3,1.3c1.3,0.2,1.7-0.1,2.1-1.4c0.3-1.1,0.4-2.3,0.5-3.5
					c0-2,0-7.5-3.1-7.3c-0.9,0.1-1.8,0.1-2.7,0.1c-1.3,0-2.9,0.1-4.2-0.2c-1.3-0.2-2.9-0.5-4.1-1.3c-0.1-2.1-0.1-4.3-0.2-6.4
					c2.5-3.8,7.1-6.2,11.7-5.8c1.4,0.1,2.7,0.4,4,1.1c0.3,0.4,0.6,0.9,0.8,1.3c0.1,0.4-0.1,1.2,0.6,1.2c0.4,0,0.7-0.3,0.9-0.5
					c0.1,1,0.2,2,0.3,3C191.9,181.3,191.7,187.9,190,194.1z"/>
				<g>
					<path class="st5" d="M194,172.7c-0.1,0.4-0.4,0.7-0.6,0.9c-2.8,3.4-6.8,5.7-11,6.6c-1.1,0.3-2.3,0.4-3.5,0.4
						c-1.8,0.1-3.6-0.1-5.3-0.9c-0.7-0.3-1.4-0.7-1.8-1.3c-0.2-0.4-0.4-1-0.5-1.5c-1-4.9-2-9.9-2.3-14.9c-0.2-3.5-0.1-7.2,1.4-10.3
						c0.8-1.7,2.1-3.2,3.7-4.2c0.8-0.5,1.6-0.9,2.6-1.1c0.6-0.2,1.2-0.3,1.8-0.3c1.4-0.1,2.8,0.7,4,1.4c2.9,1.8,5.1,4.5,6.7,7.5
						c2.2,4,3.2,8.6,4.3,13c0.2,1.1,0.5,2.1,0.7,3.2C194.1,171.8,194.1,172.3,194,172.7z"/>
				</g>
				<path class="st6" d="M194,172.7c-0.1,0.4-0.4,0.7-0.6,0.9c-2.8,3.4-6.8,5.7-11,6.6c0-0.1,0.1-0.2,0.1-0.3
					c2.6-8.3,3.1-17.4,0.2-25.6c-0.7-2.1-1.7-4.1-3.2-5.7c-0.8-0.9-1.8-1.6-2.8-2.2c0.6-0.2,1.2-0.3,1.8-0.3c1.4-0.1,2.8,0.7,4,1.4
					c2.9,1.8,5.1,4.5,6.7,7.5c2.2,4,3.2,8.6,4.3,13c0.2,1.1,0.5,2.1,0.7,3.2C194.1,171.8,194.1,172.3,194,172.7z"/>
				<path class="st4" d="M97.9,191.2C97.9,191.2,97.9,191.2,97.9,191.2c-0.4,0.5-0.7,1-1.1,1.3c-0.4,0.3-0.9,0.5-1.3,0.8
					c-0.4,0.3-0.8,0.8-0.7,1.3c0,0.2,0.1,0.3,0.2,0.5c0.5,0.8,1.7,1,2.6,0.7c0.9-0.2,1.7-0.8,2.5-1.3c0.8-0.5,1.6-1,2.6-1.1
					c0.4,0,0.9,0,1.3,0.1c1.1,0.1,2.3,0.2,3.4-0.1c1.1-0.3,2.1-1.1,2.4-2.2c0.1-0.4,0.2-0.9,0.2-1.4c-0.1-1-0.5-2-1.4-2.5
					c-1-0.6-2.5-0.6-3.7-0.4c-1.2,0.2-2.4,0.8-3.4,1.6c-0.9,0.7-1.6,1.5-2.6,2C98.5,190.7,98.2,190.8,97.9,191.2z"/>
				<path class="st3" d="M293.9,39.2c-1.1,2.2-2.8,4-4.5,5.7c-1.7,1.8-3.4,3.5-4.8,5.5c-2.7,4-3.7,9.3-7.4,12.3
					c-1,0.8-2.2,1.4-3.4,1.3c-0.7-0.1-1.2-0.4-1.7-0.8c-0.8-0.7-1.3-1.6-1.5-2.6c-0.4-1.6,0-3.3,0.4-4.9c0.4-1.3,0.8-2.8,1.3-4.1
					c0.4-0.9,0.9-1.7,1.3-2.4c0.2-0.4,0.5-0.8,0.7-1.3c1.2-2.6,2.1-5.3,2.8-8c0.7-2.8,1.2-8,4.9-8.4c0.9-0.1,1.9-0.2,2.8-0.3
					c0.7,0,1.3-0.1,2-0.2c0.4,0,0.9-0.1,1.3-0.2c0.4-0.1,0.8-0.3,1.2-0.4c1.1-0.3,2.2-0.2,3.3-0.1c0.3,0,0.7,0,1,0.1
					c0.1,0,0.3,0.1,0.4,0.2c0.5,0.3,0.8,1,1,1.6C295.7,34.5,295.1,37.1,293.9,39.2z"/>
				<path class="st4" d="M293.9,39.2c-1.1,2.2-2.8,4-4.5,5.7c-1.7,1.8-3.4,3.5-4.8,5.5c-2.7,4-3.7,9.3-7.4,12.3
					c-1,0.8-2.2,1.4-3.4,1.3c-0.7-0.1-1.2-0.4-1.7-0.8c0.1,0,0.2,0,0.3,0c1.4-0.3,2.4-1.1,3.4-2.2c1.6-1.9,2.8-4.1,3.6-6.4
					c0.3-0.8,0.5-1.7,0.9-2.5c0.5-1.2,1.4-2.2,2.2-3.3c2.4-2.7,5-5.2,7.4-8c1.5-1.8,2.9-3.7,3.5-5.9c0.4-1.4,0.4-2.9,0.2-4.4
					c0.1,0,0.3,0.1,0.4,0.2c0.5,0.3,0.8,1,1,1.6C295.7,34.5,295.1,37.1,293.9,39.2z"/>
			</g>
		</g>
	</g>
	<g>
		<polygon class="st2" points="335.4,134.1 349.5,133.2 361.9,126.1 342.5,114.6 		"/>
		<g>
			<polygon class="st13" points="335.3,126.1 310.8,112 327.3,102.4 351.8,116.6 			"/>
			<polygon class="st13" points="351.8,123.8 351.2,123.4 351.4,124 			"/>
			<path class="st14" d="M351.6,117.6v6.3l0.3-0.1v0.9l-15.6,9c-0.5,0.3-1,0.1-1.2-0.4l0,0c-0.9-2.3-0.8-4.9,0.4-7.2l0,0l16.5-9.5
				v0.9L351.6,117.6z"/>
			<g>
				<path class="st15" d="M351.6,117.6v6.3l-15.3,8.9c0,0-0.1,0-0.1,0c-0.1-0.3-0.2-0.7-0.3-1c0-0.1-0.1-0.3-0.1-0.4
					c-0.1-0.4-0.1-0.7-0.1-1.1c0-0.1,0-0.3,0-0.4v0c0-0.7,0.1-1.4,0.2-2c0.1-0.5,0.3-0.9,0.4-1.4L351.6,117.6z"/>
			</g>
			<polygon class="st16" points="351.6,121 350.7,121.7 347.8,123.1 350.9,121.9 351.6,121.5 			"/>
			<path class="st16" d="M338.7,128.4l-3,1.9c0-0.1,0-0.3,0-0.4L338.7,128.4z"/>
			<path class="st17" d="M339.6,129.5l-3.7,2.4c0-0.1-0.1-0.3-0.1-0.4L339.6,129.5z"/>
			<polygon class="st18" points="342.2,128.1 351.6,122.6 351.6,121.8 352.7,122.3 			"/>
			<polygon class="st18" points="342.2,125.4 351.6,119.9 351.6,119.1 352.7,119.6 			"/>
			<path class="st16" d="M351.6,117.6v1.1l-15.7,9.1c0.1-0.5,0.3-0.9,0.4-1.4L351.6,117.6z"/>
			<path class="st19" d="M334.9,132.6c0.1,0.3,0.2,0.5,0.3,0.7c0.1,0.2,0.3,0.4,0.6,0.4c0.2,0,0.4,0,0.6-0.1c0,0-0.1,0.1-0.1,0.1
				c-0.1,0-0.2,0.1-0.2,0.1c-0.2,0.1-0.3,0.1-0.5,0.2c-0.2,0-0.4,0-0.7-0.1c-0.2-0.1-0.4-0.2-0.6-0.3c-0.3-0.2-21.7-12.5-21.9-12.6
				c-0.1,0-0.1-0.1-0.2-0.1c-0.9-0.5-1.5-1.3-1.8-2.3c-0.6-2.1-0.5-4.4,0.4-6.4l0.1-0.2l24.6,14.2
				C334.4,128.2,334.2,130.5,334.9,132.6z"/>
			<g>
				<g>
					<path class="st14" d="M312.8,121.1c-0.9-0.5-1.5-1.3-1.8-2.3c-0.6-2.1-0.5-4.4,0.4-6.4l0-0.1c-0.4-0.2-0.7-0.4-0.7-0.4
						l-0.1,0.2c-0.9,2-1,4.3-0.4,6.4c0.3,1,0.9,1.8,1.8,2.3c0.1,0,0.1,0.1,0.2,0.1C312.5,121,312.6,121.1,312.8,121.1
						C313.1,121.4,312.9,121.1,312.8,121.1z"/>
				</g>
				<path class="st14" d="M316.3,123.1c-0.9-0.5-1.5-1.3-1.8-2.3c-0.6-2.1-0.5-4.4,0.4-6.4l0-0.1c-0.4-0.2-0.7-0.4-0.7-0.4l-0.1,0.2
					c-0.9,2-1,4.3-0.4,6.4c0.3,1,0.9,1.8,1.8,2.3c0.1,0,0.1,0.1,0.2,0.1C315.9,123,316.1,123.1,316.3,123.1
					C316.5,123.4,316.4,123.2,316.3,123.1z"/>
				<path class="st14" d="M319.8,125.1c-0.9-0.5-1.5-1.3-1.8-2.3c-0.6-2.1-0.5-4.4,0.4-6.4l0-0.1c-0.4-0.2-0.7-0.4-0.7-0.4l-0.1,0.2
					c-0.9,2-1,4.3-0.4,6.4c0.3,1,0.9,1.8,1.8,2.3c0.1,0,0.1,0.1,0.2,0.1C319.4,125,319.6,125.1,319.8,125.1
					C320,125.4,319.9,125.2,319.8,125.1z"/>
				<path class="st14" d="M323.3,127.1c-0.9-0.5-1.5-1.3-1.8-2.3c-0.6-2.1-0.5-4.4,0.4-6.4l0-0.1c-0.4-0.2-0.7-0.4-0.7-0.4l-0.1,0.2
					c-0.9,2-1,4.3-0.4,6.4c0.3,1,0.9,1.8,1.8,2.3c0.1,0,0.1,0.1,0.2,0.1C322.9,127,323.1,127.1,323.3,127.1
					C323.5,127.4,323.3,127.2,323.3,127.1z"/>
				<path class="st14" d="M326.8,129.2c-0.9-0.5-1.5-1.3-1.8-2.3c-0.6-2.1-0.5-4.4,0.4-6.4l0-0.1c-0.4-0.2-0.7-0.4-0.7-0.4l-0.1,0.2
					c-0.9,2-1,4.3-0.4,6.4c0.3,1,0.9,1.8,1.8,2.3c0.1,0,0.1,0.1,0.2,0.1C326.4,129.1,326.6,129.2,326.8,129.2
					C327,129.4,326.8,129.2,326.8,129.2z"/>
				<path class="st14" d="M330.2,131.2c-0.9-0.5-1.5-1.3-1.8-2.3c-0.6-2.1-0.5-4.4,0.4-6.4l0-0.1c-0.4-0.2-0.7-0.4-0.7-0.4l-0.1,0.2
					c-0.9,2-1,4.3-0.4,6.4c0.3,1,0.9,1.8,1.8,2.3c0.1,0,0.1,0.1,0.2,0.1C329.9,131.1,330,131.2,330.2,131.2
					C330.5,131.4,330.3,131.2,330.2,131.2z"/>
				<g>
					<path class="st14" d="M333.7,133.2c-0.9-0.5-1.5-1.3-1.8-2.3c-0.6-2.1-0.5-4.4,0.4-6.4l0-0.1c-0.4-0.2-0.7-0.4-0.7-0.4
						l-0.1,0.2c-0.9,2-1,4.3-0.4,6.4c0.3,1,0.9,1.8,1.8,2.3c0.1,0,0.1,0.1,0.2,0.1C333.4,133.1,333.5,133.2,333.7,133.2
						C334,133.4,333.8,133.2,333.7,133.2z"/>
				</g>
			</g>
		</g>
	</g>
</g>
</svg>
