<?xml version="1.0" encoding="utf-8"?>
<!-- Generator: Adobe Illustrator 25.4.1, SVG Export Plug-In . SVG Version: 6.00 Build 0)  -->
<svg version="1.1" id="Layer_1" xmlns="http://www.w3.org/2000/svg" xmlns:xlink="http://www.w3.org/1999/xlink" x="0px" y="0px"
	 viewBox="0 0 717 655" style="enable-background:new 0 0 717 655;" xml:space="preserve">
<style type="text/css">
	.st0{fill:#899BFA;}
	.st1{fill:#E6F1FF;}
	.st2{fill:#B8D0FC;}
	.st3{fill:#C8DFFD;}
	.st4{fill:#D8E8FA;}
	.st5{fill:#FD801A;}
	.st6{fill:#ED5400;}
	.st7{fill:#11326C;}
	.st8{fill:#184179;}
	.st9{fill:#FCDBB9;}
	.st10{fill:#FFA062;}
	.st11{fill:#FFAE73;}
	.st12{fill:#F1F6FF;}
	.st13{fill:#FFC398;}
	.st14{fill:#F16B00;}
	.st15{fill:#F1F7FF;}
	.st16{fill:#FF912B;}
	.st17{fill:#FDDBBA;}
	.st18{fill:#6F8BDD;}
	.st19{fill:#FF8459;}
	.st20{fill:#97C0F8;}
	.st21{fill:#FFEBD8;}
	.st22{fill:#9BD399;}
	.st23{fill:#8FD88C;}
	.st24{fill:#214D9A;}
	.st25{fill:#A8CCFF;}
	.st26{fill:#BFDEFF;}
	.st27{fill:#8DB8F1;}
	.st28{fill:#25468F;}
	.st29{fill:#DCEAFF;}
	.st30{fill:#1E3865;}
	.st31{fill:#122D4E;}
	.st32{fill:#EBBB98;}
</style>
<g>
	<path class="st0" d="M699.7,341.5c-2.8,9.3-21.5,18.5-28.4,27.7c-10.4,13.9-11.3,27-29.5,39.7l0,0
		c-62.9,43.9-164.1,83.4-247.1,142.2c-7.5,5.3-24.3,6.9-31.5,12.5c-17,13.4-23.7,28.5-39.3,38c-134.5,82.3-214.4,26.9-219.7-61.9
		c0,0,4.3-81.7-28.6-116.5c-32.9-34.8-102-108-40.8-170.4c61.2-62.5,116.7-56.8,236.8-123.2C392,63.2,455.1-8.5,521.4,16
		c66.3,24.4,65.3,125.8,105.7,170.9C661.9,225.8,717,283.7,699.7,341.5z"/>
	<ellipse transform="matrix(0.7071 -0.7071 0.7071 0.7071 62.672 371.3945)" class="st1" cx="479.6" cy="110" rx="73.3" ry="73.3"/>
	<ellipse transform="matrix(0.8903 -0.4554 0.4554 0.8903 2.5132 230.522)" class="st2" cx="479.6" cy="110" rx="53.1" ry="53.1"/>
	<g>
		
			<rect x="99.8" y="252.9" transform="matrix(0.7407 -0.6718 0.6718 0.7407 -158.59 212.2774)" class="st3" width="191.8" height="117.4"/>
		<polygon class="st2" points="85.2,332.5 195.7,311.6 227.3,203.7 		"/>
		<polygon class="st4" points="306.2,290.7 184.9,299.6 164.2,419.6 		"/>
		<polygon class="st2" points="227.5,203.9 117,224.9 85.5,332.8 		"/>
	</g>
	<g>
		<path class="st5" d="M494.4,155.3l2.5,18.5c0.1,0.9-0.6,1.7-1.7,1.8l-6.7,0.9c-1,0.1-2-0.5-2.1-1.3l-2.5-18.5
			c-0.1-0.9,0.6-1.7,1.7-1.8l6.7-0.9C493.3,153.8,494.3,154.5,494.4,155.3z"/>
		<path class="st6" d="M494.4,155.3l0.4,3.4c0,0-9.6,2.6-9.3,10.6l-1.7-12.6c-0.1-0.9,0.6-1.7,1.7-1.8l6.7-0.9
			C493.3,153.8,494.3,154.5,494.4,155.3z"/>
		<path class="st5" d="M526.9,103.1c1,7.8,0.1,15.5-2.3,22.4c-5.9,16.4-20.5,29.1-39,31.5c-26.3,3.5-50.4-15-53.9-41.3
			c-1.7-12.8,1.8-25.2,9-34.8c7.5-10.1,18.9-17.3,32.3-19.1C499.3,58.3,523.4,76.8,526.9,103.1z"/>
		<path class="st7" d="M521.3,97.6c2.2,7.7,2.1,15.4,0.3,22.6c0,0,0,0,0,0.1c-3.8,14.5-14.9,26.7-30.4,31.1
			c-8.2,2.3-16.6,2.1-24.2-0.2c0,0,0,0,0,0c-11.8-3.5-22-12-27.3-23.8l0,0c-0.9-2-1.7-4.1-2.3-6.2c-1.2-4.3-1.7-8.7-1.6-12.9
			c0.5-18.1,12.3-34.6,30.3-40.4c0.5-0.2,1-0.3,1.6-0.5c17.7-5,36,1.8,46.5,15.6C517.2,87.3,519.7,92.2,521.3,97.6z"/>
		<path class="st8" d="M514,83c-0.1,3.3-0.5,6.6-1.4,9.7c0,0,0,0,0,0.1c-3.8,14.5-14.9,26.7-30.4,31.1c-8.2,2.3-16.6,2.1-24.2-0.2
			c0,0,0,0,0,0c-8.8-2.6-16.6-8-22.3-15.4c0.5-18.1,12.3-34.6,30.3-40.4c0.5-0.2,1-0.3,1.6-0.5C485.2,62.5,503.5,69.2,514,83z"/>
		<g>
			<path class="st9" d="M521.4,120.2c0.3-1.4-0.2-6.3,0.3-7.4c0.5-1.1-0.3-3.6-1.6-7.1c-1.2-3.6,0.3-3.8-0.3-5.8
				c-0.6-2-5.6-1.8-5.8-6.1c-0.2-4.3-4.7-4.3-8.3-3.6c-3.6,0.7-9.2-2.7-10.4-7.4c-1.1-4.7-4.2-4.5-9.5-5c-5.3-0.5-8-3.7-9.8-7.1
				c-1.8-3.3-10.1-2.9-10.1-2.9c0.5-0.2,1-0.3,1.6-0.5c23.2-6.5,47.3,7,53.8,30.2C523.3,105.2,523.3,113,521.4,120.2z"/>
			<path class="st8" d="M500.5,84.4c-0.9,0.3-1.5,0.9-1.3,1.5c0.2,0.6,1.1,1.1,2,0.9c0.9-0.3,1.4-1.2,1.3-1.8
				C502.2,84.4,501.4,84.1,500.5,84.4z"/>
			<g>
				<path class="st8" d="M480.2,73.4c0.1,1.1,0.8,2,1.5,1.9c0.7-0.1,1.6-1.1,1.4-2.2c-0.1-1.1-1.2-1.9-1.9-1.9
					C480.5,71.3,480,72.3,480.2,73.4z"/>
				<path class="st8" d="M478.6,70.3c-0.5,0.2-0.8,0.6-0.7,0.9c0.1,0.3,0.7,0.6,1.2,0.4c0.5-0.2,0.8-0.7,0.7-1.1
					C479.7,70.2,479.2,70.1,478.6,70.3z"/>
				<path class="st8" d="M479.2,71.8c-0.4,0.2-0.5,0.6-0.4,0.9c0.1,0.3,0.5,0.3,0.9,0.1c0.4-0.2,0.5-0.7,0.4-1
					C479.9,71.5,479.6,71.6,479.2,71.8z"/>
			</g>
			<path class="st8" d="M503,85c-0.2,0.7,0.2,2,0.7,2.1c0.5,0.1,1.2-0.4,1.4-1.1c0.2-0.7-0.3-1.5-0.8-1.6
				C503.8,84.4,503.1,84.3,503,85z"/>
		</g>
	</g>
	<g>
		<g>
			<path class="st10" d="M503.7,254c0,0-11.1,13.5-21.2,11.8c-3.7-0.6-7.4-2.4-10.5-4.6c-2.4-1.7-4.4-3.6-5.9-5.3
				c-1.8-2.2-2.7-4.1-2.1-5C465.8,248.3,503.7,254,503.7,254z"/>
			<g>
				<path class="st10" d="M472.1,261.2c-2.4-1.7-4.4-3.6-5.9-5.3c3.4,0.2,15.8,1,20.7,3.4C490.7,261.2,479.8,261.8,472.1,261.2z"/>
				<path class="st11" d="M626.3,391.5c-5-3.5-0.8,2.8-12.6-6.8c-3-2.4-11.9-6.7-14.5-9.1c0,0,0,0,0,0c0,0,0,0,0,0
					c-0.4-0.4-0.9-0.8-1.3-1.2c-1.7-1.6-3.4-3.1-4.8-4.5c-2.6-2.5-4.6-6-6.2-10c-1.7-4.4-2.9-9.5-3.8-14.7c-0.6-4-1-8.1-1.3-11.9
					c-0.8-12.4,0.1-22.9,0.1-22.9s0,0,0,0c0.6,0.6,11.6,10.7,16.4,13.9c5.8,3.9,40.4,17.1,40.4,17.1S627.6,392.4,626.3,391.5z"/>
				<path class="st11" d="M589.8,320.4c0,0,7.4,15.5,3.5,21.2c-3.9,5.7-27.4,5.5-50-3.9c-22.6-9.3-25.1-62.5-25.1-62.5
					c-1.5,1.7-15,3.3-27.3,4.6c-10.6,1.1-20.2,2-20.4,2.6c-0.3,0.8-9.8,9.2-18.5,16.3c-4.5,3.7-8.8,7-11.6,8.9
					c-5.4,3.5-10.4,2.3-13.3,1c-1.5-0.7-2.4-1.3-2.4-1.3s4.5-6.4,10.7-14.4c8.1-10.4,19.1-23.4,26.6-28c13.2-8.1,51.5-12.5,63.1-13
					C536.6,251.4,589.8,320.4,589.8,320.4z"/>
				<path class="st10" d="M515.4,265c1.3,0.6-10.6,7.3-24.4,14.8c-10.6,1.1-20.2,2-20.4,2.6c-0.3,0.8-9.8,9.2-18.5,16.3
					c1.8-4.8,6.7-16.9,20.5-24.5C489.9,264.7,512.4,263.7,515.4,265z"/>
				<path class="st11" d="M515.3,252.6l55.7,71.3c0,0-36.6,24-57.3,8.9c-3.2-2.3,7.5-11.3,6.9-14.6c-2.3-12.4-16.7-25.2-16.7-25.2
					c-6.1,2.1-32.8,0.7-38.3,13.3c-3.8,8.6-4.9,16.3-12.9,18.5c-1.3,0.4-5-0.3-5-0.3l7.1-24.2c2-6.6,4.4-11,9.1-14.1L515.3,252.6z"
					/>
			</g>
		</g>
		
			<rect x="289.3" y="180.6" transform="matrix(0.8145 -0.5802 0.5802 0.8145 -107.8249 283.3914)" class="st12" width="200" height="259.3"/>
		<g>
			<path class="st11" d="M593.4,333.9l1,3.6l39.9,27.9l-13.6,24.1c0,0-41.6-29-54.4-21.2c-12.8,7.8-45.6-6.5-64.2-22.6
				c-11.8-10.2-19.9-14.4-22.3-18.2c-1.4-2.2-0.9-4.2,1.9-7.1c1-1.1,2.3-1.7,3.8-1.9c9.7-1.7,28,11.7,34.6,11.7
				c1.9,0,7.2,0.3,14.3,0.6c14,0.7,34.6,1.8,47.4,2.5C588.8,333.7,593.4,333.9,593.4,333.9z"/>
			<path class="st13" d="M495.5,329.6L495.5,329.6c-1.5,2.9-4.7,4.2-7.2,2.9l-8.1-4.9c-2.5-1.3-3.4-4.1-1.9-7l0,0
				c1.5-2.9,4.4-3.7,6.9-2.4l8.6,3.8C496.2,323.3,497,326.7,495.5,329.6z"/>
		</g>
		<g>
			<path class="st11" d="M380.4,374.3c0,0-0.7,4.9-2.1,14.5c-0.4,3-0.9,6.5-1.5,10.5c-2.3,16.5,4,35.2-6.1,47.9
				c-4.3,5.4-5.6,15.3-5.8,25.1c0,0,0,0,0,0c-0.2,13.3,1.8,26.2,1.8,26.2L346,511.7L328,523c0.1-4.4-0.5-8.9-1.6-13.4
				c-3.6-14.6-12.4-29.6-19.8-41.3c-0.8-1.3-1.6-2.5-2.4-3.7c-10-15.5-22.1-42.1-25-49.1c-2.9-7-34.1-45.6-28.9-54.1
				c5.2-8.6,30.3,32.1,32.9,32.3c2.6,0.2-1.8-19.4-7.4-44.7c-5.6-25.3,3.5-25.4,6.5-23.9c5,2.5,17.5,54.8,17.5,54.8
				s-1.5-35-2.5-45.6c-1-10.6-1-23,7.5-23.9c8.8-0.9,14.1,68,16.2,69.3c2,1.3,0.7-24.3,0.4-42.6c-0.1-6.2,0.9-10,2.2-12.3
				c2-3.3,6.9-2.9,8.2,0.7c7.9,21.2,17,75.6,19.8,76.8c3,1.3,7.3,1.7,11.7-13.1c3-10.3,10.1-13.5,14.2-14.5
				C379.2,374.3,380.4,374.3,380.4,374.3z"/>
			<path class="st13" d="M281.1,336.4L281.1,336.4c-2.2,0.5-4.4-0.8-4.9-3l-1.4-7.6c-0.5-2.2,0.5-4.2,2.6-4.7l0,0
				c2.2-0.5,4,0.9,4.5,3.1l2.2,7.3C284.6,333.7,283.2,335.9,281.1,336.4z"/>
			<path class="st13" d="M256.2,368.9L256.2,368.9c-1.3,0.9-3.2,0.6-4.1-0.8l-2.9-4.8c-0.9-1.3-0.8-3,0.6-3.9l0,0
				c1.3-0.9,3-0.4,3.9,0.9l3.4,4.4C257.9,366.1,257.5,368,256.2,368.9z"/>
			<path class="st13" d="M304.6,323.1L304.6,323.1c-2.4,0.3-4.6-1.4-4.9-3.7l-0.7-8.2c-0.3-2.4,1-4.4,3.3-4.7l0,0
				c2.4-0.3,4.1,1.4,4.5,3.8l1.5,7.9C308.6,320.6,307,322.8,304.6,323.1z"/>
			<path class="st13" d="M328.1,334.1L328.1,334.1c-2,0.3-3.9-1.2-4.2-3.2l-0.6-7c-0.3-2,0.8-3.8,2.9-4.1l0,0c2-0.3,3.6,1.2,3.8,3.3
				l1.3,6.8C331.6,331.9,330.1,333.8,328.1,334.1z"/>
			<path class="st13" d="M380.7,372.2c0,0-0.8,5.6-2.2,16.6c-0.4,0-0.7-0.1-1.1-0.1c-2.5-0.6-4-3.2-3.4-5.7l2.5-8.4c0,0,0,0,0,0
				c0.3-1.1,1.3-1.9,2.4-2.1C380,372.2,380.7,372.2,380.7,372.2z"/>
			<g>
				<path class="st5" d="M373.7,490l6.3,17.9l0,0l0,0.1l0,0l0,0l14.8,43.1c-7.5,5.3-14.8,10.7-21.9,16.3
					c-17,13.4-33.2,24.7-48.8,34.2l-0.6-72.1l0-0.5l0.1-6.5l0,0l0-2.4l0,0l0.1-8.1l1.1-0.5l0,0l1.9-0.8l23.9-10.5l0,0l15.4-6.8
					L373.7,490z"/>
				<path class="st14" d="M380,508C380,508,380,508,380,508c-1.1,1.2-13.7,14.9-31,22.7l-4-6.4l-1.2,8c0,0-10.8,1.2-20.3-2.7l0-0.5
					l0.1-6.5l0,0l0-2.4l0,0l1.2-8.6l0,0l0.3-1.9l23.2-10.1l2.2,0.6L380,508L380,508z"/>
				<path class="st15" d="M321,529c0,0,6.7,0.7,19.3-2.8l0.6-18.6l8.6,15.6c10.2-3.8,23.1-10.1,38.3-20.3c0,0-9.3-11.9-22-20.9
					c0,0-20.4,10.6-43,16.5L321,529z"/>
				<path class="st16" d="M354.4,514.4c0-0.9-0.8-1.6-1.8-1.6c-0.9,0-1.6,0.8-1.6,1.8c0,0.9,0.8,1.6,1.8,1.6
					C353.8,516.1,354.5,515.3,354.4,514.4z"/>
			</g>
		</g>
		<g>
			<path class="st5" d="M699.7,341.5c-2.8,9.3-7.4,18.6-14.4,27.9c-10.4,13.9-25.4,26.9-43.5,39.6l0,0l-40.4-21.5l0,0l0,0l-0.1,0
				l0,0l-18.2-9.8l4.4-6.8l2.7-4.2l7.8-12l0,0l6.5-10.1l8.6-13.3l1.5-2.3l0,0l0.7-1.1l8.7,1.3l0,0l2.6,0.4l0,0l7,1l0,0l0.5,0.1
				L699.7,341.5z"/>
			<path class="st14" d="M601.4,387.5C601.4,387.5,601.4,387.5,601.4,387.5c1.5-0.9,18.3-12.1,29.6-29.4l-6.2-5.4l8.8,0.1
				c0,0,3.1-11.4,0.6-22.3l-0.5-0.1l-7-1l0,0l-2.6-0.4l0,0l-9.4-0.1l0,0l-2,0L597.8,352l0.3,2.5l3.3,32.8L601.4,387.5z"/>
			<path class="st15" d="M634,327.8c0,0-0.3,7.3-6.2,20.2l-20.1-2.5l15.3,11.9c-5.8,10.3-14.7,23.1-28.3,37.6c0,0-12-12.7-19.5-27.9
				c0,0,14.6-18.7,24.7-42L634,327.8z"/>
			<path class="st16" d="M612.6,361.2c-1-0.2-1.6-1.2-1.4-2.2c0.2-1,1.2-1.6,2.2-1.4c1,0.2,1.6,1.2,1.4,2.2
				C614.5,360.7,613.5,361.4,612.6,361.2z"/>
		</g>
		<g>
			<g>
				<path class="st7" d="M339.3,258.5c-0.9,1.5-1.7,3.1-2.8,3.8c-1.1,0.7-1.3,0.6-1.4,0.5c-0.6-0.4-1.2-0.4-2.7,0.8
					c-1.1,0.9-2.3,2.3-3.3,3.5c-0.9,1-2.2,2.5-2.6,2.6c0,0,0,0,0,0c-0.4-0.9-1-1.1-1.4-1.2c-1.2-0.1-2.8,1.2-4.7,3.9
					c-1.1,1.6-2.3,3.3-2.9,3.3c-0.2,0-0.4-0.2-0.8-0.6c-0.3-0.4-0.6-0.4-0.8-0.3c-0.8,0.1-1.3,1.5-2.1,4c-0.4,1.3-1.1,3.3-1.6,3.7
					c0,0,0,0-0.1-0.1c-0.2-0.4-0.4-0.7-0.5-1.1c0.6-1.4,0.9-2.6,0.5-3.1c-0.4-0.5-0.9-0.5-1.2-0.3c-0.6,0.4-0.8,1.8-0.3,3.3
					c-0.8,1.7-2.1,3.7-3.4,4.7c-0.7,0.5-1.2,0.6-1.6,0.4c-1.6-1.1-4.2-9.8-4.5-14.2c-0.1-1.5,0.1-2,0.2-2.1c1.7,0,2.1,2.5,2.1,2.5
					l1-0.1c-0.2-1.2-1-3.4-3.1-3.4c-0.3,0-0.8,0.1-1,0.9c-0.9,2.8,2.3,15.6,4.8,17.3c0.7,0.5,1.9,0.7,3.7-1.3
					c0.8-0.9,1.7-2.1,2.4-3.4c0.1,0.1,0.2,0.3,0.2,0.4c0.3,0.5,0.7,0.6,1,0.6c0.2,0,0.4-0.1,0.5-0.2c0.7-0.5,1.2-2,2-4.2
					c0.4-1.1,0.9-2.7,1.3-3.2c0.4,0.4,0.9,0.9,1.5,0.8c1,0,2-1.3,3.7-3.7c1.9-2.7,3.2-3.5,3.8-3.5c0.1,0,0.3,0,0.5,0.5
					c0.2,0.5,0.5,0.6,0.8,0.7c0.9,0.1,1.9-0.9,3.6-3c1-1.2,2.1-2.5,3.2-3.3c1.2-0.9,1.4-0.8,1.5-0.8c0.6,0.4,1.2,0.4,2.5-0.5
					c1.3-0.8,2.2-2.5,3.1-4.2c1.1-2.1,2.2-4,3.6-3.7l0.2-1C341.9,253.8,340.6,256.2,339.3,258.5z"/>
			</g>
			<g>
				<path class="st7" d="M354,248.6c-0.4,0.3-0.8,0.4-1.1,0.3c-0.4-0.2-1.1-0.8-0.9-3.3l1,0.1c-0.1,1,0.1,2,0.3,2.3
					c0.1,0,0.2-0.1,0.4-0.4c0.7-0.8,0.9-2.2,1.1-3.4c0.2-1.3,0.4-2.3,1.1-2.6c0.4-0.2,0.8-0.1,1.4,0.2c1.8,1.1,2.6,0.4,5-2.7
					c2-2.6,2.7-2.8,4.4-3.4c0.4-0.1,0.8-0.3,1.4-0.5c1.2-0.5,1.8-1.8,2.3-3c0.6-1.3,1.2-2.8,2.8-2.4l-0.3,1
					c-0.6-0.2-0.9,0.3-1.6,1.8c-0.6,1.3-1.3,2.9-2.8,3.5c-0.6,0.2-1,0.4-1.4,0.5c-1.6,0.6-2.1,0.8-3.9,3.1c-2.2,2.8-3.7,4.6-6.4,2.9
					c-0.3-0.2-0.4-0.2-0.4-0.1c-0.2,0.1-0.4,1.2-0.5,1.8c-0.2,1.3-0.5,2.8-1.4,3.9C354.2,248.3,354.1,248.5,354,248.6z"/>
			</g>
			<g>
				<path class="st7" d="M402.9,205.2c-0.8,1.2-1.2,1.7-1.8,1.4c-1.4-0.5-2.5,1-3.4,2.4c-0.6,0.9-1.3,1.9-1.8,2
					c-0.1,0-0.2,0-0.4-0.1c-0.5-0.4-1-0.5-1.4-0.3c-0.9,0.3-1.3,1.7-1.8,3.4c-0.3,1-0.6,2.1-1.1,3.1c-0.7,1.5-2,2.2-3.1,2.3
					c0.2-0.6,0.2-1.2,0.1-1.7c-0.3-1.1-1.1-1.3-1.6-1.2c-0.8,0.2-1.5,1.3-1.2,2.5c0.1,0.5,0.5,1,1.1,1.2c-0.8,1.1-2.1,2.3-3.7,3.3
					c-0.2,0.1-0.3,0.2-0.4,0.2c0.2-0.4,0.5-1,0.8-1.5l-0.9-0.6c-1.6,2.4-1.1,2.9-0.9,3.1c0.5,0.5,1.4-0.1,1.9-0.3
					c1.6-1,3.3-2.5,4.2-3.9c1,0,2.2-0.3,3.2-1.1c0.6-0.4,1.1-1,1.4-1.8c0.5-1.1,0.8-2.2,1.1-3.3c0.3-1.2,0.7-2.5,1.2-2.7
					c0.1-0.1,0.4,0.1,0.5,0.2c0.4,0.3,0.8,0.4,1.2,0.3c1-0.2,1.7-1.3,2.5-2.4c0.7-1.1,1.6-2.3,2.2-2c1.5,0.6,2.3-0.7,3-1.8
					c0.7-1,1.4-2.1,2.6-2.4l-0.2-1C404.5,202.8,403.6,204.1,402.9,205.2z M387.1,218c0.1,0.4,0,0.8-0.2,1.3
					c-0.3-0.1-0.6-0.3-0.6-0.5c-0.1-0.6,0.1-1,0.3-1.2c0,0,0.1-0.1,0.1-0.1C386.8,217.4,387,217.7,387.1,218z"/>
			</g>
			<g>
				<path class="st7" d="M314.4,297.8c-0.4,0.3-0.8,0.4-1.1,0.3c-0.4-0.2-1.1-0.8-0.9-3.3l1,0.1c-0.1,1,0.1,2,0.3,2.3
					c0.1,0,0.2-0.1,0.4-0.4c0.7-0.8,0.9-2.2,1.1-3.4c0.2-1.3,0.4-2.3,1.1-2.6c0.4-0.2,0.8-0.1,1.4,0.2c1.8,1.1,2.6,0.4,5-2.7
					c2-2.6,2.7-2.8,4.4-3.4c0.4-0.1,0.8-0.3,1.4-0.5c1.2-0.5,1.8-1.8,2.3-3c0.6-1.3,1.2-2.8,2.8-2.4l-0.3,1
					c-0.6-0.2-0.9,0.3-1.6,1.8c-0.6,1.3-1.3,2.9-2.8,3.5c-0.6,0.2-1,0.4-1.4,0.5c-1.6,0.6-2.1,0.8-3.9,3.1c-2.2,2.8-3.7,4.6-6.4,2.9
					c-0.3-0.2-0.4-0.2-0.4-0.2c-0.2,0.1-0.4,1.2-0.5,1.8c-0.2,1.3-0.5,2.8-1.4,3.9C314.7,297.5,314.5,297.7,314.4,297.8z"/>
			</g>
			<g>
				<path class="st7" d="M363.3,254.4c-0.8,1.2-1.2,1.7-1.8,1.4c-1.4-0.5-2.5,1-3.4,2.4c-0.6,0.9-1.3,1.9-1.8,2
					c-0.1,0-0.2,0-0.4-0.1c-0.5-0.4-1-0.5-1.4-0.3c-0.9,0.3-1.3,1.7-1.8,3.4c-0.3,1-0.6,2.1-1.1,3.1c-0.7,1.5-2,2.2-3.1,2.3
					c0.2-0.6,0.2-1.2,0.1-1.7c-0.3-1.1-1.1-1.3-1.6-1.2c-0.8,0.2-1.5,1.3-1.2,2.5c0.1,0.5,0.5,0.9,1.1,1.2c-0.8,1.1-2,2.2-3.7,3.3
					c-0.2,0.1-0.3,0.2-0.4,0.2c0.2-0.4,0.5-1,0.8-1.5l-0.9-0.6c-1.6,2.4-1.1,2.9-0.9,3.1c0.5,0.5,1.4-0.1,1.9-0.3
					c1.6-1,3.3-2.5,4.2-3.9c1,0,2.2-0.3,3.2-1.1c0.6-0.4,1.1-1,1.4-1.8c0.5-1.1,0.8-2.2,1.1-3.3c0.3-1.2,0.7-2.5,1.2-2.7
					c0.1,0,0.4,0.1,0.5,0.2c0.4,0.3,0.8,0.4,1.2,0.3c1-0.2,1.7-1.3,2.5-2.4c0.7-1.1,1.6-2.3,2.2-2c1.5,0.6,2.3-0.7,3-1.8
					c0.7-1,1.4-2.1,2.6-2.4l-0.2-1C364.9,252,364,253.3,363.3,254.4z M347.5,267.2c0.1,0.4,0,0.8-0.2,1.3c-0.3-0.1-0.6-0.3-0.6-0.5
					c-0.1-0.6,0.1-1,0.3-1.2c0,0,0.1-0.1,0.1-0.1C347.2,266.6,347.4,266.9,347.5,267.2z"/>
			</g>
			<g>
				<g>
					<path class="st7" d="M388.1,317c-0.9,1.5-1.7,3.1-2.8,3.8c-1.1,0.7-1.3,0.6-1.4,0.5c-0.6-0.4-1.2-0.4-2.7,0.8
						c-1.1,0.9-2.3,2.3-3.3,3.5c-0.9,1-2.2,2.5-2.6,2.6c0,0,0,0,0,0c-0.4-0.9-1-1.1-1.4-1.2c-1.2-0.1-2.8,1.2-4.7,3.9
						c-1.1,1.6-2.3,3.3-2.9,3.3c-0.2,0-0.4-0.2-0.8-0.6c-0.3-0.4-0.6-0.4-0.8-0.3c-0.8,0.1-1.3,1.5-2.1,4c-0.4,1.3-1.1,3.3-1.6,3.7
						c0,0,0,0-0.1-0.1c-0.2-0.4-0.4-0.7-0.5-1.1c0.6-1.4,0.9-2.6,0.5-3.1c-0.4-0.5-0.9-0.5-1.2-0.3c-0.6,0.4-0.8,1.8-0.3,3.3
						c-0.8,1.7-2.1,3.7-3.4,4.7c-0.7,0.5-1.2,0.6-1.5,0.4c-1.6-1.1-4.2-9.8-4.5-14.2c-0.1-1.5,0.1-2,0.2-2.1c1.7,0,2.1,2.5,2.1,2.5
						l0,0l0.3,0l0.7-0.1c-0.2-1.2-1-3.4-3.1-3.4c-0.3,0-0.8,0.1-1,0.9c-0.9,2.8,2.3,15.5,4.8,17.3c0.7,0.5,1.9,0.7,3.7-1.2
						c0.8-0.9,1.7-2.1,2.4-3.4c0.1,0.1,0.2,0.3,0.2,0.4c0.3,0.6,0.7,0.6,1,0.6c0.2,0,0.4-0.1,0.5-0.2c0.7-0.5,1.2-2,1.9-4.2
						c0.4-1.1,0.9-2.7,1.3-3.2c0.4,0.4,0.9,0.9,1.5,0.8c1,0,2-1.3,3.7-3.7c1.9-2.7,3.2-3.5,3.8-3.5c0.1,0,0.3,0,0.5,0.5
						c0.2,0.5,0.5,0.6,0.8,0.7c0.9,0.1,1.9-0.9,3.6-3c1-1.2,2.1-2.5,3.2-3.3c1.2-0.9,1.4-0.8,1.5-0.8c0.6,0.4,1.2,0.4,2.5-0.5
						c1.3-0.8,2.2-2.5,3.1-4.2c1.1-2.1,2.2-4,3.6-3.7l0.2-1C390.7,312.4,389.3,314.7,388.1,317z"/>
				</g>
				<g>
					<path class="st7" d="M404.3,309.1c-0.4,0.3-0.8,0.4-1.1,0.3c-0.4-0.2-1.1-0.8-0.9-3.3l1,0.1c-0.1,1,0.1,2,0.3,2.3
						c0.1,0,0.2-0.1,0.4-0.4c0.7-0.8,0.9-2.2,1.1-3.4c0.2-1.3,0.4-2.3,1.1-2.6c0.4-0.2,0.8-0.1,1.4,0.2c1.8,1.1,2.6,0.4,5-2.7
						c2-2.6,2.7-2.8,4.4-3.4c0.4-0.1,0.8-0.3,1.4-0.5c1.2-0.5,1.8-1.8,2.3-3c0.6-1.3,1.2-2.8,2.8-2.4l-0.3,1
						c-0.6-0.2-0.9,0.3-1.6,1.8c-0.6,1.3-1.3,2.9-2.8,3.5c-0.6,0.2-1,0.4-1.4,0.5c-1.6,0.6-2.1,0.8-3.9,3.1
						c-2.2,2.8-3.7,4.6-6.4,2.9c-0.3-0.2-0.4-0.2-0.4-0.2c-0.2,0.1-0.4,1.2-0.5,1.8c-0.2,1.3-0.5,2.8-1.4,3.9
						C404.6,308.9,404.4,309,404.3,309.1z"/>
				</g>
				<g>
					<path class="st7" d="M453.3,265.8c-0.8,1.2-1.2,1.7-1.8,1.4c-1.4-0.5-2.5,1-3.4,2.4c-0.6,0.9-1.3,1.9-1.8,2
						c-0.1,0-0.2,0-0.4-0.1c-0.5-0.4-1-0.5-1.4-0.3c-0.9,0.3-1.3,1.7-1.8,3.4c-0.3,1-0.6,2.1-1.1,3.1c-0.7,1.5-2,2.2-3.1,2.3
						c0.2-0.6,0.2-1.2,0.1-1.7c-0.3-1.1-1.1-1.3-1.6-1.2c-0.8,0.2-1.5,1.3-1.1,2.5c0.1,0.5,0.5,1,1.1,1.2c-0.8,1.1-2.1,2.2-3.7,3.3
						c-0.2,0.1-0.3,0.2-0.4,0.2c0.2-0.4,0.5-1,0.8-1.5l-0.9-0.6c-1.6,2.4-1.1,2.9-0.9,3.1c0.5,0.5,1.4-0.1,1.9-0.3
						c1.6-1,3.3-2.5,4.2-3.9c1,0,2.2-0.3,3.2-1.1c0.6-0.4,1.1-1,1.4-1.8c0.5-1,0.8-2.2,1.1-3.3c0.3-1.2,0.7-2.5,1.2-2.7
						c0.1-0.1,0.4,0.1,0.5,0.2c0.4,0.3,0.8,0.4,1.2,0.3c1-0.2,1.7-1.3,2.5-2.4c0.7-1.1,1.6-2.3,2.2-2c1.5,0.6,2.3-0.7,3-1.8
						c0.7-1,1.4-2.1,2.6-2.4l-0.2-1C454.8,263.3,454,264.7,453.3,265.8z M437.4,278.5c0.1,0.4,0,0.8-0.2,1.3
						c-0.3-0.1-0.6-0.3-0.6-0.5c-0.1-0.6,0.1-1,0.3-1.2c0,0,0.1-0.1,0.1-0.1C437.2,278,437.3,278.2,437.4,278.5z"/>
				</g>
				<g>
					<path class="st7" d="M364.7,358.3c-0.4,0.3-0.8,0.4-1.1,0.3c-0.4-0.2-1.1-0.8-0.9-3.3l1,0.1c-0.1,1,0.1,2,0.3,2.3
						c0.1,0,0.2-0.1,0.4-0.4c0.7-0.8,0.9-2.2,1.1-3.4c0.2-1.3,0.4-2.3,1.1-2.6c0.4-0.2,0.8-0.1,1.4,0.2c1.8,1.1,2.6,0.4,5-2.7
						c2-2.6,2.7-2.8,4.4-3.4c0.4-0.1,0.8-0.3,1.4-0.5c1.2-0.5,1.8-1.8,2.3-3c0.6-1.3,1.2-2.8,2.8-2.4l-0.3,1
						c-0.6-0.2-0.9,0.3-1.6,1.8c-0.6,1.3-1.3,2.9-2.8,3.5c-0.6,0.2-1,0.4-1.4,0.5c-1.6,0.6-2.1,0.8-3.9,3.1
						c-2.2,2.8-3.7,4.6-6.4,2.9c-0.3-0.2-0.4-0.2-0.4-0.2c-0.2,0.1-0.4,1.2-0.5,1.8c-0.2,1.3-0.5,2.8-1.4,3.9
						C365,358.1,364.8,358.2,364.7,358.3z"/>
				</g>
				<g>
					<path class="st7" d="M413.7,315c-0.8,1.2-1.2,1.7-1.8,1.4c-1.4-0.5-2.5,1-3.4,2.4c-0.6,0.9-1.3,1.9-1.8,2c-0.1,0-0.2,0-0.4-0.1
						c-0.5-0.4-1-0.5-1.4-0.3c-0.9,0.3-1.3,1.7-1.8,3.4c-0.3,1-0.6,2.1-1.1,3.1c-0.7,1.5-2,2.2-3.1,2.3c0.2-0.6,0.3-1.2,0.1-1.7
						c-0.3-1.1-1.1-1.3-1.6-1.2c-0.8,0.2-1.5,1.3-1.1,2.5c0.1,0.5,0.5,0.9,1.1,1.2c-0.8,1.1-2,2.2-3.7,3.3c-0.2,0.1-0.3,0.2-0.4,0.2
						c0.2-0.4,0.5-1,0.8-1.5l-0.9-0.6c-1.6,2.4-1.1,2.9-0.9,3.1c0.5,0.5,1.4-0.1,1.9-0.3c1.6-1,3.3-2.5,4.2-3.9c1,0,2.2-0.3,3.2-1.1
						c0.6-0.4,1.1-1,1.4-1.8c0.5-1,0.8-2.2,1.1-3.3c0.3-1.2,0.7-2.6,1.2-2.7c0.1-0.1,0.4,0.1,0.5,0.2c0.4,0.3,0.8,0.4,1.2,0.3
						c1-0.2,1.7-1.3,2.5-2.4c0.7-1.1,1.6-2.3,2.2-2c1.5,0.6,2.3-0.7,3-1.8c0.7-1,1.4-2.1,2.6-2.4l-0.2-1
						C415.3,312.5,414.4,313.9,413.7,315z M397.8,327.7c0.1,0.4,0,0.8-0.2,1.3c-0.3-0.1-0.6-0.3-0.6-0.5c-0.1-0.6,0.1-1,0.3-1.2
						c0,0,0.1-0.1,0.1-0.1C397.6,327.2,397.7,327.4,397.8,327.7z"/>
				</g>
			</g>
			<g>
				<path class="st7" d="M386,283c-0.3,0.2-0.6,0.3-0.7,0.2c-0.3-0.1-0.5-0.6-0.7-1c-0.2-0.5-0.5-1.1-1-1.2
					c-0.2-0.1-0.5-0.1-0.8,0.2c-1.1,0.7-1,1.5-0.9,2.2c0.1,0.6,0.2,1.4-0.5,2.8c-0.3,0.6-0.5,0.8-0.5,0.9c-0.2-0.2-0.5-0.8-0.7-1.3
					c-0.3-0.6-0.7-1.4-1.2-2.2c-0.2-0.3-0.7-1.1-1.4-0.9c-1.1,0.2-1.4,2.3-1.8,5.7c-0.1,0.5-0.1,1.1-0.2,1.5
					c-0.2,1.4-0.4,1.7-0.5,1.8c-0.2-0.1-0.7-0.6-1.9-3.2c-0.1-0.3-0.4-0.8-0.9-0.8c-0.6,0.1-0.6,0.7-0.7,2c-0.1,1.2-0.2,2.9-0.7,4
					c0-0.3-0.1-0.6-0.1-0.8c-0.2-1.3-0.3-2-0.8-2.2c-0.2-0.1-0.5,0-0.7,0.2c-0.9,0.8-1,1.8-1.1,2.8c-0.1,0.8-0.1,1.6-0.6,2.4
					c0-0.1-0.1-0.1-0.1-0.2c-0.3-0.7-0.9-1.9-2.2-1.6c-1,0.2-1.3,1.1-1.6,2.2c-0.2,0.8-0.5,1.7-1.1,2.6c-1,1.7-1.4,1.9-1.5,1.9
					c-0.6-0.2-1.5-4.2-2.2-7.5c-0.6-2.6-1.5-5.1-2.4-7c0.4-1.8,0.4-3.4,0-4.5c-0.3-0.7-0.7-1.2-1.3-1.4c-0.7-0.3-1.5-0.6-1.9-0.1
					c-0.6,0.6-0.1,1.6,1,3.8c0.3,0.7,0.7,1.5,1.1,2.3c-0.8,3.7-2.8,8.3-3.8,10.4l0.9,0.5c0.1-0.3,2.4-4.9,3.5-9.2
					c0.7,1.7,1.3,3.5,1.8,5.6c1.3,6,1.8,8.1,3,8.3c0.8,0.1,1.5-0.7,2.6-2.4c0.7-1.1,1-2.1,1.2-2.9c0.3-1,0.5-1.4,0.8-1.5
					c0.5-0.1,0.7,0.3,1.1,1.1c0.2,0.5,0.5,0.9,0.9,1c0.3,0,0.6-0.1,0.8-0.5c0.7-1.1,0.8-2.1,0.9-3.1c0.1-0.7,0.1-1.3,0.4-1.8
					c0.1,0.3,0.1,0.7,0.2,1c0.2,1.2,0.3,2,0.9,2.1c0.6,0.1,0.9-0.6,1.1-1c0.6-1.4,0.8-3.2,0.9-4.5c0-0.1,0-0.1,0-0.2
					c1.2,2.4,1.9,3.2,2.7,3.1c0.7-0.1,1.1-0.9,1.4-2.7c0.1-0.5,0.1-1,0.2-1.6c0.2-1.5,0.6-4.3,1-4.8c0.1,0,0.2,0.2,0.3,0.4
					c0.4,0.7,0.8,1.4,1.1,2.1c0.6,1.2,0.9,1.9,1.6,1.9c0.2,0,0.4-0.1,0.6-0.2c0.4-0.3,0.6-0.8,0.9-1.3c0.7-1.6,0.6-2.6,0.6-3.3
					c-0.1-0.6-0.1-0.8,0.5-1.2c0.1,0.1,0.2,0.4,0.3,0.6c0.3,0.6,0.6,1.4,1.3,1.6c0.5,0.1,1,0,1.6-0.4L386,283z M355.1,284.1
					c-0.5-1-1-2.1-1.1-2.6c0.1,0,0.4,0.1,0.7,0.2c0.3,0.1,0.6,0.4,0.7,0.9c0.2,0.6,0.3,1.5,0.2,2.5
					C355.4,284.7,355.2,284.4,355.1,284.1z"/>
			</g>
			<g>
				<path class="st7" d="M395.6,276.4c-0.2,0.1-0.3,0.2-0.5,0.2c-0.5-0.1-0.6-0.8-0.8-1.8c0-0.2-0.1-0.5-0.1-0.7
					c-0.4,0.4-1.1,1.4-1.8,2.6l-0.7-0.4c1.8-3.3,2.5-3.2,2.8-3.1c0.2,0,0.5,0.1,0.6,0.6c0.1,0.3,0.1,0.6,0.1,0.9
					c0,0.3,0.1,0.6,0.1,0.8c0.1-0.1,0.1-0.2,0.2-0.3c0.3-0.6,0.5-1.3,0.8-1.9c0.4-1.3,0.8-2.4,1.6-2.7c0.3-0.1,0.7-0.1,1,0.1
					c0.4,0.2,0.8-0.1,1.5-1c0.6-0.7,1.3-1.6,2.5-2c1.3-0.4,1.7-0.9,2.4-1.9c0.4-0.5,0.8-1.1,1.6-1.9c2-2.1,3.4-1.7,4.5-1.5
					c0.1,0,0.2,0,0.2,0.1c0.3-0.2,1-1.7,1.5-2.7c1-2.1,1.6-3.4,2.3-3.6c0.2-0.1,0.4-0.1,0.6,0l-0.4,0.7c0,0,0,0,0,0
					c-0.4,0.1-1.4,2.1-1.9,3.2c-1,2.2-1.6,3.4-2.4,3.2c-0.1,0-0.2,0-0.3-0.1c-1-0.2-2.1-0.5-3.7,1.2c-0.7,0.7-1.1,1.3-1.5,1.8
					c-0.7,1-1.3,1.7-2.8,2.2c-0.9,0.3-1.5,1-2,1.7c-0.7,0.8-1.4,1.8-2.5,1.2c-0.2-0.1-0.3-0.1-0.3,0c-0.4,0.2-0.8,1.2-1.1,2.2
					c-0.2,0.7-0.5,1.5-0.8,2.1C396,275.9,395.8,276.2,395.6,276.4z"/>
			</g>
			<g>
				<path class="st7" d="M407.3,277.8c-0.7,1-1.6,2-2,2.3c0-0.5-0.3-0.7-0.4-0.7c-0.4-0.1-1-0.1-3.2,2.3c-1.3,1.4-2.5,2.9-3,3.6
					l-0.1,0.1c-0.5,0.7-1.3,1.8-1.6,1.8c0,0-0.1-0.1-0.3-0.7c-0.1-0.5-0.5-0.6-0.6-0.6c-1.5-0.1-5,7.1-5,7.1
					c-0.2,0.6-1.1,1.2-1.6,1.1c-0.2-0.1-0.2-0.5-0.2-0.7c0-0.6-0.2-0.8-0.4-0.9c-0.7-0.2-2.2,1.1-4.3,4l0.7,0.5
					c1.2-1.6,2.7-3.3,3.3-3.7c0,1.1,0.5,1.4,0.9,1.5c0.5,0.1,1.2-0.1,1.7-0.6c0.4-0.3,0.6-0.6,0.8-1c0.6-1.4,3.2-6,4.1-6.6
					c0.1,0.5,0.4,1.1,0.9,1.2c0.8,0.2,1.5-0.8,2.4-2.1l0.1-0.1c1.4-1.9,4.2-5,5.1-5.5c0,0.5,0.2,0.7,0.4,0.8c0.2,0.1,0.9,0.3,3-2.7
					L407.3,277.8z"/>
			</g>
		</g>
	</g>
	
		<rect x="472.3" y="35.5" transform="matrix(-0.7963 -0.6049 0.6049 -0.7963 837.3318 367.7798)" class="st17" width="16.6" height="14.8"/>
	
		<rect x="452.2" y="42.4" transform="matrix(-0.9517 0.307 -0.307 -0.9517 914.0391 -44.0881)" class="st17" width="16.6" height="14.8"/>
	<g>
		<path class="st18" d="M428.2,130.3c1.1,1.5,2,3,2.7,4.6c2.5,5.8,1.9,11.7-1.9,14.5c-4.8,3.6-12.9,0.8-18.1-6.2
			c-3.1-4.2-4.5-9-4.1-12.9c0.3-2.6,1.4-4.8,3.3-6.2C414.9,120.5,423,123.3,428.2,130.3z"/>
		<path class="st2" d="M428.2,130.3c1.1,1.5,2,3,2.7,4.6c-0.3,2.6-1.4,4.8-3.3,6.2c-4.8,3.6-12.9,0.8-18.1-6.2c-1.1-1.5-2-3-2.7-4.6
			c0.3-2.6,1.4-4.8,3.3-6.2C414.9,120.5,423,123.3,428.2,130.3z"/>
		<g>
			<path class="st2" d="M465.1,191.6c1.3,1.6,1,4-0.7,5.3l-0.4,0.3c-1.7,1.3-4.1,0.9-5.3-0.9l-24.1-35.7c0-0.1-0.1-0.1-0.1-0.2
				c0,0,0,0,0,0l-7.1-10.5l2.3-2l2.3,2.8l0,0L465.1,191.6z"/>
		</g>
		<path class="st18" d="M432,150.6L432,150.6C432,150.6,432,150.6,432,150.6c0,0-2.3,2.5,2.5,9.7l-7.1-10.5l2.3-2L432,150.6z"/>
	</g>
	<g>
		<g>
			<path class="st7" d="M595.8,211l-1.7,0c-1.8,0-3.2-1.4-3.3-3.1l-0.3-13.9c0-1.8,1.4-3.2,3.1-3.3l2.4,0c0.3,0,0.6,0.3,0.6,0.6
				c0,0.3-0.3,0.6-0.6,0.6l-2.4,0.1c-1.1,0-1.9,0.9-1.9,2l0.3,13.9c0,1.1,0.9,1.9,2,1.9l1.7,0c1.1,0,1.9-0.9,1.9-2l-0.2-9.2
				c0-0.3,0.3-0.6,0.6-0.6c0.3,0,0.6,0.3,0.6,0.6l0.2,9.2C599,209.5,597.6,211,595.8,211z"/>
		</g>
		<g>
			<path class="st7" d="M596.8,225.2l-3,0.1c-2.8,0.1-5.1-2.3-5.1-5.3l-0.4-20.9c0-0.3,0.3-0.6,0.6-0.6c0.3,0,0.6,0.3,0.6,0.6
				L590,220c0,2.3,1.8,4.1,3.8,4l3-0.1c2.1,0,3.7-1.9,3.7-4.2L600,196c0-2.3-1.8-4.1-3.8-4c-0.3,0-0.6-0.3-0.6-0.6
				c0-0.3,0.3-0.6,0.6-0.6c2.8-0.1,5.1,2.3,5.1,5.3l0.5,23.8C601.8,222.7,599.6,225.2,596.8,225.2z"/>
		</g>
	</g>
	<g>
		<g>
			<path class="st19" d="M549.9,191.7l0.4-1.6c0.4-1.7,2.2-2.8,3.9-2.3l13.5,3.4c1.7,0.4,2.8,2.2,2.3,3.9l-0.6,2.3
				c-0.1,0.3-0.4,0.5-0.8,0.5c-0.3-0.1-0.5-0.4-0.5-0.8l0.6-2.3c0.3-1-0.4-2.1-1.4-2.4l-13.5-3.4c-1-0.3-2.1,0.4-2.4,1.4l-0.4,1.6
				c-0.3,1,0.4,2.1,1.4,2.4l9,2.2c0.3,0.1,0.5,0.4,0.5,0.8c-0.1,0.3-0.4,0.5-0.8,0.5l-9-2.2C550.5,195.2,549.4,193.4,549.9,191.7z"
				/>
		</g>
		<g>
			<path class="st19" d="M535.9,189l0.7-2.9c0.7-2.7,3.5-4.3,6.4-3.6l20.3,5.1c0.3,0.1,0.5,0.4,0.5,0.8c-0.1,0.3-0.4,0.5-0.8,0.5
				l-20.3-5.1c-2.2-0.5-4.4,0.6-4.9,2.6l-0.7,2.9c-0.5,2,0.9,4.1,3.1,4.6l23.1,5.8c2.2,0.5,4.4-0.6,4.9-2.6c0.1-0.3,0.4-0.5,0.8-0.5
				s0.5,0.4,0.5,0.8c-0.7,2.7-3.5,4.3-6.4,3.6l-23.1-5.8C537,194.4,535.2,191.6,535.9,189z"/>
		</g>
	</g>
	<g>
		<g>
			<path class="st20" d="M283.7,195l-1.4-0.8c-1.5-0.9-2.1-2.8-1.2-4.4l6.8-12.1c0.9-1.5,2.8-2.1,4.4-1.2l2.1,1.2
				c0.3,0.2,0.4,0.6,0.2,0.9c-0.2,0.3-0.6,0.4-0.9,0.2l-2.1-1.2c-0.9-0.5-2.1-0.2-2.7,0.7l-6.8,12.1c-0.5,0.9-0.2,2.1,0.7,2.7
				l1.4,0.8c0.9,0.5,2.1,0.2,2.7-0.7l4.5-8c0.2-0.3,0.6-0.4,0.9-0.2c0.3,0.2,0.4,0.6,0.2,0.9l-4.5,8
				C287.2,195.3,285.3,195.8,283.7,195z"/>
		</g>
		<g>
			<path class="st20" d="M277.4,207.7l-2.6-1.5c-2.4-1.4-3.2-4.6-1.7-7.1l10.3-18.2c0.2-0.3,0.6-0.4,0.9-0.2
				c0.3,0.2,0.4,0.6,0.2,0.9l-10.3,18.2c-1.1,2-0.6,4.4,1.2,5.4l2.6,1.5c1.8,1,4.2,0.2,5.3-1.7l11.7-20.7c1.1-2,0.6-4.4-1.2-5.4
				c-0.3-0.2-0.4-0.6-0.2-0.9c0.2-0.3,0.6-0.4,0.9-0.2c2.4,1.4,3.2,4.6,1.7,7.1l-11.7,20.7C282.9,208.1,279.8,209.1,277.4,207.7z"/>
		</g>
	</g>
	<g>
		<g>
			<path class="st20" d="M144.7,455.2l1.2-1.2c1.3-1.2,3.3-1.2,4.5,0.1l9.7,10c1.2,1.3,1.2,3.3-0.1,4.5l-1.7,1.7
				c-0.2,0.2-0.6,0.2-0.9,0c-0.2-0.2-0.2-0.6,0-0.9l1.7-1.7c0.8-0.7,0.8-2,0-2.8l-9.7-10c-0.7-0.8-2-0.8-2.8,0l-1.2,1.2
				c-0.8,0.7-0.8,2,0,2.8l6.4,6.6c0.2,0.2,0.2,0.6,0,0.9c-0.2,0.2-0.6,0.2-0.9,0l-6.4-6.6C143.4,458.4,143.5,456.4,144.7,455.2z"/>
		</g>
		<g>
			<path class="st20" d="M134.4,445.4l2.1-2.1c2-1.9,5.3-1.7,7.3,0.4l14.5,15c0.2,0.2,0.2,0.6,0,0.9c-0.2,0.2-0.6,0.2-0.9,0
				l-14.5-15c-1.6-1.6-4.1-1.8-5.5-0.3l-2.1,2.1c-1.5,1.4-1.4,3.9,0.2,5.6l16.6,17.1c1.6,1.6,4.1,1.8,5.5,0.3c0.2-0.2,0.6-0.2,0.9,0
				c0.2,0.2,0.2,0.6,0,0.9c-2,1.9-5.3,1.7-7.3-0.4l-16.6-17.1C132.4,450.6,132.4,447.3,134.4,445.4z"/>
		</g>
	</g>
	<g>
		
			<rect x="38.3" y="274.7" transform="matrix(0.2048 0.9788 -0.9788 0.2048 394.3188 158.4206)" class="st21" width="122.8" height="94.3"/>
		<g>
			<g>
				<path class="st7" d="M127.8,261.9l-2.2-10.6c-0.1-0.6,0.3-1.2,0.8-1.3l0.5-0.1c0.6-0.1,1.2,0.3,1.3,0.8l2.2,10.6
					c0.1,0.6-0.3,1.2-0.8,1.3l-0.5,0.1C128.5,262.9,127.9,262.5,127.8,261.9z"/>
				<path class="st7" d="M122.8,263l-2.2-10.6c-0.1-0.6,0.3-1.2,0.8-1.3l0.5-0.1c0.6-0.1,1.2,0.3,1.3,0.8l2.2,10.6
					c0.1,0.6-0.3,1.2-0.8,1.3l-0.5,0.1C123.5,263.9,123,263.5,122.8,263z"/>
			</g>
			<g>
				<path class="st7" d="M109.5,265.7l-2.2-10.6c-0.1-0.6,0.3-1.2,0.8-1.3l0.5-0.1c0.6-0.1,1.2,0.3,1.3,0.8l2.2,10.6
					c0.1,0.6-0.3,1.2-0.8,1.3l-0.5,0.1C110.2,266.7,109.6,266.3,109.5,265.7z"/>
				<path class="st7" d="M104.5,266.8l-2.2-10.6c-0.1-0.6,0.3-1.2,0.8-1.3l0.5-0.1c0.6-0.1,1.2,0.3,1.3,0.8l2.2,10.6
					c0.1,0.6-0.3,1.2-0.8,1.3l-0.5,0.1C105.2,267.8,104.6,267.4,104.5,266.8z"/>
			</g>
			<g>
				<path class="st7" d="M91.1,269.6L88.9,259c-0.1-0.6,0.3-1.2,0.8-1.3l0.5-0.1c0.6-0.1,1.2,0.3,1.3,0.8l2.2,10.6
					c0.1,0.6-0.3,1.2-0.8,1.3l-0.5,0.1C91.8,270.6,91.3,270.2,91.1,269.6z"/>
				<path class="st7" d="M86.2,270.6L84,260.1c-0.1-0.6,0.3-1.2,0.8-1.3l0.5-0.1c0.6-0.1,1.2,0.3,1.3,0.8l2.2,10.6
					c0.1,0.6-0.3,1.2-0.8,1.3l-0.5,0.1C86.9,271.6,86.3,271.2,86.2,270.6z"/>
			</g>
			<g>
				<path class="st7" d="M72.8,273.4l-2.2-10.6c-0.1-0.6,0.3-1.2,0.8-1.3l0.5-0.1c0.6-0.1,1.2,0.3,1.3,0.8l2.2,10.6
					c0.1,0.6-0.3,1.2-0.8,1.3l-0.5,0.1C73.5,274.4,72.9,274,72.8,273.4z"/>
				<path class="st7" d="M67.8,274.5l-2.2-10.6c-0.1-0.6,0.3-1.2,0.8-1.3l0.5-0.1c0.6-0.1,1.2,0.3,1.3,0.8l2.2,10.6
					c0.1,0.6-0.3,1.2-0.8,1.3l-0.5,0.1C68.5,275.4,68,275,67.8,274.5z"/>
			</g>
			<g>
				<path class="st7" d="M54.5,277.3l-2.2-10.6c-0.1-0.6,0.3-1.2,0.8-1.3l0.5-0.1c0.6-0.1,1.2,0.3,1.3,0.8l2.2,10.6
					c0.1,0.6-0.3,1.2-0.8,1.3l-0.5,0.1C55.2,278.2,54.6,277.8,54.5,277.3z"/>
				<path class="st7" d="M49.5,278.3l-2.2-10.6c-0.1-0.6,0.3-1.2,0.8-1.3l0.5-0.1c0.6-0.1,1.2,0.3,1.3,0.8l2.2,10.6
					c0.1,0.6-0.3,1.2-0.8,1.3l-0.5,0.1C50.2,279.3,49.6,278.9,49.5,278.3z"/>
			</g>
		</g>
	</g>
	<g>
		<path class="st22" d="M491,233.1c0,0-14.2-19.2-6.3-24.7C492.6,202.9,491,233.1,491,233.1S492.2,232.3,491,233.1z"/>
		<path class="st22" d="M498.8,212.3c8.3,1.1-7.8,20.8-7.8,20.8S490.5,211.2,498.8,212.3z"/>
	</g>
	<g>
		<path class="st23" d="M236.4,251.9c0,0-16.2-14.7-10.1-21.1C232.4,224.4,236.4,251.9,236.4,251.9S237.3,250.9,236.4,251.9z"/>
		<path class="st23" d="M239.6,231.7c7.7-0.5-3.2,20.2-3.2,20.2S231.9,232.3,239.6,231.7z"/>
	</g>
	<g>
		<g>
			<path class="st22" d="M362.7,130.9c0,0,0,0.1-0.1,0.2c-0.1,0.1-0.2,0.3-0.3,0.5c-0.1,0.2-0.3,0.5-0.5,0.8
				c-1.5,2.8-4.8,9.1-8.9,18.4c-4,9-8.9,20.8-13.8,34.8c0,0,0,0,0,0c0,0.1-0.1,0.3-0.1,0.4l0,0c-2.6,7.6-5.3,15.8-7.8,24.6
				c-2.9,10.1-5.7,20.9-8.1,32.4c-0.5-0.1-0.9-0.1-1.4-0.2c2.4-11.5,5.2-22.3,8.1-32.4c4.4-15.2,9.1-28.6,13.5-40
				c0.3-0.8,0.6-1.5,0.9-2.3c2.8-7.2,5.5-13.5,7.9-18.7c4-8.8,7.1-14.9,8.6-17.7c0.3-0.6,0.6-1.1,0.8-1.4c0.1-0.2,0.1-0.3,0.2-0.3
				c0,0,0,0,0-0.1l0.2,0.1l0.3,0.2l0.5,0.3l0.1,0.1L362.7,130.9z"/>
		</g>
		<g>
			<path class="st16" d="M378.6,125.2c-3.1,2.8-16.4,6.4-17.2,5.5c-0.8-0.9,4-13.9,7.1-16.7c3.1-2.8,7.8-2.6,10.7,0.5
				C381.9,117.7,381.7,122.4,378.6,125.2z"/>
			<path class="st16" d="M360.1,112.3c2.1,3.6,2.9,17.4,1.9,18c-1,0.6-12.7-6.8-14.9-10.4c-2.1-3.6-0.9-8.2,2.7-10.3
				C353.4,107.5,358,108.7,360.1,112.3z"/>
			<path class="st16" d="M343.8,125.1c4.1-0.7,17.3,3.7,17.5,4.9c0.2,1.2-11,9.4-15.1,10c-4.1,0.7-8-2.1-8.6-6.3
				C336.9,129.6,339.7,125.8,343.8,125.1z"/>
			<path class="st16" d="M350.9,144.1c0.8-4.1,9.6-14.8,10.7-14.6c1.2,0.2,4.9,13.6,4,17.7c-0.8,4.1-4.8,6.7-8.9,5.9
				C352.7,152.2,350.1,148.2,350.9,144.1z"/>
			<path class="st16" d="M371.5,145.4c-3.5-2.3-10.1-14.5-9.5-15.4c0.7-1,14.4,0.6,17.9,2.9c3.5,2.3,4.4,7,2.1,10.5
				C379.6,146.8,374.9,147.8,371.5,145.4z"/>
			<path class="st24" d="M364.5,129.9c-0.1-1.4-1.2-2.4-2.6-2.4c-1.4,0.1-2.4,1.2-2.4,2.6c0.1,1.4,1.2,2.4,2.6,2.4
				C363.5,132.4,364.5,131.2,364.5,129.9z"/>
		</g>
		<path class="st22" d="M336.2,148.1c3.8,3.9,9,21.3,7.9,22.4c-1.1,1.1-18.3-4.7-22.1-8.7c-3.8-3.9-3.7-10.2,0.2-14
			C326.1,144.1,332.4,144.2,336.2,148.1z"/>
		<path class="st22" d="M353.7,171.9c-4.5,1.6-15.2,13.1-14.7,14.4c0.5,1.3,16.1,3.3,20.5,1.7c4.5-1.6,6.8-6.5,5.2-11
			C363.1,172.6,358.2,170.3,353.7,171.9z"/>
	</g>
	<g>
		<path class="st25" d="M497.5,365.3L510,512c0.4,4.8-3.2,9.1-8,9.5l-76.7,6.6c-4.8,0.4-9.1-3.2-9.5-8l-12.6-146.7
			c-0.4-4.8,3.2-9.1,8-9.5l76.7-6.6c1.5-0.1,2.9,0.1,4.2,0.7c1.4,0.6,2.7,1.6,3.6,2.9C496.7,362.1,497.3,363.6,497.5,365.3z"/>
		<path class="st26" d="M452.7,360.3L407.2,419l-3.9-45.7c-0.4-4.8,3.2-9.1,8-9.5L452.7,360.3z"/>
		<path class="st27" d="M497.5,365.3l6.7,78.2l-58.5,82.8l-20.3,1.7c-4.8,0.4-9.1-3.2-9.5-8l-5.9-69.2
			c19.2-25.8,55.7-74.9,68.9-92.8l9.1-0.8c1.5-0.1,2.9,0.1,4.2,0.7l3.6,2.9C496.7,362.1,497.3,363.6,497.5,365.3z"/>
		<path class="st28" d="M502.2,522.6l-76.7,6.6c-5.4,0.5-10.2-3.6-10.7-9l-12.6-146.7c-0.5-5.4,3.6-10.2,9-10.7l76.7-6.6
			c5.4-0.5,10.2,3.6,10.7,9l12.6,146.7C511.6,517.3,507.6,522.1,502.2,522.6z M411.4,365c-4.2,0.4-7.3,4.1-7,8.3L417,520
			c0.4,4.2,4.1,7.3,8.3,7l76.7-6.6c4.2-0.4,7.3-4.1,7-8.3l-12.6-146.7c-0.4-4.2-4.1-7.3-8.3-7L411.4,365z"/>
	</g>
	<g>
		<path class="st23" d="M267.6,413.4c0,0-23.5,10.1-27.3,0.5C236.4,404.3,267.6,413.4,267.6,413.4S267,411.9,267.6,413.4z"/>
		<path class="st23" d="M247.7,400.2c3.1-8.4,19.8,13.2,19.8,13.2S244.6,408.6,247.7,400.2z"/>
	</g>
	<g>
		
			<rect x="134.5" y="476.2" transform="matrix(0.5634 -0.8262 0.8262 0.5634 -340.5067 410.3563)" class="st3" width="167" height="102.2"/>
		<polygon class="st2" points="307.3,487.2 206.4,519.4 213.3,625.2 		"/>
		<polygon class="st29" points="128.7,567.5 218,527.3 222.8,429.6 		"/>
	</g>
	<g>
		<g>
			<path class="st28" d="M182.2,505.5l-0.5-40.4c0-0.7-0.6-1.3-1.3-1.3l0,0c-0.7,0-1.3,0.6-1.3,1.3l0.5,40.4c0,0.7,0.6,1.3,1.3,1.3
				l0,0C181.6,506.8,182.2,506.2,182.2,505.5z"/>
			
				<rect x="180.7" y="500.3" transform="matrix(1.287868e-02 0.9999 -0.9999 1.287868e-02 681.5672 311.7491)" class="st30" width="4.4" height="1.5"/>
		</g>
		<path class="st28" d="M196.2,396.2l0.2,109.7c0,3.2-2.6,5.7-5.7,5.7l-1.3,0c-3.2,0-5.7-2.6-5.7-5.7l-0.2-109.7
			c0-3.2,2.6-5.7,5.7-5.7l1.3,0C193.6,390.4,196.2,393,196.2,396.2z"/>
		
			<rect x="129.3" y="428.4" transform="matrix(-1.375223e-03 -1 1 -1.375223e-03 -244.6737 625.2604)" class="st5" width="121.2" height="12.8"/>
		<polygon class="st0" points="189.8,361.2 192.4,366.5 196.2,374.2 183.4,374.2 187.1,366.5 		"/>
		<polygon class="st31" points="189.8,361.2 192.4,366.5 187.1,366.5 		"/>
	</g>
	<g>
		<path class="st5" d="M666.4,306.8L634.7,290c-0.6-0.3-1.3-0.1-1.5,0.5l0,0c-0.3,0.6-0.1,1.3,0.5,1.5l31.7,16.8
			c0.6,0.3,1.3,0.1,1.5-0.5l0,0C667.2,307.8,666.9,307.1,666.4,306.8z"/>
		
			<rect x="661.3" y="303.7" transform="matrix(0.8833 0.4689 -0.4689 0.8833 220.1368 -275.4347)" class="st28" width="3.9" height="1.3"/>
		<path class="st5" d="M587.1,249.2l85.7,46.7c2.5,1.4,3.4,4.5,2,6.9l-0.6,1c-1.4,2.5-4.5,3.4-6.9,2l-85.7-46.7
			c-2.5-1.4-3.4-4.5-2-6.9l0.6-1C581.5,248.8,584.6,247.9,587.1,249.2z"/>
		
			<rect x="560.6" y="265" transform="matrix(-0.8778 -0.479 0.479 -0.8778 1024.307 802.5904)" class="st28" width="107.8" height="11.4"/>
		<polygon class="st1" points="557.1,239.3 562.3,239.5 569.9,239.8 564.5,249.8 560.1,243.6 		"/>
		<polygon class="st31" points="557.1,239.3 562.3,239.5 560.1,243.6 		"/>
	</g>
	<g>
		<g>
			<path class="st32" d="M116.5,344.9c-0.3-0.2-1.1-1-1.9-8.3c-0.2-1.7-0.4-3.3-0.5-4.9c0-0.2,0-0.2,0,0c0.1,1.6,0.1,2.8,0.3,4.5
				c0.7,6.4,1.5,8.2,2.1,8.7c0.2,0.2,0.3,0.4,0.4,0.6c0.4,1.2,1,4.1-0.1,6.3c-0.8,1.6-2.4,2.6-4.8,2.9c-4.1,0.6-12.9-1.5-16.7-5
				c-1.2-1.1-1.5-2.4-1.5-3.4c0-0.5,0.2-1.3,0.5-2.4c0.6-2.6,1.2-6.9,1.1-13.4c0-0.2,0-0.2,0,0c0.1,6.6-1,10.6-1.6,13.3
				c-0.3,1.1-0.5,1.9-0.5,2.5c0,1.2,0.6,2.4,1.9,3.5c3.8,3.4,12.3,5.8,16.6,5.4c0.1,0,0.2,0,0.3,0c4.5-0.6,5.3-3.5,5.5-5.7
				C117.7,347.5,116.9,345.3,116.5,344.9z"/>
		</g>
		<g>
			<path class="st32" d="M114.9,299.9c-2.8-4.6-7.5-8.6-21-3.5c-11.9,4.5-9.2,11.2-5.6,21.5c0.7,1.9,1,4,1.7,6
				c0.9,2.9,2.7,5.1,5.2,6.5c0.1,0.1,0.3,0.2,0.4,0.2c0,0,0.1,0,0.1,0c3.6,1.8,8.2,1.9,12.1,1.6c2.4-0.2,4.5-0.7,6-1
				c0.2,0,0.3-0.1,0.5-0.1c1.3-0.3,2.1-0.6,2.1-0.6l0,0c0.9-0.4,1.6-1.2,2-2.6C120.9,321,117,303.5,114.9,299.9z M118.1,327.8
				c-0.4,1.2-1,2-1.7,2.3c-0.1,0-0.8,0.3-2,0.6c-0.2,0-0.3,0.1-0.5,0.1c-4.1,1-12.3,2.4-17.9-0.5c0,0-0.1-0.1-0.1-0.1
				c-0.2-0.1-0.4-0.2-0.5-0.3c-2.3-1.4-3.9-3.4-4.7-6.1c-0.7-2.1-1.3-4-2-5.9c-3.7-10.4-5.9-16.6,5.6-21c3.5-1.3,6.4-2,8.8-2.3
				c7.8-0.8,10.4,2.8,11.8,5.1C116.7,303.2,120.3,321.1,118.1,327.8z"/>
		</g>
		<g>
			<path class="st32" d="M142.4,349c-26.1-5.6-71.5,2.9-72.1,3l0,0C70.9,351.9,121.7,342,142.4,349L142.4,349z"/>
		</g>
		<g>
			<path class="st32" d="M95.9,316.6L95.9,316.6c1-0.6,14.9-6.2,21.8-4.3l0,0C111,310.4,96.1,316.5,95.9,316.6z"/>
		</g>
		<g>
			<path class="st32" d="M91.6,307.3L91.6,307.3c4.5-2,15-6.7,21.9-4.8l0,0C106.8,300.7,91.8,307.3,91.6,307.3z"/>
		</g>
		<g>
			<path class="st32" d="M99.2,326.1L99.2,326.1c2.7-1.6,14.9-6.2,21.8-4.3l0,0C114.3,319.9,99.4,326,99.2,326.1z"/>
		</g>
		<g>
			<path class="st32" d="M112.7,333.6c5.5-9.8,0-22.5-14.2-41.5c-0.6-0.9-0.2-0.5,0.1-0.1C112.9,311.2,118.3,323.6,112.7,333.6z"/>
		</g>
		<g>
			<path class="st32" d="M87.5,335.2c-1.9,0.2-4,0.2-6-0.5c-3.9-1.4-5.4-12.5-6.5-19.6c-0.3-1.8-0.4-4.3-0.5-4.8
				c-0.2-0.7-2.2-1.3-4-2.3c-3.2-1.6-7.6-3.9-8.7-7.6c-0.6-1.9-0.3-4,0.9-6.2c5.5-10.2,18.6-6.5,19.7-6.2
				c12.2-2.2,22.2-2.6,28.3,1.7c5.2,3.7,5.8,8.7,5.9,8.9l0,0c0-0.1-0.8-4.4-6.2-8.5c-5.4-4.1-25.7-3.1-28-1.6c0,0-3.5-1.1-7.5-0.9
				c-5.4,0.3-9.7,2.1-12,6.4c-1.1,2.1-1.1,4.5-0.5,6.2c1.1,3.5,5.3,5.7,8.4,7.3c2.1,1.1,3.6,1.8,3.8,2.7c0.2,0.6,0.4,2,0.7,3.9
				c1,6.5,2.9,18.7,6.5,20c2.8,1.1,6.1,0.5,8.5,0.1c1.8-0.3,2.8-0.5,3.2,0l0,0c-0.2-0.3-1.9,0.3-3.1,0.5
				C89.5,334.9,88.5,335.1,87.5,335.2z"/>
		</g>
	</g>
	<g>
		<g>
			<path class="st7" d="M162.6,470l-1.7,0c-1.8,0-3.2-1.4-3.3-3.1l-0.3-13.9c0-1.8,1.4-3.2,3.1-3.3l2.4,0c0.3,0,0.6,0.3,0.6,0.6
				c0,0.3-0.3,0.6-0.6,0.6l-2.4,0c-1.1,0-1.9,0.9-1.9,2l0.3,13.9c0,1.1,0.9,1.9,2,1.9l1.7,0c1.1,0,1.9-0.9,1.9-2l-0.2-9.2
				c0-0.3,0.3-0.6,0.6-0.6c0.3,0,0.6,0.3,0.6,0.6l0.2,9.2C165.7,468.5,164.3,470,162.6,470z"/>
		</g>
		<g>
			<path class="st7" d="M163.6,484.2l-3,0.1c-2.8,0.1-5.1-2.3-5.1-5.3l-0.4-20.9c0-0.3,0.3-0.6,0.6-0.6c0.3,0,0.6,0.3,0.6,0.6
				l0.4,20.9c0,2.3,1.8,4.1,3.8,4l3-0.1c2.1,0,3.7-1.9,3.7-4.2l-0.5-23.8c0-2.3-1.8-4.1-3.8-4c-0.3,0-0.6-0.3-0.6-0.6
				c0-0.3,0.3-0.6,0.6-0.6c2.8-0.1,5.1,2.3,5.1,5.3l0.5,23.8C168.5,481.7,166.3,484.2,163.6,484.2z"/>
		</g>
	</g>
</g>
<g>
</g>
<g>
</g>
<g>
</g>
<g>
</g>
<g>
</g>
<g>
</g>
<g>
</g>
<g>
</g>
<g>
</g>
<g>
</g>
<g>
</g>
<g>
</g>
<g>
</g>
<g>
</g>
<g>
</g>
</svg>
