<?xml version="1.0" encoding="iso-8859-1"?>
<!-- Generator: Adobe Illustrator 19.0.0, SVG Export Plug-In . SVG Version: 6.00 Build 0)  -->
<svg version="1.1" id="Layer_1" xmlns="http://www.w3.org/2000/svg" xmlns:xlink="http://www.w3.org/1999/xlink" x="0px" y="0px"
	 viewBox="0 0 508 508" style="enable-background:new 0 0 508 508;" xml:space="preserve">
<path style="fill:#84DBFF;" d="M431.3,0H21.5C9.8,0,0.3,9.5,0.3,21.2v277.6c0,11.7,9.5,21.2,21.2,21.2h31.3v101.5L124.3,320h25.3
	V202c0-18.7,15.2-33.9,33.9-33.9h269V21.2C452.5,9.5,443,0,431.3,0z"/>
<path style="fill:#54C0EB;" d="M452.5,156.8v129.3c0,18.7-15.1,33.9-33.9,33.9H138.3V202c0-24.9,20.2-45.2,45.2-45.2H452.5z"/>
<path style="fill:#F2F2F2;" d="M486.5,168.1h-303c-18.7,0-33.9,15.2-33.9,33.9v198.3c0,11.7,9.5,21.2,21.2,21.2h180.6l94.2,86.5
	v-86.5h40.9c11.7,0,21.2-9.5,21.2-21.2v-211C507.7,177.6,498.2,168.1,486.5,168.1z"/>
<g>
	<circle style="fill:#FFFFFF;" cx="241.1" cy="294.8" r="26.9"/>
	<circle style="fill:#FFFFFF;" cx="328.6" cy="294.8" r="26.9"/>
	<circle style="fill:#FFFFFF;" cx="416.2" cy="294.8" r="26.9"/>
</g>
<g>
</g>
<g>
</g>
<g>
</g>
<g>
</g>
<g>
</g>
<g>
</g>
<g>
</g>
<g>
</g>
<g>
</g>
<g>
</g>
<g>
</g>
<g>
</g>
<g>
</g>
<g>
</g>
<g>
</g>
</svg>
