<?xml version="1.0" encoding="utf-8"?>
<!-- Generator: Adobe Illustrator 25.4.1, SVG Export Plug-In . SVG Version: 6.00 Build 0)  -->
<svg version="1.1" id="Layer_1" xmlns="http://www.w3.org/2000/svg" xmlns:xlink="http://www.w3.org/1999/xlink" x="0px" y="0px"
	 viewBox="0 0 387 289.6" style="enable-background:new 0 0 387 289.6;" xml:space="preserve">
<style type="text/css">
	.st0{opacity:0.5;fill:#BAA493;}
	.st1{fill:#A0836E;}
	.st2{opacity:0.5;fill:#C6B19E;}
	.st3{fill:#C6B19E;}
	.st4{fill:#845C41;}
	.st5{fill:#D36559;}
	.st6{fill:#E58070;}
	.st7{fill:#C64E4E;}
	.st8{fill:#FFFFFF;}
	.st9{fill:#936748;}
	.st10{fill:#AA7B5C;}
	.st11{fill:#91674A;}
	.st12{fill:#9E7352;}
	.st13{fill:#2B2A29;}
	.st14{fill:#3F3E3D;}
	.st15{fill:#353433;}
	.st16{fill:#CE8655;}
	.st17{fill:#E5A25E;}
	.st18{fill:#DD9864;}
	.st19{fill:#E0A273;}
	.st20{opacity:0.6;fill:#CE8655;}
	.st21{fill:#AF3838;}
	.st22{fill:#BC4444;}
	.st23{fill:#FFB9A4;}
	.st24{fill:#FFC9B6;}
	.st25{fill:#EDE0D6;}
	.st26{fill:#C6B3A1;}
	.st27{fill:#FAC582;}
	.st28{fill:#F4B46E;}
	.st29{opacity:0.5;fill:#F29E8B;}
	.st30{fill:#FFD3A4;}
	.st31{opacity:0.2;fill:#A0836E;}
	.st32{fill:#6D6A68;}
	.st33{fill:#CAB9A5;}
	.st34{fill:#AF9880;}
	.st35{opacity:0.4;fill:#9E7352;}
	.st36{fill:#4BD1CA;}
	.st37{fill:#E5D5C6;}
	.st38{opacity:0.5;fill:#A0836E;}
	.st39{fill:#D1B69F;}
	.st40{fill:#F29E8B;}
	.st41{fill:#F4E6D9;}
	.st42{fill:#B26C3D;}
	.st43{fill:#C17C4D;}
	.st44{opacity:0.5;fill:#FAC582;}
</style>
<g>
	<polygon class="st0" points="194.7,171.1 263,210.2 326.9,172.3 258.7,133.2 	"/>
	<path class="st0" d="M42.3,182.4c0,0-14.7,6.9-17.3,8.7c-2.6,1.9-0.5,6.1,2.6,7.1c3,1,15.8,3.5,18.8,5c3,1.5,1,10.1-7.6,12.2
		c-8.5,2.1-14.4,4.1-15.7,5.7c-1.3,1.6,2.2,7.9,12.3,8c10,0.2,19.8-0.5,22.2,4.6c4.6,9.6,7.6,16.1,16.7,12.9
		c7.2-2.5,14.4,1.4,15.3,8.6c0.9,7.2,10.4,13.8,15,15.1c4.6,1.3,12,1.7,19-3.9c7-5.6,13-13.7,16.7-10.7c3.7,3,4.6,6.3,11.9,12.6
		c5.4,4.7,10.8,3.5,16.5-1.3c12-10.2,24.9-16.5,33.1-19.4c8.1-2.9,19.6-3.4,23.9-6.8c3.9-3,4.8-9-1.6-14.9c-6.3-6,8.2-7.6,1.6-13.5
		c-6.6-5.9-25.1-2.3-35.4-4.1C179.8,206.8,42.3,182.4,42.3,182.4z"/>
	<ellipse class="st0" cx="132.9" cy="131" rx="21.1" ry="10.7"/>
	<g>
		<g>
			<path class="st1" d="M149.4,131.5c4.1-5.2,1.7-14.2-0.4-18.3c-2.8-5.5-8.8,1.6-13.3,6.2c-0.9-0.1-1.8-0.1-2.8-0.1
				c-0.9,0-1.8,0.1-2.7,0.1c-4.4-4.7-10.4-11.9-13.3-6.4c-1.9,3.7-4.2,11.8-1.4,16.7c3.6,6.4,11.7,8.3,17.4,8.3
				C138.6,138,145.1,136.9,149.4,131.5z"/>
			<path class="st2" d="M136.8,129.5c4.5-1.8,8-5.6,8.8-10.4c0.5-2.7,0.2-5.3-0.6-7.7c-2.9,0.9-6.5,5-9.4,8
				c-0.9-0.1-1.8-0.1-2.8-0.1c-0.9,0-1.8,0.1-2.7,0.1c-4.4-4.7-10.4-11.9-13.3-6.4c-1.2,2.3-2.6,6.5-2.7,10.5
				C120.2,129.4,128.3,132.8,136.8,129.5z"/>
			<g>
				<ellipse class="st3" cx="132.9" cy="114.7" rx="16.4" ry="8.3"/>
				<ellipse class="st1" cx="132.9" cy="114.7" rx="14.4" ry="6.5"/>
				<path class="st4" d="M133.5,111.2c-4.5,0.2-11.5,1.1-14.6,5.1c1.6,2.8,7.2,5,14,5c6.8,0,12.6-2.2,14-5
					C144,112.3,138.3,111,133.5,111.2z"/>
			</g>
		</g>
		<g>
			<path class="st5" d="M144.9,117.1c-1.3,0.4-2.6,0.4-4.1-0.2c-0.6-0.2-1.3-0.5-2-0.9c-0.8-6.9,2.8-15,6.9-19.9
				c5.6-6.5,14-10.3,22.5-9.7c-8.9,2.9-14.7,9.4-18,15.1c-1.6,2.8-3,5.8-4,8.9C145.7,112.6,145.4,114.9,144.9,117.1z"/>
			<path class="st6" d="M145.4,96.6c-4,5-7.3,12.7-6.5,19.4c0.2,0.1,0.3,0.2,0.5,0.3C139.9,109.2,141.9,102.6,145.4,96.6z"/>
			<path class="st6" d="M149.2,92.8c-2.7,3.4-5,7-6.3,11.1c-1.3,4.2-2,8.5-2.4,12.9c0.1,0,0.2,0.1,0.3,0.1c0.3,0.1,0.5,0.2,0.8,0.2
				c1-7.9,2.1-15.9,7.4-22.3c2.7-3.3,6.2-5.8,10.1-7.5C155.5,88.6,152.2,90.4,149.2,92.8z"/>
			<path class="st7" d="M150.1,96.1c3.4-5.8,10.7-9.5,17.6-9.4c-8.5,3-14.1,9.3-17.3,14.9c-1.6,2.8-3,5.8-4,8.9
				c-0.7,2.2-1,4.5-1.5,6.7c-0.7,0.2-1.4,0.3-2.2,0.3C143.3,114,145.3,104.1,150.1,96.1z"/>
		</g>
		<g>
			<path class="st5" d="M119.6,69.7c6.3,4.2,9.8,11.2,11.5,18.5c1,4.1,1.5,8.3,1.8,12.5c0.4,4.5,0.4,10.5,0.1,14.8
				c-1.4,0.7-2.9,0.9-3.7-0.3c-0.8-8-2.7-15.6-4.4-23.5c-1.5-7.1-3.8-14-5.4-21.1C119.4,70.3,119.5,69.5,119.6,69.7z"/>
			<path class="st7" d="M122.3,75.6c2,4.4,3.2,9.2,4.2,13.9c1.9,8.7,3.2,17.6,4.2,26.5c-0.6-0.1-1.1-0.3-1.5-0.8
				c-0.8-8-2.7-15.6-4.4-23.5c-1.4-7-3.7-13.7-5.3-20.6C120.6,72.6,121.6,74.1,122.3,75.6z"/>
			<path class="st6" d="M130,91.9c-1.5-6.9-3.8-13.6-7.4-19.7c4.4,4.2,7,10,8.5,16c1,4.1,1.5,8.3,1.8,12.5
				c0.4,4.5,0.4,10.5,0.1,14.8c-0.1,0-0.6,0.3-0.6,0.3C132.7,107.9,131.6,99.3,130,91.9z"/>
			<path class="st6" d="M129,91.6c1.7,7.7,3.2,16.2,2.9,24.3c-0.1,0-0.1,0-0.2,0.1c-0.8-8.6-2.3-17.2-4.1-25.6
				c-1.1-5-2.7-10.2-4.9-14.9c-0.9-2-1.9-3.8-3.1-5.6c0.3,0.2,0.7,0.5,1,0.7C124.7,77,127.3,84.1,129,91.6z"/>
		</g>
		<g>
			<path class="st5" d="M123.5,118.5c1.3,0.4,2.6,0.4,4.1-0.2c0.6-0.2,1.3-0.5,2-0.9c0.8-6.9-2.8-15-6.9-19.9
				c-5.6-6.5-14-10.3-22.5-9.7c8.9,2.9,14.7,9.4,18,15.1c1.6,2.8,3,5.8,4,8.9C122.8,114,123,116.3,123.5,118.5z"/>
			<path class="st6" d="M123,98c4,5,7.3,12.7,6.5,19.4c-0.2,0.1-0.3,0.2-0.5,0.3C128.5,110.6,126.6,104,123,98z"/>
			<path class="st6" d="M119.2,94.2c2.7,3.4,5,7,6.3,11.1c1.3,4.2,2,8.5,2.4,12.9c-0.1,0-0.2,0.1-0.3,0.1c-0.3,0.1-0.5,0.2-0.8,0.2
				c-1-7.9-2.1-15.9-7.4-22.3c-2.7-3.3-6.2-5.8-10.1-7.5C112.9,89.9,116.3,91.8,119.2,94.2z"/>
			<path class="st7" d="M118.4,97.5c-3.4-5.8-10.7-9.5-17.6-9.4c8.5,3,14.1,9.3,17.3,14.9c1.6,2.8,3,5.8,4,8.9
				c0.7,2.2,1,4.5,1.5,6.7c0.7,0.2,1.4,0.3,2.2,0.3C125.2,115.3,123.1,105.5,118.4,97.5z"/>
		</g>
		<g>
			<path class="st5" d="M153.4,60.4c-8.4,4.9-13.3,13.6-16,22.7c-1.5,5.2-2.5,10.5-3.3,15.9c-0.8,5.7-1.3,13.4-1.3,18.9
				c1.8,1.1,3.6,1.3,4.8-0.1c1.7-10.2,4.6-19.7,7.3-29.7c2.4-9,5.9-17.6,8.5-26.5C153.6,61.2,153.6,60.2,153.4,60.4z"/>
			<path class="st7" d="M149.5,67.8c-2.9,5.4-4.8,11.5-6.4,17.4c-3.1,11-5.4,22.2-7.3,33.5c0.7,0,1.4-0.3,1.9-0.9
				c1.7-10.2,4.6-19.7,7.3-29.7c2.4-8.8,5.8-17.2,8.3-25.9C152,64.1,150.6,65.9,149.5,67.8z"/>
			<path class="st6" d="M138.6,88c2.4-8.7,5.9-17.1,10.9-24.7c-6,5.1-9.7,12.3-12,19.8c-1.5,5.2-2.5,10.5-3.3,15.9
				c-0.8,5.7-1.3,13.4-1.3,18.9c0.1,0,0.7,0.4,0.8,0.4C133.9,108.3,135.9,97.4,138.6,88z"/>
			<path class="st6" d="M139.8,87.8c-2.8,9.7-5.3,20.5-5.5,30.8c0.1,0,0.1,0.1,0.2,0.1c1.6-10.9,4.2-21.8,7.1-32.4
				c1.7-6.4,4.2-12.9,7.3-18.7c1.3-2.4,2.7-4.7,4.3-7c-0.4,0.3-0.9,0.5-1.3,0.8C146.4,69.4,142.5,78.3,139.8,87.8z"/>
		</g>
		<path class="st7" d="M132.2,117.7c1.4-9.7,0.4-20,1.3-29.6c1-10.8,3.7-20.9,9.7-29.9c0,0,0-0.1-0.1,0c-6.3,7.3-9.1,17-10.3,26.3
			c-0.8,5.9-0.9,11.8-1,17.7c-0.1,5.2-0.5,10.3-0.6,15.5C131.6,117.7,131.9,117.7,132.2,117.7z"/>
	</g>
	<ellipse class="st0" cx="170.7" cy="157.5" rx="19.1" ry="9.7"/>
	<g>
		<g>
			<path class="st1" d="M150,125.9c0,0,5.8,29.8,5.9,30.2c1.1,3.7,7.4,6.5,15,6.5c7.8,0,14.2-3,15.1-6.8c0.1-0.3,5.8-29.9,5.8-29.9
				H150z"/>
			<path class="st1" d="M150,125.9c0,0,5.8,29.8,5.9,30.2c1.1,3.7,7.4,6.5,15,6.5c7.8,0,14.2-3,15.1-6.8c0.1-0.3,5.8-29.9,5.8-29.9
				H150z"/>
			<path class="st2" d="M160.5,155.1c5.3-1.3,9.4-5.4,12.3-9.8c2.7-4.2,4.4-8.9,6-13.6c0.6-1.9,1.3-3.8,1.8-5.7H150
				c0,0,5,25.7,5.8,29.7C157.4,155.6,158.9,155.5,160.5,155.1z"/>
			<path class="st8" d="M170.9,115.4c-11.5,0-20.9,4.7-20.9,10.6c0,5.8,9.3,10.6,20.9,10.6c11.5,0,20.9-4.7,20.9-10.6
				C191.7,120.1,182.4,115.4,170.9,115.4z"/>
			<path class="st1" d="M170.9,117.6c-10.2,0-18.4,3.7-18.4,8.3c0,4.6,8.2,8.3,18.4,8.3c10.2,0,18.4-3.7,18.4-8.3
				C189.3,121.4,181,117.6,170.9,117.6z"/>
			<path class="st4" d="M171.6,121.4c-5.8,0.2-14.7,1.4-18.6,6.5c2,3.6,9.2,6.3,17.8,6.3c8.7,0,16-2.8,17.9-6.4
				C185,122.9,177.7,121.2,171.6,121.4z"/>
		</g>
		<path class="st9" d="M176.2,18c9.2-3.4,8.5,0.2,8.5,0.2S172.5,18.8,172,30c-0.5,11.2,4,27,7,45c3,18,4.6,44,1.7,53.2
			c-1.3,0.4-3.1,1.1-4.8-0.8c1.1-4.9,2.2-11.5,2.2-26.3c-0.1-15.4-4.5-39.3-8-55C166.6,30.4,167.9,21,176.2,18z"/>
		<path class="st9" d="M159.4,32.9c0.5-0.6,1.2-1.1,1.9-1.4c6,3.3,8.8,20.4,6.5,32.2c-2.4,12.3-5.4,31.1-5.1,43.1
			c0.3,11.6,1.3,16.7,2.3,20.5c-1.3,1.5-2.7,1-3.8,0.7c-2.5-7.1-1.8-27.4,0.2-41.6c1.9-14.1,5-26.5,4.5-35.3
			C165.2,40,161.4,34.9,159.4,32.9z"/>
		<g>
			<path class="st10" d="M176.9,19.5c-2.3-2.1-5.1,4.4-5.7,7.9c-1.6-5.4-4.8-12.7,3.4-15.2c2.1-1.9,5.5-3,8.6-3.6
				c4.6-0.9,14.9-1.6,21.1,3c-3.5-0.2-7.1-1-8.6,0.5c-1.6,1.6,0.8,2.9,2.4,3.3c1.8,0.4,5,0.1,6.8-0.1c1.9-0.2,5.1-0.1,8,0.6
				c3,2,7.9,6.9,8.7,11c-3.5-0.9-15.4-6-14.7-2.9c0.9,3.6,7.6,5.5,10.3,6.9c2.7,1.3,4.9,2.7,6.7,4.7c3.5,10,3.9,19.7,3.9,19.7
				s-7.3,0.4-14,0c-2.1-2.9-3.1-4.5-3.7-8.1c-0.4-2.5-2.7-6.6-5-4.8c-3.7,2.7,1.8,9.2,3.8,13c-5.7-1.4-14-5-18.1-7.6
				c-1.3-2.4,0.1-7.3,0.2-9.4c0.1-2.2,1.1-5-1.5-5.7c-4.1-1.1-4.2,7.1-4.1,11.6c-2.6-1.6-9.5-8.2-11.4-12.9
				C175.5,26,180.7,22.9,176.9,19.5z"/>
			<path class="st11" d="M171.2,27.3c-1.6-5.4-4.8-12.7,3.4-15.2c0.5-0.4,8.9,0.9,15.9,5.6c5.8,3.8,10.9,8.5,15.7,13.4
				c5.3,5.4,10.7,11,15.3,17.1c1.8,2.4,3.5,4.8,5.5,7.1c-2,0.1-7.8,0.3-13.2,0c-2.1-2.9-3.1-4.5-3.7-8.1c-0.4-2.5-2.7-6.6-5-4.8
				c-3.7,2.7,1.8,9.2,3.8,13c-5.7-1.4-14-5-18.1-7.6c-1.3-2.4,0.1-7.3,0.2-9.4c0.1-2.2,1.1-5-1.5-5.7c-4.1-1.1-4.2,7.1-4.1,11.6
				c-2.6-1.6-9.5-8.2-11.4-12.9c1.6-5.4,6.8-8.5,3-11.9C174.6,17.4,171.8,23.9,171.2,27.3z M194.1,32.3c0.6,0.6,1.4,1.2,2.3,1
				c1-0.2,1.6-1.2,1.6-2.1c0-0.8-0.3-1.8-0.9-2.7c-0.3-1.2-1.1-2.3-1.7-2.9c-0.6-0.5-1.3-1-2.1-0.8c-1,0.2-1.4,1.2-1.5,2
				C191.6,28.7,192.8,31,194.1,32.3z M181.7,29.6c2.6,2.3,5.1-1.6,6.2-3.6c1.1-2,1-5.6-1.8-7.1C180,15.7,178.1,26.3,181.7,29.6z"/>
			<path class="st9" d="M221.5,48.3c0,0-6.3-10.1-13.2-16.2c-6.9-6.1-12.8-11.9-18.2-15.3c-8.9-5.6-15.6-4.7-15.6-4.7
				s9,1.4,19.5,10.1C202.3,28.9,221.5,48.3,221.5,48.3z"/>
			<path class="st11" d="M188.5,9.7c4,0.3,5,4.1,3.2,3.9c-1.8-0.3-5.2-0.9-7.3-1.9C182.2,10.6,184.2,9.3,188.5,9.7z"/>
			<path class="st11" d="M199.6,17.3c3.8,0.1,6.5,0.3,7.2,1.9c0.6,1.6-1.9,3-5.5,2.3c-3.6-0.7-5.6-2.3-5.7-3.3
				C195.4,17.3,197.6,17.3,199.6,17.3z"/>
		</g>
		<path class="st12" d="M169.5,130.6c-0.3,0.8-2.9,1-3.4-0.4c-0.5-2.1-0.7-4.8-0.5-7.9c0.4-6.5,3-29.7,0.6-38.7
			c-2.4-9.1-3.9-19.1-3.9-19.1L164,64c0,0,6.9,13.2,6.9,25.9c0,12.7-1.6,26.6-1.6,35.8C169.2,127.7,169.4,129.3,169.5,130.6z"/>
		<g>
			<g>
				<path class="st10" d="M171.5,73.9c-0.9-1.6-2-3-2.9-4.6c-0.9-1.5-1.4-3.3,0.8-3.8c3.4-0.8,5.6,1.1,6.9,3.8
					c1.4-4.5,1.1-7.7-0.3-8.8c-6-4.5-13.5-2.2-13.5-2.2s-3.8-6.5-8.5-7.8c-7.9-2.2-12.9,0.6-16.3,5.5c0.7-0.2,1.4-0.3,2-0.4
					c1.6-0.3,4.9-1.1,6.2,0.5c1.4,1.8-1.1,3.7-2.6,4.1c-1.7,0.5-3.4,0.5-5.1,0.7c-1.2,0.2-2.3,0.4-3.3,0.9c-1.3,3.5-2.2,7.3-2.9,11
					c1.2-1.3,2.6-2.5,4.1-3.4c1.7-1,5.4-2.5,6.7-0.1c1.2,2.2-1.1,4.7-2.8,5.8c-1.6,1.1-3.6,1.7-5.1,2.9c-1.7,1.3-2.8,3-3.7,4.9
					c0.1,2.8,0.4,5.5,0.7,8c1.9-3.4,4.9-6.7,7.8-4.7c1.5,1.1,0.5,3-0.2,4.3c-1,1.6-2.2,3.1-3.3,4.7c-1.1,1.7-1.9,3.4-2.5,5.3
					c0.3,1.4,0.6,2.2,0.6,2.2s3.9,0.7,9.5-0.5c0.9-2,1.3-4.3,1.9-6.2c0.5-1.6,1.1-4.6,3-5.3c1.9-0.7,3.3,1.6,3.6,3.2
					c0.4,1.7,0.2,3.6-0.4,5.4c2.3-1.2,7.7-5.5,10.1-7.5c-0.5-5.3-5.5-11.7-0.5-14.3c3.6-1.9,5.7,2.8,5.9,8.2c2.4-3.2,4.4-6.2,5.8-9
					C172.5,75.8,172,74.9,171.5,73.9z"/>
				<path class="st11" d="M139.4,96.5c2.6-3.9,4.4-8.5,6.4-12.7c2.6-5.6,5.9-10.4,9.6-15.3c2.5-3.3,4.5-7,6.9-10.4
					c0.1,0.2,0.2,0.3,0.2,0.3s7.5-2.3,13.5,2.2c1.5,1.1,1.7,4.3,0.3,8.8c-1.3-2.7-3.5-4.6-6.9-3.8c-2.1,0.5-1.7,2.3-0.8,3.8
					c1,1.5,2,3,2.9,4.6c0.5,0.9,1,1.8,1.7,2.6c-1.5,2.8-3.4,5.8-5.8,9c-0.1-5.3-2.2-10-5.9-8.2c-5,2.6-0.1,9,0.5,14.3
					c-2.4,2-7.8,6.3-10.1,7.5c0.6-1.8,0.8-3.7,0.4-5.4c-0.3-1.5-1.7-3.9-3.6-3.2c-1.8,0.7-2.5,3.7-3,5.3c-0.6,1.9-1,4.2-1.9,6.2
					c-3.9,0.9-7,0.8-8.5,0.6C136.4,100.6,137.9,98.7,139.4,96.5z"/>
				<path class="st10" d="M152.1,81.5c-2.5,1.9-0.5,4.5,1.1,6.8c1.6,2.3,3.6-1.5,3.1-4.7C155.8,80.4,153,80.8,152.1,81.5z"/>
				<path class="st9" d="M162.4,58.3c0,0-4.2,5.2-8.8,10.3c-4.6,5.2-7.2,11.4-8.5,15.7c-1.1,3.4-5,11.3-5,11.3s4.4-6.4,6.4-11.1
					c2.3-5.5,5.5-9.7,9.7-15.3S162.4,58.3,162.4,58.3z"/>
			</g>
			<path class="st10" d="M161.9,66.7c-2.9,0-3.3,2.7-1.1,4.8c2.3,2.1,5.3,3.3,4.7,0.1C164.9,68.5,163.9,66.7,161.9,66.7z"/>
			<path class="st11" d="M154.7,58.3c2.8-0.4,3.6,1.7,0.9,3.6c-2.5,1.8-5.1,4-8.6,3.1c-3.5-0.9-2.7-3.2,0-4.2
				C149.7,59.8,153.2,58.6,154.7,58.3z"/>
		</g>
		<g>
			<path class="st10" d="M158.6,32c2.3-2.1,5.1,4.4,5.7,7.9c1.6-5.4,4.8-12.7-3.4-15.2c-2.1-1.9-5.5-3-8.6-3.6
				c-4.6-0.9-14.9-1.6-21.1,3c3.5-0.2,7.1-1,8.6,0.5c1.6,1.6-0.8,2.9-2.4,3.3c-1.8,0.4-5,0.1-6.8-0.1c-1.9-0.2-5.1-0.1-8,0.6
				c-3,2-7.9,6.9-8.7,11c3.5-0.9,15.4-6,14.7-2.9c-0.9,3.6-7.6,5.5-10.3,6.9c-2.7,1.3-4.9,2.7-6.7,4.7c-3.5,10-3.9,19.7-3.9,19.7
				s7.3,0.4,14,0c2.1-2.9,3.1-4.5,3.7-8.1c0.4-2.5,2.7-6.6,5-4.8c3.7,2.7-1.8,9.2-3.8,13c5.7-1.4,14-5,18.1-7.6
				c1.3-2.4-0.1-7.3-0.2-9.4c-0.1-2.2-1.1-5,1.5-5.7c4.1-1.1,4.2,7.1,4.1,11.6c2.6-1.6,9.5-8.2,11.4-12.9
				C160,38.5,154.8,35.4,158.6,32z"/>
			<path class="st11" d="M164.3,39.8c1.6-5.4,4.8-12.7-3.4-15.2c-0.5-0.4-8.9,0.9-15.9,5.6c-5.8,3.8-10.9,8.5-15.7,13.4
				c-5.3,5.4-10.7,11-15.3,17.1c-1.8,2.4-3.5,4.8-5.5,7.1c2,0.1,7.8,0.3,13.2,0c2.1-2.9,3.1-4.5,3.7-8.1c0.4-2.5,2.7-6.6,5-4.8
				c3.7,2.7-1.8,9.2-3.8,13c5.7-1.4,14-5,18.1-7.6c1.3-2.4-0.1-7.3-0.2-9.4c-0.1-2.2-1.1-5,1.5-5.7c4.1-1.1,4.2,7.1,4.1,11.6
				c2.6-1.6,9.5-8.2,11.4-12.9c-1.6-5.4-6.8-8.5-3-11.9C160.9,29.9,163.7,36.4,164.3,39.8z M141.3,44.8c-0.6,0.6-1.4,1.2-2.3,1
				c-1-0.2-1.6-1.2-1.6-2.1c0-0.8,0.3-1.8,0.9-2.7c0.3-1.2,1.1-2.3,1.7-2.9c0.6-0.5,1.3-1,2.1-0.8c1,0.2,1.4,1.2,1.5,2
				C143.9,41.2,142.6,43.5,141.3,44.8z M153.8,42.1c-2.6,2.3-5.1-1.6-6.2-3.6c-1.1-2-1-5.6,1.8-7.1
				C155.5,28.2,157.3,38.8,153.8,42.1z"/>
			<path class="st9" d="M113.9,60.8c0,0,6.3-10.1,13.2-16.2c6.9-6.1,12.8-11.9,18.2-15.3c8.9-5.6,15.6-4.7,15.6-4.7
				s-9,1.4-19.5,10.1C133.2,41.4,113.9,60.8,113.9,60.8z"/>
			<path class="st11" d="M147,22.2c-4,0.3-5,4.1-3.2,3.9c1.8-0.3,5.2-0.9,7.3-1.9C153.2,23.1,151.3,21.8,147,22.2z"/>
			<path class="st11" d="M135.8,29.8c-3.8,0.1-6.5,0.3-7.2,1.9c-0.6,1.6,1.9,3,5.5,2.3c3.6-0.7,5.6-2.3,5.7-3.3
				C140.1,29.8,137.8,29.8,135.8,29.8z"/>
		</g>
		<path class="st12" d="M177.8,130.5c-0.5,0.2-1.1,0.2-1.9,0c-0.4-0.1-0.7-0.3-1-0.5c0.8-3.3,3-13.4,3.5-24.5
			c0.5-9.5-1.3-20.2-1.9-26.7c-1.4-15.8,9.6-17.1,15.3-14.8c4.7,1.9,8.3,7.3,8.3,7.3l-0.6,1.2c0,0-6.8-8.6-14.8-5.8
			c-8,2.8-2.9,22.9-2.8,34.7C182.1,111.9,178.6,127.1,177.8,130.5z"/>
		<g>
			<g>
				<path class="st10" d="M183.9,82c0.9-1.6,2.1-3,3.1-4.5c1-1.4,1.4-3.2-0.6-3.8c-3.4-0.9-5.7,1-7,3.6c-1.2-4.6-0.9-7.8,0.6-8.8
					c6.2-4.3,13.6-1.8,13.6-1.8s4-6.4,8.7-7.6c8-2,12.9,1,16.1,6c-0.7-0.2-1.4-0.3-2-0.5c-1.6-0.3-4.9-1.2-6.2,0.3
					c-1.5,1.8,1,3.7,2.5,4.2c1.7,0.5,3.4,0.6,5.1,0.8c1.2,0.2,2.3,0.5,3.3,1c1.2,3.5,2,7.4,2.6,11.1c-1.2-1.4-2.5-2.6-4-3.5
					c-1.7-1-5.3-2.6-6.7-0.3c-1.2,2.1,1,4.8,2.6,5.9c1.6,1.2,3.5,1.8,5.1,3c1.7,1.3,2.7,3.1,3.5,5c-0.2,2.8-0.5,5.5-0.9,8
					c-1.8-3.5-4.8-6.8-7.6-4.9c-1.6,1-0.6,3,0.1,4.3c0.9,1.7,2.1,3.2,3.1,4.8c1.1,1.8,1.8,3.5,2.3,5.3c-0.4,1.4-0.6,2.2-0.6,2.2
					s-3.9,0.6-9.5-0.8c-0.8-2-1.2-4.3-1.7-6.2c-0.5-1.6-1-4.6-2.8-5.4c-1.9-0.8-3.3,1.5-3.7,3.1c-0.4,1.7-0.3,3.6,0.2,5.4
					c-2.3-1.2-7.5-5.7-9.9-7.8c0.7-5.3,5.8-11.5,0.9-14.3c-3.6-2-5.8,2.7-6.1,8c-2.3-3.2-4.2-6.3-5.6-9.2
					C182.8,83.8,183.3,82.9,183.9,82z"/>
				<path class="st11" d="M202.1,59.1c8-2,12.9,1,16.1,6c-0.7-0.2-1.4-0.3-2-0.5c-1.6-0.3-4.9-1.2-6.2,0.3c-1.5,1.8,1,3.7,2.5,4.2
					c1.7,0.5,3.4,0.6,5.1,0.8c1.2,0.2,2.3,0.5,3.3,1c1.2,3.5,2,7.4,2.6,11.1c-1.2-1.4-2.5-2.6-4-3.5c-1.7-1-5.3-2.6-6.7-0.3
					c-1.2,2.1,1,4.8,2.6,5.9c1.6,1.2,3.5,1.8,5.1,3c1.7,1.3,2.7,3.1,3.5,5c-0.2,2.8-0.5,5.5-0.9,8c-1.8-3.5-4.8-6.8-7.6-4.9
					c-1.6,1-0.6,3,0.1,4.3c0.9,1.7,2.1,3.2,3.1,4.8c1.1,1.8,1.8,3.5,2.3,5.3c-0.3,1.1-0.5,1.8-0.6,2.1c-2.1-2.1-4-4.5-5.7-7
					c-3.7-5.6-5.1-12.2-8.6-17.9c-2.8-4.7-6.1-9-9-13.6c-1.6-2.5-2.3-4.7-3.6-6.4C194.7,64.9,198.5,60,202.1,59.1z M211.6,89.8
					c1.1,0.8,5.8,3,5.5,0.6c-0.2-1.4-1-3.4-1.7-4.2c-1.3-1.5-4.3-3.7-6-1.4C208,86.6,210.3,88.8,211.6,89.8z M199.5,73.6
					c1.1,1.4,2.8,1.9,4.5,2c1.9,0.1,8.2,0,7-3.5c-0.5-1.5-6.6-3-8.6-2.4C199.4,70.5,198.6,72.5,199.5,73.6z"/>
				<path class="st11" d="M203.1,90.1c2.5,2,0.4,4.5-1.3,6.7c-1.7,2.3-3.5-1.6-3-4.8C199.4,88.9,202.2,89.4,203.1,90.1z"/>
				<path class="st9" d="M193.4,66.7c0,0,4,5.3,8.5,10.6c4.5,5.3,6.9,11.6,8.1,15.9c1,3.4,4.6,11.4,4.6,11.4s-4.2-6.5-6-11.2
					c-2.1-5.6-5.2-9.9-9.2-15.6C195.3,72.1,193.4,66.7,193.4,66.7z"/>
			</g>
			<path class="st11" d="M193.7,75.1c2.9,0.1,3.2,2.8,0.9,4.8s-5.4,3.2-4.7,0C190.6,76.7,191.7,75,193.7,75.1z"/>
		</g>
		<path class="st11" d="M200.1,113.8c0,0-12.3-10.5-18.5-15.6c-6.1-5.1-9.3-4.6-10.9,0.6c-1.6,5.2,1,14.1,1.4,19.6
			c0.4,5.5-1.2,14.6-1.2,14.6l2.5-0.4c0,0,2.6-9.9,1.5-16.4c-1-6.5-2.4-16.1-1.5-18.1c1.5-3.3,6.5,0.7,6.5,0.7s6.8,9.8,9.9,12
			C194.1,113.9,200.1,113.8,200.1,113.8z"/>
	</g>
	<g>
		<g>
			<path class="st13" d="M270.5,86.8c-1.6,1.4-3.4,3-5.6,4.8l0.8,36.6c0,0-15.5,22.6-37.5,33.8c-10.5,5.3-18.7,8.3-23.9,8.2
				c2.5,6.2,13.3,3.6,29.7-4.7c22.1-11.2,37.5-33.8,37.5-33.8L270.5,86.8z"/>
			<path class="st14" d="M269.5,87c-1.5,1.4-3.3,3-5.5,4.7l0.8,36c0,0-15.2,22.2-37,33.3c-10.3,5.3-18.4,8.2-23.5,8.1
				c2.4,6.2,13.1,3.6,29.2-4.7c21.7-11.1,37-33.3,37-33.3L269.5,87z"/>
			<path class="st15" d="M269.5,87c-1.5,1.4-3.3,3-5.5,4.7l0.8,36l5.7,3.4L269.5,87z"/>
			<g>
				<path class="st13" d="M236.5,137.4c11.9-3.4,20.4-12,25.5-23.1c6-12.9,8.5-24.9,8.5-24.9l-5.8-4.3c0,0-4,15.3-9.1,26.3
					c-5.1,11.1-14.9,20.3-25,23.2c-10.1,2.8-21.5,10.6-26.3,16.7c-4.8,6-6.1,12.4-6.1,12.4l5.5,2.6c0.7-1.8,1.8-6.5,6.4-12.2
					C215,148,226.4,140.3,236.5,137.4z"/>
				<path class="st14" d="M236.5,135.6c4.9-1.4,9.9-3.7,14.1-7.6c4.5-4.1,8.2-9.9,10.8-15.6c5.1-11.1,9-25.7,9-25.7l-5.8-3.4
					c0,0-4,15.3-9.1,26.3c-2.5,5.4-5.7,10.9-9.9,14.9c-4.4,4.2-9.9,6.9-15.1,8.3c-10.1,2.8-21.5,10.6-26.3,16.7
					c-4.8,6-5.9,10.2-5.9,10.2l5.9,2.8c0.1-0.4,1.3-4.4,5.9-10.1C215,146.2,226.4,138.4,236.5,135.6z"/>
			</g>
			<path class="st13" d="M264.9,85.1c-7,6.3-19.5,16.3-46.1,30.9c-7.9,4.4-12.8,23.7-17.6,40.4c-1.7,5.8-1.3,9.5,0.7,11.4l0,0
				l0.2,2.1c0.3,0.2,2.9,1.7,4.7,2.8c1.4,0.8,3.3-0.2,2.7-0.4c-1.5-0.4-2.8-1.2-3.6-2.9c-1-2-0.3-5.5,0.9-9.8
				c4.8-16.8,9.6-36.1,17.6-40.4c19.7-10.9,31.7-19.1,39.5-25.2c0.4-0.3,6.3-5.3,6.7-5.6v-1.7L264.9,85.1z"/>
			<path class="st14" d="M264.7,83.3c-7.2,6.5-20.1,16.7-47.5,31.8c-8.2,4.5-13.2,24.4-18.1,41.7c-1.7,6-1.4,9.8,0.7,11.7l0,0l0,0
				c0.5,0.4,6.9,4.2,6.9,4.2s-1.8-1.1-2.4-2.7c-0.9-2.2-0.7-5.4,0.6-9.9c4.9-17.3,9.9-37.2,18.1-41.7c20.3-11.2,32.7-19.7,40.7-26
				c0.4-0.3,6.4-5.5,6.9-5.8L264.7,83.3z"/>
		</g>
		<g>
			<path class="st16" d="M313.7,54.9l-35.3-20.4c-1.4-0.8-2.8-1.1-4.1-0.9c-0.2,0-7.2,1-7.2,1l-8.4,66.4c-0.8,4.8,1.7,10.5,5.6,12.8
				l29.4,17l2.8,5.2l7.7-1.1c2-0.6,3.6-2.4,4-5.3l10.9-62C320.1,63,317.6,57.2,313.7,54.9z"/>
			<path class="st17" d="M292.5,135.3l-35.3-20.4c-3.9-2.3-6.5-8-5.6-12.8l10.9-62c0.8-4.8,4.8-6.8,8.7-4.5l35.3,20.4
				c3.9,2.3,6.5,8,5.6,12.8l-10.9,62C300.4,135.5,296.5,137.6,292.5,135.3z"/>
			<path class="st16" d="M261.9,44.3c0,0,12.5,9.2,27,17c13.2,7.1,22.8,10.2,22.8,10.2l-0.5,3.1c0,0-14.9-5.2-28.8-13
				c-15.2-8.5-21.1-14.1-21.1-14.1L261.9,44.3z"/>
			<path class="st16" d="M259.8,56.6c0,0,12.5,9.2,27,17c13.2,7.1,22.8,10.2,22.8,10.2l-0.5,3.1c0,0-14.9-5.2-28.8-13
				c-15.2-8.5-21.1-14.1-21.1-14.1L259.8,56.6z"/>
			<path class="st16" d="M257.6,68.8c0,0,12.5,9.2,27,17c13.2,7.1,22.8,10.2,22.8,10.2l-0.5,3.1c0,0-14.9-5.2-28.8-13
				C262.8,77.4,257,71.8,257,71.8L257.6,68.8z"/>
			<path class="st18" d="M255.5,81c0,0,12.5,9.2,27,17c13.2,7.1,22.8,10.2,22.8,10.2l-0.5,3.1c0,0-14.9-5.2-28.8-13
				c-15.2-8.5-21.1-14.1-21.1-14.1L255.5,81z"/>
			<path class="st16" d="M275.8,98.2c-15.2-8.5-21.1-14.1-21.1-14.1l0.6-3c0,0,12.5,9.2,27,17c13.2,7.1,22.8,10.2,22.8,10.2
				l-0.5,3.1L275.8,98.2z"/>
			<path class="st16" d="M253.3,93.3c0,0,12.5,9.2,27,17c13.2,7.1,22.8,10.2,22.8,10.2l-0.5,3.1c0,0-14.9-5.2-28.8-13
				c-15.2-8.5-21.1-14.1-21.1-14.1L253.3,93.3z"/>
		</g>
		<g>
			<path class="st16" d="M297.3,147.8l0-8h-10.9l-28.7-16.6c-3.2-1.8-8.7-1.6-12.4,0.5l-27.8,16.1h-9.6l0,7.8c0,0.1,0,0.1,0,0.2v0
				l0,0c0.1,1.1,0.8,2.2,2.1,2.9l37.5,21.6c3.2,1.8,8.7,1.6,12.4-0.5l34.4-19.9C296.4,150.8,297.4,149.3,297.3,147.8L297.3,147.8z"
				/>
			<path class="st19" d="M247.5,164.4L210,142.8c-3.2-1.8-2.8-5,0.9-7.1l34.4-19.9c3.6-2.1,9.2-2.3,12.4-0.5l37.5,21.6
				c3.2,1.8,2.8,5-0.9,7.1l-34.4,19.9C256.2,166,250.7,166.2,247.5,164.4z"/>
			<path class="st20" d="M241.8,117.8c0,0,11.7,5.8,25.4,14c11.1,6.6,22.8,14.7,22.8,14.7l3.5-2c0,0-11.7-8.4-24.4-16.4
				c-11-7-23.8-12.3-23.8-12.3L241.8,117.8z"/>
			<path class="st20" d="M231.5,123.9c0,0,11.7,5.8,25.4,14c11.1,6.6,22.8,14.7,22.8,14.7l3.5-2c0,0-11.7-8.4-24.4-16.4
				c-11-7-23.8-12.3-23.8-12.3L231.5,123.9z"/>
			<path class="st20" d="M221.2,129.7c0,0,11.6,5.7,25.4,13.9c11.1,6.6,22.8,14.7,22.8,14.7l3.5-2c0,0-11.7-8.4-24.4-16.4
				c-11-7-23.6-12.4-23.6-12.4L221.2,129.7z"/>
			<path class="st20" d="M210.8,135.8c0,0,11.7,5.8,25.4,14c11.1,6.6,22.8,14.7,22.8,14.7l3.5-2c0,0-11.7-8.4-24.4-16.4
				c-11-7-23.8-12.3-23.8-12.3L210.8,135.8z"/>
		</g>
		<path class="st21" d="M276.5,81.2c0,0-5.2-2.1-8.8,3.1c-3.6,5.2-6.8,14-11.5,17.5c-4.7,3.5-5.1,6.7-4,10.2c1.1,3.5,6.7,4.7,13.1,0
			c6.4-4.7,11.5-12.8,12.5-17.7C278.8,89.3,279.8,85,276.5,81.2z"/>
		<path class="st22" d="M277.3,83c-8.1-0.1-6.6,1.8-9.5,7.5c-0.8,1.6-2.7,4.7-3.9,8.2c-1.4,3.9,1.8,7.4,2.6,11
			c-5.1,0.5-2.3,5.2-2.3,5.2s-5.1,1.2-5.9,2.2c-0.8,0.9-0.3,3.1,6.5,10.6c6.8,7.5,11.5,11.4,15,11.7c3.5,0.3,2.9-6.3,2.9-6.3
			s8.4-3.1,10.1-9.4c1.8-6.4,9.5-25.5,0.5-34.5C284.4,80.1,277.3,83,277.3,83z"/>
		<path class="st13" d="M293.6,73.2c0,0,3.1,2.6,5.9,5.6c2.8,3,0,8.3-2.7,9.1s-5.4-0.7-7-4.7C288.4,79.7,293.6,73.2,293.6,73.2z"/>
		<path class="st23" d="M282.1,75.2c0,0-1.5,4.2-1.7,6.5c-0.5,4.2-3,3.8-3.8,6.6c-1.4,5.6,13.2,4.7,16.8,0.8
			c-3.6-4-1.4-12.4-1.4-12.4L282.1,75.2z"/>
		<path class="st24" d="M275.5,68.8c0.8-3.7,4.6-5.7,8.8-5.7c10.2,0,10.3,15.7,3.6,21c-1.8,1.4-5.5,2.9-8,2.6
			c-1.5-0.2-2.2-0.7-3.3-2.6C274.2,79.9,274.7,72.2,275.5,68.8z"/>
		<path class="st14" d="M295.4,67.7c-1.7-3.7-5.6-5.5-9.4-5.1c-5.4-3.2-12.4,2.4-11.1,9c-0.1,0,7.6,0.4,10.1,0
			c0.8,4.9,2.3,10,6.3,11C294.6,79.6,297.4,72.1,295.4,67.7z"/>
		<path class="st22" d="M253,150.9c-0.8,0.3-1.5,0.8-2,1.5c-2.6,2.8-5.7,5.6-9.3,8.7c-3.9,3.4-5.5,5-1.3,6.6
			c4.3,1.6,7.7-0.5,9.3-2.3c1.6-1.8,5.5-1.7,8.8-3.8c2.8-1.8,6-4.1,2.9-9c-1.1-1.8-4.5-3.2-6-2.6L253,150.9z"/>
		<path class="st22" d="M236.9,141.7c-0.8,0.3-1.5,0.8-2,1.5c-2.6,2.8-5.7,5.6-9.3,8.7c-3.9,3.4-5.5,5-1.3,6.6
			c4.3,1.6,7.7-0.5,9.3-2.3c1.6-1.8,5.5-1.7,8.8-3.8c2.8-1.8,6-4.1,2.9-9c-1.1-1.8-4.5-3.2-6-2.6L236.9,141.7z"/>
		<path class="st25" d="M264.5,123.5c0.1-4.3-1.8-5.1-4.2-7.4c-5.1-4.9-20.9-14.6-24-15.5c-4.8-1.5-8.8-3.4-12,0.1
			c-2.2,2.4-3.6,4.8-3.6,9.4c0,5.6-1,7,1.1,12c2.4,5.8,7.1,11.4,9,17.2c-0.7,2.1-0.8,4.7,2.6,5.7c2.8,0.8,7.1-0.3,10.3-2.8
			c1.9-1.5-0.6-6.2-0.7-7.5c-0.1-1.6-0.3-3.3-0.5-4.9c2.7,2.1,5.9,3.6,9.5,3.8C258.6,134,264.3,130.6,264.5,123.5z"/>
		<path class="st21" d="M262.9,101.3c0,0-4.7-5.3-9.5-4.5c-4.8,0.8-7.9,5.3-6.6,7.5c1.4,2.2,8.8,8.9,13.8,7.8
			C265.5,111,262.9,101.3,262.9,101.3z"/>
		<path class="st24" d="M251.7,103.8c0,0,2.2-1.9,1.5-3.1c-0.7-1.3,0-3.3-2.3-5.5c-1.1-1.1-5.4-2.7-6.9-2.5c-1.5,0.1-3,1.9-3.4,4
			c-0.2,1-0.6,3.8,1.1,3.9c-0.2,1.1,1.2,2.4,2.1,1C244.6,100.2,251.7,103.8,251.7,103.8z"/>
		<path class="st8" d="M242.6,88.2l-3.1,3.2l10.7,12.3l17.3,3.9l2.7-4.5c0,0-11.2-4.9-18.5-1.9C248.6,92.4,242.6,88.2,242.6,88.2z"
			/>
		<g>
			<path class="st8" d="M271.7,123.5c-2.4-4.1-27.6-15.1-30.8-15.2c-3.7-0.2-6,2.8-7.7,5.2c-2.3,3.3-3.1,6.9-1.9,10.9
				c1.6,5.3,3.2,8.7,6.5,13.1c3.7,5,4,9.4,7.3,14.6c-1.6,2.7-0.6,5.4,3,5.5c3,0.1,9.3,1.1,11.9-1.2c3.8-3.3,3.8-5.7,0.3-8.6
				c-1.4-4.7-5.5-8.9-6.1-10.4c2,0.9,6.2,3.2,10,4.7c4.5,5.2,12.3,6.7,18.5,1.1c3.9-3.5,4.9-6.2,4.2-12.2
				C284.2,131.2,281.2,131.8,271.7,123.5z"/>
		</g>
		<path class="st26" d="M253.2,136.1c0,0-2.7-5.3-6-8.6c-3.3-3.3-5.2-5.4-5.2-5.4s3,1.3,6.5,3.4C252,127.6,253.2,136.1,253.2,136.1z
			"/>
		<path class="st26" d="M252.7,122.8c0,0,1.4,2.1,1.6,6.9c0.1,4.8,0,5.9,0,5.9s1.9-2.2,2-6.6C256.3,124.8,252.7,122.8,252.7,122.8z"
			/>
		<g>
			<polygon class="st3" points="270.3,103.1 267.6,107.6 275.5,122.1 278.5,117.8 			"/>
			<polygon class="st27" points="249.8,104.4 257.8,118.9 277.6,123.4 269.7,108.9 			"/>
			<polygon class="st28" points="237.6,90.4 245.5,104.9 257.8,118.9 249.8,104.4 			"/>
			<polygon class="st29" points="269.7,108.9 270.5,107.6 278.4,122.1 277.6,123.4 			"/>
			<polygon class="st30" points="237.6,90.4 238.8,89.4 250.4,103.3 270.5,107.6 269.7,108.9 249.8,104.4 			"/>
		</g>
		<path class="st24" d="M278.8,118.2c0,0-3.6-4.5-4.7-6.9c-1.2-2.4-2.2-1.8-2.5-0.7c-0.3,1.1,1.5,3.5,0.7,4.1
			c-0.7,0.7-2.1,0.7-5.6-0.5c-3.5-1.3-7.3-0.5-7.7,0.3c-0.4,0.8,1.1,1.3,1.1,1.3s-1.1,0.7-0.5,1.6c0.6,0.9,1.8,0.9,1.8,0.9
			s-1.5,1.3-0.2,1.6c1.3,0.3,3.2,1.5,6.9,3c3.7,1.5,7.3,2.8,7.3,2.8S280.3,119.3,278.8,118.2z"/>
		<path class="st21" d="M294.1,92.2c-5.1,0.9-7.5,8.3-7,15.5c0.5,7.2,1.6,12.1,1.6,12.1s-1.4-0.2-5.5-1.1c-4.1-0.9-3.7-3.7-6.7-3.5
			s-4.6,4.9-4.8,8.3c-0.2,3.5,3.1,4.1,4.8,3.8c1.2,3,2.9,2.4,8.2,3.7c5.3,1.3,9.4,1.4,12-2.3s2.9-9,4.3-17.8
			C302.4,102.1,300.6,91.1,294.1,92.2z"/>
		<g>
			<path class="st13" d="M318.4,114c-1.6,1.4-3.4,3-5.6,4.8l0.8,36.6c0,0-15.5,22.6-37.5,33.8c-10.5,5.3-18.7,8.3-23.9,8.2
				c2.5,6.2,13.3,3.6,29.7-4.7c22.1-11.2,37.5-33.8,37.5-33.8L318.4,114z"/>
			<path class="st14" d="M317.4,114.2c-1.5,1.4-3.3,3-5.5,4.7l0.8,36c0,0-15.2,22.2-37,33.3c-10.3,5.3-18.4,8.2-23.5,8.1
				c2.4,6.2,13.1,3.6,29.2-4.7c21.7-11.1,37-33.3,37-33.3L317.4,114.2z"/>
			<path class="st15" d="M317.4,114.2c-1.5,1.4-3.3,3-5.5,4.7l0.8,36l5.7,3.4L317.4,114.2z"/>
			<g>
				<path class="st13" d="M284.4,164.6c11.9-3.4,20.4-12,25.5-23.1c6-12.9,8.5-24.9,8.5-24.9l-5.8-4.3c0,0-4,15.3-9.1,26.3
					c-5.1,11.1-14.9,20.3-25,23.2c-10.1,2.8-21.5,10.6-26.3,16.7c-4.8,6-6.1,12.4-6.1,12.4l5.5,2.6c0.7-1.8,1.8-6.5,6.4-12.2
					C262.9,175.2,274.3,167.5,284.4,164.6z"/>
				<path class="st14" d="M284.4,162.8c4.9-1.4,9.9-3.7,14.1-7.6c4.5-4.1,8.2-9.9,10.8-15.6c5.1-11.1,9-25.7,9-25.7l-5.8-3.4
					c0,0-4,15.3-9.1,26.3c-2.5,5.4-5.7,10.9-9.9,14.9c-4.4,4.2-9.9,6.9-15.1,8.3c-10.1,2.8-21.5,10.6-26.3,16.7
					c-4.8,6-5.9,10.2-5.9,10.2l5.9,2.8c0.1-0.4,1.3-4.4,5.9-10.1C262.9,173.5,274.3,165.6,284.4,162.8z"/>
			</g>
			<path class="st13" d="M312.8,112.3c-7,6.3-19.5,16.3-46.1,30.9c-7.9,4.4-12.8,23.7-17.6,40.4c-1.7,5.8-1.3,9.5,0.7,11.4l0,0
				l0.2,2.1c0.3,0.2,2.9,1.7,4.7,2.8c1.4,0.8,3.3-0.2,2.7-0.4c-1.5-0.4-2.8-1.2-3.6-2.9c-1-2-0.3-5.5,0.9-9.8
				c4.8-16.8,9.6-36.1,17.6-40.4c19.7-10.9,31.7-19.1,39.5-25.2c0.4-0.3,6.3-5.3,6.7-5.6V114L312.8,112.3z"/>
			<path class="st14" d="M312.7,110.5c-7.2,6.5-20.1,16.7-47.5,31.8C257,146.9,252,166.7,247,184c-1.7,6-1.4,9.8,0.7,11.7l0,0l0,0
				c0.5,0.4,6.9,4.2,6.9,4.2s-1.8-1.1-2.4-2.7c-0.9-2.2-0.7-5.4,0.6-9.9c4.9-17.3,9.9-37.2,18.1-41.7c20.3-11.2,32.7-19.7,40.7-26
				c0.4-0.3,6.4-5.5,6.9-5.8L312.7,110.5z"/>
		</g>
	</g>
	<g>
		<g>
			<path class="st8" d="M109.3,266.8c0,0-8.6-5.1-14.4-12.2c-3.1-3.8,0.2-15.5-7.6-13.8c-15.2,3.4-20.8,2.8-20.3-4.2
				c0.5-8-8.6-15.2-14.6-14.8c-16.3,1.3-27-1.9-29.4-7.7c0,0,15.4,1,23.1-5.9c2.9-2.6,5.7-8.3,17.6-10.2c12.6-2.1,37.5-12.7,50.4-19
				c17-8.2,14.2-15.8,14.2-15.8s9.7-0.3,21,6.2c5.3,3.1,5.6,11.2,11.8,14.7c5,2.9,14.8,4.5,19.8,7.3c10.4,6,15.1,10.8,21.1,14.2
				c2.3,1.3,22.1,1.1,22.1,1.1s-34.2,27.5-58.4,29.2c-23.6,1.7-33,7.9-38.8,18.5C122.9,261.7,109.3,266.8,109.3,266.8z"/>
			<path class="st31" d="M158.9,182.6c-15.5,8.6-28.9,20.8-45.1,28.5c-9.7,4.6-20.6,8.3-31.2,10.1c-5.9,1-14.4,1.7-20.5,4.9
				c2.9,2.8,5.1,6.5,4.8,10.5c-0.2,3.2,0.8,5,3.5,5.8c4.3-2.3,8.8-4.2,13.2-6c10.7-4.4,20.5-9.2,29.9-16
				c16.2-11.8,31.5-25.1,48.7-35.5c-0.4-0.2-0.8-0.4-1.2-0.6C160.3,183.7,159.6,183.2,158.9,182.6z"/>
			<path class="st31" d="M107.7,191.3c-6.1,3.2-12.1,6.5-19,7.7c-6,1.1-12.1,1.8-18.1,3.2c-3.8,0.9-14.4,3.6-13.6,9.3
				c0.7,4.6,11.2,2.7,14.1,2.4c5.9-0.7,12-1.3,17.7-2.4c8.7-1.6,16.7-5.3,24.3-9.9c13.8-8.3,28.4-16.1,40.7-26.7
				c-1.2-2.3-2.6-4.3-4.7-5.6c-1.1-0.6-2.2-1.2-3.3-1.7c-3.2,1.7-6.3,3.6-9.3,5.7C127.3,179.9,117.8,186,107.7,191.3z"/>
			<path class="st31" d="M150.9,212.3c-5.1,2.5-10.6,4.4-15.9,6.5c-9.9,4-19.7,9.6-24.7,19.4c-1.5,2.9-3.1,6.6-2.8,9.9
				c0.5,5.1,6,3.8,9.5,2.5c6.9-2.7,11.1-9.2,16.4-14.6c5-5,11.3-7.9,15.3-8.7c7.8-1.6,15.5-2.5,23.2-4.9c9.3-2.9,18.2-7.1,25.7-13.4
				c1.4-1.2,2.7-2.3,4.1-3.5c-5.8-3.4-10.6-8.1-20.8-14c-5.5,3.6-10.7,7.9-16,11.8C160.4,206.6,155.8,209.8,150.9,212.3z"/>
			<path class="st32" d="M105.3,252c-2.6-2.3-3.8-5-4.6-8.3c-0.9-3.9-1.9-8.1-6.5-8.7c-6.4-0.8-17.9,6.9-21.7-1.5
				c-0.8-1.8-0.9-3.8-1.5-5.7c-0.8-2.6-2.6-5-4.7-6.7c-3.7-3-8.6-3.7-13.2-4c-6.4-0.5-13.2-0.3-18.8-3.7c-6,1.2-11.5,0.8-11.5,0.8
				c2.4,5.8,13.1,9,29.4,7.7c6-0.5,15.1,6.8,14.6,14.8c-0.5,6.9,5.1,7.6,20.3,4.2c7.8-1.8,4.6,10,7.6,13.8
				c5.8,7.1,14.4,12.2,14.4,12.2s4.9-1.8,9.6-4.8C115.6,257.8,109.7,255.9,105.3,252z"/>
			<path class="st32" d="M127.1,168.9c6.8,1.2,11.7,5.1,16.6,10.6c6.4,7.3,17.2,8.6,25.4,13.3c4.5,2.6,8.7,5.7,12.7,9
				c4.1,3.5,7.7,7.6,12.8,9.8c6,2.7,12.4,3,18.9,3c6.4-4.4,10.6-7.7,10.6-7.7s-19.8,0.2-22.1-1.1c-5.9-3.4-10.7-8.2-21.1-14.2
				c-4.9-2.8-14.7-4.4-19.8-7.3c-6.2-3.6-6.4-11.6-11.8-14.7c-11.3-6.5-21-6.2-21-6.2S129.1,165.5,127.1,168.9z"/>
		</g>
		<g>
			<path class="st33" d="M225.5,235c0,0-12,5-16.5,6.8c-8.6,3.6-23.8,4.1-32,9.3c-11.4,7.1-15.3,16.3-15.3,16.3s-8.7-6-21.3-20.3
				c-6.1-7-21.2-13.7-38.4-17.4c-10.8-2.3-23.1-5.8-29.4-14.6c-5.9-8.3-7.5-15.7-17.9-16.8c-15.7-1.6-27.1-5.9-27.1-5.9
				s5.6-7.9,20.9-11.9c8.7-2.3,12.1-11,19.2-16.4c5-3.9,17-5.5,17-5.5s11,10.6,22.3,13.3c7.4,1.8,30.6,5.2,42.1,15.6
				c5.6,5.1,14.8,12.3,21.8,16.3c7.7,4.5,17.8,4.7,25.1,8.9C217.4,225,225.5,235,225.5,235z"/>
			<g>
				<path class="st34" d="M148.8,205.7c-4.4,4.1-9.7,6.7-15.3,8.4c-7,2.1-13.9,4.1-20.5,7.4c-4.5,2.2-8.7,4.9-12.8,7.7
					c0.6,0.1,1.3,0.3,1.9,0.4c3.6,0.8,7,1.6,10.4,2.6c6.9-5.5,15.4-9,23.2-13.1c10.4-5.5,19.2-13,28.7-19.7
					c-1.6-1.1-3.3-2.4-4.9-3.6C155.6,198.7,152.4,202.3,148.8,205.7z"/>
				<path class="st34" d="M137.5,180.3c-11,7.5-19.7,18.1-31.3,24.9c-9.5,5.6-20.7,7.7-29.1,14.6c3.5,2.9,7.8,5,12.4,6.6
					c4.3-3.9,8.9-7.4,13.8-10.5c6.3-4.1,13.2-7.7,18.5-13c6.6-6.7,12.7-16.4,22-19.2C141.8,182.3,139.7,181.2,137.5,180.3z"/>
				<path class="st34" d="M53.4,183.6c6.8-4.4,12.2-10.8,19.4-14.5c5.4-2.8,11.4-3.9,16.8-6.5c-3-2.3-4.9-4.1-4.9-4.1
					s-12,1.6-17,5.5c-7.1,5.5-10.5,14.1-19.2,16.4c-15.3,4.1-20.9,11.9-20.9,11.9s3.7,1.4,9.8,2.9C42,190.9,47.7,187.3,53.4,183.6z"
					/>
				<path class="st34" d="M77.4,168.5c-7.7,3-12.6,9-19.2,13.6c-5.5,3.8-11.4,7-16.7,11.1c-1,0.8-1.9,1.6-2.8,2.4
					c0.9,0.2,1.7,0.4,2.7,0.6c7.6-8.6,18.1-13.3,29-17.2c7.2-2.6,13-6.4,19.3-10.7c1.3-0.9,2.6-1.8,4-2.6c-1.1-0.7-2.2-1.5-3.2-2.2
					C86.4,165.6,81.9,166.8,77.4,168.5z"/>
				<path class="st34" d="M86.9,171.9c-4.6,3.3-9.5,5.8-14.8,7.8c-6.5,2.5-13,4.5-19,8.2c-3.9,2.4-7.4,5.2-10.4,8.5
					c2.4,0.5,5,0.9,7.8,1.3c3.1-3.3,6.1-6.7,10.2-9c6.3-3.8,13.4-4.8,20.2-7.4c7.2-2.9,13.4-7.4,19.8-11.7c-2-0.9-3.9-2-5.6-3.1
					C92.1,168,89.4,170.1,86.9,171.9z"/>
				<path class="st34" d="M101.9,170.1c-6.3,4.3-12.4,8.9-19.5,12c-7.4,3.2-15.3,4.1-22.2,8.6c-3.1,2-5.4,4.7-7.8,7.4
					c0.7,0.1,1.5,0.2,2.2,0.2c1.6,0.2,3,0.5,4.2,0.9c4.4-2.3,8.7-4.6,13.2-6.7c7.2-3.3,14.5-5.4,22-7.9c7.2-2.3,13.1-6.4,19-11
					c0.2-0.2,0.4-0.3,0.6-0.5c-2.8-0.6-5.1-1.1-6.7-1.4C105.2,171.4,103.6,170.8,101.9,170.1z"/>
				<path class="st34" d="M110.5,177.6c-4.9,3.7-10.1,6.6-16,8.5c-7,2.3-13.9,4.2-20.7,7.2c-4.6,2-9,4.3-13.5,6.6
					c2.2,1.1,3.8,2.6,5.3,4.5c2.7-2.1,5.6-4.1,8.8-5.5c6.4-2.7,13.3-3.8,19.9-6c10.8-3.6,19.5-11.3,29.1-17.3
					c-2.8-0.7-5.5-1.4-7.9-1.9C113.9,175,112.2,176.3,110.5,177.6z"/>
				<path class="st34" d="M96.6,193.5c-6.7,2.6-13.8,3.6-20.5,6.2c-3.7,1.4-6.7,3.4-9.7,5.7c1.3,1.8,2.4,3.8,3.8,6
					c11.2-7,25.8-8.1,36.6-16.1c7.8-5.7,14.5-13.5,23-17.9c-1.6-0.5-3.3-1-4.9-1.5C115.5,181.8,107.1,189.5,96.6,193.5z"/>
				<path class="st34" d="M121.1,185c-4.8,4-9.2,8.6-14.4,12.2c-10.8,7.6-24.7,8.7-35.9,15.3c0.5,0.8,1.1,1.7,1.7,2.6
					c0.9,1.3,1.9,2.4,3.1,3.5c7.5-6.9,19.6-9.1,28.1-13.6c12.2-6.5,21-17.6,32.4-25.1c-1.4-0.6-2.8-1.1-4.2-1.6
					C128.1,179.8,124.6,182.1,121.1,185z"/>
				<path class="st34" d="M120.5,205.8c-5,4.4-11.1,7.5-16.6,11c-4.7,3-9.2,6.2-13.3,9.9c1.7,0.6,3.5,1.1,5.2,1.5
					c8-7.8,18.1-13.4,27-20c8.8-6.7,15.6-16.6,25.7-21.3c-0.9-0.8-1.9-1.5-3-2.2C134.6,187.3,128.6,198.7,120.5,205.8z"/>
				<path class="st34" d="M149.4,187.7c-10.1,4.8-16.6,14.5-25.4,21.3c-8.8,6.8-18.1,12.3-26.2,19.7c0.3,0.1,0.6,0.2,1,0.2
					c10.1-7.3,20.8-12.4,33-15.8c8-2.2,13.9-6.2,19.6-12.1c2.1-2.2,4.3-4.3,6.6-6.2C154.8,192.4,151.8,189.9,149.4,187.7z"/>
				<path class="st34" d="M170.8,203.7c-1.7-1-3.6-2.2-5.5-3.5c-9,6.9-17.9,14.2-27.9,19.6c-8,4.3-15.9,7.9-23,13.1
					c2.5,0.8,4.9,1.7,7.2,2.6c3.2-2.9,6.8-5.3,10.8-7.3c6.6-3.2,14.1-4.6,20.3-8.5c6.1-3.8,12.4-10.9,19.4-15.2
					C171.7,204.2,171.3,204,170.8,203.7z"/>
				<path class="st34" d="M152.7,221.4c-5.5,3.2-12.1,4.6-18,7.2c-4.3,2-8.3,4.4-11.8,7.4c1.9,0.8,3.7,1.6,5.3,2.4
					c7.1-4.6,15.3-7.3,23.1-10.7c11.2-4.9,20.3-12.8,29.9-20.1c-2.5-0.7-4.9-1.4-7.2-2.4C166.4,209.5,159.9,217.2,152.7,221.4z"/>
				<path class="st34" d="M182.7,208c-9,7.2-17.8,14.8-28.2,19.8c-8.4,4-16.9,6.8-24.5,11.5c4.5,2.4,8.1,5,10.4,7.7
					c0.7,0.8,1.5,1.7,2.2,2.4c2.7-3.6,5.9-6.8,9.5-9.6c5-3.9,10.7-6.8,15.6-10.7c7.2-5.7,13.8-14.8,22.4-19.1
					C187.7,209.3,185.2,208.7,182.7,208z"/>
				<path class="st34" d="M195.9,212.6c-1-0.6-2.1-1.1-3.3-1.6c-9,4.5-15.3,12.2-23.2,18.6c-4.5,3.7-9.8,6.4-14.5,9.8
					c-4.4,3.1-8.2,6.7-11.5,10.7c1,1.1,2.1,2.2,3,3.2c7.1-9.6,18.3-14.3,28.1-21.2c7.7-5.4,14.8-14.5,23.9-18.2
					C197.6,213.6,196.8,213.1,195.9,212.6z"/>
				<path class="st34" d="M199.9,215c-9.4,3.6-16.4,12.9-24.5,18.6c-5.2,3.6-10.8,6.5-16.1,10c-4.7,3.1-8.5,6.7-11.7,11.1
					c1,1,2,2,2.9,2.9c3.6-8.9,12.8-14.6,21.7-17.7c7.7-2.7,15.7-4.2,23.3-7.1c6.4-2.4,12.7-5.3,19.1-7.8
					C210.8,222.1,206,218.7,199.9,215z"/>
				<path class="st34" d="M216.2,226.3c-12.8,5.4-25.9,10-39.3,13.7c-10.5,2.9-21.1,8.5-25.3,18.6c6.4,6.1,10.2,8.7,10.2,8.7
					s3.9-9.2,15.3-16.3c8.2-5.1,23.5-5.7,32-9.3c4.5-1.9,16.5-6.8,16.5-6.8S222.8,231.6,216.2,226.3z"/>
			</g>
			<path class="st35" d="M74,168.8c4,2,8.3,3.4,12.6,4.7c8.1,2.4,16.2,4.4,24.1,7.4c13.5,5,26.6,11.2,39,18.6
				c11.6,6.8,21.8,15.2,32.8,22.8c8.3,5.7,19.7,11.4,28.1,19c1.9-0.8,4.3-1.8,6.7-2.8c-4.6-5.8-10.6-10.4-17.5-14.1
				c-10.2-5.4-21.2-9.1-31.3-14.8c-11.3-6.3-20.4-15.7-31.7-22c-11.1-6.1-23.9-9-35.9-12.7c-10.4-3.3-20.8-6.9-30.1-12.6
				c-1.2,0.5-2.3,1.1-3.1,1.8c-0.3,0.2-0.6,0.5-0.9,0.8C69.1,166.1,71.5,167.5,74,168.8z"/>
			<path class="st35" d="M61.8,182.7c6.7,3.8,14.2,5.3,21.5,7.2c13.3,3.5,26,8.9,38,15.6c12.9,7.2,25,15.7,37.8,23.2
				c6.1,3.6,11.4,8.3,17.5,11.8c3.9,2.3,8,4,11.8,6.3c1.4-0.3,2.9-0.7,4.4-1c-7.6-4.6-14.9-9.6-22.1-14.8
				c-12.6-9.2-24-20.2-37.5-28.1c-14.6-8.6-31.8-14.1-48.1-18.5c-7.4-2-14.6-4.5-21.9-6.4c-2.4-0.6-4.9-1.1-7.3-1.8
				c-0.6,0.5-1.1,1-1.7,1.4C56.6,179.3,59.1,181.2,61.8,182.7z"/>
			<path class="st35" d="M172.7,250.4c-5-5.3-10.6-9.5-16.9-13.2c-12.4-7.3-25.5-13.5-37.9-20.9c-23.3-13.8-46.3-28.8-73-34.8
				c-0.9,0.3-1.8,0.6-2.6,0.9c4.7,1.2,9.5,2.3,14.1,3.7c6.1,1.8,11.9,4.7,17.6,7.6c5.8,3,11,6.6,16,10.7c5.5,4.6,11.7,8,18.2,11.1
				c6.5,3.1,13.2,5.5,19.3,9.3c5.8,3.6,11.4,7.6,17.1,11.4c5.4,3.7,10.7,7.5,15.6,11.9c3,2.8,5.6,6.4,8.8,9.1
				c1.6-1.6,3.5-3.2,5.7-4.8C174.1,251.8,173.4,251.1,172.7,250.4z"/>
			<path class="st35" d="M151.9,251.2c-9-9.3-18.4-16.3-30.6-21c-11.3-4.4-24.6-6.8-34.2-14.4c-8.9-7-14.5-17.6-25.2-22.2
				c-9.4-4.1-20-5.2-30.2-5.1c-2.8,2.2-4,3.9-4,3.9s11.5,4.3,27.1,5.9c10.4,1,12,8.4,17.9,16.8c6.3,8.9,18.6,12.4,29.4,14.6
				c17.2,3.6,32.3,10.4,38.4,17.4c12.6,14.3,21.3,20.3,21.3,20.3s0.7-1.7,2.4-4.1C159.8,259.5,155.8,255.3,151.9,251.2z"/>
		</g>
		<g>
			
				<image style="overflow:visible;" width="18" height="40" xlink:href="2F10A30BDD12FFF8.png"  transform="matrix(1 0 0 1 101 157.6)">
			</image>
			<path class="st23" d="M103.3,200.8c0,0-6.7-3.2-9-4.9c-2.2-1.7-0.6-5.3,1.4-10c2-4.7,6.1-13.4,5.3-14.7c-0.8-1.2-6.3-2.1-7.7-5.8
				c-1.4-3.7,1.5-4.3,4.6-2.3c3.1,2,5,2.1,7.4,2.9c2.4,0.8,3,2.9,1.6,5.7c-1.4,2.8-2.2,7.9-2.1,12.2c0.1,3.1-2.3,6.4-2.3,6.4
				l7.5,3.8L103.3,200.8z"/>
			<path class="st13" d="M131.4,199c0,0-4.1-10.6-10.8-10.6c-3.9-1.5-6.9-3.3-6.9-3.3s-2.9,0.9-4.9,2.8c-2,2-1.8,6.8-1.8,6.8
				l15.3,11.7L131.4,199z"/>
			<path class="st14" d="M124.3,204.9c0,0-0.1-6.4-3.9-9.9c-1.4-1.3-4.8-2.2-6.5-0.8c-4.1-2.2-8.1-3.8-8.1-3.8
				c-3.1,1.2-4.9,2.2-6.2,4.6c-1.4,2.5-0.6,6.9-0.6,6.9s10.9,8.1,16.7,10.7C118.3,213.7,124.3,204.9,124.3,204.9z"/>
			<path class="st23" d="M152,214.9c0,0,2.4,6.9,6.8,9.4c3.2,1.8,2.9-5.4,2.9-5.4l-5.2-6.5L152,214.9z"/>
			<path class="st10" d="M152.9,202.1c-3.4-1.6-9.5-3.2-16.8-3.7c-3.1-0.2-5.3-3.2-7.3-4.3c-3.6,1.1-8.3,4.9-10.7,7.6
				c-3.5,4-2.4,10.8-2.4,10.8s14.3,10.4,18.4,11c4.1,0.5,15.6-2.4,18.4-8.3C155.4,209.4,154.4,202.8,152.9,202.1z"/>
			<path class="st23" d="M141.6,205.7c-1.5,1.6,0.5,4,1.5,6.9c0.8,2.6,1.3,5.8,4.9,3.6c3.6-2.2,2.7-8.9,2.7-8.9L141.6,205.7z"/>
			<path class="st24" d="M157.9,205.3c0,0,1.8,0.5,1.6,2.3c-0.1,1.8,0.4,3.8,0,4.5c-0.4,0.7-3.3,3.3-4,2.8c-0.7-0.5-1.2-3-1.2-3
				L157.9,205.3z"/>
			<path class="st24" d="M156.5,208.6c0,0,3.4,2,5.6,6.4c2.3,4.5,2,9.5,0,10.1c-2,0.5-4.3-1.4-5.1-3.2c-0.7-1.8-1.4-9-1.4-9
				L156.5,208.6z"/>
			<g>
				<path class="st24" d="M153.6,198.2c2.4-0.1,3.4,2.6,4.5,5c1.2,2.6,0.6,8.1-0.3,9.4c-1.4,2.1-2.7,3.3-5.4,3.3
					c-3.6,0-6.3-4.3-7.7-6.9C141.6,202.9,147.2,198.4,153.6,198.2z"/>
				<path class="st13" d="M141.6,200.1c1.1-2.5,4.8-4.6,7.3-3.1c0.5-1,1.3-2,2.2-2.5c1.7-0.9,4.5-0.8,5.8,0.8
					c0.5-0.6,1.6-0.8,2.3-0.3c1,0.8,1,2.2,0.4,3.2c0.6,0,1.2,0.3,1.6,0.9c0.8,1,0.5,2.4-0.3,3.4c-1.7,2.2-5.4,2.6-7.3,0.6
					c0,0,0,0,0-0.1c-1,1.8-3.3,3.2-5.1,3.1c-0.1,0.6-0.2,1.2-0.5,1.8c-0.5,1.2-1.1,3.2-1.2,4.6C143.1,210,139.9,203.8,141.6,200.1z"
					/>
				<path class="st24" d="M149.4,209c0,0-2.2-2.7-3.3-0.9c-1.1,1.7,1.6,3.9,1.6,3.9L149.4,209z"/>
			</g>
			<path class="st24" d="M127.5,214.1c-2.2,1.3-2.4,3.3,0.2,5.5c1.1,0.9,3,1.3,4.4,1.8c0.9,2.1,3.9,6.5,5,7.7
				c4.8,5.3,6.1,3.4,8.2,2.3c5.5-2.8,6.3-11.3,7-12.7c0.8-1.9,1.5-3.9-1.1-4.6c-1.3-0.3-2.9-0.9-4.2-2c-0.2-1.4-0.4-2.2-1.3-1.7
				c-0.2,0.1-0.4,0.2-0.5,0.4c-1.5-0.1-1.4,2.8,0,4.3c1.9,2,2.7,3,2.7,3l-4.7,6.3c0,0-0.8-2.9-2.5-6.6c1.2-3.6-1-5.7-3.9-6
				C134.4,211.5,129.9,212.6,127.5,214.1z"/>
			<path class="st23" d="M147.4,211.7c0,0,0.3,1.6,1.3,2.3c1,0.7,1.5,0.6,2.7,0.9c1.1,0.3,1.7,1,1.7,1s0.3-1.1-0.8-1.6
				c-1.1-0.4-1.9-0.2-2.8-0.8C148.4,212.9,147.4,211.7,147.4,211.7z"/>
			<path class="st23" d="M158.7,206.3c0,0-0.1,3-0.8,5c-0.6,2-2.2,3.5-2.2,3.5s1.4-0.3,2.5-2.8C159.4,209.5,158.7,206.3,158.7,206.3
				z"/>
		</g>
		<g>
			<polygon class="st36" points="191.6,231.8 165.6,246.8 147.2,236.1 173.2,221.1 			"/>
			<polygon class="st36" points="191.6,231.1 165.6,246.1 147.2,235.4 173.2,220.4 			"/>
			<path class="st37" d="M191.6,229.2v1.9l-26,15v-1.9c0,0,6.4-5.5,13.9-11C186.9,227.8,191.6,229.2,191.6,229.2z"/>
			<path class="st8" d="M191.6,229.2c0,0-7.5,2.1-9.8,4c-0.6,0.5-2.2,2.9-2.2,2.9l-0.7,0.4c0,0-1.8,0-2.7,0.4
				c-3,1.2-10.6,7.3-10.6,7.3l-18.4-10.7c0,0,8.3-5.8,11.1-7.4c0.5-0.3,2.2-0.3,2.2-0.3l0.7-0.4c0,0,2.3-2.3,3.3-2.9
				c2-1.2,8.7-4,8.7-4L191.6,229.2z"/>
			<g>
				<path class="st38" d="M163.7,226l-1.1-0.6c0,0,1.9-1.8,2.9-2.4c2-1.2,8.1-3.7,8.1-3.7l1,0.6c-0.8,0.3-6.1,2.6-8,3.7
					C165.5,224.2,163.7,226,163.7,226z"/>
				<path class="st38" d="M159.2,226.7c0.5-0.3,1.5-0.3,1.5-0.3l1.1,0.6c0,0-0.9,0-1.5,0.3c-2.8,1.6-10.2,6.8-10.2,6.8l-1.1-0.6
					C149,233.4,156.4,228.3,159.2,226.7z"/>
				<path class="st38" d="M165.4,227l-1.1-0.6c0,0,1.9-1.8,2.9-2.4c2-1.2,8.1-3.7,8.1-3.7l1,0.6c-0.8,0.3-6.1,2.6-8,3.7
					C167.3,225.2,165.4,227,165.4,227z"/>
				<path class="st38" d="M160.9,227.7c0.5-0.3,1.5-0.3,1.5-0.3l1.1,0.6c0,0-0.9,0-1.5,0.3c-2.8,1.6-10.2,6.8-10.2,6.8l-1.1-0.6
					C150.8,234.4,158.1,229.3,160.9,227.7z"/>
			</g>
			<g>
				<path class="st38" d="M167,228l-1.1-0.6c0,0,1.9-1.8,2.9-2.4c2-1.2,8.1-3.7,8.1-3.7l1,0.6c-0.8,0.3-6.1,2.6-8,3.7
					C168.9,226.2,167,228,167,228z"/>
				<path class="st38" d="M162.5,228.6c0.5-0.3,1.5-0.3,1.5-0.3l1.1,0.6c0,0-0.9,0-1.5,0.3c-2.8,1.6-10.2,6.8-10.2,6.8l-1.1-0.6
					C152.4,235.4,159.8,230.2,162.5,228.6z"/>
				<path class="st38" d="M168.7,229l-1.1-0.6c0,0,1.9-1.8,2.9-2.4c2-1.2,8.1-3.7,8.1-3.7l1,0.6c-0.8,0.3-6.1,2.6-8,3.7
					C170.6,227.1,168.7,229,168.7,229z"/>
				<path class="st38" d="M164.3,229.6c0.5-0.3,1.5-0.3,1.5-0.3l1.1,0.6c0,0-0.9,0-1.5,0.3c-2.8,1.6-10.2,6.8-10.2,6.8l-1.1-0.6
					C154.1,236.4,161.5,231.2,164.3,229.6z"/>
			</g>
			<g>
				<path class="st38" d="M170.5,229.9l-1.1-0.6c0,0,1.9-1.8,2.9-2.4c2-1.2,8.1-3.7,8.1-3.7l1,0.6c-0.8,0.3-6.1,2.6-8,3.7
					C172.3,228.1,170.5,229.9,170.5,229.9z"/>
				<path class="st38" d="M166,230.6c0.5-0.3,1.5-0.3,1.5-0.3l1.1,0.6c0,0-0.9,0-1.5,0.3c-2.8,1.6-10.2,6.8-10.2,6.8l-1.1-0.6
					C155.8,237.3,163.2,232.2,166,230.6z"/>
				<path class="st38" d="M172.2,230.9l-1.1-0.6c0,0,1.9-1.8,2.9-2.4c2-1.2,8.1-3.7,8.1-3.7l1,0.6c-0.8,0.3-6.1,2.6-8,3.7
					C174.1,229.1,172.2,230.9,172.2,230.9z"/>
				<path class="st38" d="M167.7,231.6c0.5-0.3,1.5-0.3,1.5-0.3l1.1,0.6c0,0-0.9,0-1.5,0.3c-2.8,1.6-10.2,6.8-10.2,6.8l-1.1-0.6
					C157.5,238.3,164.9,233.2,167.7,231.6z"/>
			</g>
			<g>
				<path class="st38" d="M173.8,231.9l-1.1-0.6c0,0,1.9-1.8,2.9-2.4c2-1.2,8.1-3.7,8.1-3.7l1,0.6c-0.8,0.3-6.1,2.6-8,3.7
					C175.7,230.1,173.8,231.9,173.8,231.9z"/>
				<path class="st38" d="M169.3,232.6c0.5-0.3,1.5-0.3,1.5-0.3l1.1,0.6c0,0-0.9,0-1.5,0.3c-2.8,1.6-10.2,6.8-10.2,6.8l-1.1-0.6
					C159.2,239.3,166.5,234.2,169.3,232.6z"/>
				<path class="st38" d="M175.5,232.9l-1.1-0.6c0,0,1.9-1.8,2.9-2.4c2-1.2,8.1-3.7,8.1-3.7l1,0.6c-0.8,0.3-6.1,2.6-8,3.7
					C177.4,231,175.5,232.9,175.5,232.9z"/>
				<path class="st38" d="M171.1,233.5c0.5-0.3,1.5-0.3,1.5-0.3l1.1,0.6c0,0-0.9,0-1.5,0.3c-2.8,1.6-10.2,6.8-10.2,6.8l-1.1-0.6
					C160.9,240.3,168.3,235.1,171.1,233.5z"/>
			</g>
			<g>
				<path class="st38" d="M177.2,233.9l-1.1-0.6c0,0,1.9-1.8,2.9-2.4c2-1.2,8.1-3.7,8.1-3.7l1,0.6c-0.8,0.3-6.1,2.6-8,3.7
					C179.1,232,177.2,233.9,177.2,233.9z"/>
				<path class="st38" d="M172.7,234.5c0.5-0.3,1.5-0.3,1.5-0.3l1.1,0.6c0,0-0.9,0-1.5,0.3c-2.8,1.6-10.2,6.8-10.2,6.8l-1.1-0.6
					C162.5,241.3,169.9,236.1,172.7,234.5z"/>
				<path class="st38" d="M178.9,234.8l-1.1-0.6c0,0,1.9-1.8,2.9-2.4c2-1.2,8.1-3.7,8.1-3.7l1,0.6c-0.8,0.3-6.1,2.6-8,3.7
					C180.8,233,178.9,234.8,178.9,234.8z"/>
				<path class="st38" d="M174.4,235.5c0.5-0.3,1.5-0.3,1.5-0.3l1.1,0.6c0,0-0.9,0-1.5,0.3c-2.8,1.6-10.2,6.8-10.2,6.8l-1.1-0.6
					C164.3,242.2,171.7,237.1,174.4,235.5z"/>
			</g>
			<polygon class="st38" points="179.6,236.1 178.8,236.5 160.4,225.9 161.1,225.4 			"/>
			<polygon class="st10" points="191.6,231.1 191.6,231.8 165.6,246.8 165.6,246.1 			"/>
			<polygon class="st12" points="147.2,235.4 147.2,236.1 165.6,246.8 165.6,246.1 			"/>
			<path class="st39" d="M180.9,237.2c0,0-0.4-1.9-1.7-1c-1.5,1-1.3,2.7-1.3,2.7L180.9,237.2z"/>
			<polygon class="st39" points="147.2,233.5 147.2,235.4 165.6,246.1 165.6,244.2 			"/>
		</g>
	</g>
	<path class="st0" d="M83.7,124.9c-0.9,0-1.7,0-2.5,0.1c-0.9-0.8-1.9-1.5-3.1-2.2l-5.7-3.3c-8.9-5.1-22.5-5.7-30.3-1.3L11.4,136
		c-7.7,4.5-6.7,12.3,2.2,17.5l5.7,3.3c8.9,5.1,22.5,5.7,30.3,1.3L75,143.3c2.6,0.7,5.6,1.1,8.7,1.1c10.6,0,19.3-4.4,19.3-9.8
		C103,129.2,94.4,124.9,83.7,124.9z"/>
	<polygon class="st0" points="377.2,239.1 288.6,290.3 238.6,261.9 327.2,210.7 	"/>
	<g>
		<g>
			<path class="st5" d="M77.4,115.6l-4.2,8.3l-4.7-2.7c-7.7-4.5-19.6-5-26.3-1.1l-24.6,14.2l-4.5-8.9c-3.8,2.6-4.7,6.6-4.7,12.1
				c0,5.4,4.1,9.4,6.3,11.2c0.8,0.6,7.8,4.8,7.8,4.8c7.7,4.5,19.6,5,26.3,1.1l26.7-15.4c0.5-0.3,1.8-1.2,2.4-1.7
				c1.6-1.4,4.4-4.6,4.4-9.9C82.1,122.2,81.2,118.1,77.4,115.6z"/>
			<path class="st7" d="M17.5,134l-2.2-4.4c-2.6,2.8-3.8,6.6-3.6,10.6c0.1,2.8,1,5.1,1.9,7.5c0.4,0.4,0.8,0.8,1.2,1.1
				c0.2,0.2,1.2,0.8,2.3,1.5C15.5,144.7,15.1,139,17.5,134z"/>
			<path class="st7" d="M25.6,152.5c-0.9-3-0.5-6.3-0.3-9.4c0.3-4.9,0.9-9.8,2.3-14.5l-4.2,2.4c-1.6,5-5,16.6-1.8,22
				c0.5,0.3,0.8,0.5,0.8,0.5c1.3,0.7,2.7,1.4,4.2,1.9C26.3,154.5,25.9,153.5,25.6,152.5z"/>
			<path class="st7" d="M36.6,140.6l-4.5-1c-1.1,5.2-1.3,12.8,0.6,17.3c1.4,0.2,2.8,0.3,4.2,0.3c0.1-1.8,0.1-3.6,0-5.4
				C36.6,148.1,36.5,144.3,36.6,140.6z"/>
			<path class="st7" d="M47.9,135.9v4.6h-5.1c0,3.2,0,6.4,0.1,9.6c0.1,2.2,0,4.4,0,6.5c2.2-0.4,4.2-1.1,5.9-2.1l0.7-0.4
				c0.2-1.7,0.2-3.3,0.3-4.5c0.2-4.7-1.3-9.2-1.6-13.8H47.9z"/>
			<path class="st7" d="M55.9,127.2v8.7h-2.2c1.2,4.8,1.9,9.8,1.8,14.7l5.3-3.1c0.3-6.9-1.4-14-3.4-20.4H55.9z"/>
			<path class="st7" d="M68.5,128.6c-0.2-0.5-0.3-1-0.6-1.4h-5.3c1,3.1,1.5,6.3,1.9,9.5c0.3,2.7,0.8,5.5,0.9,8.2l4.5-2.6
				c0.1-1.9,0-3.9-0.2-5.9C69.5,133.9,69.3,131.2,68.5,128.6z"/>
			<path class="st7" d="M75.6,139.1c0.6-0.4,1.6-1.1,2.1-1.5c0.2-0.2,0.4-0.4,0.7-0.6c0.4-2.3,0.5-4.7,0.1-7c-0.4-3-1.4-7.1-3.4-9.9
				l-1.5,3c1,2.4,1.2,5.4,1.4,7.9C75.1,133.4,75.6,136.3,75.6,139.1z"/>
			<path class="st6" d="M75.4,127.3l-26.7,15.4c-6.7,3.9-18.5,3.4-26.3-1.1l-5-2.9c-7.7-4.5-8.6-11.3-1.9-15.2l26.7-15.4
				c6.7-3.9,18.5-3.4,26.3,1.1l5,2.9C81.2,116.6,82.1,123.4,75.4,127.3z"/>
			<path class="st40" d="M73.4,126.6l-26.5,14.5c-5.9,3.4-16.4,3-23.2-1l-4.4-2.5c-6.8-4-7.6-10-1.7-13.4l26.5-14.5
				c5.9-3.4,16.4-3,23.2,1l4.4,2.5C78.5,117.2,79.3,123.2,73.4,126.6z"/>
			<path class="st6" d="M46.2,122.8c-2,0-3.5,0.8-3.5,1.8c0,1,1.6,1.8,3.5,1.8s3.5-0.8,3.5-1.8C49.8,123.6,48.2,122.8,46.2,122.8z"
				/>
			<path class="st6" d="M18,129c0,0,5.5-3.3,11-4c5.5-0.7,9.9,0.6,9.9,0.6s-4.5,0.2-9.9,1.3C23.6,128.1,18,129,18,129z"/>
			<path class="st6" d="M51.6,124.2c0,0,4.2-4,10.2-4.9c6-0.9,11.8,1.6,11.8,1.6s-5.7-0.2-11,0.5C57.3,122.2,51.6,124.2,51.6,124.2z
				"/>
			<path class="st23" d="M52.6,109c0,0-2.4,1.9-3.5,5.5c-1.1,3.6-1.4,7.1-1.4,7.1s2-3.9,3.3-7.1C52.4,111.3,52.6,109,52.6,109z"/>
			<path class="st6" d="M45.3,128.1c0,0-3.4,1.8-5.1,5.7c-1.7,3.9-0.9,8.1-0.9,8.1s2.3-5,3.4-8.1C43.8,130.7,45.3,128.1,45.3,128.1z
				"/>
			<path class="st23" d="M41.7,121.3c0,0-3.6-1-5.6-2.7c-2-1.7-2-1.7-2-1.7s2.2-0.4,4.5,1C40.7,119.2,41.7,121.3,41.7,121.3z"/>
			<path class="st6" d="M58.5,131.9c0,0-3.6-1-5.6-2.7c-2-1.7-2-1.7-2-1.7s2.2-0.4,4.5,1C57.5,129.9,58.5,131.9,58.5,131.9z"/>
			<path class="st23" d="M55.6,118.5c0,0,1.4-2.8,4.7-4.4c3.3-1.5,5.8-1.4,5.8-1.4s-3.4,1.4-5.8,2.9
				C57.9,117.1,55.6,118.5,55.6,118.5z"/>
			<path class="st6" d="M24.8,136.2c0,0,1.4-2.8,4.7-4.4c3.3-1.5,5.8-1.4,5.8-1.4s-3.4,1.4-5.8,2.9
				C27.1,134.8,24.8,136.2,24.8,136.2z"/>
		</g>
		<g>
			<path class="st3" d="M65.5,116.9c1.2-1.8,2.5-4.4,2.5-7.6c0-4.9-1.7-8-5.1-10.8H34.9c-3.4,2.7-5.1,5.8-5.1,10.8
				c0,2.5,1.2,5.5,2.1,7.2c0.5,1,2.4,3.1,3.4,3.8c3,2.1,7.9,3.5,13.5,3.5c5.5,0,10.4-1.4,13.4-3.4C63.7,119.3,65,117.5,65.5,116.9z"
				/>
			<path class="st38" d="M54,117.9c-0.1,1.8-0.3,3.6-0.3,5.4c1-0.2,1.9-0.3,2.8-0.6c1.7-5.2,0.5-14.9-3.3-17.3
				C54.2,109.5,54.1,113.9,54,117.9z"/>
			<path class="st38" d="M47.3,106c-3.1,3.3-3.9,12.2-2.7,17.3c0.8,0.1,1.6,0.2,2.4,0.2C46,117.8,46.7,111.7,47.3,106z"/>
			<path class="st38" d="M41.6,104.1c-2.8,2.2-4.2,4.4-5.1,7c-1,2.9-1.2,7-0.4,9.6c0.6,0.4,1.3,0.7,2,1
				C37.8,116.8,39.6,108.9,41.6,104.1z"/>
			<path class="st38" d="M30.1,111.7c0.3,1.3,0.8,2.5,1.2,3.6c0.2-4.2,1.9-8.3,5-11.4C32.4,105.4,30.9,107.3,30.1,111.7z"/>
			<path class="st38" d="M65.5,116.9c2.3-5.8-0.2-12.4-5.4-13.1c2.3,2.2,3.9,4.8,4.1,7.3c0.3,3-0.2,6-1.3,8.6
				C64,118.8,65.2,117.5,65.5,116.9z"/>
			<path class="st41" d="M48.8,94.6c-9.2,0-16.7,3.8-16.7,8.4s7.5,8.4,16.7,8.4c9.2,0,16.7-3.8,16.7-8.4S58,94.6,48.8,94.6z"/>
			<ellipse class="st8" cx="49" cy="102.6" rx="12.5" ry="6.3"/>
			<path class="st3" d="M48.8,101.8c-2,0-3.5,0.8-3.5,1.8c0,1,1.6,1.8,3.5,1.8s3.5-0.8,3.5-1.8C52.4,102.6,50.8,101.8,48.8,101.8z"
				/>
			<path class="st3" d="M53.5,103.1c0,0,3.2-1.9,6-1.9c2.7-0.1,4.9,2,4.9,2s-2.3-0.5-4.9-0.4C56.9,102.7,53.5,103.1,53.5,103.1z"/>
			<path class="st3" d="M43.6,103.1c0,0-3.2-1.9-6-1.9c-2.7-0.1-4.9,2-4.9,2s2.3-0.5,4.9-0.4C40.3,102.7,43.6,103.1,43.6,103.1z"/>
			<path class="st3" d="M48.9,95.4c0,0-1.1,1.2-1.1,2.5s1.1,3.2,1.1,3.2s1.2-2.2,1.2-3.3S48.9,95.4,48.9,95.4z"/>
			<path class="st3" d="M48.9,106c0,0-1.1,1.1-1.1,2.4c0,1.3,1.1,1.9,1.1,1.9s1.2-0.9,1.2-2C50,107.4,48.9,106,48.9,106z"/>
		</g>
		<g>
			<path class="st3" d="M95.8,138.9c2.1-0.7,4.6-2,6.6-4.6c3-3.9,3.5-7.5,2.4-11.7l-22.3-16.8c-4.3,0.1-7.6,1.6-10.6,5.5
				c-1.5,2-2.3,5.2-2.6,7c-0.2,1.1,0.1,3.9,0.5,5.1c1.2,3.5,4.2,7.6,8.7,10.9c4.4,3.3,9.1,5.2,12.8,5.4
				C92.9,139.7,95.1,139.1,95.8,138.9z"/>
			<path class="st38" d="M86.1,132.8c-1.1,1.4-2.4,2.7-3.4,4.1c0.9,0.5,1.7,0.9,2.6,1.2c4.5-3.1,9.3-11.6,7.8-15.8
				C91.3,126.2,88.6,129.6,86.1,132.8z"/>
			<path class="st38" d="M87.8,119.2c-4.5,0.7-10.5,7.3-12.6,12.2c0.6,0.6,1.2,1.1,1.8,1.7C79.7,127.9,84,123.4,87.8,119.2z"/>
			<path class="st38" d="M84.5,114.3c-3.5,0.1-6,1-8.3,2.5c-2.6,1.7-5.2,4.8-6.1,7.4c0.3,0.7,0.6,1.3,1,2
				C73.8,122.2,80,116.9,84.5,114.3z"/>
			<path class="st38" d="M70.7,113.4c-0.5,1.2-0.9,2.5-1.2,3.6c2.7-3.2,6.5-5.5,10.9-6.1C76.3,109.8,74,110.4,70.7,113.4z"/>
			<path class="st38" d="M95.8,138.9c5.4-3.2,7.3-10,3.6-13.7c0.5,3.2,0.2,6.2-1.1,8.3c-1.6,2.6-3.8,4.7-6.3,6.1
				C93.5,139.5,95.3,139.2,95.8,138.9z"/>
			<path class="st41" d="M95.9,111.1c-7.4-5.6-15.6-7-18.4-3.3c-2.8,3.7,0.9,11.2,8.2,16.8c7.4,5.6,15.6,7,18.4,3.3
				C107,124.1,103.3,116.6,95.9,111.1z"/>
			<path class="st8" d="M95.1,112.5c-5.5-4.2-11.7-5.3-13.8-2.5c-2.1,2.8,0.7,8.4,6.2,12.6c5.5,4.2,11.7,5.3,13.8,2.5
				C103.4,122.3,100.6,116.7,95.1,112.5z"/>
			<path class="st3" d="M91.6,116.8c-1.6-1.2-3.3-1.5-3.9-0.7c-0.6,0.8,0.2,2.4,1.7,3.6c1.6,1.2,3.3,1.5,3.9,0.7
				C93.9,119.6,93.2,118,91.6,116.8z"/>
			<path class="st3" d="M94.6,120.6c0,0,3.7,0.5,5.9,2.1c2.2,1.6,2.7,4.5,2.7,4.5s-1.5-1.8-3.6-3.3
				C97.5,122.4,94.6,120.6,94.6,120.6z"/>
			<path class="st3" d="M86.7,114.7c0,0-1.5-3.4-3.6-5.2c-2.1-1.7-5.1-1.4-5.1-1.4s2.1,1,4.2,2.6C84.3,112.4,86.7,114.7,86.7,114.7z
				"/>
			<path class="st3" d="M95.5,111.7c0,0-1.6,0.3-2.4,1.3c-0.8,1-1,3.2-1,3.2s2.3-1.1,2.9-1.9C95.5,113.5,95.5,111.7,95.5,111.7z"/>
			<path class="st3" d="M89.1,120.2c0,0-1.6,0.2-2.4,1.3c-0.8,1-0.2,2.2-0.2,2.2s1.5,0,2.1-0.9C89.2,121.9,89.1,120.2,89.1,120.2z"
				/>
		</g>
	</g>
	<g>
		<g>
			<polygon class="st18" points="251.2,250.1 250.9,244.1 264.8,222.1 269.3,221.2 			"/>
			<polygon class="st42" points="252.7,253.4 252.5,247.4 266.3,225.4 270.8,224.4 			"/>
		</g>
		<g>
			<polygon class="st42" points="368.2,206.9 368.2,241.2 372.1,238.9 372.1,206.9 			"/>
			<polygon class="st43" points="364.3,206.9 364.3,238.9 368.2,241.2 368.2,206.9 			"/>
		</g>
		<g>
			<polygon class="st42" points="249.7,230.3 249.7,264.5 253.6,262.3 253.6,230.3 			"/>
			<polygon class="st43" points="245.8,230.3 245.8,262.3 249.7,264.5 249.7,230.3 			"/>
		</g>
		<g>
			<g>
				<polygon class="st18" points="291.1,271.2 290.9,265.2 304.7,243.2 309.2,242.3 				"/>
				<polygon class="st42" points="292.6,271.2 292.4,265.1 306.2,243.2 310.7,242.2 				"/>
			</g>
			<g>
				<polygon class="st42" points="293,284.6 289.1,286.8 289.1,250.1 293,247.8 				"/>
				<polygon class="st43" points="285.2,284.6 289.1,286.8 289.1,250.1 285.2,247.8 				"/>
			</g>
			<polygon class="st42" points="370.2,223 355.4,216.6 350.6,220.3 370.2,229 			"/>
			<g>
				<polygon class="st18" points="372.1,205.8 289.1,253.7 246,228.9 329.1,180.9 				"/>
				<polygon class="st43" points="289.1,253.7 289.1,258.5 372.1,210.5 372.1,205.8 				"/>
				<polygon class="st16" points="246,228.9 246,233.6 289.1,258.5 289.1,253.7 				"/>
			</g>
			<g>
				<path class="st8" d="M285.4,201.8c5.9,0,6.4,1.4,21.4-3c11.3-3.3,20.7,4.9,27.2,6.9c9,2.8,10.3,6.4,8.9,11.5
					c-0.5,1.9-2.3,3-4.9,4.9c-2.2,1.7-5.5,3.4-8.9,6.6c-1.7,1.6-1.8,4.6-1.8,7.5c0,5.6,1.5,11.6,1.5,11.6s-4.3,2.3-9.3,2.3
					c0,2.3,1.5,5.8-0.7,8.3c-2.9,3.3-6.8,4.9-6.8,4.9s-1.2-12.9-2.1-19.7c-0.9-6.6,2.7-10.6,5.6-14.8c7.9-11.5-0.7-15.6-8.7-14.3
					c-8,1.2-24.9,4.2-28.2,3.7c-3.3-0.5-9.1-2.9-9.1-2.9l-4.4,2.6c0,0-1.4-4.6,2.8-7.2c2.4-1.5,7.1-3,11-4.6
					C280.5,203.1,281.8,201.8,285.4,201.8z"/>
				<path class="st44" d="M332.2,205.7c-4.1-1.4-8.2-2.7-12.2-4.1c-6.7-2.2-13.3-0.3-20,0.9c-3.5,0.6-7.2,1-10.8,0.9
					c-2.3,0-4.8-0.7-7.3-0.9c-1.2,0.7-2.1,1.8-3,3.5c-1.7,0.7-3.6,1.4-5.4,2.1c1.4-0.1,2.8-0.1,4.2,0c6.9,0.3,13,0,19.8-0.9
					c8.2-1.2,23-2.4,28.7,5.6c2.1,2.9,1.4,6.5,0,9.5c-2.7,5.6-7.2,10.1-8.9,16.2c-1.9,6.5-1.5,14.7,0.1,21.4c0.5-0.4,1-0.9,1.5-1.5
					c2.2-2.5,0.7-6,0.7-8.3c3.1,0,5.8-0.8,7.5-1.5c-1.5-3.5-2.8-7.2-3.3-11c-0.7-5.1,0.6-9,4.3-12.6c3.6-3.4,8.6-5.8,11.1-10.2
					C342.1,209.6,336.4,207.1,332.2,205.7z"/>
				<path class="st44" d="M312.7,240.7c0.1-4.4,3.6-7.9,5.8-11.7c2.5-4.3,6.2-11.6,1-15.4c-3.5-2.5-9.2-2.6-13.3-2.5
					c-5.7,0.1-10.5,1.2-16.1,1.9c-4.2,0.5-8.8,2.7-13,2.1c-4.3-0.6-8.6-3.3-12-1c-0.6,2-0.1,3.7-0.1,3.7l4.4-2.6
					c0,0,5.8,2.4,9.1,2.9c3.3,0.5,20.2-2.5,28.2-3.7c8-1.2,16.6,2.8,8.7,14.3c-2.9,4.2-6.5,8.2-5.6,14.8c0.9,6.8,2.1,19.7,2.1,19.7
					s0.9-0.4,2.2-1.1C313.7,259.5,312.5,248.9,312.7,240.7z"/>
			</g>
			<g>
				<path class="st13" d="M317.6,192v13.2h0c0.2,3.6,5.5,6.4,12.1,6.4c6.6,0,11.9-2.9,12.1-6.4h0V192H317.6z"/>
				<path class="st14" d="M317.6,192c0,3.6,5.4,6.6,12.1,6.6c6.7,0,12.1-3,12.1-6.6c0-3.6-5.4-6.6-12.1-6.6
					C323,185.4,317.6,188.3,317.6,192z"/>
				<path class="st13" d="M318.6,192c0,3.1,4.9,5.7,11,5.7s11-2.5,11-5.7c0-3.1-4.9-5.7-11-5.7S318.6,188.8,318.6,192z"/>
				<path class="st4" d="M330.8,188.5c-4.7-0.4-9.6,0.7-11.8,5c1.3,2.4,5.5,4.2,10.6,4.2c5.1,0,9.5-1.8,10.7-4.3
					C338.5,190.4,334.2,188.8,330.8,188.5z"/>
				<g>
					<path class="st3" d="M325.8,192.3c-0.2-0.5-2-9.2-9.8-12.1c-4.8-1.8-10.8,1-12.5,5.2c8.1-3.6,13.9-1.6,21.4,7.4
						C325.4,193.3,326.1,192.9,325.8,192.3z"/>
					<path class="st1" d="M317.4,183.4c-4.8-3.2-10.4-2.1-13.8,2.1c8.1-3.6,13.8-1.6,21.4,7.4c0.1,0.1,0.1,0.1,0.2,0.2
						C323.9,189,320.8,185.7,317.4,183.4z"/>
				</g>
				<g>
					<path class="st3" d="M334.3,192.3c0.2-0.5,2-9.2,9.8-12.1c4.8-1.8,10.8,1,12.5,5.2c-8.1-3.6-13.9-1.6-21.4,7.4
						C334.7,193.3,334,192.9,334.3,192.3z"/>
					<path class="st1" d="M342.7,183.4c4.8-3.2,10.4-2.1,13.8,2.1c-8.1-3.6-13.8-1.6-21.4,7.4c-0.1,0.1-0.1,0.1-0.2,0.2
						C336.2,189,339.3,185.7,342.7,183.4z"/>
				</g>
				<g>
					<path class="st3" d="M311.7,175c0,0,2.2,0,6.4,3.1c4.6,3.5,7.9,11.5,8.2,12.7c0.3,1.2,1.3,1.7,1.3-0.4c0-2.5-1.1-11.4-5.2-14.6
						C318.2,172.5,311.7,175,311.7,175z"/>
					<path class="st1" d="M327.2,191.7c0.1-4.2-1.9-8.9-4.2-12.1c-2.8-3.8-6.5-5.6-10.8-4.6c0.9,0.2,2.9,0.8,5.9,3
						c4.6,3.5,7.9,11.5,8.2,12.7C326.5,191.5,326.9,191.9,327.2,191.7z"/>
				</g>
				<g>
					<path class="st3" d="M348.3,175c0,0-2.2,0-6.4,3.1c-4.6,3.5-7.9,11.5-8.2,12.7c-0.3,1.2-1.3,1.7-1.3-0.4
						c0-2.5,1.1-11.4,5.2-14.6C341.7,172.5,348.3,175,348.3,175z"/>
					<path class="st1" d="M332.7,191.7c-0.1-4.2,1.9-8.9,4.2-12.1c2.8-3.8,6.5-5.6,10.8-4.6c-0.9,0.2-2.9,0.8-5.9,3
						c-4.6,3.5-7.9,11.5-8.2,12.7C333.5,191.5,333,191.9,332.7,191.7z"/>
				</g>
				<g>
					<path class="st3" d="M318.6,192.3c-3.6,1.9-3.3,9.4-3.3,9.4s2.8-3.8,6.1-6c2.4-1.6,4.8-1.6,5.8-2c0.4-0.2,0.4-0.7,0.1-0.9
						C325.8,191.9,322.3,190.4,318.6,192.3z"/>
					<path class="st1" d="M318.4,194.8c-1.7,1.8-2.3,4.1-2.7,6.4c0.9-1.1,3.1-3.8,5.7-5.5c2.4-1.6,4.8-1.6,5.8-2
						c0.1-0.1,0.2-0.2,0.2-0.3C325.1,191.6,320.3,192.8,318.4,194.8z"/>
				</g>
				<g>
					<path class="st3" d="M341.2,192c3.6,1.9,3.3,9.4,3.3,9.4s-2.8-3.8-6.1-6c-2.4-1.6-4.8-1.6-5.8-2c-0.4-0.2-0.4-0.7-0.1-0.9
						C334.1,191.6,337.6,190.1,341.2,192z"/>
					<path class="st1" d="M341.4,194.5c1.7,1.8,2.3,4.1,2.7,6.4c-0.9-1.1-3.1-3.8-5.7-5.5c-2.4-1.6-4.8-1.6-5.8-2
						c-0.1-0.1-0.2-0.2-0.2-0.3C334.8,191.3,339.5,192.5,341.4,194.5z"/>
				</g>
				<g>
					<path class="st3" d="M329.6,192.4c-1.5,0.1-3,2.3-3.3,6.1c-0.3,3.8,3,7.4,3,7.4s3.2-3.5,3-7.2
						C332.2,194.9,331.9,192.2,329.6,192.4z"/>
					<path class="st1" d="M329.6,192.4c-1.1,5.9-0.5,13.3-0.5,13.3c0.1,0.1,0.2,0.2,0.2,0.2s3.2-3.5,3-7.2
						C332.2,194.9,331.9,192.2,329.6,192.4z"/>
				</g>
				<g>
					<path class="st3" d="M329.2,190.2c0,0-2.2-10.9-2.3-15.5c-0.1-4.3,3.3-2.1,3.3-2.1s3.4-1.6,3.1,2c-0.4,3.7-2.5,14.7-2.8,15.6
						C330.2,191.2,329.3,191.2,329.2,190.2z"/>
					<path class="st1" d="M330.2,172.7c0,0-0.5,6.9-0.6,8.8c0,2.6,0.4,9.3,0.4,9.3c0.2-0.1,0.3-0.3,0.4-0.6
						c0.3-0.9,2.4-11.9,2.8-15.6C333.6,171.1,330.2,172.7,330.2,172.7z"/>
				</g>
			</g>
			<g>
				<polygon class="st21" points="299.3,224 271.6,230.9 278.2,242.6 305.8,235.7 				"/>
				<polygon class="st7" points="299.3,220.8 271.6,227.8 278.2,239.4 305.8,232.5 				"/>
				<polygon class="st21" points="298.2,222.6 282.4,226.5 287.3,235.2 303.1,231.3 				"/>
				<polygon class="st21" points="281.1,226.8 278.9,227.4 283.7,236 286,235.4 				"/>
				<polygon class="st21" points="277.8,227.5 275.6,228.1 280.4,236.8 282.7,236.2 				"/>
				<polygon class="st21" points="278.2,239.4 278.2,242.6 305.8,235.7 305.8,232.5 				"/>
				<polygon class="st22" points="271.6,227.8 271.6,230.9 278.2,242.6 278.2,239.4 				"/>
				<polygon class="st3" points="271.6,228.6 271.7,230.3 277.9,241.2 277.9,239.6 				"/>
			</g>
		</g>
	</g>
</g>
</svg>
