<?xml version="1.0" encoding="utf-8"?>
<!-- Generator: Adobe Illustrator 25.4.1, SVG Export Plug-In . SVG Version: 6.00 Build 0)  -->
<svg version="1.1" id="Layer_1" xmlns="http://www.w3.org/2000/svg" xmlns:xlink="http://www.w3.org/1999/xlink" x="0px" y="0px"
	 viewBox="0 0 387 289.6" style="enable-background:new 0 0 387 289.6;" xml:space="preserve">
<style type="text/css">
	.st0{fill:#3C8F7C;}
	.st1{fill:#184655;}
	.st2{fill:#F47458;}
	.st3{fill:#B75742;}
	.st4{fill:#F48C7F;}
	.st5{fill:#100062;}
	.st6{fill:#F6A390;}
	.st7{fill:#FF3B3B;}
	.st8{fill:#FAE0B2;}
	.st9{fill:#F7A491;}
	.st10{fill:#355389;}
	.st11{fill:#F7CC7F;}
	.st12{fill:#50BFA5;}
	.st13{fill:#BA2222;}
	.st14{fill:#13375B;}
	.st15{fill:#86B1F2;}
	.st16{fill:#466EB6;}
	.st17{fill:#9BC1F9;}
</style>
<g>
	<polygon class="st0" points="139.3,285.4 134.3,285.4 133,272.3 140.6,272.3 	"/>
	<polygon class="st0" points="112.1,285.4 107.2,285.4 105.8,272.3 113.5,272.3 	"/>
	<polygon class="st1" points="161.3,285.4 156.3,285.4 155.1,272.3 162.7,272.3 	"/>
	<g>
		<g>
			<g>
				<rect x="134.7" y="90.8" class="st1" width="0.9" height="45.2"/>
			</g>
			<g>
				<g>
					<rect x="127.8" y="97.3" class="st1" width="2.2" height="87.1"/>
				</g>
				<path class="st1" d="M145.4,185.4c-7.9,0-14.2-1.7-14.2-3.8c0-0.4,0.2-0.7,0.6-1.1h-0.1H126l0,0c0.5,0.4,0.6,0.7,0.6,1.2
					c0,2.7-9,3.8-14.4,3.8l0,0v0.8h33.6v-0.8l0,0C145.6,185.4,145.6,185.4,145.4,185.4z"/>
			</g>
			<path class="st1" d="M136.6,97.9h-13.7c-1.3,0-2.3-1-2.3-2.3v-1h18.2v1C138.9,96.9,137.9,97.9,136.6,97.9z"/>
			<path class="st2" d="M155.8,92.4c0,0.7-3.1,1.4-8.1,1.9c-16.7,1.5-44.6,0.4-44.6-1.9c0-0.1,17.2-31.8,17.2-31.8h18.2
				C138.7,60.6,155.8,92.3,155.8,92.4z"/>
		</g>
		<path class="st1" d="M136.8,136.5c0,0.8-0.7,1.4-1.5,1.4s-1.5-0.6-1.5-1.4c0-0.8,0.7-1.4,1.5-1.4S136.8,135.6,136.8,136.5z"/>
	</g>
	<rect x="80.8" y="186.2" class="st0" width="85.3" height="86.5"/>
	<rect x="141.4" y="186.2" class="st1" width="24.7" height="86.5"/>
	<rect x="83.3" y="214.5" class="st1" width="58.2" height="1.4"/>
	<rect x="83.3" y="238.4" class="st1" width="58.2" height="1.4"/>
	<g>
		<path class="st1" d="M317.3,285.4l-1.4-47.6c-0.1-1.6-1.1-3.1-2.6-3.6c-0.5-0.2-0.9-0.3-1.4-0.3h-0.1c-1.1,0-2.1,0.5-2.8,1.3
			c-0.7,0.8-1.1,1.8-1.1,2.9c0,0.1,0,0.2,0,0.3l4.8,47.1L317.3,285.4L317.3,285.4z"/>
		<path class="st1" d="M347.3,285.7l1.4-47.6c0.1-1.6,1.1-3.1,2.6-3.6c0.5-0.2,0.9-0.3,1.4-0.3h0.1c1.1,0,2.1,0.5,2.8,1.3
			c0.7,0.8,1.1,1.8,1.1,2.9c0,0.1,0,0.2,0,0.3l-4.8,47.1L347.3,285.7L347.3,285.7z"/>
		<path class="st3" d="M355.8,242.4h-49.1c-3.5,0-6.3-2.9-6.3-6.3l0,0c0-4.3,3.5-7.9,7.9-7.9h46.1c4.3,0,7.9,3.5,7.9,7.9l0,0
			C362.2,239.5,359.4,242.4,355.8,242.4z"/>
	</g>
	<g>
		<path class="st2" d="M291.8,284.8c-0.1-0.7-0.7-1.3-1.4-1.3h-25.6c-0.7,0-1.3,0.5-1.4,1.3H291.8z"/>
		<path class="st4" d="M272.4,283.6h-7.9c0,0,1.5-3.1,4.3-4.5s7.5-1.4,7.5-1.4L272.4,283.6z"/>
		<path class="st3" d="M278,283.6c0,0,0.5-5.9-1.5-6.1s-4.1,6.1-4.1,6.1H278z"/>
	</g>
	<g>
		<path class="st4" d="M309.8,284.8c-0.1-3-2.8-5.4-6.1-5.4c-3.4,0-6,2.4-6.1,5.4H309.8z"/>
		<path class="st2" d="M310.5,284.9c-0.1-0.7-0.4-1.3-0.7-1.3h-12.7c-0.4,0-0.6,0.5-0.7,1.3H310.5z"/>
	</g>
	<g>
		<path class="st5" d="M179.2,117.2c5.8-0.8,11.1,1.4,15.2,5.5c9.3,9.6,2.2,15.8,5.2,28.3c-1.7,1.9-3.8,3.4-6.6,4.2
			c-13,3.6-27.7,1.6-37.5-8.2c-0.1-0.1-0.1-0.1-0.2-0.2c2.8-7.2,7.4-17,9.3-19.4C168.4,122.8,172.1,118.2,179.2,117.2z"/>
		<path class="st6" d="M178.5,143.8c0,0-0.1,0.3-0.2,0.8c-0.5,2.4-2,9.6-3.3,11.8c-1.5,2.6,3.4,14.7,10,13.6
			c1.9-0.3-1.1-6.4-0.5-9.4c0.4-1.7,1.5-6.9,2.4-11.1c0.7-3.3,1.3-5.9,1.3-5.9L178.5,143.8z"/>
		<path class="st2" d="M178.4,144.6c-0.1,0.3-0.1,0.5-0.2,0.8c0.6,1.2,1.5,2.3,2.8,3.3c2,1.6,4,2.3,5.8,2.2c0.1-0.5,0.2-0.9,0.3-1.4
			c0.7-3.3,1.3-5.9,1.3-5.9l-9.8,0.2C178.5,143.8,178.5,144.1,178.4,144.6z"/>
		<path class="st6" d="M185.3,122.4c0,0-4,0.5-6.9,4c-2.9,3.4-6,14,1.2,19.8s14.3-0.7,15.3-7.7C196,131.6,195.8,122.2,185.3,122.4z"
			/>
		<path class="st6" d="M196.1,138.5c-0.8,1.5-2.3,2.4-3.3,1.9c-0.9-0.5-1-2.1-0.1-3.6c0.8-1.5,2.3-2.4,3.3-1.9
			C196.8,135.3,196.9,136.9,196.1,138.5z"/>
		<path class="st5" d="M186.5,122.2c0,0-6.2,10.1-10.6,10.6c-4.4,0.5-5,5.8-5,5.8s1.5-12.3,6-14.8
			C181.2,121.5,186.5,122.2,186.5,122.2z"/>
		<path class="st6" d="M177.4,135.3c0.4,1.8-0.4,3.4-1.6,3.7c-1.3,0.3-2.5-1-2.9-2.8s0.4-3.4,1.6-3.7
			C175.7,132.2,177.1,133.5,177.4,135.3z"/>
		<path class="st7" d="M140.1,164.8l1.2-0.6c7.2-3.6,15.8-0.6,19.4,6.8l26.4,54.9c3.3,6.7,10.6,10.1,17.6,8.1l48.3-14
			c6.5-1.9,13.2,2.2,14.9,9l0,0l-79.5,27.1L140.1,164.8z"/>
		<path class="st4" d="M326,220c0,0,39-2.3,40.6,0.1c1.5,2.4-13.3,5.9-14.8,6.7c-12,7.5-10.9,2.9-13.6,2.3c-2.6-0.6-10-1-10-1
			L326,220z"/>
		<path class="st8" d="M192.2,236.2c0,0,1.4,2.6,2.7,3.3c4.9,2.4,14.5-1.3,14.5-1.3l60-13.9l63.6,4.3c0,0,2.2-7.8,1.1-11l-58.2-12.3
			l-66.9,6.8L192.2,236.2z"/>
		<path class="st7" d="M267.9,230L267.9,230c-0.3-1.8-0.5-3.6-1.6-4.9c-2.9-3.5-8.5-5-13.2-3.6l-57.4,17.7c-0.5,0.2-1.1,0.1-1.4-0.3
			c-0.5-0.5-1.4-1-1.4-0.9c-2.5,2.4-4.1,17.8-4.1,17.8l0.1,0.2L267.9,230z"/>
		<path class="st9" d="M318.5,221.5c0,0,5.9,2.4,10.9,4.9c2.1,1.1,4.5,3.4,5.4,3.5c4.3,1.1,5.2-1.4,6.9-4c1.1-1.6,5.8-6.2,8.8-9.2
			c1.8-1.8,3-4.3,2.2-5.3c-2.4-2.5-8.2,4.1-13.1,5.7c-2.6,0.9-5.3,0.1-8.1-0.5c-3.3-0.7-7.5-3.3-7.5-3.3L318.5,221.5z"/>
		<g>
			<path class="st10" d="M185,262.2c-2,0-3.9-1.1-4.9-3l-45-87.6c-1.4-2.7-0.4-6.1,2.4-7.4s6-0.4,7.3,2.4l45,87.7
				c1.4,2.7,0.4,6.1-2.4,7.4C186.8,262,185.9,262.2,185,262.2z"/>
		</g>
		<g>
			<path class="st10" d="M272.4,231.1c-0.9-3-4.1-4.8-7.1-3.9c-0.9,0.3-80.9,23.7-82.3,24.2l4.5,10.6l81-23.7
				C271.5,237.2,273.2,234.1,272.4,231.1z"/>
			<path class="st10" d="M178.1,285.4l11.1-27.3c0.1-0.2,0.1-0.3,0.2-0.5c0.8-2.7-0.7-5.5-3.4-6.3s-5.5,0.7-6.3,3.4l-9.1,30.3
				c0,0.1-0.1,0.2-0.1,0.3L178.1,285.4z"/>
		</g>
		<path class="st11" d="M210.9,211.8c0,0,40.6-23.1,56.6-25.1c6.1-0.7,63.8,29.1,63.8,29.1l-6.1,10.4c0,0-35.2-9-46-13.3
			c-3.1-1.3-11.6-6.7-11.6-6.7L210.9,211.8z"/>
		<path class="st4" d="M184,162c0,0,35.1,25.9,38.6,26.4c2.6,0.4,28.4-7.6,28.4-7.6l-4.9,9.7c0,0-21.2,12-28.8,11.6
			c-8.9-0.4-29.8-18-29.8-18L184,162z"/>
		<path class="st0" d="M212.6,183.2c0,0-8.2,11.9-8.4,15l-17.3-13L184,162L212.6,183.2z"/>
		<path class="st12" d="M165.8,155.5c0,0-4.3,11.7-2.5,25.8s29,57.4,29,57.4s5.8-0.9,10.1-6.1c1.8-2.2,8.6-20.8,8.6-20.8
			s-8.6-8.4-9.3-13.9s-1.6-11.4-3.9-20C195.4,169.2,174,151.7,165.8,155.5z"/>
		<g>
			<path class="st10" d="M165.8,221.6l76.6-4.6l5.9,8.1c0.8,39.4,1,54.7,1.1,60.4h7.4c0.5-6.3,1.3-22.2,2.9-61.8
				c0,0-11.8-11.7-14.8-13.9c-71.8,0.3-79.4,0.3-79.5,0.3c-3.3,0-5.9,2.8-5.7,6.1C160,219.3,162.7,221.8,165.8,221.6z"/>
		</g>
		<path class="st6" d="M193.5,177L181,195.7c0,0-1.9-12.6-3.4-26.1c-5.8,0.8-11,2.4-16,5.2c2.4,13.1,10.3,35.1,17.5,37.8
			c5.6,2.1,16-25.4,16-25.4L193.5,177z"/>
		<path class="st0" d="M177.6,165c-0.8-4.2-1.9-8.3-6.3-9.6c-2.8-0.8-5.9,0-8.1,1.8c-2.6,2.2-3.4,5.6-3.4,9c0,7.4,2.4,14.8,4.6,22
			c5.1-2.8,9.7-1.9,15.5-2.7C180.4,178.7,178.8,170.4,177.6,165z"/>
		<g>
			<path class="st3" d="M201.1,184.7h2.1l-0.3-2.3h-1.8c-0.9,0-1.5-1-1.5-2.3v-2.3c0-1.3,0.7-2.3,1.5-2.3h2.4v-2.3h-2.4
				c-1.7,0-3.2,2-3.2,4.4v2.3C197.9,182.7,199.3,184.7,201.1,184.7z"/>
		</g>
		<path class="st3" d="M215.6,173.2v10.7c0,2.4-2,4.4-4.4,4.4h-3.8c-2.4,0-4.4-2-4.4-4.4v-12h12.7L215.6,173.2L215.6,173.2z"/>
		<path class="st6" d="M199.3,173.5c1.1,0,3.4,1.4,3.8,2.5c0.3,1.2-0.4,2.5-0.3,3.4c0.1,0.7,0.3,1.9,0,2.9c-0.1,0.3-1.4,1.8-1.6,2.4
			c-0.2,0.5-6.3,2.8-6.3,2.8l-1.5-10.5C193.4,177,194.7,173.6,199.3,173.5z"/>
		<path class="st13" d="M231,157l-8.5,36.1c-0.2,0.9,0.1,1.7,0.7,1.9l13.1,4.2l8-32.1c0,0-8.5-8.1-11.7-11
			C232.1,155.6,231.2,156,231,157z"/>
		<path class="st8" d="M224.3,191.6l7.4-31.4c0.3-1,1.1-1.5,1.6-0.9c2.6,2.4,6.5,6.2,9.3,8.8l-7.2,28.8l-10.5-3.4
			C224.3,193.4,224.1,192.5,224.3,191.6z"/>
		<path class="st7" d="M240.6,153.5l-17.7,44.4c-0.4,1,0,2.1,0.8,2.2l19.4,2.6l14.2-35l-14.5-15
			C242.1,151.9,240.9,152.3,240.6,153.5z"/>
		<path class="st4" d="M254,180.4c0,0,0.2-3.7-1.3-2.7s-1.3,3.2-1.6,3.6s-1.3,1.2-1.4,2.7c-0.2,1.4-1.3,2.5-1.4,3.5
			c-0.2,1-0.1,1.8-0.1,1.8s4.7-0.6,4.9-2.6C253.1,184.6,254,180.4,254,180.4z"/>
	</g>
	<g>
		<g>
			<g>
				<g>
					<path class="st8" d="M37.6,226.1c-0.1,0.9,0.5,1.7,1.4,1.8s1.7-0.5,1.8-1.4s-0.5-1.7-1.4-1.8C38.5,224.6,37.7,225.2,37.6,226.1
						z"/>
					<path class="st2" d="M40.1,227.2c-0.6,0.9-2.1,0.4-1.9-0.7c0.1-0.5,0.5-1,1.2-0.9C40.1,225.7,40.5,226.6,40.1,227.2L40.1,227.2
						z"/>
				</g>
				<g>
					<path class="st8" d="M29.5,228.6c0.5,0.7,0.5,1.7-0.2,2.3c-0.7,0.5-1.7,0.5-2.3-0.2c-0.5-0.7-0.5-1.7,0.2-2.3
						C27.8,227.8,28.8,227.9,29.5,228.6z"/>
					<path class="st2" d="M29.1,230.7c-0.5,0.4-1.1,0.4-1.4-0.1c-0.3-0.4-0.4-0.9-0.1-1.3c0.1-0.1,0.1-0.2,0.2-0.3
						c0.2-0.2,0.5-0.3,0.8-0.3C29.5,228.9,29.8,230.1,29.1,230.7z"/>
				</g>
				<g>
					<path class="st8" d="M36.8,226.1c0,0.9-0.7,1.6-1.6,1.6c-0.9,0-1.6-0.7-1.6-1.6s0.7-1.6,1.6-1.6S36.8,225.2,36.8,226.1z"/>
					<path class="st2" d="M35.3,227.5c-0.8,0-1.4-0.9-0.9-1.6c0.5-0.9,1.9-0.5,1.9,0.5C36.3,227,35.8,227.5,35.3,227.5z"/>
				</g>
				<g>
					<path class="st8" d="M44,228.9c-0.5,0.7-1.6,0.8-2.3,0.2c-0.7-0.5-0.8-1.6-0.2-2.3c0.5-0.7,1.6-0.8,2.3-0.2
						C44.6,227.2,44.7,228.2,44,228.9z"/>
					<path class="st2" d="M43.4,228.8c-0.4,0.5-1,0.5-1.4,0.1c-0.5-0.4-0.5-1-0.1-1.4c0.4-0.5,1-0.5,1.4-0.1
						C43.8,227.7,43.9,228.4,43.4,228.8z"/>
				</g>
				<g>
					<path class="st8" d="M31.7,247.8c0.4-0.8,0.1-1.8-0.7-2.2c-0.8-0.4-1.8-0.1-2.2,0.7c-0.4,0.8-0.1,1.8,0.7,2.2
						C30.3,248.9,31.3,248.6,31.7,247.8z"/>
					<path class="st2" d="M31.3,247.4c-0.3,0.5-0.9,0.6-1.4,0.4c-0.5-0.3-0.7-1-0.5-1.5c0.3-0.5,0.9-0.6,1.4-0.4
						C31.5,246.1,31.6,246.8,31.3,247.4L31.3,247.4z"/>
				</g>
				<g>
					<path class="st8" d="M26.2,242.2c0.8-0.4,1.2-1.4,0.8-2.2c-0.4-0.8-1.4-1.2-2.2-0.8c-0.8,0.4-1.2,1.4-0.8,2.2
						C24.5,242.2,25.4,242.6,26.2,242.2z"/>
					<path class="st2" d="M26.8,241.2c-0.5,0.7-1.5,0.6-1.8-0.2c-0.3-0.5,0-1.2,0.5-1.4C26.5,239.2,27.4,240.3,26.8,241.2
						L26.8,241.2z"/>
				</g>
				<g>
					<path class="st8" d="M25.6,234.4c0.9,0.3,1.8-0.3,2-1.1c0.3-0.9-0.3-1.8-1.1-2c-0.9-0.3-1.8,0.3-2,1.1
						C24.2,233.3,24.8,234.3,25.6,234.4z"/>
					<path class="st2" d="M25.4,233.5c-0.1-0.3-0.2-0.5-0.1-0.8c0.3-0.9,1.5-1,1.9-0.2c0.1,0.3,0.2,0.5,0.1,0.8
						C27.1,234.3,25.8,234.4,25.4,233.5z"/>
				</g>
				<g>
					<path class="st8" d="M26.6,243c0.8-0.5,1.8-0.2,2.3,0.6s0.2,1.8-0.6,2.3c-0.8,0.5-1.8,0.2-2.3-0.6
						C25.6,244.4,25.8,243.4,26.6,243z"/>
					<path class="st2" d="M27.4,245.2c-0.9-0.3-1.1-1.4-0.3-1.9c0.5-0.3,1.2-0.1,1.4,0.4C29.1,244.5,28.3,245.5,27.4,245.2z"/>
				</g>
				<g>
					<path class="st8" d="M30.1,228.1c0.5,0.7,1.5,1,2.3,0.5c0.7-0.5,1-1.5,0.5-2.3c-0.5-0.7-1.5-1-2.3-0.5S29.6,227.4,30.1,228.1z"
						/>
					<path class="st2" d="M32.2,228.4c-0.5,0.4-1.2,0.2-1.4-0.3c-0.4-0.5-0.2-1.2,0.3-1.4c0.5-0.4,1.2-0.2,1.4,0.3
						c0.3,0.4,0.3,0.8,0,1.2C32.5,228.1,32.4,228.3,32.2,228.4z"/>
				</g>
				<g>
					<path class="st8" d="M25.4,235.3c0.9,0.2,1.4,1,1.4,1.9c-0.2,0.9-1,1.4-1.9,1.4c-0.9-0.2-1.4-1-1.4-1.9
						C23.7,235.7,24.5,235.2,25.4,235.3z"/>
					<path class="st2" d="M25.3,238c-0.7-0.1-1.1-1-0.7-1.6c0.3-0.4,0.6-0.5,1.1-0.5c0.5,0.1,1,0.6,0.9,1.2
						C26.4,237.7,25.8,238.1,25.3,238z"/>
				</g>
				<path class="st2" d="M37,236.5l2-8.6l-0.3-0.1l-2.1,9l-1.1-9.1h-0.3l1,8.8l-4-7.9l-0.3,0.2l4.2,8.1l-6.7-6.3l-0.2,0.2l6.4,6.1
					l-8.1-3.4l-0.1,0.3l8.4,3.6l-9.2-0.5v0.3l8.8,0.5l-8.4,2.5l0.1,0.3l8.8-2.6l-7.3,5.4l0.2,0.3l7.1-5.3l-4.8,7.3l0.3,0.2
					l10.8-16.5l-0.3-0.2L37,236.5z"/>
			</g>
			<g>
				
					<rect x="52.6" y="227.6" transform="matrix(0.548 -0.8365 0.8365 0.548 -183.5525 156.7406)" class="st2" width="1.4" height="41.3"/>
			</g>
		</g>
		<g>
			<g>
				<g>
					<path class="st8" d="M54.3,184.4c-0.9,1.3-0.6,3,0.6,3.9s3,0.6,3.9-0.6s0.6-3-0.6-3.9C56.9,182.8,55.2,183.1,54.3,184.4z"/>
					<path class="st2" d="M57,188c-1.6,0.9-3.4-1.1-2.3-2.6c0.5-0.8,1.7-1,2.5-0.5C58.3,185.7,58.2,187.4,57,188L57,188z"/>
				</g>
				<g>
					<path class="st8" d="M40.2,181.3c0.3,1.5-0.6,3-2.2,3.3c-1.5,0.3-3-0.6-3.3-2.2c-0.3-1.5,0.6-3,2.2-3.3
						C38.3,178.8,39.8,179.7,40.2,181.3z"/>
					<path class="st2" d="M37.9,184.1c-1,0.2-1.9-0.5-2.1-1.4c-0.2-0.8,0.2-1.5,0.9-1.9c0.2-0.1,0.3-0.2,0.5-0.2
						c0.5-0.1,0.9,0,1.4,0.3C39.9,181.7,39.4,183.8,37.9,184.1z"/>
				</g>
				<g>
					<path class="st8" d="M53.1,183.6c-0.7,1.4-2.4,1.8-3.8,1.1s-1.8-2.4-1.1-3.8s2.4-1.8,3.8-1.1C53.4,180.6,53.8,182.3,53.1,183.6
						z"/>
					<path class="st2" d="M49.6,184.4c-1.3-0.7-1.2-2.5,0-3.2c1.5-0.8,3.3,0.9,2.4,2.4C51.6,184.5,50.5,184.8,49.6,184.4z"/>
				</g>
				<g>
					<path class="st8" d="M61.5,193.7c-1.4,0.5-3-0.2-3.6-1.5c-0.5-1.4,0.2-3,1.5-3.6c1.4-0.5,3,0.2,3.6,1.5
						C63.7,191.6,63,193.1,61.5,193.7z"/>
					<path class="st2" d="M60.7,193.1c-0.9,0.4-2-0.1-2.4-1s0.1-2,1-2.4s2,0.1,2.4,1C62.1,191.7,61.6,192.7,60.7,193.1z"/>
				</g>
				<g>
					<path class="st8" d="M27.7,211.5c1.3-0.9,1.6-2.6,0.7-3.8c-0.9-1.3-2.6-1.6-3.8-0.7c-1.3,0.9-1.6,2.6-0.7,3.8
						C24.8,212.1,26.5,212.4,27.7,211.5z"/>
					<path class="st2" d="M27.6,210.5c-0.8,0.5-1.8,0.2-2.3-0.5c-0.6-0.9-0.3-2.1,0.6-2.6c0.8-0.5,1.8-0.2,2.3,0.5
						C28.7,208.9,28.5,210.1,27.6,210.5L27.6,210.5z"/>
				</g>
				<g>
					<path class="st8" d="M24.2,198.9c1.5,0.2,2.9-1,3-2.4c0.2-1.5-1-2.9-2.4-3c-1.5-0.2-2.9,1-3,2.4
						C21.6,197.3,22.7,198.7,24.2,198.9z"/>
					<path class="st2" d="M25.8,197.8c-1.3,0.6-2.7-0.4-2.6-1.7c0.1-1,1-1.7,2-1.6C26.9,194.6,27.4,197,25.8,197.8L25.8,197.8z"/>
				</g>
				<g>
					<path class="st8" d="M29.6,186.8c1.1,1.1,2.8,1.1,3.9,0s1.1-2.8,0-3.9s-2.8-1.1-3.9,0C28.6,184,28.6,185.7,29.6,186.8z"/>
					<path class="st2" d="M30.1,185.3c0-0.5,0.2-0.9,0.5-1.3c1.2-1.1,3.1-0.3,3.1,1.3c0,0.5-0.2,0.9-0.5,1.3
						C32,187.7,30.1,186.9,30.1,185.3z"/>
				</g>
				<g>
					<path class="st8" d="M24.1,200.2c1.5,0,2.8,1.2,2.8,2.7s-1.2,2.8-2.7,2.8s-2.8-1.2-2.8-2.7C21.4,201.6,22.6,200.3,24.1,200.2z"
						/>
					<path class="st2" d="M23.5,204.2c-1.2-1.1-0.4-3.1,1.2-3.1c1,0,1.8,0.7,1.8,1.7C26.6,204.5,24.7,205.3,23.5,204.2z"/>
				</g>
				<g>
					<path class="st8" d="M41.5,181.1c0.1,1.5,1.4,2.6,3,2.5c1.5-0.1,2.6-1.4,2.5-3c-0.1-1.5-1.4-2.6-3-2.5
						C42.5,178.2,41.3,179.6,41.5,181.1z"/>
					<path class="st2" d="M44.3,183.2c-1,0.1-1.8-0.6-1.9-1.6c-0.1-1,0.6-1.8,1.6-1.9c1-0.1,1.8,0.6,1.9,1.6
						c0.1,0.7-0.4,1.4-0.9,1.7C45,183.1,44.8,183.2,44.3,183.2z"/>
				</g>
				<g>
					<path class="st8" d="M28.7,187.9c1.2,1,1.4,2.7,0.5,3.9c-1,1.2-2.7,1.4-3.9,0.5c-1.2-1-1.4-2.7-0.5-3.9
						C25.8,187.1,27.5,186.9,28.7,187.9z"/>
					<path class="st2" d="M26.3,191.7c-1-0.8-0.8-2.4,0.3-3c0.6-0.4,1.4-0.3,2,0.2c0.7,0.6,0.9,1.7,0.3,2.5S27,192.3,26.3,191.7z"/>
				</g>
				<path class="st2" d="M44.9,199.1l10-11l-0.4-0.4L44,199.2l5.9-14.3l-0.5-0.2l-5.7,13.8l0.5-14.9h-0.5l-0.5,15.5l-4.7-14.8
					l-0.5,0.2l4.5,14.2l-9-11.7l-0.5,0.4l9.5,12.2l-13.1-8.3l-0.3,0.5l12.6,8l-14.6-3.1L27,197l15.2,3.3l-15.4,2.1l0.1,0.5l14.8-2
					l-13.1,7l0.3,0.5l29.5-15.6l-0.3-0.5L44.9,199.1z"/>
			</g>
			<g>
				
					<rect x="58.1" y="194.9" transform="matrix(0.8846 -0.4664 0.4664 0.8846 -100.3596 54.1508)" class="st2" width="2.3" height="69.9"/>
			</g>
		</g>
		<g>
			<g>
				<path class="st10" d="M72.8,262.1c0,0,22.6-16.8,25.7-24.1s-3.3-6.4-3.3-6.4s9.1-12.9,6.7-17.2s-7.5,1.2-7.5,1.2
					s4.3-17.6,0.5-18.5c-6.9-1.8-12.5,17-12.5,17s0.5-7.8-3.8-6.8c-6.5,1.6-3.1,18.5-3.1,18.5s-2.1-3-5.6-0.2
					C63.8,230.7,72.8,262.1,72.8,262.1z"/>
			</g>
			<path class="st14" d="M69.1,226c3.5-2.8,6.6-0.3,6.6-0.3s-3.4-16.8,3.1-18.5c4.3-1.1,3.8,6.8,3.8,6.8s5.6-18.8,12.5-17l-22.5,65
				C71.7,258,63.2,230.8,69.1,226z"/>
		</g>
		<g>
			<path class="st15" d="M72.9,261.5c0,0,23.2,0,28-4.1c4.8-4-1.1-4.3-1.1-4.3s11-5.9,11-9.8c-0.2-3.9-3.9-3.2-3.9-3.2
				s7.7-6.9,6.1-10.2c-2.4-5.1-13.4,4.6-13.4,4.6s0.8-3.9-2.5-4.7c-5.2-1.3-10.3,13.3-10.3,13.3s2.4-6.6-1.1-5.8
				C79.3,238.7,72.9,261.5,72.9,261.5z"/>
		</g>
		<g>
			<g>
				<path class="st10" d="M71.9,262.8c0,0-20.6-17.6-23.1-24.6c-2.5-7.1,3.5-5.9,3.5-5.9s-7.9-12.9-5.3-16.8
					c2.5-3.9,7.1,1.5,7.1,1.5s-3-16.9,0.6-17.7c6.6-1.3,10.9,17,10.9,17s0-7.5,4-6.2c6.1,1.9,1.8,17.7,1.8,17.7s2.3-5.9,5.4-3
					C82.5,230.1,71.9,262.8,71.9,262.8z"/>
			</g>
			<path class="st16" d="M77.5,224c-3.7-2.3-5.6,0.7-5.6,0.7s3.7-12.8-2.4-14.7c-4-1.3-4,6.2-4,6.2s-4.3-18.3-10.9-17L72,262.4
				C73.2,258.7,81.9,226.7,77.5,224z"/>
		</g>
		<g>
			<g>
				<path class="st17" d="M69.9,260.3c0,0-22.6,0-25.8-0.4s0.4-3.2,0.4-3.2s-7.1,0.3-8.1-1.4c-1.1-1.7,1.8-2.4,1.8-2.4s-7-2-6.7-3.5
					c0.6-2.8,8.3-1,8.3-1s-2.9-1.4-1.7-2.7c1.7-2,9.3,3.4,9.3,3.4s-2.8-5.3-1.2-6.1C49.2,241.9,69.9,260.3,69.9,260.3z"/>
			</g>
		</g>
		<path class="st11" d="M53.6,285.8h37.7c4.8-4.3,7.7-10.4,7.6-17c-0.1-3.4-0.7-6.2-2.2-9.1l-48.5,0.5c-1.4,2.9-2.1,6.1-2,9.4
			C46.1,275.9,48.9,281.5,53.6,285.8z"/>
	</g>
	<g>
		<path class="st17" d="M213.4,146.6c0.9-3-1.1-6.2-4.1-6.2c-0.6,0-0.6,0.9,0,1c0,0,1.8,0.1,2.4,2.1c0.2,0.5,0.2,1.1,0.1,1.6
			c-0.2,1-0.6,1.4-1.4,2.4l1.2,0.5c2.2,1.1,3.4,3.6,3.4,5.6c-0.1,1.7-0.4,2.6-1.5,4.1c-1.7,1.9-4,1.8-4.2,1.9
			c-1.3,0.4-2.1,1-2.4,2.3c-0.1,1.8,0,3.3,0.3,4.4c0.1,0.5,0.9,0.5,1.1,0c0.4-1.6,0.4-1.7,0.6-4.2c0,0,0,0,0-0.1c0,0,0,0,0-0.1
			c0.1-0.1,0.2-0.3,0.7-0.4c0.2,0,2.6,0.2,5-1.9C218.4,156.3,218.1,149.5,213.4,146.6z M209.5,161.6L209.5,161.6
			C209.6,161.6,209.6,161.6,209.5,161.6z"/>
	</g>
	<g>
		<path class="st8" d="M77.1,185.7h25c2.2,0,4-1.9,4-4.3l0,0c0-2.4-1.8-4.3-4-4.3h-25l0,0c1.9,2.4,2,5.9,0.2,8.4L77.1,185.7z"/>
		<path class="st2" d="M105.8,181.4L105.8,181.4c0-2.4-1.8-4.3-4.1-4.3H76.6c-0.1,0-0.2-0.1-0.2-0.3l0,0c0-0.1,0.1-0.2,0.2-0.2h39.8
			c2.4,0,4.5,2.2,4.5,4.8l0,0c0,2.6-2,4.8-4.5,4.8H76.6c-0.1,0-0.2-0.1-0.2-0.2l0,0c0-0.1,0.1-0.3,0.2-0.3h25.1
			C104,185.7,105.8,183.8,105.8,181.4z"/>
	</g>
</g>
<g>
	<path class="st1" d="M373.3,285.6H22.5c-0.7,0-1.4,0.7-1.4,1.5c-0.1,1,0.6,1.7,1.4,1.7h350.8c0.8,0,1.4-0.7,1.4-1.6l0,0
		C374.7,286.3,374.1,285.6,373.3,285.6z"/>
</g>
</svg>
