<?xml version="1.0" encoding="utf-8"?>
<!-- Generator: Adobe Illustrator 25.4.1, SVG Export Plug-In . SVG Version: 6.00 Build 0)  -->
<svg version="1.1" id="Layer_1" xmlns="http://www.w3.org/2000/svg" xmlns:xlink="http://www.w3.org/1999/xlink" x="0px" y="0px"
	 viewBox="0 0 511.8 538.8" style="enable-background:new 0 0 511.8 538.8;" xml:space="preserve">
<style type="text/css">
	.st0{fill:#F6F6FA;}
	.st1{fill:#E4E8F5;}
	.st2{fill:#4B4A91;}
	.st3{fill:#FADDE9;}
	.st4{fill:#E2E8F5;}
	.st5{fill:#DEDBED;}
	.st6{fill:#F8C6B8;}
	.st7{fill:#F8C5B8;}
	.st8{fill:#7E7AB3;}
	.st9{fill:#392D76;}
	.st10{fill:#9BA3CF;}
	.st11{fill:#F5B19F;}
	.st12{fill:#AFB0D6;}
	.st13{fill:#F6C4B8;}
	.st14{fill:#3A2D75;}
	.st15{fill:#8F90C2;}
	.st16{fill:#F8C8BA;}
	.st17{fill:#A89FCB;}
	.st18{fill:#1C1B34;}
	.st19{fill:#A79FCB;}
	.st20{fill:#1B1930;}
	.st21{fill:#362F58;}
	.st22{fill:#BEB9CF;}
	.st23{fill:#ACACAC;}
	.st24{fill:#262344;}
	.st25{fill:#A27C72;}
	.st26{fill:#AD887C;}
	.st27{fill:#242346;}
	.st28{fill:#BEB8D3;}
	.st29{fill:#A49BC8;}
	.st30{fill:#1E1D3B;}
	.st31{fill:#B7B6B7;}
	.st32{fill:#BCB6D0;}
	.st33{fill:#B9B2CE;}
	.st34{fill:#BCB8D1;}
	.st35{fill:#BCBBBB;}
	.st36{fill:#2D2348;}
	.st37{fill:#2E2448;}
	.st38{fill:#222247;}
	.st39{fill:#BAB4CE;}
	.st40{fill:#BAB4D1;}
	.st41{fill:#A9A9A8;}
	.st42{fill:#342D54;}
	.st43{fill:#A9A8A8;}
	.st44{fill:#A8A7A6;}
	.st45{fill:#A3A2A2;}
	.st46{fill:#A5B1D8;}
	.st47{fill:#9AA2CF;}
	.st48{fill:#8C8FC2;}
	.st49{fill:#1D1C36;}
	.st50{fill:#FFFFFF;}
	.st51{fill:#DCE1F1;}
	.st52{fill:#F1A7CA;}
	.st53{fill:#EE8CB7;}
	.st54{fill:#6863A3;}
	.st55{fill:#3B337C;}
	.st56{fill:#37315C;}
	.st57{fill:#3B385D;}
	.st58{fill:#FCFBFD;}
	.st59{fill:#A89ECA;}
	.st60{fill:#AAA0CB;}
	.st61{fill:#A8A0CB;}
	.st62{fill:#8281B8;}
	.st63{fill:#F6DFEE;}
	.st64{fill:#403580;}
	.st65{fill:#483B6F;}
	.st66{fill:#272557;}
	.st67{fill:#1B1831;}
	.st68{fill:#262557;}
	.st69{fill:#252552;}
	.st70{fill:#644E92;}
	.st71{fill:#593E87;}
	.st72{fill:#AA8478;}
	.st73{fill:#A57E73;}
	.st74{fill:#AA837A;}
	.st75{fill:#5E3D34;}
	.st76{fill:#62463F;}
	.st77{fill:#48304E;}
	.st78{fill:#B38D80;}
	.st79{fill:#B38D82;}
	.st80{fill:#3F3275;}
	.st81{fill:#241F3D;}
	.st82{fill:#B28C7E;}
	.st83{fill:#AD887D;}
	.st84{fill:#A8A2C0;}
	.st85{fill:#A29AC2;}
	.st86{fill:#25234E;}
	.st87{fill:#4A4463;}
	.st88{fill:#222147;}
	.st89{fill:#3E2B54;}
	.st90{fill:#1D1E3A;}
	.st91{fill:#212044;}
	.st92{fill:#989DCB;}
	.st93{fill:#A0ABD4;}
	.st94{fill:#B4B7DB;}
	.st95{fill:#837BB4;}
	.st96{fill:#504D93;}
	.st97{fill:#534F94;}
	.st98{fill:#8079B2;}
	.st99{fill:#514E93;}
	.st100{fill:#4F4C92;}
	.st101{fill:#4A4A91;}
	.st102{fill:#7D76B0;}
	.st103{fill:#4B4990;}
	.st104{fill:#F09AC1;}
	.st105{fill:#A69DC3;}
	.st106{fill:#9D95C2;}
	.st107{fill:#272449;}
	.st108{fill:#202044;}
	.st109{fill:#212146;}
	.st110{fill:#1E1D3A;}
	.st111{fill:#202043;}
	.st112{fill:#1E1C38;}
	.st113{fill:#1E1D3C;}
	.st114{fill:#1F1C39;}
	.st115{fill:#1B1A34;}
	.st116{fill:#4C4A91;}
	.st117{fill:#A49ECA;}
</style>
<g id="jgiJaQ.tif">
	<g>
		<g>
			<path class="st0" d="M123.2,255.1c0-18.6,0-37.1,0-55.7c-0.3,0-0.5,0-0.8,0c-0.4,6.9-1.1,13.8-1.2,20.6c0,4.3-0.6,5.6-5.8,5.4
				c-16.1-0.7-32.2-0.3-48.3-0.2c-4,0-6-0.7-3.4-4.9c8.4-14.1,10.1-29.9,10.2-45.6c0.1-12.2-2-24.5-3.8-36.7
				c-3.1-20.8,0.8-40.3,11.2-58.3c21.8-37.7,55.9-56.5,97.9-63.1c31.6-5,58.8,6.3,85,21.9c15.6,9.3,32.6,14.7,50.5,18.3
				c24.3,4.8,48.5,10.7,64.4,32.7c14.1,19.5,18.1,41.5,18.6,64.9c0.5,23.5-1.4,47.2,5.2,70.3c1,3.5,0,4.5-3.4,4.4
				c-10.8-0.1-21.6,0-32.4-0.1c-1,0-2.2,0.1-2.9-0.4c-10.9-8.4-9.3,0.7-9.5,6.8c-0.3,6.6,0.6,13.2-2,19.5c-2-1.8-1.4-4.3-1.4-6.5
				c-0.2-13,0.2-26.1-0.2-39.1c-0.1-0.5-0.2-1-0.2-1.5c2.2-2.7-1.4-1.3-1.6-2.3c-1.3-2.7-1.1-5.5-0.2-8.3c0.4-1,1.3-1.8,1.7-2.8
				c1.3-8.9,0.4-17.7,0.5-26.6c0-1.2-0.8-2.1-1.6-3c-0.4-0.5-0.7-1-0.9-1.6c-0.8-9.6-0.2-19.2-0.4-28.9c-0.2-12.1,0.2-24.2-0.3-36.4
				c-0.4-10.1-6.4-16.3-16.4-17c-1.8-0.1-3.7-0.1-5.5-0.1c-59.4,0-118.9,0-178.3,0c-2.3,0-4.7,0-7,0.2c-8.4,1-13,5.1-14.9,13.5
				c0.5,7.5,0.2,14.9,0.2,22.4c0,34.5,0.1,69-0.1,103.5c-0.7,8.9-0.1,17.9-0.3,26.9c-0.1,2.3,0.4,4.7-0.8,6.8
				C124.4,255.2,123.9,255.4,123.2,255.1z"/>
			<path class="st1" d="M344.8,353.8c-12.4,0.3-19.3,9.3-26.4,17.3c-12.7,14.4-22.6,30.8-30.7,48.2c-2.4,5.2-3.7,10.8-3.6,16.3
				c0.1,6.2,3,11.3,10.8,10.2c0.1,0.5,0.3,1,0.1,1.5c-6.5,17.2,1,30.8,11.4,43.5c1.2,1.5,2.9,2.7,3.6,4.7c0.2,2.8-2.1,2.4-3.7,2.9
				c-1,0.2-2,0.4-2.9,0.9c-0.3,0.2-0.7,0.4-1,0.6c-1.2,0.7-1.6,1.9-2.1,3.1c-1,2.1-0.8,4.6-1.6,6.8c-1.7,2.7-4.5,2.6-7.1,2.6
				c-30.1,0-60.2,0.2-90.2,0c-18.1-0.6-36.2-0.2-54.3-0.3c-16.1-0.1-20.6-4.5-20.5-20.8c0.1-17.4-0.5-34.9,0.4-52.3
				c0.3-1.5,0.9-2.8,1.6-4.1c2.7-2.1,5.4-4.2,7.9-6.7c17.3-17.2,33.9-35.1,52.1-51.4c6-5.3,10.4-12.1,16.7-17.5
				c-2-1.4-3.9-0.9-5.5-0.9c-16.1,0-32.2,0-48.3,0c-2,0-4,0.2-5.9-0.6c-2.2-1.1-1.7-2.1,0.2-3c1.8-0.6,3.6-0.6,5.4-0.6
				c17.6,0,35.3-0.7,52.9,0.1c38.6,1.7,77.1,0.3,115.7,0.8c12.8,0.2,14.3-1.4,14.3-14.3c0-14.6-0.4-15-15.2-15
				c-54.7,0-109.4,0-164.1,0c-3.1,0-6.4,0.6-9.2-1.4c-0.8-2.8,1.5-2.4,2.9-2.8c2.1-0.5,4.3-0.3,6.4-0.3c25.7,0,51.4-0.3,77.1,0.2
				c7.8,0.1,13.9-1.8,18.7-7.9c2.6-1.5,5.4-1.2,8.2-1.2c20.1,0,40.1,0,60.2,0c2,0,4,0,6-0.1c6.9-0.4,8.8-2.3,9-9.1
				c0.1-3.5,0.1-7,0-10.4c-0.3-7.3-2.7-9.7-10.1-9.8c-9.8-0.1-19.6,0-29.3,0c-2,0-4,0.1-5.9-0.4c-2.3-0.7-2.8-2.2-1.7-4.2
				c0.6-1.2,1.6-2.1,2.5-3.1c16.4-16.4,32.8-32.8,49.2-49.2c0.8-0.8,1.6-1.6,2.6-2.3c2.3-1.5,4-1.3,4.8,1.7
				c0.3,41.3,0.1,82.6,0.1,123.9C346.1,350.8,346,352.5,344.8,353.8z"/>
			<path class="st2" d="M309.4,496.3c-9.5-9.6-16.4-20.6-18.1-34.2c-0.8-5.9-0.2-11.5,3.7-16.4c12.8-8.9,25.5-5.6,38.2,0.2
				c4.8,2.2,9.6,4.6,14.4,6.9c7.5,5.8,16.3,9.4,24.4,14.1c8.2,4.7,16.6,9,23.9,13.1c-2.4-1.1-5.4-3.3-8.8-5
				c-1.1-0.6-1.2-1.5-0.7-2.5c9.2-5.1,19.1-8.7,28.3-13.8c-9.1,5-18.8,8.7-28,13.5c-0.9,1.8-2.2,1.7-3.7,0.8
				c-10.8-6.2-21.8-12-32.7-17.9c-0.4-0.2-0.7-0.6-0.7-1.5c2.6-0.8,5.3-0.6,8.1-0.1c8.9,0.4,17.8,0.8,26.8,1.3
				c-0.6,3.7-4.3,3.1-6.1,4.6c3.2-1.2,6.6-2.9,9.3-5.7c14.7-5.8,28.9-13.2,44.7-15.7c8.4-1.3,15.9,0,20.1,8.7
				c-1.4,0.8-1.7,0.8-3.2,0.4c1.2,0.5,2.8,0.8,4.1,1.7c2.3,11.5-1.6,20.7-11,27.1c-8,5.5-16.6,10.1-25,15.1
				c-4.5,1.8-7.2-2.7-11.3-3.2c-0.8,6-2.4,11.7-7.1,15.9c-5,4.6-10.6,4.7-16.4,1.8s-12.3-4-18.2-6.5c-15.3-6.3-30.2-13.7-45.2-20.7
				c-0.7-0.3-1.4-0.8-2.3-0.8c-0.6-0.2-0.4,0.9-0.3,0.2c0-0.3,0.2-0.4,0.4-0.2c11.1,4.9,21.8,10.6,33,15.1c1.6,0.7,3.1,1.6,1.4,3.7
				c-2,1.4-4.2,1.7-6.5,1.8c-10.3-1.4-20.6-0.7-30.9-0.5C312.3,497.6,310.6,497.9,309.4,496.3z"/>
			<path class="st3" d="M123.2,255.1c0.2,0,0.4,0,0.6,0c2.6,1.8,1.8,4.5,1.8,6.9c0.2,18.3-0.1,36.6,0.2,54.9
				c0.3,19.9,0.4,39.8-0.1,59.6c0.4,11.8,0.5,23.5,0,35.3c-0.6,8.1-7.6,10-13.2,13.3c-1.4,0.8-2.9,0-4.2-0.9
				c-13.4-9.9-25.9-20.5-34-35.4c-7.3-15.4-14.7-30.6-17.5-47.7c-2.7-16.7-5.7-33.4-8.5-50.1c-0.7-1.1-0.8-2.4,0.2-3.1
				c1.2-0.8,2.1,0.1,2.8,1.1c21.6,10.9,44.8,18.8,64.8,32.6c7.4,5.1,7.2,2.3,7.1-4.3C123,296.6,123.2,275.9,123.2,255.1z"/>
			<path class="st4" d="M74.3,388.8c3.8,4.7,7.4,9.5,11.5,13.9c7,7.7,15,14.4,23.4,20.5c3,2.1,13.2-4.5,14.6-9.4
				c2.8,2.1,1.8,5,1.5,7.7c-0.2,0.5-0.3,1-0.6,1.3c-3.4,2.7-5.5,5.4,0,8.2c0.5,0.3,0.6,1.1,0.8,1.8c0.9,9.6,0.3,19.2,0.4,28.8
				c0.1,10.9,0.1,21.8,0,32.7c0,2.6,0.4,5.4-2,7.4c-0.1-0.1-0.3-0.3-0.3-0.4c2.6-13.2-7.3-13.9-16-16.4c-21.9-6.3-40.3-18.2-55.7-35
				c-2-2.1-1.6-4-0.5-6.3c2.3-4.9,4.5-9.8,5.9-15.3c-2.9,3.3-5.9,6.5-8.7,9.8c-2.7,3.1-4.6,3.4-7.1-0.5c-9.1-13.8-18.3-27.5-28-40.9
				c-4.1-5.6-1.3-6.7,3.4-6.6C36,390.1,55.1,385.8,74.3,388.8z"/>
			<path class="st5" d="M458.4,511.4c6.8,0.7,13.6,1.5,20.5,2.1c5.2,0.5,10.5,0.7,17.5,1.2c-8.1,4.3-15.3,2.9-22.1,3.5
				c-16.3,1.5-32.7,2.1-49.1,2.2c-74.8,0.5-149.6,1-224.3,1c-27.7,0-55.4-0.7-83.1-2.1c-15.2-0.8-30.7,0-47.4-3.6
				c10.8-3,20.3-2,29.6-3c9.7-1.1,19.4-1.3,29.1-1.9c0.5-0.5,1.1-0.6,1.8-0.4c3.5,2.2,7.3,2.7,11.4,2.7c49.8,0,99.7-0.6,149.5-0.4
				c2.8,0,5.6,0,8.5,0.3c0.9,0,1.8-0.1,2.6,0.1c2.1,0.5,4.1,1.5,6.3,1.9c1.1,0.1,2.2,0.2,3.2,0.5c6.6,0.6,13.1,0.5,19.7-0.1
				c1.3-0.3,2.6-0.4,3.9-0.5c3.2-0.6,6.3-1.3,9.3-2.4c2.5-0.5,4.5-2,6.8-3.1c2.1-0.7,4.2-1.2,6.4-0.8c8.3,0.9,16.5,0,24.8,0.1
				c10.9,0.1,21.8,0.3,32.8,0c0.8-0.2,1.7-0.2,2.5-0.1c4.5,0.8,8.8,2,13.4,2.4c2.5,0.1,5,0.1,7.5-0.1c3.1-0.4,6.3,0.6,9.4-0.7
				C452,510.3,455.4,509.1,458.4,511.4z"/>
			<path class="st6" d="M364.8,349.1c0.1-1.2,1.2-2.5-1-3.2c-9.2-2.8-7.4-8-3.1-13.8c6.8-1.3,12.4-4.3,15.7-10.9
				c0.8-1.7,3.2-1.4,5-0.9c6.5,1.8,13,4,19.6,5.3c2.8,0.5,3.9,2.5,3.1,5.2c-0.8,2.8-1,5.8-2.9,8.3c-2.4-0.8-4.9-1.6-7.4-2.1
				c-0.6-0.1-1.2-0.2-1.8-0.2c0.8,0.1,1.7,0,2.4,0.3c2,0.8,4.2,0.7,6,1.9c0.7,0.9,0.6,1.9,0,2.8c-1.5,5.2-3.1,10.4-4.6,15.6
				c-2.5,8.3-8,11.8-16.5,10.3c-2.1-1-4.4-1.4-6.3-2.6c-0.4-0.2-0.8-0.5-1.2-0.8c-1.1-0.9-2-1.9-3-2.8c-0.5-0.5-0.9-1.1-1.3-1.7
				C365.5,356.5,365,352.9,364.8,349.1z"/>
			<path class="st2" d="M400.5,341.7c0-1,0-1.9,0-2.9v0.1c0.1-0.1,0.3-0.2,0.3-0.4c2.8-6.9,4.8-12.7-6.7-13.1
				c-7.6-0.3-15.7-8.7-21.7,3.4c-2.2,4.4-7.2,4-11.7,3.3c-3.3-2.7-2.1-6.4-2.1-9.7c0-10.6,7.7-18.5,18.1-19.3c7-0.5,13.4-2.5,21,0.3
				c10,3.7,15.2,13.5,9.5,22.7C404.3,331,405.3,337.6,400.5,341.7z"/>
			<path class="st7" d="M397.5,410.9c-11.1,0.7-21.5,4.4-32.2,7.1c-5,1.3-7.9-4.1-6.2-8.2c4.5-10.6,11.9-19,23-23.5
				c0.5-0.2,1.5,0.5,2.2,0.8c3.4,2.4,0.3,3.5-1,5c-0.7,0.1,0.2-0.1-0.5,0c-0.3,0-0.6,0.1-0.9,0.2c0.2,0.5,0.5-0.1,0.7,0.1
				c1.3,0.2,2.4-0.5,3.6-0.8c5.1-1.9,10-5.4,15.9-3c3.7,1,2.5,2.4,0.4,4.1c-1.3,1-3.5,1.8-1.3,4.1c0.2,0.2,0,0.6-0.2,0.9
				c-0.3,1.4-2.9,1.5-2,3.6c0.3,3.2-2.5,4.3-4.2,6.1c-0.5,0.6-1,1.1-1.5,1.7c1,1,2.7,0.2,3.7,1.3
				C397.2,410.5,397.3,410.7,397.5,410.9z"/>
			<path class="st8" d="M129.7,510.6c-0.2,0-0.4,0.1-0.6,0.2c-2.6-2.5-4.2-5.7-5.1-9.2c-0.1-23.6-0.1-47.2-0.2-70.8
				c-1.6-2.7-1.5-5.3,0-8c0-3,0-6,0-9c0.1-12.3,0.3-24.6,0.4-36.9c0.9-0.9,1.1-2.3,2-3.2c1.4-1.4,2.4-1.2,3.1,0.7
				c0.7,19.1,0.2,38.2,0.3,57.2c0,2.1-0.9,4.2-1.2,6.3c0,19.9-0.3,39.9,0,59.8c0.1,8.2,4.9,12.8,13.4,12.8c19.8,0,39.6,0,59.3,0
				c0,3-2.1,3-4.1,3c-19.6,0.1-39.2,0-58.8,0C134.9,513.5,132.5,511.6,129.7,510.6z"/>
			<path class="st9" d="M431.7,512.4c-4.5-0.3-9-0.8-13.1-2.8c-0.1-0.9-1.5-0.6-1.4-1.7c0.6-2.7,3-4.2,4.4-6.3
				c2.2-2.7,0-5.4,0.1-8.1c0.1-0.7,0.4-1.3,1-1.7c0.9,0,1.8,0.1,2.7,0.1c2.9,0.4,5.8,0.2,8.7,0.2c0.7,0,1-0.2,0.4-0.2
				c0,0-0.1-0.3-0.1-0.5c6-1.2,12-1.1,18,0c3.3,0.9,6.7,1.3,10.2,1.3c0.3,0.1,0.7,0.3,1,0.4c0.2,0.4,0.4,0.8,0.4,1.3
				c-1.6,2.7,1.7,5.4,0.1,7.6c0-0.5,0.5-1.4,0.4-2.3c0-1.3,0-3,1.5-3c1.3,0,1.6,1.7,2,2.9c-0.1,1.5,0.4,3.1-0.4,4.5
				c-0.8,4.7-3.6,6.9-8.4,6.7c-3.3,0.3-6.7,0.3-10,0.3c-0.2,0-0.4,0-0.4,0c-0.4,0.2-0.4,0.4,0,0.7c-3.1,0.2-6.2,0.5-9.3,0.7
				C436.7,511.8,434.2,511.8,431.7,512.4z"/>
			<path class="st10" d="M351.6,206.3c0,0.3,0,0.5-0.1,0.8c0.2,14.9,0,29.8,0.1,44.7c0,1.8,0.1,3.7-0.9,5.3c-0.4,2.7-0.8,5.3-1.2,8
				c-3-0.8-2.3-3.3-2.3-5.3c-0.1-10.3-0.1-20.6,0-30.9c0-2.2,0-4.3-1-6.3s-2.2-3.9-2-6.3c-0.1-35.3,0-70.7,0-106
				c0-1.7-0.1-3.3,0.3-5c0.4-1.4,1.1-2.5,2.7-2.3c1.8,0.1,1.9,1.5,1.9,2.9c0,1,0,2,0,3c0,16.4-0.5,32.9,0.2,49.3
				c0.4,11.1,0.8,22.1,0.8,33.2c0,2,0.1,4-0.4,5.9c0.4,2.9-1.2,6,0.9,8.7C351.1,205.8,351.4,205.9,351.6,206.3z"/>
			<path class="st11" d="M393.5,406.7c1.9-1.9,4.8-2.8,5-6.1c-0.5-1.7,1.1-2,1.9-2.8c-1.5-3.5-1.2-6.3,3-7.5
				c-0.1-0.1-0.1-0.3-0.3-0.4c-0.3-0.1-0.6-0.2-0.9-0.3c-2.9-1.8-6.2-1.2-9.3-1.3c-1.7-0.8-3.3-1.9-2.6-4c0.6-1.8,2.5-1.9,4.1-2
				c3.6-0.1,7.2-0.5,10.6,0.9c1.1,0.5,1.7,1.5,2.4,2.5c4.8,2.8,10.5,20.7,8.2,25.7c-2,4.2-5.4,4.3-9.2,3.4l0,0c-2.2-2-4.4-4-6.6-6
				c-1.4,0-2.9,0.4-4.3-0.2C394.7,408.3,394.1,407.4,393.5,406.7z"/>
			<path class="st12" d="M345.6,217.2c-0.3,1.9,0.9,2.9,2,4c0.7,1,0.5,2.2,0.5,3.4c-0.2,33,1,65.9,0.4,98.9
				c-0.2,7.9-0.2,15.9-0.4,23.8c0,2-0.3,4,1.4,5.6c-1.3,1.8-3.1,0.8-4.7,1c0-43.5-0.1-87.1-0.1-130.6c-1.5-1.8-1.6-3.6-0.5-5.6
				C344.5,217,345,216.9,345.6,217.2z"/>
			<path class="st13" d="M422.2,502.4c-1.6,1.9-3.2,3.8-4.8,5.8c-0.8,1.3-2.2,0.4-3.2,0.9c-5.7-0.9-11.3-2-15.5-6.5
				c4-5.1,6.4-10.6,5-17.7c4.8,2.1,9.2,4.1,13.5,6c1.4,2.3,3.6-0.2,5.3,0.9c-0.2,0.6-0.3,1.3-0.5,1.9
				C422.6,496.6,424.3,499.5,422.2,502.4z"/>
			<path class="st14" d="M405.6,384.7c-3.7-0.4-7.4-0.9-11.2-1.1c-1.3-0.1-3.4-1-3.7,1.1c-0.3,1.8,1.8,2,3,2.8
				c-1.7,3.5-5.6,3.5-8.3,5.4c-1.1,1.2-1.9,0.4-2.8-0.4c-0.3-0.2-0.4-0.3-0.3-0.5s0.2-0.2,0.3-0.2c0.5-1.6,1.1-3.3,1.6-4.9
				c0.1-0.4,0.3-0.8,0.4-1.3c1.7-1.2,1.8-3.1,1.9-4.9c1.3-3.6,1-7.9,4.9-10.3c6.4-0.1,12.7-0.4,19.1,0.2c1.8,3.9-1.3,6.9-2.1,10.3
				C407.8,382.4,407.4,384.1,405.6,384.7z"/>
			<path class="st15" d="M349.5,352.8c-3.2,0.3-2.9-2-2.8-4c0.3-9.2,0.8-18.5,0.9-27.7c0.1-33.3,0.1-66.6,0.1-100
				c2.2,10.1,0.3,20.4,1,30.6c0.3,4.4-1.1,8.9,0.9,13.2C349.5,294.3,349.5,323.6,349.5,352.8z"/>
			<path class="st16" d="M369,359.9c0.2,0.3,0.4,0.5,0.6,0.8c0.7,1.4,1.7,2.4,3.1,3.2l0,0c1.7,1.8,4.7,1.7,6,4
				c-3.3,4.4-7.2,3.3-11,1c-4.9-3-7-7.4-5.4-13.1c0.5-1.7,1.4-3.3,2.1-5C366.6,353.4,365.8,357.7,369,359.9z"/>
			<path class="st17" d="M357.7,453.5c-2.3,0-4.6,0-8.8,0c12.8,7,24,13.2,35.3,19.3c0.5,0.2,1.5-0.7,2.3-1c0.4,0.2,0.5,0.4,0.4,0.6
				s-0.2,0.3-0.4,0.3c3.5,5.4,10.3,5.9,14.2,10.8c-5.4-2.9-10.9-5.9-16.3-8.8c-11-6-22.1-12-33-18.1c-1.5-0.8-2.6-2.4-3.9-3.6
				C350.9,453.1,354.3,453.3,357.7,453.5z"/>
			<path class="st18" d="M350.7,257.1c-0.1-15.8-0.1-31.7-0.1-47.5c0-0.8,0.6-1.7,1-2.5c2,11.8,0.4,23.8,0.9,35.6
				c0.2,4.1,0.2,8.3,0.2,12.4C352,255.8,351.4,256.4,350.7,257.1z"/>
			<path class="st19" d="M387.6,453.7c-2.7,5.7-8.9,5.2-13.3,7.8c2.6-3.6,7.8-3,10.2-6.8C385.5,454.4,386.6,454,387.6,453.7z"/>
			<path class="st20" d="M410.6,370.7c-6.4-0.1-12.7-0.1-19.1-0.2C397.9,369.5,404.2,369,410.6,370.7z"/>
			<path class="st21" d="M467.5,499.6c-0.5-0.7-1-1.3-1.4-2c-0.3,1.2-0.7,2.3-1,3.5c-1.7-1.7-2.3-3.7-1.9-6c0.1-0.7,0.2-1.3,0.3-2
				c2.7,1.3,4.4,3.4,4.7,6.5C468,500,467.8,500,467.5,499.6z"/>
			<path class="st22" d="M426.4,378.9L426.4,378.9L426.4,378.9L426.4,378.9z"/>
			<path class="st23" d="M444.9,433.8c0.1-0.3-1.1,2.8-1.5,3.9c-0.6,1.2-0.4,0.4-0.3-0.1s2.7-7.4,2.7-7.8c0.1-1.8,0.3-4.2,0.1-6
				c-0.2-1.3-0.4-2.3-0.8-3.3c-0.2-0.5-0.2-0.8-0.7-1.7l0,0c-0.5-1.3-1.1-2.5-1.6-3.8c-1.9-1.1-13.1-7.1-14-7.7
				c-3.6-1.3-6.6-1.4-13.1-1.6c0.9-0.1-0.6-0.9,0.1-1c5.1-0.7,9.4-0.1,12.5,1.9l0,0c1,0.5,13.1,7.2,14.1,7.7c0-0.1-0.1-0.2-0.1-0.4
				l0,0c-1-2.3-2-4.6-3.1-6.9h0.1c-1.4-2.7-2.8-5.3-4.2-8c-1.7-3.3-7.9-16.2-9.6-19.5l-2.2-4.5l0,0c-1-1.7-1.9-3.4-2.9-5
				c-0.9-1.2-1.9-2.5-2.9-3.7l0,0c-1.5-1.4-4.4-3.7-6-5.1l0,0c-3.1-1.1-12.8-4.6-15.2-5.5c0.1-0.4,0.1-0.4,0.2-0.8
				c2.5,0.8,12.9,4.8,15.5,5.7c0,0,0,0,0.1,0c1.6,0.6,5.2,3.7,5.6,5.4c0.9,1.2,1.9,2.6,2.8,3.8c1,1.6,2,3.3,3.1,4.9
				c1,1.4,2,2.7,3,4.1c-0.1,0-0.1,0.1-0.2,0.1l0,0c0,0-0.1,0-0.1,0.1h0.1c1.7,3.5,8.4,15.9,10.1,19.4c1,2.8,2.1,5.5,3.1,8.3
				c0,0,0,0.1-0.1,0.1c1,2.2,1.9,4.6,2.8,6.8c1.1,0.9,1.8,2.2,2,3.6C447.3,422.1,447.1,428.7,444.9,433.8z"/>
			<path class="st24" d="M462.5,492.6c-3.8,0-7.6-0.1-11.4-0.1c-0.1,0-0.2-0.7-0.1-0.7c0.5-0.2,0.9-0.3,1.4-0.4
				C455.7,491.8,459.1,492.2,462.5,492.6z"/>
			<path class="st25" d="M379.4,367.7c-0.3,0-0.5,0.1-0.8,0.2c-1.4-1.1-3.5-1.3-4.9-2.5l0,0c-0.2-0.1-2.3-1.4-3.5-2.6l-0.1-0.1l0,0
				c-0.1-0.1-0.1-0.1-0.1-0.2l0,0c-0.3-0.5-1-1.5-1.8-3c-1.4-2.9-3.2-7-3.8-8.7c0.2-0.6,0.3-1.1,0.5-1.7c1.2,3.5,3.3,8.1,4.7,11.7
				c1.1,1.1,2.1,2.1,3,3.1l0,0l0,0c1.4,0.6,3.1,1.8,4.5,2.4C378.1,366.8,378.9,366.5,379.4,367.7z"/>
			<path class="st26" d="M370.2,362.7c0,0-0.1-0.1-0.1-0.2C370.1,362.5,370.1,362.6,370.2,362.7
				C370.2,362.6,370.2,362.6,370.2,362.7L370.2,362.7z"/>
			<path class="st27" d="M448.6,511.7c-0.5-0.1-1.1-0.1-1.4-0.4c-1.3-1.1,0.3-0.7,0.5-0.7c3.8,0,7.6,0.1,11.4,0.1
				c-0.2,0.2-0.4,0.5-0.7,0.7C455.1,511.5,451.8,511.6,448.6,511.7z"/>
			<path class="st28" d="M397.7,435.8c-1.4,2.8-7.3,14.4-8.7,17.2c-0.4-0.2-1.1,1.2-1.4,1.1c1.4-2.8,7.6-15.9,9-18.7
				C397,435.5,397.4,435.7,397.7,435.8z"/>
			<path class="st29" d="M453.3,448.7c-2.6-0.7-5.2-1.5-7.8-2.2c0.1-0.3,0.2-0.7,0.3-1c2.2,0.4,4.4,0.8,6.6,1.2
				C452.7,447.4,453,448,453.3,448.7z"/>
			<path class="st30" d="M434.3,491.4c0.5,0.1,1,0.2,1.4,0.3c-0.1,0.2-0.2,0.7-0.2,0.7c-3.4-0.2-6.8-0.4-10.3-0.5
				C428.3,491.7,431.3,491.6,434.3,491.4z"/>
			<path class="st31" d="M406.5,414.7c0.3,2.4,0.6,7,1.1,10.9c-0.4-0.7-1.2-0.4-1.2-0.4S404.8,416.8,406.5,414.7L406.5,414.7z"/>
			<path class="st0" d="M51.3,289c-2.3-1.3-3.1-0.4-3,2c-1.3-1.5-1.7-3.5,0-4.5C50.2,285.5,51.1,287.3,51.3,289z"/>
			<path class="st32" d="M409.6,426.7c1.5,1.4,5.3,4.8,6.8,6.2c-0.2,0.3-0.3,0.3-0.5,0.6c-1.6-1.4-5.6-4.4-7.2-5.8
				C409,427.3,409.3,427,409.6,426.7z"/>
			<path class="st33" d="M400.2,426.2c0.1-1.5,1.3-3.9,3-4.2c0.9-0.2,6.4,4.6,6.4,4.6s-0.3,1.1-0.9,1c-2.9-0.7-6.4-3.3-7.1-1.8
				L400.2,426.2z"/>
			<path class="st34" d="M401.6,425.8c-0.7,2.1-2.6,6.2-3.9,10c-0.6,0.8-1.1,0.2-1.1-0.4c0.1-2.7,3-8.4,3.9-9.7
				c0.2-0.3,0.5,0.3,0.8,0C401.4,425.7,401.6,425.8,401.6,425.8z"/>
			<path class="st35" d="M352.1,429.6c-2.1,0.7-4.4,1.5-6.4,2.3l0,0c-4.2,2.6-8.7,4.4-13.5,5.3c-0.8,0.2-1.6,0.5-2.3,1
				c-1.2,0.9-2.9,0.8-6.2,0.3c3.8-0.9,5.4-1.2,7-1.5c4.9-1.8,9.9-3.6,14.8-5.4c2-1.1,4.1-2.1,6.1-3.2
				C351.8,428.8,351.9,429.2,352.1,429.6z"/>
			<path class="st36" d="M395.9,407.6c1.4,0.3,3.2-1,4,1.2c-0.8,0.7-1.7,1.4-2.5,2.1l-0.1-0.4c-0.3-0.2-0.7-0.5-1-0.7
				C395.9,409.1,394.4,408.7,395.9,407.6z"/>
			<path class="st37" d="M405.6,384.7c1-1.3,1.9-2.5,2.9-3.8c-0.3,1.6-0.7,3.2-1,4.7C406.9,385.4,406.3,385.1,405.6,384.7z"/>
			<path class="st38" d="M386.6,380.8c0.8,2.2,0.5,4-1.9,4.9C385.3,384.1,386,382.5,386.6,380.8z"/>
			<path class="st39" d="M426.4,378.9L426.4,378.9L426.4,378.9L426.4,378.9z"/>
			<path class="st40" d="M423.5,439.9c-0.8-0.7-6.6-5.7-7.5-6.4c0.2-0.2,0.3-0.4,0.5-0.6c0.9,0.7,6.9,6.3,7.8,6.9
				C424,439.9,423.8,439.6,423.5,439.9z"/>
			<path class="st41" d="M360.4,402.7c-19.7,3.8-36.6,7.1-56.3,10.9c8.9-4.5,17.5-2,22.2-9h0.1c0,0-0.1,0-0.1-0.1
				c0.9-1.2,1.7-2.4,2.6-3.5l0,0c0-1.5,3.4-4,4.8-4.3c-0.8,0.9-2.8,3.6-3.9,5l0,0c-1,1.1-1.9,2.2-2.9,3.2c0,0,0,0.1,0,0.2
				c-1.7,4.5,1.6,2.2,2.9,2C339.1,405.7,348.1,402.7,360.4,402.7z"/>
			<path class="st42" d="M467.5,499.6c0.2,0,0.5,0,0.7,0c0.3,1.6,0.6,3.2-0.8,4.5C467.5,502.6,467.5,501.1,467.5,499.6z"/>
			<path class="st43" d="M358.6,365.8v0.1l0,0C358.6,365.8,358.6,365.8,358.6,365.8z"/>
			<path class="st44" d="M381.1,374.2c-5.6,3.5-11.1,4-16.6-0.1V374c0,0,0,0-0.1,0.1c-1.9-0.8-3.3-2.1-4-4.1c-1.2-0.8-1.9-2-1.9-3.4
				c-0.2-0.5-1.1-3.7,0.1-6.2v5.4v0.1l0,0v-0.1c0.7,1.3,1.5,2.5,2.2,3.8c1.3,1.3,2.7,2.6,4.1,4C370.2,376,375.5,377,381.1,374.2z"/>
			<path class="st45" d="M358.6,365.8v0.1l0,0C358.6,365.8,358.6,365.8,358.6,365.8z"/>
			<path class="st46" d="M345.6,217.2c-0.3,0-0.6,0-0.9,0c-2.4-2.4-1.8-5.6-1.8-8.5c-0.1-35.2,0-70.5,0-105.7
				c0-14.4-2.3-16.7-16.9-16.7c-59,0-118,0-177.1,0c-0.3,0-0.7,0-1,0c-8.1-0.8-14.8,1.2-18.6,9.2c-2,1.2-3.6,0.4-5.2-1
				c1.3-9.2,7.6-14.8,17.4-14.8c63.4-0.1,126.9-0.1,190.3,0c10.4,0,17.7,7.6,17.7,18.1c0.1,22.1,0.1,44.2,0.1,66.3
				c1.4,1.9,1.4,4,1.4,6.2c0,8.1,0,16.3,0,24.4c0,0.6,0.1,1.2,0.4,1.7c-0.6,0.3-1.2,0.6-1.7,1c-1.8-1.6-1-3.7-1-5.6
				c0-27.7,0-55.5-0.1-83.2c0-1.6,1.1-4.5-1.5-4.4c-2.4,0.1-1.4,3-1.4,4.6C345.6,144.8,345.6,181,345.6,217.2z"/>
			<path class="st47" d="M124.2,94.5c1.3,0.3,2.7,0.7,4,1c2.4,2.6,1.7,6,1.7,9c0.1,48.7,0,97.4,0,146.1c0,15.8-0.5,31.6,0.1,47.4
				c1.6,42.5,0.6,85.1,0.9,127.6c0,3.1,0.6,6.4-1.8,9c-0.3,1-0.6,2.1-0.8,3.1c-0.1-21.6-0.2-43.3-0.3-64.9c-1.6-1.5-1.6-3.6-1.6-5.6
				c-0.1-15.7-0.1-31.4,0-47.2c0-1.7,0.3-3.3,0.8-4.9c0.2-0.6,0.3-1.1,0.1-0.5c0,0.1-0.6,0.1-0.9,0.2c-1.9-1.7-1.2-4-1.2-6.1
				c-0.1-26.8,0-53.6,0-80.5c0-2.5,0.2-5-1-7.3C124.2,179,124.2,136.7,124.2,94.5z"/>
			<path class="st48" d="M124.2,221.2c2.4,2,2,4.8,2,7.4c0,26.9,0,53.8,0.1,80.7c0,1.9-0.7,4,1,5.7c0.1,2.3-1.2,2.4-2.9,2
				c-0.1-20.6-0.3-41.2-0.4-61.8C123.9,243.8,124,232.5,124.2,221.2z"/>
			<path class="st49" d="M351.5,196.3c-0.3-0.1-0.6-0.1-0.9-0.1c-0.6-10.6-1-21.1,0.2-31.7c3.6,4.9,1.3,10.5,1.5,15.7
				C352.5,185.6,353.6,191.1,351.5,196.3z"/>
			<path class="st10" d="M350.8,164.5c-0.1,10.6-0.1,21.1-0.2,31.7c-2.2-10.7-0.5-21.5-0.9-32.2
				C350.1,164.2,350.4,164.3,350.8,164.5z"/>
			<path class="st50" d="M355.9,220.6c-1.5-0.4-2.2-1.3-2.2-2.8s0.5-2.6,2.3-2.4c1.6,0.2,2.3,1.4,2.3,2.7
				C358.3,219.5,357.3,220.4,355.9,220.6z"/>
			<path class="st50" d="M351.6,206.3c-0.3-0.1-0.6-0.2-1-0.3c0.2-1.8,1.2-1.1,2.1-0.6c0.2,0.2,0.2,0.8,0.3,1.2
				C352.6,206.5,352.1,206.4,351.6,206.3z"/>
			<path class="st51" d="M129.2,434.7c-0.3-113.1-0.6-226.1-0.9-339.2c2.2-8.5,8.1-11,16.4-11c62,0.1,123.9,0,185.9,0
				c10.1,0,14.2,4.2,14.2,14.1c0,39.5,0,79.1,0,118.6c0,2,0,4-0.1,6c-1.1,0.6-2.5,1-3.3,1.9c-17.6,17.5-35.1,35-52.6,52.6
				c-0.9,0.9-1.3,2.2-1.9,3.3c-2.6,2.5-5.9,1.8-9,1.8c-40.9,0.1-81.7,0-122.6,0c-13.5,0-14.3,0.8-14.3,14.4
				c0,14.4,0.5,14.9,14.7,14.9c28.9,0,57.8,0,86.7,0c2.9,0,6.1-0.6,8.5,1.8c-2.8,5.3-6.2,9.1-13.2,9.1c-29-0.3-57.9-0.1-86.9-0.1
				c-1.9,0-3.8,0.6-5.7,0.9c-7.3,10.4-5.8,21.2-1,32c3.6,2.1,7.5,0.9,11.2,0.9c17.6,0.2,35.1,0.1,54.4,0.1
				c-9.6,8.1-16.2,16.9-24.3,24.5c-17.4,16.4-33.8,33.8-50.6,50.9C133.2,433.9,131.4,434.7,129.2,434.7z"/>
			<path class="st50" d="M144.1,355.9c-8-6.5-7.3-28.1,1-32c59.8,0,119.7,0.1,179.5-0.1c7.8,0,11.2,3.1,11.1,10.9
				c-0.1,22.1,0,22.1-22.2,22.1c-32.2,0-64.5,0.7-96.7-0.2C192.6,355.9,168.3,356.3,144.1,355.9z"/>
			<path class="st50" d="M250.9,314c-33.2,0-66.4-0.1-99.6,0.1c-8.4,0-12.4-2.7-12.2-11.8c0.4-21.2,0.1-21.2,21.3-21.2
				c42.2,0,84.4,0,126.5,0c12.8,0,25.6,0.1,38.4,0c7.3,0,10.5,3.5,10.6,10.7c0.1,22.2,0.2,22.2-22.1,22.2
				C292.7,314,271.8,314,250.9,314z"/>
			<path class="st52" d="M203.8,374.7c5.1-2.1,10.5-0.8,15.7-0.9c15.3-0.2,30.5-0.1,45.8,0c8.9,0.1,16.5,7,16.4,14.7
				c-0.2,8.6-7.1,15.2-16.4,15.2c-18.9,0.1-37.8,0.1-56.8,0c-1.6,0-3.2-0.6-4.8-0.9c1.4-1.8,3.5-1.8,5.4-1.8
				c5.9,0,11.9-0.3,17.8,0.1c5.8,0,11.6-0.1,17.4-0.1c2.9,0,4.7-1.1,4.7-4.3c0.1-4.9-0.3-9.8,1.9-14.6c1.2-2.5-1.9-5.2-6.1-5.5
				c-6.3-0.5-12.6-0.1-18.9-0.3c-5.6,0.4-11.3,0.2-16.9,0.2C207.3,376.5,205.3,376.5,203.8,374.7z"/>
			<path class="st53" d="M227.9,402.8c-8,0-16.1,0.1-24.1,0.1c-6.6-2.4-10.1-6.7-10.1-14.1c0-7.3,3.5-11.7,10.1-14.1
				c7.7,0,15.4,0.1,23.1,0.1c2.7,2.1,3.3,4.7,2.3,7.9c-1.6,4.9-1.5,9.8,0.5,14.5C230.8,399.8,229.7,401.3,227.9,402.8z"/>
			<path class="st54" d="M129.7,510.6c22.1,4.2,44.4,0.9,66.6,2c1.9,0.1,3.7,0,4.7-2c30.6-0.1,61.2-0.1,91.9-0.3c2,0,5,1.3,5-2.7
				c3,1.4,3.7,4.1,3.9,7c-43.5,0.1-87,0.2-130.5,0.3c-10.3,0-20.6,0-30.9,0C136.3,514.8,132.4,514.2,129.7,510.6z"/>
			<path class="st9" d="M309.4,496.3c12.2-1.3,24.3-1.3,36.5,0.3c1.9,3.5,0.9,7.8,3.2,11.2c0.1,0.5,0.1,1,0,1.5
				c-1.4,2-3.2,1.9-5.2,1c-0.6-0.3-1.1-0.8-1.6-1.3c-0.4-0.5-0.8-1-1.2-1.6c-2.1-1.1-4.2-0.6-6.3,0c-0.5,0.1-1,0.2-1.5,0.3
				c-3.3-0.2-7.3,1.5-9-3.2c0-0.6,0.1-1.1,0.5-1.5c3.1-1.8,6.7-0.6,9.9-1.6c1.8-0.4,3.7-0.2,5.5-0.7c0.3-0.3,0.3-0.5,0-0.8
				c-1.4-0.4-2.7-0.1-3.9,0.7c-0.8,0.4-1.7,0.6-2.6,0.6c-2.5-0.3-5.1-1-7.6-0.1c-0.5,0.9-1.6,1.2-2.4,1.8c-1.2,1.8-0.3,3.8-0.5,5.7
				c-0.1,0.5-0.4,0.9-0.7,1.2c-5.1,2.1-10.3,0.6-15.5,0.7c-1,0-1.6-1.1-2-2c-0.7-1.7-0.6-3.5-0.5-5.3c0.1-1.4,0.8-2.7,0.8-4.1
				c0-0.7,0.1-1.3,0.1-2C306.7,497,308,496.7,309.4,496.3z"/>
			<path class="st55" d="M301.8,514.5c-1.3-2.3-2.6-4.7-3.9-7c-0.4-2.4,0-4.5,1.7-6.3c1.2-0.8,2.2-1.9,3.1-3l0,0
				c1.4-0.2,1.7,0.7,1.9,1.7c0.1,1-0.3,1.9-0.6,2.8c-1,2.2-1.2,4.5-0.1,6.8c0.7,1.1,1.5,2.3,1.3,3.7c-0.2,0.7-0.9,0.9-1.4,1.4
				C303.1,514.6,302.4,514.6,301.8,514.5z"/>
			<path class="st56" d="M303.8,500.7c-0.4-0.8-0.8-1.6-1.2-2.4c0.9-0.3,1.8-0.7,2.8-1c0.4,0.5,0.7,1,1.1,1.5
				C305.9,499.9,305.4,501,303.8,500.7z"/>
			<path class="st57" d="M302.6,498.3c-0.3,1.8-1.2,2.9-3.1,3C300.5,500.2,301.6,499.2,302.6,498.3z"/>
			<path class="st58" d="M398.8,502.5c5.4,1.3,9.7,5.8,15.8,5c0.7,0.7,1.7,1,1.9,2.1c0,0.5,0.1,0.9,0.1,1.4
				c-19.2-0.2-38.5-0.5-57.7-0.7c-0.4,0-0.8-0.5-1.3-0.7c0.8-2.3,2.8-2.3,4.7-2.6c5.8-1,11.4-2.7,17.2-3.4c1.1,0,2.1,0.4,3.1,0.8
				C388.4,506.9,393.8,506.7,398.8,502.5z"/>
			<path class="st13" d="M362.6,508.3c-1.7,0.5-3.3,0.9-5,1.4c-2,0.3-4.1,0.6-6.1,0.9c-1.9,0.7-2.1-1-2.9-2
				c-3.2-3.4-3.7-7.5-2.7-11.9c1.9-0.4,3.7-0.8,5.6-1.2c1.7-1,2.7,0.2,3.7,1.3C357,501,361.5,503.5,362.6,508.3z"/>
			<path class="st59" d="M354.6,497.6c-1-0.7-2.1-1.5-3.1-2.2c-2.8-4.3-8-4.6-12.1-6.7c-8-4.1-16.3-7.7-23.9-12.8
				c8.9,4.1,17.7,8.6,26.7,12.4c13.4,5.6,27,10.7,40.4,16c-1.1,0-2.1,0.1-3.2,0.1c-6.1,0-11.4-2.6-16.9-4.6
				C360,499,357.5,497.6,354.6,497.6z"/>
			<path class="st60" d="M386.6,472.6c0-0.3,0-0.6,0-0.9c10.2-5,20.5-9.9,30.7-14.9c0.2,0.5,0.5,0.9,0.7,1.4
				C407.5,463,397,467.8,386.6,472.6z"/>
			<path class="st61" d="M308.8,446.5c-1.9,3-3.9,6-5.8,9c-0.4-0.2-0.7-0.5-1.1-0.7c2-3,3.9-5.9,5.9-8.9
				C308.1,446.1,308.4,446.3,308.8,446.5z"/>
			<path class="st62" d="M124.2,317c1-0.7,2-1.3,2.9-2c2.2,2.5,0.8,5.5,0.9,8.2c0.1,16.6,0,33.2,0,49.8c-1.6,1-1.3,3.8-3.8,3.9
				C124.2,356.9,124.2,336.9,124.2,317z"/>
			<path class="st63" d="M123.8,422.7c0,2.7,0,5.3,0,8c-2.3,0.1-5-0.3-5-2.7C118.7,425.3,121.2,423.7,123.8,422.7z"/>
			<path class="st64" d="M303.7,514.7c0.4-0.4,0.8-0.9,1.3-1.3c0.2-1.1-0.8-1.9-0.7-3c0.2-0.9,0.6-1.6,1.5-1.9
				c5.6,1.2,11.3,1.7,16.9,0.1c3.8-0.1,7.5-1.9,11.4-0.9c3,0.8,6.3-0.3,9.1,1.6c1.8,0.1,3.5,0.2,5.3,0.3c1.6,0.9,1.7,1.6,0.1,2.7
				c-0.9,0.6-2.3,0.4-2.8,1.5c-3.1,0.9-6.1,1.7-9.2,2.6c-1.3-0.4-2.7-1-3.9,0.3c-7,1.2-14.1,1.2-21.1,0c-0.8-0.9-0.8-0.9-2.9-0.2
				C307,515.8,305.4,515.3,303.7,514.7z"/>
			<path class="st65" d="M345.8,513.8c-0.2-2.1,4.4-1.1,2.8-4.2c0-0.3,0.1-0.7,0.1-1c1,0.7,1.9,1.3,2.9,2
				C350.3,512.9,348.1,513.3,345.8,513.8z"/>
			<path class="st66" d="M431.7,512.4c2.5-1.4,5.1-1.4,7.6,0C436.7,512.4,434.2,512.4,431.7,512.4z"/>
			<path class="st67" d="M416.5,509.7c-0.6-0.7-1.3-1.4-1.9-2.1c1,0.2,1.9,0.4,2.9,0.6c0.4,0.4,2,0,1.1,1.4
				C417.8,509.6,417.2,509.7,416.5,509.7z"/>
			<path class="st68" d="M308.7,516.4c1.1-1.4,2.5-1,3.9-0.6c-0.3,0.3-0.7,0.6-1,0.9C310.6,516.6,309.7,516.5,308.7,516.4z"/>
			<path class="st69" d="M332.7,516.7c1.2-2,2.5-1.4,3.9-0.3C335.3,516.5,334,516.6,332.7,516.7z"/>
			<path class="st70" d="M400.5,338.9c-3.3,0.5-6.1-0.6-8.6-2.6C395,336.2,398.3,335.7,400.5,338.9L400.5,338.9z"/>
			<path class="st71" d="M387.8,336.7c-4.9-0.3-7.6-0.5-10.2-2.7C381,333.6,383.6,334.4,387.8,336.7z"/>
			<path class="st72" d="M377.1,349.4c4,3.4,5.9,5.1,8.2,7.1C381.7,356.2,380.1,354.1,377.1,349.4z"/>
			<path class="st73" d="M390.3,347.7c-0.6-2.3-1.1-4.6-1.7-7c1.5,2.3,3.9,4.4,2.2,7.6C390.3,348.3,390.1,348.1,390.3,347.7z"/>
			<path class="st74" d="M390.8,348.3c-1.1,0.7-2.3,1.5-3.4,2.2c-0.2-0.3-0.4-0.6-0.5-0.9c1.1-0.6,2.3-1.3,3.4-1.9
				C390.5,347.8,390.6,348,390.8,348.3z"/>
			<path class="st75" d="M393.2,342.7c0.6,0.5,1.2,0.8,1.1,1.1c-0.1,0.6-0.5,1.1-0.7,1.6c-0.4-0.3-1-0.6-1.1-0.9
				C392.5,344,392.9,343.5,393.2,342.7z"/>
			<path class="st76" d="M380.1,339c0.3,1.1,0.6,1.6,0.5,2.1c0,0.3-0.5,0.6-0.8,1c-0.4-0.4-1.1-0.7-1-1.1
				C378.9,340.4,379.4,340,380.1,339z"/>
			<path class="st77" d="M385.4,393c2.8-1.8,5.6-3.6,8.3-5.4c2.9,0.6,6.6-2.2,8.5,2.1C395.9,387,391,391.9,385.4,393z"/>
			<path class="st78" d="M389.3,397.6c-2.9,0.8-5.7,1.6-8.6,2.4c-0.1-0.4-0.2-0.8-0.3-1.1c2.9-0.8,5.7-1.6,8.6-2.4
				C389.1,396.9,389.2,397.2,389.3,397.6z"/>
			<path class="st79" d="M383,408.1c2.2-0.8,4.5-1.5,6.7-2.3c0.1,0.3,0.2,0.6,0.3,0.9c-2.2,0.8-4.5,1.7-6.7,2.5
				C383.3,408.9,383.2,408.5,383,408.1z"/>
			<path class="st50" d="M382.7,391.9c0.1,0.2,0,0.5,0,0.7c-1.2,1.1-2.1,3-4.7,1.5C379.6,393.2,380.3,391,382.7,391.9z"/>
			<path class="st80" d="M395.9,407.6c0.5,0.9,1,1.8,1.5,2.7c-1.7-0.7-4.5,1.5-5.1-1.9c0.4-0.6,0.8-1.1,1.2-1.7
				C394.3,407,395.1,407.3,395.9,407.6z"/>
			<path class="st81" d="M392.3,408.4c1,2.5,3.6,0.8,5.1,1.9v0.2c-2.3,0.2-4.6,0.3-8,0.6C390.9,409.7,391.6,409,392.3,408.4z"/>
			<path class="st82" d="M400.5,397.8c-0.6,0.9-1.3,1.8-1.9,2.8c-0.7,0.4-1.5,0.7-3.5,1.8C397,399.6,398.2,398.1,400.5,397.8z"/>
			<path class="st83" d="M388.5,401.7c-0.9,1.6-2.2,2.5-4.7,1.6C385.7,402.7,387.1,402.2,388.5,401.7z"/>
			<path class="st84" d="M426.5,496.4c0-0.5,0-1,0-1.5c5.8-2,11.6-0.4,17.4,0.1c1.8,0.2,3.6,0.5,5.4,0.7c1,2.6,1,5.2,0,7.8l0.1-0.1
				c-7.3,1-14.7,0.9-22,0.1c6.2-2.8,12.8,0,19.1-1.2c0.8-1.8,0.6-3.7,0.1-5.5c-1.5,0-3,0-4.4,0C436.9,497.1,431.7,497.6,426.5,496.4
				z"/>
			<path class="st85" d="M463.2,495.1c0.6,2,1.2,4,1.9,6c-1,1.7,1.1,5.3-4.7,4.9C466.1,502.8,460.3,498.4,463.2,495.1z"/>
			<path class="st86" d="M443.9,495c-5.8,0-11.6-0.1-17.4-0.1C432.3,492.6,438.1,492.8,443.9,495z"/>
			<path class="st87" d="M427.3,503.5c7.3,0,14.7,0,22-0.1C442.1,505.4,434.7,505.2,427.3,503.5z"/>
			<path class="st88" d="M426.5,496.4c5.2,0.1,10.4,0.2,15.6,0.3C436.9,497.7,431.7,498.6,426.5,496.4z"/>
			<path class="st89" d="M422.2,502.4c0-2.9-0.1-5.8-0.1-8.7C423.4,496.6,426,499.5,422.2,502.4z"/>
			<path class="st90" d="M449.3,503.5c0-2.6,0-5.2,0-7.8C451.1,498.3,450.9,500.9,449.3,503.5z"/>
			<path class="st91" d="M446.6,496.8c1.5,1.9,1.7,3.7-0.1,5.5C446.5,500.5,446.5,498.6,446.6,496.8z"/>
			<path class="st50" d="M185,225.2c-9.2-9.2-13.4-21-14.8-33.3c-4.2-37.9,18.7-69,55.8-76.7c32.5-6.8,66.3,13.2,77,45.6
				c7.7,23.4,4,44.9-11.3,64.4c-3.2-0.1-4.1-2.9-5.8-4.8c-11.3-12.7-25.2-20.2-42.3-21.7c-22.5-1.4-40.7,6.8-55.1,24
				C187.6,223.9,186.7,225,185,225.2z"/>
			<path class="st92" d="M243.9,197.3c20.4,1.7,35.8,11.9,47.9,27.9c-1,1.3-2.1,2.6-3.1,3.9c-4.4,0.7-8.9,0.8-13.3,0.5
				c-3.5-0.2-6.9-0.1-10.4,0.5c-2.5,0.5-4.9,0.2-7.4-0.1c-8.2-1.1-16.4-1.1-24.5-0.1c-4,0.5-7.9,1-11.8,0.8c-2.4-0.2-4.6-0.6-5.9-3
				c-0.6-2,0.4-3.6,1.7-4.9c7.9-7.8,15.5-15.8,23.4-23.5C241.5,198.4,242.8,198.1,243.9,197.3z"/>
			<path class="st93" d="M216,226.2c3.9,5.8,9.7,3,14.5,2.5c9.8-1.2,19.4-1,29.2,0.1c7.4,0.8,15-0.1,22.5-0.8c2.5-0.2,4.5,0,6.6,1.2
				c-15.8,20.4-52.3,28.3-77.4,16.7c-3.2-1.5-6.2-3.2-9.3-4.8c-0.4-0.4-0.8-1-0.5-1.3C205.3,234.1,209.1,228.6,216,226.2z"/>
			<path class="st94" d="M216,226.2c-4.9,4.7-10.6,8.7-13.9,14.9c-6.3-4.6-12.7-9.1-17-15.9c14.6-19.8,34-29.6,58.9-27.9
				C234.6,206.9,225.3,216.6,216,226.2z"/>
			<path class="st95" d="M254.4,344.7c-2.7-0.5-4.6-1.6-4.5-4.5c0-2.5,1.5-4.1,3.9-4.3c2.7-0.2,4.5,1.4,4.7,4.1
				C258.7,342.8,256.8,344.2,254.4,344.7z"/>
			<path class="st96" d="M188.3,344.6c-2.7-0.5-4.4-1.9-4.2-4.6s1.9-4.2,4.6-4c2.5,0.2,3.9,1.7,3.9,4.2
				C192.5,343,190.9,344.4,188.3,344.6z"/>
			<path class="st97" d="M159.8,339.9c-0.1,2.8-1.5,4.6-4.2,4.6c-2.7,0.1-4.3-1.6-4.4-4.3c-0.1-2.5,1.4-4.1,3.9-4.3
				C157.8,335.8,159.3,337.4,159.8,339.9z"/>
			<path class="st98" d="M237.8,344.7c-2.7-0.5-4.5-1.8-4.3-4.6c0.2-2.7,1.9-4.2,4.6-4c2.4,0.2,3.9,1.8,3.9,4.2
				C241.9,343,240.2,344.3,237.8,344.7z"/>
			<path class="st99" d="M225.5,340.1c-0.3,2.7-1.8,4.4-4.5,4.4c-2.5,0-4-1.7-4.1-4.1c-0.1-2.7,1.7-4.4,4.4-4.4
				C223.8,336,225.2,337.5,225.5,340.1z"/>
			<path class="st96" d="M205.3,344.6c-2.9-0.2-4.7-1.4-4.7-4.2c0-2.5,1.3-4.1,3.8-4.3c2.7-0.2,4.5,1.1,4.7,3.9
				C209.3,342.7,207.5,344,205.3,344.6z"/>
			<path class="st100" d="M172,335.9c2.6,0.4,4.2,1.8,4.1,4.5c-0.1,2.5-1.6,4-4.1,4.1c-2.7,0.1-4.3-1.4-4.4-4.2
				C167.7,337.5,169.4,336.2,172,335.9z"/>
			<path class="st101" d="M194.5,301.2c-12.6,0-25.2,0-37.8,0c-2.7,0-5.3-0.3-5.4-3.6c-0.1-3.3,2.5-3.8,5.2-3.8
				c25.7,0,51.4,0,77.2,0c2.7,0,5.4,0.3,5.4,3.6c0,3.7-2.9,3.8-5.7,3.8C220.3,301.2,207.4,301.2,194.5,301.2z"/>
			<path class="st102" d="M271.8,294c7.9,0,15.9-0.1,23.8-0.1c2.6,0,4.9,0.7,4.8,3.7c0,2.9-2.3,3.7-4.9,3.6
				c-9.9-0.1-19.8-0.1-29.7-0.1C265.6,296.8,269.2,295.8,271.8,294z"/>
			<path class="st103" d="M271.8,294c-2,2.3-4,4.7-6,7c-4.3,0.1-8.6,0.1-12.9,0.2c-2.5,0-4.3-1-4.3-3.7s1.8-3.7,4.3-3.7
				C259.3,293.9,265.6,294,271.8,294z"/>
			<path class="st104" d="M227.9,402.8c3.1-3.9-0.9-7.2-1.3-10.8c-0.7-5.8,3.9-11.4,0.3-17.1c6,0,11.9-0.1,17.9,0
				c7.4,0.1,9.4,3.9,6.8,10.4c-1.4,3.5-0.8,7.8-0.6,11.8c0.2,4.2-1.2,6.1-5.6,5.8C239.5,402.5,233.7,402.8,227.9,402.8z"/>
			<path class="st105" d="M333.9,508.7c-3.7-1.8-7.4,3.5-11,0l-0.2-0.2c-0.5-2.4-1.2-4.8,0.5-7c0.8-0.2,1.6-0.5,2.4-0.7
				c2.6-1.4,5.4-0.6,8.1-0.5c0.8-0.2,1.5-0.4,2.3-0.7c2.3-0.9,4.6-0.8,6.9-0.1c-0.1,0.6-0.3,1.3-0.4,1.9c-2.1,1.1-4.4,0.3-6.5,0.6
				c-3.6,1.3-7.6,0.6-11.3,1.4c0,0.4,0,0.8,0,1.3c2.7,4.3,6.7,2,10.2,1.8h-0.1c2.7-0.9,5.4-0.9,8.1,0c0,0.6,0.1,1.2,0.1,1.8
				C339.9,509.5,336.9,509.1,333.9,508.7z"/>
			<path class="st106" d="M305.1,510.7c0,0.9,0,1.8-0.1,2.6c-0.8-1.1-1.5-2.2-2.3-3.3c-0.7-2.4-0.8-4.8,0-7.3c0.3-0.7,0.7-1.4,1-2.1
				c0.9-0.6,1.8-1.3,2.7-1.9c-0.3,1.2-0.6,2.4-0.9,3.5C304.7,505.1,305.6,507.9,305.1,510.7z"/>
			<path class="st107" d="M334.7,506.5c-3.5-0.2-7.8,4.2-10.2-1.8C327.6,507.5,331.3,506.1,334.7,506.5z"/>
			<path class="st107" d="M324.6,503.5c3.7-0.6,7.4-1.1,11.1-1.7c0.3,0.1,0.5,0.3,0.4,0.5s-0.2,0.3-0.3,0.3
				C332,502.8,328.3,503.1,324.6,503.5z"/>
			<path class="st108" d="M333.9,508.7c3-0.1,6-0.2,9-0.3c0.1,0.3,0.3,0.6,0.4,0.9C340.1,509.4,336.9,510.3,333.9,508.7z"/>
			<path class="st109" d="M333.6,500.3c-2.7,0.2-5.4,0.3-8.1,0.5C328,498.4,330.8,499.6,333.6,500.3z"/>
			<path class="st110" d="M305.1,510.7c-0.2-2.8-1.2-5.7,0.6-8.4c0.1,2.1,0.2,4.1,0.3,6.2C305.6,509.3,305.3,510,305.1,510.7z"/>
			<path class="st111" d="M342.7,506.6c-2.7,0-5.4,0-8.1,0C337.3,505.2,340.1,504.8,342.7,506.6z"/>
			<path class="st112" d="M335.7,502.5c0-0.2,0-0.5,0-0.7c2.2-0.1,4.5-0.2,6.7-0.3C340.4,503.7,337.9,502.3,335.7,502.5z"/>
			<path class="st113" d="M342.7,499.6c-2.3,0-4.6,0-6.9,0.1C338.1,497.9,340.4,497.6,342.7,499.6z"/>
			<path class="st114" d="M323.1,501.5c-0.2,2.3-0.3,4.7-0.5,7C321.1,506,320.8,503.7,323.1,501.5z"/>
			<path class="st115" d="M302.8,502.8c0,2.4,0,4.8,0,7.3C301.1,507.7,301,505.2,302.8,502.8z"/>
			<path class="st116" d="M354.6,497.6c0-1.9,0.6-2.1,2.4-1.4c7.5,2.8,15,5.5,22.5,8.3c-5.6,1.3-11.2,2.5-16.9,3.8
				C359.5,505,356.1,502,354.6,497.6z"/>
			<path class="st117" d="M257.9,172c0,10.7-9.4,20.1-20,20.1c-11.4,0-20.8-9.2-20.8-20.4c0-11,9.3-20.4,20.3-20.4
				C248.6,151.3,257.9,160.7,257.9,172z"/>
		</g>
	</g>
</g>
</svg>
