<?xml version="1.0" encoding="utf-8"?>
<!-- Generator: Adobe Illustrator 25.4.1, SVG Export Plug-In . SVG Version: 6.00 Build 0)  -->
<svg version="1.1" id="OBJECTS" xmlns="http://www.w3.org/2000/svg" xmlns:xlink="http://www.w3.org/1999/xlink" x="0px" y="0px"
	 viewBox="0 0 645.6 419.1" style="enable-background:new 0 0 645.6 419.1;" xml:space="preserve">
<style type="text/css">
	.st0{opacity:0.5;fill:url(#SVGID_1_);}
	.st1{opacity:0.5;fill:url(#SVGID_00000060731513047208067390000010967664172872770474_);}
	.st2{opacity:0.5;fill:#C5D4EF;}
	.st3{fill:url(#SVGID_00000081610274736232549890000000586709206992422326_);}
	.st4{fill:url(#SVGID_00000101061417573246032440000016417112462541793213_);}
	.st5{opacity:0.2;}
	.st6{fill:url(#SVGID_00000062913720003897025200000010906175332757144196_);}
	.st7{fill:url(#SVGID_00000097460761562659398230000009868096360751172000_);}
	.st8{fill:url(#SVGID_00000127738991045150513080000017715191375662866358_);}
	.st9{fill:url(#SVGID_00000049201106536959609350000001011889519939111589_);}
	.st10{fill:url(#SVGID_00000090279706158170874910000013251311011915689392_);}
	.st11{fill:url(#SVGID_00000152957571962703048780000003319248568099343799_);}
	.st12{fill:url(#SVGID_00000150079327000692545890000010755355649092517531_);}
	.st13{fill:url(#SVGID_00000030449327076272855000000013707463920021415320_);}
	.st14{fill:#1F1C38;}
	.st15{fill:url(#SVGID_00000005973136870244354560000001630970485617426304_);}
	.st16{fill:url(#SVGID_00000005249165193187592130000005849925514213600679_);}
	.st17{fill:url(#SVGID_00000096755410718915171540000013879636612089581219_);}
	.st18{fill:url(#SVGID_00000075853386294311191570000005114628188138703807_);}
	.st19{fill:url(#SVGID_00000131341996339253211880000013988158979722721940_);}
	.st20{fill:url(#SVGID_00000026870917393667757180000014264715652852613785_);}
	.st21{fill:url(#SVGID_00000162349855381963033300000003759341497391852419_);}
	.st22{fill:url(#SVGID_00000119113424215823364880000016147726029394990509_);}
	.st23{fill:url(#SVGID_00000043421808561591669920000001071107341815754402_);}
	.st24{fill:url(#SVGID_00000018211736318601723040000009799279170768322738_);}
	.st25{fill:url(#SVGID_00000127762270087801774690000003128838281575100548_);}
	.st26{opacity:0.67;}
	.st27{fill:#111023;}
	.st28{fill:#F79244;}
	.st29{fill:url(#SVGID_00000080184694501455236260000009704015912401461436_);}
	.st30{fill:url(#SVGID_00000000185932457528755500000014386870306976294801_);}
	.st31{fill:url(#SVGID_00000011750721972124518060000004966847749264438919_);}
	.st32{fill:url(#SVGID_00000057861964878225755590000010030707436286341764_);}
	.st33{fill:url(#SVGID_00000063598910854139012920000017089118318691120772_);}
	.st34{fill:url(#SVGID_00000049209106767852214170000012472078743080690342_);}
	.st35{fill:url(#SVGID_00000158725016853059938030000011968251545861018803_);}
	.st36{fill:url(#SVGID_00000158732433204849801160000013706432246631002772_);}
	.st37{fill:url(#SVGID_00000113336146550984735320000010173544890449274296_);}
	.st38{fill:url(#SVGID_00000034088552863356872390000017462648575785250441_);}
	.st39{fill:url(#SVGID_00000147936309608952543280000013959452432004849827_);}
	.st40{fill:#C1C9D3;}
	.st41{fill:#FFFFFF;}
	.st42{fill:#D36C26;}
</style>
<g>
	<linearGradient id="SVGID_1_" gradientUnits="userSpaceOnUse" x1="7.1489" y1="191.3855" x2="606.1685" y2="191.3855">
		<stop  offset="0" style="stop-color:#DEA4D6"/>
		<stop  offset="0.4198" style="stop-color:#DCA4D6"/>
		<stop  offset="0.571" style="stop-color:#D5A3D8"/>
		<stop  offset="0.6787" style="stop-color:#CAA2DB"/>
		<stop  offset="0.7659" style="stop-color:#B99FE0"/>
		<stop  offset="0.8405" style="stop-color:#A39DE5"/>
		<stop  offset="0.9066" style="stop-color:#879AEC"/>
		<stop  offset="0.9649" style="stop-color:#6896F4"/>
		<stop  offset="1" style="stop-color:#5193FA"/>
	</linearGradient>
	<path class="st0" d="M596.4,370.8l-0.8-0.4H52.4c-18.5-11.2-33.1-28.9-40.5-49.2c-4.2-11.3-6.1-23.8-3.5-35.6
		c7.7-34,49.8-50.5,60.5-83.7c6.5-20.1,0-41.9,0.4-63c0.4-23,9.9-46.5,28.4-60.1c36.3-26.5,88.9-6.6,131.2-21.8
		c28-10.1,49.3-34.9,78-42.6c24.3-6.5,51.8,1,69.3,19c21.9,22.4,29,59,56.5,74c28.2,15.3,70,2.8,90.2,27.8c21.2,26.2-2,70.5,18.8,97
		c6.8,8.6,17.1,13.6,26.1,19.9C604.1,277.7,616.9,331.4,596.4,370.8z"/>
	
		<linearGradient id="SVGID_00000176039384734298637480000010229003824141209527_" gradientUnits="userSpaceOnUse" x1="336.3474" y1="370.3623" x2="336.3474" y2="11.9787">
		<stop  offset="0" style="stop-color:#DEA4D6"/>
		<stop  offset="0.4198" style="stop-color:#DCA4D6"/>
		<stop  offset="0.571" style="stop-color:#D5A3D8"/>
		<stop  offset="0.6787" style="stop-color:#CAA2DB"/>
		<stop  offset="0.7659" style="stop-color:#B99FE0"/>
		<stop  offset="0.8405" style="stop-color:#A39DE5"/>
		<stop  offset="0.9066" style="stop-color:#879AEC"/>
		<stop  offset="0.9649" style="stop-color:#6896F4"/>
		<stop  offset="1" style="stop-color:#5193FA"/>
	</linearGradient>
	<path style="opacity:0.5;fill:url(#SVGID_00000176039384734298637480000010229003824141209527_);" d="M625.6,370.4L625.6,370.4
		H82.4c-18.5-11.2-33.1-28.9-40.5-49.2c-4.2-11.3-6.1-23.8-3.5-35.6c7.7-34,49.8-50.5,60.5-83.7c6.5-20.1,0-41.9,0.4-63
		c0.4-23,9.9-46.5,28.4-60.1c36.3-26.5,88.9-6.6,131.2-21.8c28-10.1,49.3-34.9,78-42.6c24.3-6.5,51.8,1,69.3,19
		c21.9,22.4,29,59,56.5,74c28.2,15.3,70,2.8,90.2,27.8c21.2,26.2-2,70.5,18.8,97c6.8,8.6,17.1,13.6,26.1,19.9
		C634.1,277.7,646.1,331,625.6,370.4z"/>
	<path class="st2" d="M52.2,370.4H625c0,0-52.9,37.8-291.8,37.8S52.2,370.4,52.2,370.4z"/>
</g>
<g>
	
		<linearGradient id="SVGID_00000091728238817244982430000007830769218941196212_" gradientUnits="userSpaceOnUse" x1="215.135" y1="234.5182" x2="215.135" y2="349.3946">
		<stop  offset="0" style="stop-color:#CAEB8A"/>
		<stop  offset="0.4328" style="stop-color:#C8EA8B"/>
		<stop  offset="0.5888" style="stop-color:#C1E78E"/>
		<stop  offset="0.6999" style="stop-color:#B6E094"/>
		<stop  offset="0.7898" style="stop-color:#A5D89D"/>
		<stop  offset="0.8667" style="stop-color:#8FCDA7"/>
		<stop  offset="0.9337" style="stop-color:#74BFB5"/>
		<stop  offset="0.9939" style="stop-color:#55AFC4"/>
		<stop  offset="1" style="stop-color:#51ADC6"/>
	</linearGradient>
	<path style="fill:url(#SVGID_00000091728238817244982430000007830769218941196212_);" d="M327.2,330.6c-4.1-1.3-9-0.3-12.8,2
		c-5.3,3.2-9,8.4-13.2,13c-4.2,4.6-9.4,8.9-15.6,9.3c-5.8,0.3-11.2-2.9-15.7-6.6c-11.3-9.7-19.7-24.2-34-28.1
		c-2.3-0.6-4.7-0.9-7.1-0.4c-3,0.7-5.5,2.6-7.6,4.8c-7.2,7.5-10.3,18.7-18.8,24.7c-6.9,4.9-16.5,5.2-24.2,1.7
		c-6.6-3-11.8-8.3-17.4-12.9c-5.6-4.6-12.3-8.6-19.5-8.3c-5.2,0.2-9.9,2.7-14.8,4.5c-4.9,1.8-10.5,2.8-15,0.3
		c-7.1-4-8.9-13.1-8.4-21.2v0c2.4-9.8,7-19.6,16.2-23.1c10-3.8,21.8,1.4,31.8-2.4c15-5.7,17.3-27.5,31.2-35.7
		c6.8-4,15.9-3.8,22.5,0.5c12.6,8.2,14.3,27.8,27.6,34.8c6.5,3.5,14.3,3,21.7,3.4c7.4,0.4,15.6,2.5,19.4,8.8
		c3.1,5.2,2.3,11.8,2.2,17.8c-0.1,6.1,1.3,13.1,6.6,16c6.6,3.5,14.2-1.4,21-4.5C311.1,325.8,320.8,325,327.2,330.6
		C327.2,330.6,327.2,330.6,327.2,330.6z"/>
	
		<linearGradient id="SVGID_00000163042930393284282220000007044184336774753213_" gradientUnits="userSpaceOnUse" x1="422.4523" y1="234.4519" x2="422.4523" y2="349.3283">
		<stop  offset="0" style="stop-color:#CAEB8A"/>
		<stop  offset="0.4328" style="stop-color:#C8EA8B"/>
		<stop  offset="0.5888" style="stop-color:#C1E78E"/>
		<stop  offset="0.6999" style="stop-color:#B6E094"/>
		<stop  offset="0.7898" style="stop-color:#A5D89D"/>
		<stop  offset="0.8667" style="stop-color:#8FCDA7"/>
		<stop  offset="0.9337" style="stop-color:#74BFB5"/>
		<stop  offset="0.9939" style="stop-color:#55AFC4"/>
		<stop  offset="1" style="stop-color:#51ADC6"/>
	</linearGradient>
	<path style="fill:url(#SVGID_00000163042930393284282220000007044184336774753213_);" d="M534.5,330.6c-4.1-1.3-9-0.3-12.8,2
		c-5.3,3.2-9,8.4-13.2,13c-4.2,4.6-9.4,8.9-15.6,9.3c-5.8,0.3-11.2-2.9-15.7-6.6c-11.3-9.7-19.7-24.2-34-28.1
		c-2.3-0.6-4.7-0.9-7.1-0.4c-3,0.7-5.5,2.6-7.6,4.8c-7.2,7.5-10.3,18.7-18.8,24.7c-6.9,4.9-16.5,5.2-24.2,1.7
		c-6.6-3-11.8-8.3-17.4-12.9c-5.6-4.6-12.3-8.6-19.5-8.3c-5.2,0.2-9.9,2.7-14.8,4.5c-4.9,1.8-10.5,2.8-15,0.3
		c-7.1-4-8.9-13.1-8.4-21.2v0c2.4-9.8,7-19.6,16.2-23.1c10-3.8,21.8,1.4,31.8-2.4c15-5.7,17.3-27.5,31.2-35.7
		c6.8-4,15.9-3.8,22.5,0.5c12.6,8.2,14.3,27.8,27.6,34.8c6.5,3.5,14.3,3,21.7,3.4c7.4,0.4,15.6,2.5,19.4,8.8
		c3.1,5.2,2.3,11.8,2.2,17.8c-0.1,6.1,1.3,13.1,6.6,16c6.6,3.5,14.2-1.4,21-4.5C518.4,325.7,528.1,325,534.5,330.6
		C534.5,330.5,534.5,330.5,534.5,330.6z"/>
	<g>
		<g class="st5">
			<path d="M490.5,365.5L429.2,328c-5.6-3.4-7.4-10.9-4-16.5l21.2-34.7c3.4-5.6,10.9-7.4,16.5-4l61.3,37.5c5.6,3.4,7.4,10.9,4,16.5
				L507,361.5C503.6,367.1,496.2,368.9,490.5,365.5z"/>
			<path d="M486.1,362.7l-61.3-37.5c-5.6-3.4-7.4-10.9-4-16.5L442,274c3.4-5.6,10.9-7.4,16.5-4l61.3,37.5c5.6,3.4,7.4,10.9,4,16.5
				l-21.2,34.7C499.1,364.4,491.7,366.2,486.1,362.7z"/>
			<polygon points="468.4,289.1 446.3,325.4 489.8,327 			"/>
		</g>
		<g>
			<g>
				
					<linearGradient id="SVGID_00000082349431177995926710000004576629917350034358_" gradientUnits="userSpaceOnUse" x1="436.1235" y1="327.7829" x2="531.9716" y2="327.7829" gradientTransform="matrix(0.8533 0.5214 -0.5214 0.8533 237.6258 -215.972)">
					<stop  offset="0" style="stop-color:#3C0887"/>
					<stop  offset="0.3227" style="stop-color:#3F0987"/>
					<stop  offset="0.5338" style="stop-color:#470E87"/>
					<stop  offset="0.7129" style="stop-color:#561588"/>
					<stop  offset="0.8732" style="stop-color:#6B1F89"/>
					<stop  offset="1" style="stop-color:#822A8A"/>
				</linearGradient>
				<path style="fill:url(#SVGID_00000082349431177995926710000004576629917350034358_);" d="M493.5,362.5L432.2,325
					c-5.6-3.4-7.4-10.9-4-16.5l21.2-34.7c3.4-5.6,10.9-7.4,16.5-4l61.3,37.5c5.6,3.4,7.4,10.9,4,16.5L510,358.5
					C506.6,364.1,499.2,365.9,493.5,362.5z"/>
				
					<linearGradient id="SVGID_00000029744840353450619710000013369740110427603346_" gradientUnits="userSpaceOnUse" x1="422.0467" y1="313.4072" x2="528.5645" y2="313.4072">
					<stop  offset="0" style="stop-color:#31D1D6"/>
					<stop  offset="0.3733" style="stop-color:#32CED8"/>
					<stop  offset="0.6175" style="stop-color:#36C6DF"/>
					<stop  offset="0.824" style="stop-color:#3CB7EB"/>
					<stop  offset="1" style="stop-color:#45A3FA"/>
				</linearGradient>
				<path style="fill:url(#SVGID_00000029744840353450619710000013369740110427603346_);" d="M489.1,359.7l-61.3-37.5
					c-5.6-3.4-7.4-10.9-4-16.5L445,271c3.4-5.6,10.9-7.4,16.5-4l61.3,37.5c5.6,3.4,7.4,10.9,4,16.5l-21.2,34.7
					C502.1,361.4,494.7,363.2,489.1,359.7z"/>
				
					<linearGradient id="SVGID_00000030469231069880274230000006952687262493204868_" gradientUnits="userSpaceOnUse" x1="453.6956" y1="331.4725" x2="492.5141" y2="312.6024" gradientTransform="matrix(0.8533 0.5214 -0.5214 0.8533 237.6258 -215.972)">
					<stop  offset="0" style="stop-color:#F9E6D9"/>
					<stop  offset="0.121" style="stop-color:#FCF1EA"/>
					<stop  offset="0.2698" style="stop-color:#FEF9F6"/>
					<stop  offset="0.4751" style="stop-color:#FFFEFD"/>
					<stop  offset="1" style="stop-color:#FFFFFF"/>
				</linearGradient>
				<polygon style="fill:url(#SVGID_00000030469231069880274230000006952687262493204868_);" points="471.4,286.1 449.3,322.4 
					492.8,324 				"/>
			</g>
		</g>
	</g>
	
		<linearGradient id="SVGID_00000165920470062700905460000010066710532786663594_" gradientUnits="userSpaceOnUse" x1="425.2946" y1="324.1613" x2="426.1036" y2="372.7006">
		<stop  offset="0" style="stop-color:#CAEB8A"/>
		<stop  offset="0.4328" style="stop-color:#C8EA8B"/>
		<stop  offset="0.5888" style="stop-color:#C1E78E"/>
		<stop  offset="0.6999" style="stop-color:#B6E094"/>
		<stop  offset="0.7898" style="stop-color:#A5D89D"/>
		<stop  offset="0.8667" style="stop-color:#8FCDA7"/>
		<stop  offset="0.9337" style="stop-color:#74BFB5"/>
		<stop  offset="0.9939" style="stop-color:#55AFC4"/>
		<stop  offset="1" style="stop-color:#51ADC6"/>
	</linearGradient>
	<path style="fill:url(#SVGID_00000165920470062700905460000010066710532786663594_);" d="M259.7,370.4L259.7,370.4
		c-1.6-12.3,6.2-25.2,17.8-29.5c9.3-3.5,21.2-2.4,27.4-10.2c3.1-3.9,3.8-9,4.8-13.9c0.2-1.1,0.5-2.2,0.7-3.3
		c-0.5,8.1,1.4,17.2,8.4,21.2c4.5,2.5,10.2,1.5,15-0.3c4.9-1.8,9.6-4.2,14.8-4.5c7.2-0.4,13.9,3.7,19.5,8.3
		c5.6,4.6,10.8,9.9,17.4,12.9c7.7,3.4,17.2,3.1,24.2-1.7c8.5-6,11.6-17.2,18.8-24.7c2.1-2.2,4.7-4.1,7.6-4.8
		c2.3-0.5,4.8-0.2,7.1,0.4c14.3,3.9,22.7,18.4,34,28.1c4.4,3.8,9.9,7,15.7,6.6c6.2-0.4,11.4-4.7,15.6-9.3c4.2-4.6,7.9-9.8,13.2-13
		c3.8-2.3,8.7-3.3,12.8-2c6.6,5.9,7.8,17.2,16,20.7c7.1,3,15.1-1.8,22.8-1.1c9.8,1,16.2,10.7,19.3,20.2H259.7z"/>
	<g>
		
			<linearGradient id="SVGID_00000028323288616672194010000006222320886377571766_" gradientUnits="userSpaceOnUse" x1="153.2214" y1="276.5094" x2="118.8843" y2="279.2061">
			<stop  offset="0" style="stop-color:#31D1D6"/>
			<stop  offset="0.2758" style="stop-color:#33CED7"/>
			<stop  offset="0.4563" style="stop-color:#3CC6DA"/>
			<stop  offset="0.6094" style="stop-color:#49B7DF"/>
			<stop  offset="0.7474" style="stop-color:#5DA1E6"/>
			<stop  offset="0.8738" style="stop-color:#7586EE"/>
			<stop  offset="0.9924" style="stop-color:#9465F9"/>
			<stop  offset="1" style="stop-color:#9663FA"/>
		</linearGradient>
		<path style="fill:url(#SVGID_00000028323288616672194010000006222320886377571766_);" d="M145.5,337.5V216c0,0,0.9,5.6,4.8,5.6
			c3.9,0,4.8-5.6,4.8-5.6v121.5H145.5z"/>
		
			<linearGradient id="SVGID_00000116951406968850376580000009027241253318087081_" gradientUnits="userSpaceOnUse" x1="153.0743" y1="274.6373" x2="118.7373" y2="277.334">
			<stop  offset="0" style="stop-color:#31D1D6"/>
			<stop  offset="0.2758" style="stop-color:#33CED7"/>
			<stop  offset="0.4563" style="stop-color:#3CC6DA"/>
			<stop  offset="0.6094" style="stop-color:#49B7DF"/>
			<stop  offset="0.7474" style="stop-color:#5DA1E6"/>
			<stop  offset="0.8738" style="stop-color:#7586EE"/>
			<stop  offset="0.9924" style="stop-color:#9465F9"/>
			<stop  offset="1" style="stop-color:#9663FA"/>
		</linearGradient>
		<path style="fill:url(#SVGID_00000116951406968850376580000009027241253318087081_);" d="M122.2,337.5V216c0,0,0.9,4.9,4.1,4.9
			c3.2,0,4.1-4.9,4.1-4.9v121.5H122.2z"/>
		
			<linearGradient id="SVGID_00000065782832196095360590000016686783852080302475_" gradientUnits="userSpaceOnUse" x1="123.291" y1="276.5382" x2="150.0775" y2="276.8977">
			<stop  offset="0" style="stop-color:#31D1D6"/>
			<stop  offset="0.2758" style="stop-color:#33CED7"/>
			<stop  offset="0.4563" style="stop-color:#3CC6DA"/>
			<stop  offset="0.6094" style="stop-color:#49B7DF"/>
			<stop  offset="0.7474" style="stop-color:#5DA1E6"/>
			<stop  offset="0.8738" style="stop-color:#7586EE"/>
			<stop  offset="0.9924" style="stop-color:#9465F9"/>
			<stop  offset="1" style="stop-color:#9663FA"/>
		</linearGradient>
		<path style="fill:url(#SVGID_00000065782832196095360590000016686783852080302475_);" d="M130.5,337.5V216c0,0,1.6,6.3,7.5,6.3
			c5.9,0,7.5-6.3,7.5-6.3v121.5H130.5z"/>
		
			<linearGradient id="SVGID_00000103255487798249497310000005158914749742348423_" gradientUnits="userSpaceOnUse" x1="571.9525" y1="106.9607" x2="604.8779" y2="106.9607" gradientTransform="matrix(-1 0 0 -1 727.1191 312.8946)">
			<stop  offset="0" style="stop-color:#F7BE86"/>
			<stop  offset="0.3293" style="stop-color:#F7BC83"/>
			<stop  offset="0.5448" style="stop-color:#F7B67B"/>
			<stop  offset="0.7276" style="stop-color:#F7AC6C"/>
			<stop  offset="0.8912" style="stop-color:#F79E57"/>
			<stop  offset="1" style="stop-color:#F79244"/>
		</linearGradient>
		<path style="fill:url(#SVGID_00000103255487798249497310000005158914749742348423_);" d="M122.2,216l9.9-26.4
			c3.5,7.7,13.7,3.9,13.7,3.9l9.3,22.5c0,0-0.9,5.6-4.8,5.6c-3.9,0-4.8-5.6-4.8-5.6s-1.6,6.3-7.5,6.3c-5.9,0-7.5-6.3-7.5-6.3
			s-0.9,4.9-4.1,4.9C123.2,220.9,122.2,216,122.2,216z"/>
		<path class="st14" d="M132.1,189.6L132.1,189.6L132.1,189.6l0.7-1.8c0.3-0.9,1-1.6,1.8-1.9l3.5-1.6c1.8-0.8,3.9,0,4.6,1.8l3.1,7.4
			C145.8,193.5,135.6,197.3,132.1,189.6z"/>
	</g>
	
		<linearGradient id="SVGID_00000183936609686880035920000009810123206583223726_" gradientUnits="userSpaceOnUse" x1="217.9773" y1="324.2276" x2="218.7863" y2="372.7669">
		<stop  offset="0" style="stop-color:#CAEB8A"/>
		<stop  offset="0.4328" style="stop-color:#C8EA8B"/>
		<stop  offset="0.5888" style="stop-color:#C1E78E"/>
		<stop  offset="0.6999" style="stop-color:#B6E094"/>
		<stop  offset="0.7898" style="stop-color:#A5D89D"/>
		<stop  offset="0.8667" style="stop-color:#8FCDA7"/>
		<stop  offset="0.9337" style="stop-color:#74BFB5"/>
		<stop  offset="0.9939" style="stop-color:#55AFC4"/>
		<stop  offset="1" style="stop-color:#51ADC6"/>
	</linearGradient>
	<path style="fill:url(#SVGID_00000183936609686880035920000009810123206583223726_);" d="M52.4,370.4L52.4,370.4
		c-1.6-12.3,6.2-25.2,17.8-29.5c9.3-3.5,21.2-2.4,27.4-10.2c3.1-3.9,3.8-9,4.8-13.9c0.2-1.1,0.5-2.2,0.7-3.3
		c-0.5,8.1,1.4,17.2,8.4,21.2c4.5,2.5,10.2,1.5,15-0.3c4.9-1.8,9.6-4.2,14.8-4.5c7.2-0.4,13.9,3.7,19.5,8.3
		c5.6,4.6,10.8,9.9,17.4,12.9c7.7,3.4,17.2,3.1,24.2-1.7c8.5-6,11.6-17.2,18.8-24.7c2.1-2.2,4.7-4.1,7.6-4.8
		c2.3-0.5,4.8-0.2,7.1,0.4c14.3,3.9,22.7,18.4,34,28.1c4.4,3.8,9.9,7,15.7,6.6c6.2-0.4,11.4-4.7,15.6-9.3c4.2-4.6,7.9-9.8,13.2-13
		c3.8-2.3,8.7-3.3,12.8-2c6.6,5.9,7.8,17.2,16,20.7c7.1,3,15.1-1.8,22.8-1.1c9.8,1,16.2,10.7,19.3,20.2H52.4z"/>
</g>
<g>
	<g>
		<g class="st5">
			<path d="M521.3,124.2H381.6c-6.6,0-12-5.4-12-12V99.7c0-6.6,5.4-12,12-12h139.7c6.6,0,12,5.4,12,12v12.6
				C533.3,118.8,527.9,124.2,521.3,124.2z"/>
		</g>
		<g>
			
				<linearGradient id="SVGID_00000098900496670976029580000011174718246345503679_" gradientUnits="userSpaceOnUse" x1="454.4402" y1="130.4485" x2="454.4402" y2="84.5335">
				<stop  offset="0" style="stop-color:#F9E6D9"/>
				<stop  offset="0.121" style="stop-color:#FCF1EA"/>
				<stop  offset="0.2698" style="stop-color:#FEF9F6"/>
				<stop  offset="0.4751" style="stop-color:#FFFEFD"/>
				<stop  offset="1" style="stop-color:#FFFFFF"/>
			</linearGradient>
			<path style="fill:url(#SVGID_00000098900496670976029580000011174718246345503679_);" d="M524.3,121.2H384.6c-6.6,0-12-5.4-12-12
				V96.7c0-6.6,5.4-12,12-12h139.7c6.6,0,12,5.4,12,12v12.6C536.3,115.8,530.9,121.2,524.3,121.2z"/>
		</g>
	</g>
	
		<linearGradient id="SVGID_00000019648903982549196140000013813593449673992107_" gradientUnits="userSpaceOnUse" x1="393.8363" y1="52.0783" x2="394.5554" y2="125.4266">
		<stop  offset="0" style="stop-color:#31D1D6"/>
		<stop  offset="0.3733" style="stop-color:#32CED8"/>
		<stop  offset="0.6175" style="stop-color:#36C6DF"/>
		<stop  offset="0.824" style="stop-color:#3CB7EB"/>
		<stop  offset="1" style="stop-color:#45A3FA"/>
	</linearGradient>
	<polygon style="fill:url(#SVGID_00000019648903982549196140000013813593449673992107_);" points="394.3,89.6 397.9,96.9 406,98.1 
		400.1,103.8 401.5,111.8 394.3,108 387.1,111.8 388.4,103.8 382.6,98.1 390.7,96.9 	"/>
	
		<linearGradient id="SVGID_00000088119468198769637250000016498894718532412565_" gradientUnits="userSpaceOnUse" x1="420.2401" y1="51.8195" x2="420.9592" y2="125.1678">
		<stop  offset="0" style="stop-color:#31D1D6"/>
		<stop  offset="0.3733" style="stop-color:#32CED8"/>
		<stop  offset="0.6175" style="stop-color:#36C6DF"/>
		<stop  offset="0.824" style="stop-color:#3CB7EB"/>
		<stop  offset="1" style="stop-color:#45A3FA"/>
	</linearGradient>
	<polygon style="fill:url(#SVGID_00000088119468198769637250000016498894718532412565_);" points="420.7,89.6 424.3,96.9 
		432.4,98.1 426.5,103.8 427.9,111.8 420.7,108 413.5,111.8 414.9,103.8 409,98.1 417.1,96.9 	"/>
	
		<linearGradient id="SVGID_00000146500402843562182820000005157386440677432254_" gradientUnits="userSpaceOnUse" x1="454.0559" y1="92.3156" x2="451.7188" y2="118.383">
		<stop  offset="0" style="stop-color:#3C0887"/>
		<stop  offset="0.3227" style="stop-color:#3F0987"/>
		<stop  offset="0.5338" style="stop-color:#470E87"/>
		<stop  offset="0.7129" style="stop-color:#561588"/>
		<stop  offset="0.8732" style="stop-color:#6B1F89"/>
		<stop  offset="1" style="stop-color:#822A8A"/>
	</linearGradient>
	<polygon style="fill:url(#SVGID_00000146500402843562182820000005157386440677432254_);" points="453.1,103.5 454.5,111.6 
		447.3,107.8 450.9,96.7 459,97.8 	"/>
	
		<linearGradient id="SVGID_00000155859801433878540640000007486372679221824160_" gradientUnits="userSpaceOnUse" x1="442.7899" y1="51.8277" x2="443.5046" y2="124.7229">
		<stop  offset="0" style="stop-color:#31D1D6"/>
		<stop  offset="0.3733" style="stop-color:#32CED8"/>
		<stop  offset="0.6175" style="stop-color:#36C6DF"/>
		<stop  offset="0.824" style="stop-color:#3CB7EB"/>
		<stop  offset="1" style="stop-color:#45A3FA"/>
	</linearGradient>
	<polygon style="fill:url(#SVGID_00000155859801433878540640000007486372679221824160_);" points="450.9,96.7 447.3,107.8 
		440.1,111.6 441.4,103.5 435.6,97.8 443.7,96.7 447.3,89.3 	"/>
	
		<linearGradient id="SVGID_00000107588827625466621360000015308655650067025556_" gradientUnits="userSpaceOnUse" x1="473.2205" y1="51.3001" x2="473.9396" y2="124.6484">
		<stop  offset="0" style="stop-color:#3C0887"/>
		<stop  offset="0.3227" style="stop-color:#3F0987"/>
		<stop  offset="0.5338" style="stop-color:#470E87"/>
		<stop  offset="0.7129" style="stop-color:#561588"/>
		<stop  offset="0.8732" style="stop-color:#6B1F89"/>
		<stop  offset="1" style="stop-color:#822A8A"/>
	</linearGradient>
	<polygon style="fill:url(#SVGID_00000107588827625466621360000015308655650067025556_);" points="473.7,89.4 477.3,96.7 
		485.4,97.8 479.5,103.5 480.9,111.6 473.7,107.8 466.5,111.6 467.8,103.5 462,97.8 470.1,96.7 	"/>
	
		<linearGradient id="SVGID_00000139990753520391751250000007666713296694458800_" gradientUnits="userSpaceOnUse" x1="513.4109" y1="70.6018" x2="509.8154" y2="126.1523">
		<stop  offset="0" style="stop-color:#3C0887"/>
		<stop  offset="0.3227" style="stop-color:#3F0987"/>
		<stop  offset="0.5338" style="stop-color:#470E87"/>
		<stop  offset="0.7129" style="stop-color:#561588"/>
		<stop  offset="0.8732" style="stop-color:#6B1F89"/>
		<stop  offset="1" style="stop-color:#822A8A"/>
	</linearGradient>
	<polygon style="fill:url(#SVGID_00000139990753520391751250000007666713296694458800_);" points="517.3,73.3 520.8,92 538.2,99.7 
		521.5,108.8 519.6,127.7 505.8,114.7 487.2,118.7 495.3,101.5 485.8,85 504.6,87.5 	"/>
</g>
<g>
	<g>
		
			<linearGradient id="SVGID_00000011032085788694989840000017924240788178259387_" gradientUnits="userSpaceOnUse" x1="186.3392" y1="266.3119" x2="294.5448" y2="282.1469" gradientTransform="matrix(-0.8469 0.5317 0.5317 0.8469 325.7315 -93.7717)">
			<stop  offset="0" style="stop-color:#F9E6D9"/>
			<stop  offset="0.121" style="stop-color:#FCF1EA"/>
			<stop  offset="0.2698" style="stop-color:#FEF9F6"/>
			<stop  offset="0.4751" style="stop-color:#FFFEFD"/>
			<stop  offset="1" style="stop-color:#FFFFFF"/>
		</linearGradient>
		<path style="fill:url(#SVGID_00000011032085788694989840000017924240788178259387_);" d="M148,261.1c0,0-17.6,18.6-2.3,35.7
			c0,0-11.5,20.4,8.9,35.1c0,0-3.9,33.3,25.8,38.4h144.4l-15.3-97.1c0,0-4.5-21.8-21.1-35.4s-33.3-51.8-31.9-76.8
			c1.5-25.1-56.5-19.7-40.7,29.7c15.7,49.4,10.1,50.1-10.1,45.2S150.9,222.4,148,261.1z"/>
	</g>
	
		<linearGradient id="SVGID_00000065776366438615691320000009873169495445122998_" gradientUnits="userSpaceOnUse" x1="350.1494" y1="203.8929" x2="351.228" y2="334.9491">
		<stop  offset="0" style="stop-color:#31D1D6"/>
		<stop  offset="0.3733" style="stop-color:#32CED8"/>
		<stop  offset="0.6175" style="stop-color:#36C6DF"/>
		<stop  offset="0.824" style="stop-color:#3CB7EB"/>
		<stop  offset="1" style="stop-color:#45A3FA"/>
	</linearGradient>
	<path style="fill:url(#SVGID_00000065776366438615691320000009873169495445122998_);" d="M393.1,370.2h-84v-99c0-6.6,5.4-12,12-12
		h60c6.6,0,12,5.4,12,12V370.2z"/>
	
		<linearGradient id="SVGID_00000150790333169293115550000014434740555093161108_" gradientUnits="userSpaceOnUse" x1="370.7591" y1="456.3057" x2="378.849" y2="247.5866">
		<stop  offset="0" style="stop-color:#F9E6D9"/>
		<stop  offset="0.121" style="stop-color:#FCF1EA"/>
		<stop  offset="0.2698" style="stop-color:#FEF9F6"/>
		<stop  offset="0.4751" style="stop-color:#FFFEFD"/>
		<stop  offset="1" style="stop-color:#FFFFFF"/>
	</linearGradient>
	<circle style="fill:url(#SVGID_00000150790333169293115550000014434740555093161108_);" cx="374.8" cy="351.7" r="11.2"/>
	<path class="st26" d="M295.5,244.8c0,0,9.5,75.1,97.6,89.1v-62.6c0,0,0.4-11.1-12-12h-60c0,0-11.1-0.2-12,12
		C309.1,271.3,304.3,254.1,295.5,244.8z"/>
</g>
<g>
	<g>
		<path class="st14" d="M268.6,157.6c-2.7,5.8-2.6,12.9,0.1,18.8l-0.6,0.3c-1-2.1-1.8-4.4-3.2-6.2c-2.4-3.1-6.2-4.6-9.7-6.3
			c-3.5-1.7-7.2-4-8.3-7.7c-1.1-3.4,0.2-7.2,2-10.3c1.8-3.1,4-6.1,5.1-9.5c2.8-9.5-4.3-20.2-0.3-29.3c2.2-5,7.4-8,12.6-9.8
			c5.2-1.8,10.7-2.6,15.7-5c4.3-2.1,8-5.2,10.8-9.1c4.2-5.8,6.3-13.5,12.3-17.5c3.5-2.4,8-3.1,12.2-2.9c6.4,0.3,12.7,2.7,17.5,6.9
			c4.5,4,7.5,9.7,7.9,15.6c-2.2-6.3-6.3-9.3-7.7-10.1c0.1,4.7-1.9,9.4-5,13c-3.2,3.7-7.5,6.3-12,8.1c-2,0.8-4,1.4-6.1,1.2
			c-0.7-1.2-2.1-1.9-3.4-1.8c-1.4,0.1-2.8,1-3.3,2.4c-0.4,0.8-0.4,1.8-0.2,2.7c0.5,3.2,3,5.9,6.1,6.7c-0.1,4.6-4.6,8.4-9.1,9.6
			c-4.8,1.3-10,0.7-14.9,1.4c-4,0.5-8,1.8-11.5,3.9c-2.1,1.2-4.2,2.8-5.2,5c-3,6.3,3.5,13.5,2.5,20.4
			C272.3,151.5,270.1,154.4,268.6,157.6z"/>
		<path class="st27" d="M311.8,107.8c1.8,6.5-0.9,14.2-6.6,17.9c-2.9,1.9-6.3,2.8-9.7,3.8c-3.2,0.9-6.4,2-9.1,4
			c-2.3,1.8-3.7,4.5-4.1,7.3c-1.1,9.4,0.6,24.5,2.8,38.1c-3.8,3.4-9.6,5.4-13.7,2.4c-1.6-1.2-2.5-2.9-3.4-4.7l0.6-0.3
			c-2.8-5.8-2.9-12.9-0.1-18.8c1.5-3.2,3.8-6.1,4.2-9.6c1-6.9-5.5-14.1-2.5-20.4c1-2.2,3.1-3.8,5.2-5c3.5-2.1,7.4-3.4,11.5-3.9
			c5-0.6,10.1-0.1,14.9-1.4c4.6-1.2,9-5,9.1-9.6C311.3,107.7,311.5,107.8,311.8,107.8z"/>
	</g>
	<g>
		<path class="st28" d="M328,117.6l2.2,13.4c-1.4-0.2-2.6-0.5-3.7-0.6c-9.3-5.6-9.7-16.9-9.7-16.9L328,117.6z"/>
		
			<linearGradient id="SVGID_00000163786802192055625760000000424247530511295625_" gradientUnits="userSpaceOnUse" x1="344.9331" y1="107.9551" x2="303.5398" y2="106.3371">
			<stop  offset="0" style="stop-color:#F7BE86"/>
			<stop  offset="0.3293" style="stop-color:#F7BC83"/>
			<stop  offset="0.5448" style="stop-color:#F7B67B"/>
			<stop  offset="0.7276" style="stop-color:#F7AC6C"/>
			<stop  offset="0.8912" style="stop-color:#F79E57"/>
			<stop  offset="1" style="stop-color:#F79244"/>
		</linearGradient>
		<path style="fill:url(#SVGID_00000163786802192055625760000000424247530511295625_);" d="M311.8,107.8c-0.3,0-0.5-0.1-0.8-0.2
			c-3.1-0.8-5.6-3.6-6.1-6.7c-0.1-0.9-0.1-1.9,0.2-2.7c0.5-1.3,1.9-2.3,3.3-2.4c1.4-0.1,2.7,0.6,3.4,1.8c2.1,0.2,4.2-0.4,6.1-1.2
			c4.5-1.8,8.8-4.4,12-8.1c3.1-3.6,5.1-8.2,5-13c1.4,0.9,5.6,3.8,7.7,10.1c1.3,3.8,1.9,8.7,0.8,15.1c-3.4,19.5-14.4,16.9-15.6,17
			l-11.2-4.2c0,0,0.4,11.2,9.7,16.9c1.1,0.7,2.3,1.2,3.7,1.7c-4.1,19.2-25-6.4-25-6.4C310.9,122,313.6,114.4,311.8,107.8z"/>
	</g>
	<g>
		<polygon class="st14" points="488.4,365.5 457.4,371.9 445,349.8 451.4,371.9 445,371.9 426.9,322 451.2,322 466.1,348.6 		"/>
		
			<linearGradient id="SVGID_00000128473824164662207660000000185142687073601202_" gradientUnits="userSpaceOnUse" x1="360.4739" y1="297.8104" x2="420.019" y2="246.1416">
			<stop  offset="0" style="stop-color:#3C0887"/>
			<stop  offset="0.3227" style="stop-color:#3F0987"/>
			<stop  offset="0.5338" style="stop-color:#470E87"/>
			<stop  offset="0.7129" style="stop-color:#561588"/>
			<stop  offset="0.8732" style="stop-color:#6B1F89"/>
			<stop  offset="1" style="stop-color:#822A8A"/>
		</linearGradient>
		<path style="fill:url(#SVGID_00000128473824164662207660000000185142687073601202_);" d="M462.4,335.9l-4.1,1.8l-20.4,9.1l-4.5,2
			l-17.1-41.3v0l-19-48.4l-4.2-10.7c0,0-25.1,18.8-65.1,20.1s-33.2-40.3-33.2-40.3l44.1-14.3l4,0.5l1.5-6l4-1.1
			c0.9,0.3,1.8,0.4,2.7,0.3v6.8h59.4c1.7,0.8,8.1,14.9,15.5,32.6C439.1,278.1,462.4,335.9,462.4,335.9z"/>
		
			<linearGradient id="SVGID_00000135657582142519007400000002910933903156160190_" gradientUnits="userSpaceOnUse" x1="358.1893" y1="213.5042" x2="439.306" y2="233.943">
			<stop  offset="0" style="stop-color:#3C0887"/>
			<stop  offset="0.3227" style="stop-color:#3F0987"/>
			<stop  offset="0.5338" style="stop-color:#470E87"/>
			<stop  offset="0.7129" style="stop-color:#561588"/>
			<stop  offset="0.8732" style="stop-color:#6B1F89"/>
			<stop  offset="1" style="stop-color:#822A8A"/>
		</linearGradient>
		<path style="fill:url(#SVGID_00000135657582142519007400000002910933903156160190_);" d="M410.6,214.5h16.9c0,0-0.6,19.5-1.4,32.6
			C418.7,229.4,412.3,215.3,410.6,214.5z"/>
		<polygon class="st14" points="408,348.1 416.2,374 389.9,363.9 390.7,337.2 379.6,359.3 374.7,356.7 389.9,311.1 412.2,319.3 		
			"/>
		
			<linearGradient id="SVGID_00000065776870810437567910000003134011734550935470_" gradientUnits="userSpaceOnUse" x1="341.0619" y1="281.4787" x2="422.1785" y2="301.9175">
			<stop  offset="0" style="stop-color:#3C0887"/>
			<stop  offset="0.3227" style="stop-color:#3F0987"/>
			<stop  offset="0.5338" style="stop-color:#470E87"/>
			<stop  offset="0.7129" style="stop-color:#561588"/>
			<stop  offset="0.8732" style="stop-color:#6B1F89"/>
			<stop  offset="1" style="stop-color:#822A8A"/>
		</linearGradient>
		<polygon style="fill:url(#SVGID_00000065776870810437567910000003134011734550935470_);" points="416.2,307.6 416.2,307.6 
			411.1,335.6 411.1,335.6 382.1,326 397.2,259.2 		"/>
	</g>
	<g>
		
			<linearGradient id="SVGID_00000070090043812227137510000016784940031623916470_" gradientUnits="userSpaceOnUse" x1="386.1882" y1="123.4324" x2="414.2935" y2="123.4324" gradientTransform="matrix(0.9481 -0.318 0.318 0.9481 -18.8202 135.8173)">
			<stop  offset="0" style="stop-color:#F7BE86"/>
			<stop  offset="0.3293" style="stop-color:#F7BC83"/>
			<stop  offset="0.5448" style="stop-color:#F7B67B"/>
			<stop  offset="0.7276" style="stop-color:#F7AC6C"/>
			<stop  offset="0.8912" style="stop-color:#F79E57"/>
			<stop  offset="1" style="stop-color:#F79244"/>
		</linearGradient>
		<path style="fill:url(#SVGID_00000070090043812227137510000016784940031623916470_);" d="M402.8,111.2c1.1-2.3,2.3-4.5,4.1-6.3
			c0.2-0.1,0.3-0.3,0.6-0.3c0.2,0,0.4,0.3,0.4,0.6c0.3,1.3,0.1,2.7-0.3,4.1c-0.5,1.8-1.1,3.5-1.7,5.3c-0.6,1.7-1.3,3.5-1.9,5.2l0,0
			c1.7,1.4,3.5,2.9,5.1,4.4c1.3,1.2,2.6,2.6,3.1,4.3c0.7,2.4-0.4,5-2,6.9c-1.6,1.9-3.7,3.4-5.5,5.1c-0.9,0.8-1.8,1.8-2.6,2.7
			l-12.3-3.3C393.9,130.2,398.2,120.6,402.8,111.2z"/>
		
			<linearGradient id="SVGID_00000045585570293215054010000014659273926803163811_" gradientUnits="userSpaceOnUse" x1="380.9757" y1="143.6105" x2="337.1239" y2="157.173">
			<stop  offset="0" style="stop-color:#31D1D6"/>
			<stop  offset="0.3733" style="stop-color:#32CED8"/>
			<stop  offset="0.6175" style="stop-color:#36C6DF"/>
			<stop  offset="0.824" style="stop-color:#3CB7EB"/>
			<stop  offset="1" style="stop-color:#45A3FA"/>
		</linearGradient>
		<path style="fill:url(#SVGID_00000045585570293215054010000014659273926803163811_);" d="M330.3,131.6l-0.1-0.6
			c3.5,0.7,7.4,1.5,9.5,2.4c9.8,4.3,32.8,20.8,32.8,20.8l18.9-19l1.1,0.8l10.6,7.1l0.5,0.4l-26.9,29c-2.2,2-5.3,2.7-8.1,1.6
			l-18.6-6.8c0.4-0.8,0.5-1.4,0.5-1.4c0.9-12.7-15.7-29.7-19.6-33.5C330.5,131.9,330.3,131.7,330.3,131.6L330.3,131.6z"/>
		<path class="st28" d="M330.3,131.6L330.3,131.6c0,0.2-0.1,0.3-0.1,0.5c-1.4-0.5-2.6-1.1-3.7-1.7c1,0.2,2.3,0.4,3.7,0.6
			L330.3,131.6z"/>
		
			<linearGradient id="SVGID_00000000911445548582326710000004729420367723629738_" gradientUnits="userSpaceOnUse" x1="344.4086" y1="201.8696" x2="380.1186" y2="201.8696">
			<stop  offset="0" style="stop-color:#F7BE86"/>
			<stop  offset="0.3293" style="stop-color:#F7BC83"/>
			<stop  offset="0.5448" style="stop-color:#F7B67B"/>
			<stop  offset="0.7276" style="stop-color:#F7AC6C"/>
			<stop  offset="0.8912" style="stop-color:#F79E57"/>
			<stop  offset="1" style="stop-color:#F79244"/>
		</linearGradient>
		<path style="fill:url(#SVGID_00000000911445548582326710000004729420367723629738_);" d="M347.4,208.7l-0.7,0v0.1
			c-0.8,0.1-1.6,0-2.3-0.2l1.7-6.4c6.7-0.7,12.8-3.9,19.2-6.1c3.1-1,6.6-1.7,9.3-0.1c2.4,1.5,3.5,4.4,4.3,7.1
			c0.4,1.4,0.8,2.9,1.2,4.3l0,0.2L347.4,208.7z"/>
		
			<linearGradient id="SVGID_00000116931769899433403850000012548434886676827826_" gradientUnits="userSpaceOnUse" x1="355.0662" y1="157.8278" x2="310.8415" y2="164.8391">
			<stop  offset="0" style="stop-color:#31D1D6"/>
			<stop  offset="0.3733" style="stop-color:#32CED8"/>
			<stop  offset="0.6175" style="stop-color:#36C6DF"/>
			<stop  offset="0.824" style="stop-color:#3CB7EB"/>
			<stop  offset="1" style="stop-color:#45A3FA"/>
		</linearGradient>
		<path style="fill:url(#SVGID_00000116931769899433403850000012548434886676827826_);" d="M350.1,167.3c-0.8,1.8-2.9,5-7.3,6.6
			l2.6,25.5l-35.4-7.8c0,0-4.9-38.1-5.1-49.8c-0.3-11.7-9.4-12.3-9.4-12.3c3.3-1,6.8-1.9,9.7-3.8c0,0,20.9,25.6,25,6.4
			c0.3,0.1,0.6,0.2,0.9,0.3c3.8,3.8,20.5,20.8,19.6,33.5C350.6,165.9,350.5,166.4,350.1,167.3z"/>
		
			<linearGradient id="SVGID_00000092448578746002512130000009146393181033868189_" gradientUnits="userSpaceOnUse" x1="282.0137" y1="171.9929" x2="346.7086" y2="171.9929">
			<stop  offset="0" style="stop-color:#31D1D6"/>
			<stop  offset="0.3733" style="stop-color:#32CED8"/>
			<stop  offset="0.6175" style="stop-color:#36C6DF"/>
			<stop  offset="0.824" style="stop-color:#3CB7EB"/>
			<stop  offset="1" style="stop-color:#45A3FA"/>
		</linearGradient>
		<path style="fill:url(#SVGID_00000092448578746002512130000009146393181033868189_);" d="M285.2,178.8
			c-2.2-13.5-3.9-28.6-2.8-38.1c0.4-2.9,1.7-5.6,4.1-7.3c2.6-2,5.9-3,9.1-4c0,0,9.1,0.6,9.4,12.3c0.3,11.7,5.1,49.8,5.1,49.8
			l35.4,7.8l1.3,0.3l-0.6,2.4l-1.7,6.4l-1.5,6l-4-0.5h0l-43.1-5.3c-2.9-0.4-5.3-2.5-5.9-5.4C288.7,198,286.8,188.9,285.2,178.8z"/>
		
			<linearGradient id="SVGID_00000142859659904950560010000004342976170993015227_" gradientUnits="userSpaceOnUse" x1="362.9825" y1="207.7616" x2="318.7578" y2="214.7729">
			<stop  offset="0" style="stop-color:#31D1D6"/>
			<stop  offset="0.3733" style="stop-color:#32CED8"/>
			<stop  offset="0.6175" style="stop-color:#36C6DF"/>
			<stop  offset="0.824" style="stop-color:#3CB7EB"/>
			<stop  offset="1" style="stop-color:#45A3FA"/>
		</linearGradient>
		<polygon style="fill:url(#SVGID_00000142859659904950560010000004342976170993015227_);" points="338.8,214 294.7,228.3 
			295.7,208.7 		"/>
		
			<linearGradient id="SVGID_00000164486542655993436510000016575415173834868904_" gradientUnits="userSpaceOnUse" x1="330.1586" y1="132.0329" x2="331.0486" y2="132.0329">
			<stop  offset="0" style="stop-color:#31D1D6"/>
			<stop  offset="0.3733" style="stop-color:#32CED8"/>
			<stop  offset="0.6175" style="stop-color:#36C6DF"/>
			<stop  offset="0.824" style="stop-color:#3CB7EB"/>
			<stop  offset="1" style="stop-color:#45A3FA"/>
		</linearGradient>
		<path style="fill:url(#SVGID_00000164486542655993436510000016575415173834868904_);" d="M331,132.4c-0.3-0.1-0.6-0.2-0.9-0.3
			c0-0.1,0.1-0.3,0.1-0.4C330.3,131.7,330.5,131.9,331,132.4z"/>
		<path class="st40" d="M453.5,155.8l-26,58.7h-16.3h-14.3h-50.2v-5.7c0.2,0,0.5,0,0.7-0.1l32.7-1.1l8-0.3l19.8-51.5H453.5z"/>
		<path class="st41" d="M310.9,143c-0.1-0.6-1.1-0.6-1,0c0.1,1.4,0.2,2.9,0.3,4.3c0,0.6,1.1,0.6,1,0
			C311.1,145.8,311,144.4,310.9,143z"/>
		<path class="st41" d="M319.6,143.6c-0.1-0.6-1.1-0.4-1,0.3c0.2,1.3,0.5,2.6,0.7,4c0.1,0.6,1.1,0.4,1-0.3
			C320.1,146.2,319.8,144.9,319.6,143.6z"/>
		<path class="st41" d="M328.7,147.4c-0.3-1.3-0.6-2.6-0.8-4c-0.1-0.6-1.1-0.4-1,0.3c0.3,1.3,0.6,2.6,0.8,4
			C327.8,148.2,328.8,148,328.7,147.4z"/>
		<path class="st41" d="M336.5,142.4c-0.1-0.6-1.1-0.6-1,0c0.1,1.3,0.2,2.5,0.3,3.8c0.1,0.6,1.1,0.6,1,0
			C336.7,145,336.6,143.7,336.5,142.4z"/>
		<path class="st41" d="M314.9,152.3c-0.1-0.6-1.1-0.6-1,0c0.1,1.2,0.2,2.4,0.3,3.6c0.1,0.6,1.1,0.6,1,0
			C315.1,154.7,315,153.5,314.9,152.3z"/>
		<path class="st41" d="M325.1,155.8c-0.2-1-0.4-2-0.6-3.1c-0.1-0.6-1.1-0.4-1,0.3c0.2,1,0.4,2,0.6,3.1
			C324.3,156.7,325.2,156.4,325.1,155.8z"/>
		<path class="st41" d="M335.7,155.1c-0.3-1-0.5-2.1-0.8-3.1c-0.2-0.6-1.1-0.4-1,0.3c0.3,1,0.5,2.1,0.8,3.1
			C334.9,156,335.9,155.7,335.7,155.1z"/>
		<path class="st41" d="M311.2,160.6c-0.1-0.6-1.1-0.4-1,0.3c0.2,1.1,0.4,2.2,0.6,3.3c0.1,0.6,1.1,0.4,1-0.3
			C311.6,162.8,311.4,161.7,311.2,160.6z"/>
		<path class="st41" d="M321.4,165.5l-0.9-3.1c-0.2-0.6-1.1-0.4-1,0.3c0.3,1,0.6,2,0.9,3.1C320.6,166.4,321.6,166.1,321.4,165.5z"/>
		<path class="st41" d="M330.1,161.5c-0.1-0.6-1.1-0.4-1,0.3c0.2,1,0.3,1.9,0.5,2.9c0.1,0.6,1.1,0.4,1-0.3L330.1,161.5z"/>
		<path class="st41" d="M341.8,160.8c0-0.6-1-0.6-1,0c0.1,1.2,0.1,2.4,0.2,3.6c0,0.6,1,0.6,1,0C342,163.2,341.9,162,341.8,160.8z"/>
		<path class="st41" d="M315.6,171c-0.1-0.6-1.1-0.6-1,0c0.2,1.4,0.3,2.9,0.5,4.3c0.1,0.6,1.1,0.6,1,0
			C315.9,173.9,315.8,172.5,315.6,171z"/>
		<path class="st41" d="M326.8,171.6c-0.1-0.6-1.1-0.4-1,0.3c0.2,1.3,0.5,2.5,0.7,3.8c0.1,0.6,1.1,0.4,1-0.3
			C327.3,174.1,327,172.9,326.8,171.6z"/>
		<path class="st41" d="M336.3,171.8c-0.1-0.6-1.1-0.4-1,0.3c0.2,1,0.4,2,0.5,3.1c0.1,0.6,1.1,0.4,1-0.3
			C336.7,173.8,336.5,172.8,336.3,171.8z"/>
		<path class="st41" d="M345.5,154.1c-0.1-0.6-1.1-0.6-1,0c0.1,1.3,0.2,2.5,0.3,3.8c0.1,0.6,1.1,0.6,1,0
			C345.7,156.6,345.6,155.4,345.5,154.1z"/>
		<path class="st41" d="M312.8,182.7c-0.1-0.6-1.1-0.6-1,0c0.1,1.2,0.2,2.4,0.3,3.6c0.1,0.6,1.1,0.6,1,0
			C313,185.1,312.9,183.9,312.8,182.7z"/>
		<path class="st41" d="M321,183.4c-0.1-0.6-1.1-0.6-1,0c0.1,1.1,0.2,2.2,0.3,3.2c0.1,0.6,1.1,0.6,1,0
			C321.3,185.6,321.2,184.5,321,183.4z"/>
		<path class="st41" d="M331.4,182.3c0-0.6-1-0.6-1,0c0.1,1.1,0.2,2.2,0.2,3.2c0,0.6,1,0.6,1,0C331.6,184.5,331.5,183.4,331.4,182.3
			z"/>
		<path class="st41" d="M341.5,181.3c0-0.6-1-0.6-1,0c0,1.4,0.1,2.8,0.1,4.1c0,0.6,1,0.6,1,0C341.6,184,341.5,182.6,341.5,181.3z"/>
		<path class="st41" d="M326.6,188.6c0-0.6-1-0.6-1,0c0.1,1.1,0.1,2.3,0.2,3.4c0,0.6,1,0.6,1,0C326.7,190.9,326.7,189.8,326.6,188.6
			z"/>
		<path class="st41" d="M337.7,189.5c0-0.6-1-0.6-1,0c0.1,1,0.1,2,0.2,3.1c0,0.6,1,0.6,1,0C337.8,191.6,337.8,190.6,337.7,189.5z"/>
		<path class="st41" d="M302.3,212.2c-0.1-0.6-1.1-0.6-1,0c0.1,1,0.2,1.9,0.4,2.9c0.1,0.6,1.1,0.6,1,0
			C302.6,214.1,302.5,213.1,302.3,212.2z"/>
		<path class="st41" d="M313.8,212.5c-0.1-0.6-1.1-0.6-1,0c0.1,1,0.2,1.9,0.3,2.9c0.1,0.6,1.1,0.6,1,0
			C314.1,214.5,313.9,213.5,313.8,212.5z"/>
		<path class="st41" d="M307.3,217.2v3.2c0,0.6,1,0.6,1,0v-3.2C308.3,216.6,307.3,216.6,307.3,217.2z"/>
		<path class="st41" d="M299.3,218.5c0-0.6-1-0.6-1,0l0.2,2.9c0,0.6,1,0.6,1,0L299.3,218.5z"/>
		<path class="st41" d="M322.1,214.9c-0.1-0.6-1.1-0.4-1,0.3c0.1,0.8,0.2,1.7,0.4,2.5c0.1,0.6,1.1,0.4,1-0.3
			C322.3,216.6,322.2,215.8,322.1,214.9z"/>
	</g>
	<path class="st27" d="M330.8,87.8c-2.2-0.3-4.3,0.3-6,1.7c-1,0.8,0.4,2.2,1.4,1.4c1.1-1,2.7-1.4,4.1-1.2
		C331.5,89.9,332,88,330.8,87.8z"/>
	<path class="st27" d="M343.9,87.5c-2-0.9-4.3-0.6-6,0.8c-1,0.8,0.4,2.3,1.4,1.4c1-0.8,2.4-1.1,3.6-0.5
		C344.1,89.7,345.1,88,343.9,87.5z"/>
	<path class="st42" d="M338.9,104.4C338.9,104.4,338.9,104.4,338.9,104.4c-0.8-4.3-1.7-8.5-2.5-12.7c-0.1-0.6-1.1-0.4-1,0.3
		c0.8,4.1,1.6,8.3,2.5,12.4c-0.9,0.1-1.8,0.2-2.8,0.4c-0.6,0.1-0.6,1.1,0,1l3.4-0.5C339,105.2,339.1,104.7,338.9,104.4z"/>
	<path class="st27" d="M338.4,108.9c-2.6,1.2-5.5,1.3-8.2,0.2c-0.6-0.2-1.1,0.6-0.5,0.9c3,1.3,6.2,1.2,9.2-0.2
		C339.5,109.5,339,108.6,338.4,108.9z"/>
	<ellipse class="st27" cx="328.7" cy="93.3" rx="1.7" ry="2.3"/>
	<ellipse class="st27" cx="341.5" cy="92.9" rx="1.7" ry="2.3"/>
</g>
</svg>
