<svg width="512px" height="512px" viewBox="0 0 512 512" xmlns="http://www.w3.org/2000/svg" xmlns:xlink="http://www.w3.org/1999/xlink" aria-hidden="true" role="img" class="iconify iconify--fxemoji" preserveAspectRatio="xMidYMid meet"><path fill="#F9E7C0" d="M437.567 512H88.004a8.182 8.182 0 0 1-8.182-8.182V8.182A8.182 8.182 0 0 1 88.004 0H437.83a7.92 7.92 0 0 1 7.92 7.92v495.898a8.183 8.183 0 0 1-8.183 8.182z"></path><path fill="#597B91" d="M368.727 92.401H126.453c-6.147 0-11.13-4.983-11.13-11.13s4.983-11.13 11.13-11.13h242.273c6.146 0 11.13 4.983 11.13 11.13s-4.983 11.13-11.129 11.13zm-40.597 61.723c0-6.147-4.983-11.13-11.13-11.13H126.453c-6.147 0-11.13 4.983-11.13 11.13s4.983 11.13 11.13 11.13H317c6.146 0 11.13-4.983 11.13-11.13zm-96.935 72.854c0-6.147-4.983-11.13-11.13-11.13h-93.612c-6.147 0-11.13 4.983-11.13 11.13s4.983 11.13 11.13 11.13h93.612c6.147-.001 11.13-4.983 11.13-11.13zm109.051 72.853c0-6.146-4.983-11.13-11.13-11.13H126.453c-6.147 0-11.13 4.983-11.13 11.13s4.983 11.13 11.13 11.13h202.663c6.147 0 11.13-4.983 11.13-11.13zm49.884-72.853c0-6.147-4.983-11.13-11.13-11.13H276.612c-6.146 0-11.13 4.983-11.13 11.13s4.983 11.13 11.13 11.13H379c6.146-.001 11.13-4.983 11.13-11.13zm-92.38 145.707c0-6.146-4.983-11.13-11.13-11.13H126.453c-6.147 0-11.13 4.983-11.13 11.13s4.983 11.13 11.13 11.13H286.62c6.147-.001 11.13-4.984 11.13-11.13zm66.504 72.853c0-6.146-4.983-11.13-11.13-11.13H126.453c-6.147 0-11.13 4.983-11.13 11.13s4.983 11.13 11.13 11.13h226.671c6.147 0 11.13-4.983 11.13-11.13zm25.876-72.853c0-6.146-4.983-11.13-11.13-11.13h-51.752c-6.146 0-11.13 4.983-11.13 11.13s4.983 11.13 11.13 11.13H379c6.146-.001 11.13-4.984 11.13-11.13z"></path></svg>