<svg id="OBJECTS" xmlns="http://www.w3.org/2000/svg" viewBox="0 0 2823.12 1511.85"><defs><style>.cls-1{fill:#dadada;}.cls-2{fill:#f6f5f5;}.cls-3{fill:#ff9064;}.cls-4{fill:#b25834;opacity:0.5;}.cls-15,.cls-5{fill:#fff;}.cls-10,.cls-5{opacity:0.3;}.cls-6{fill:#102048;}.cls-10,.cls-7{fill:#86a7ff;}.cls-8{fill:#d3dfff;}.cls-9{fill:#adc3ff;}.cls-11{fill:#7d69ed;}.cls-12,.cls-13{fill:#5b4dad;}.cls-13,.cls-20,.cls-25{opacity:0.4;}.cls-14,.cls-20{fill:#eb5d60;}.cls-16,.cls-18,.cls-25{fill:#1f3c88;}.cls-17{fill:#3a6bea;}.cls-18{opacity:0.6;}.cls-19{fill:#f9b384;}.cls-21{fill:#fbc343;}.cls-22{opacity:0.8;}.cls-23{fill:#e49b31;}.cls-24{fill:#e28b6d;}.cls-26{fill:#fbb81d;}</style></defs><path class="cls-1" d="M1423.32,467.91l-3.25-3.87c.89-.76,91-75.79,221.28-113.84C1761.7,315,1941.91,305.08,2116.9,457.32l-3.31,3.82C1940.37,310.45,1762.05,320.25,1642.94,355,1513.66,392.73,1424.21,467.16,1423.32,467.91Z" transform="translate(-92.7 -236.75)"/><path class="cls-2" d="M2813.37,1440.22c-18.8-200.3-96.43-352.33-297.59-463.84-59.33-32.88-133.6-49-169.17-106.71-35.31-57.34-22.2-130.57-29.19-197.55-18-171.85-182.18-304.74-354-322.92s-342.76,59.63-473.27,172.85c-97.94,85-183.72,193.41-307.11,233.2-203.47,65.6-424.87-80.75-633.68-34.86C437,745.09,342.73,823.76,273.89,915.93,158.7,1070.18,130,1265.21,165.22,1454.47c19.27,103.53,66.41,208.45,134,289l2421.1-5.06C2791.1,1667.67,2821.43,1526.1,2813.37,1440.22Z" transform="translate(-92.7 -236.75)"/><circle class="cls-2" cx="986" cy="244.4" r="187.07"/><circle class="cls-2" cx="1390.51" cy="314.28" r="77.53" transform="translate(92.34 838.54) rotate(-45)"/><circle class="cls-2" cx="2577.05" cy="855.3" r="77.53" transform="translate(57.31 1836.01) rotate(-45)"/><path class="cls-1" d="M2801.75,1741.33l-4.46-2.37c90.94-171.42,100.57-355.69,26.42-505.56-78-157.56-237.09-263.57-448.06-298.5l.83-5c212.62,35.19,373.05,142.18,451.76,301.24C2903.13,1382.5,2893.47,1568.45,2801.75,1741.33Z" transform="translate(-92.7 -236.75)"/><path class="cls-1" d="M313.36,1748.6c-109.54-118-181.83-260-209-410.87-25.33-140.44-9-279.79,46.09-392.38C235.47,771.41,400.07,681.78,602,699.41l-.44,5C401.79,687,239,775.61,155,947.57c-54.58,111.63-70.8,249.87-45.66,389.26,27,149.87,98.88,291.07,207.77,408.34Z" transform="translate(-92.7 -236.75)"/><rect class="cls-3" x="286.56" y="1140.2" width="650.57" height="366.21"/><rect class="cls-4" x="286.56" y="1140.2" width="233.1" height="366.21"/><rect class="cls-5" x="721.46" y="1391.22" width="89.21" height="60.68" transform="translate(-748.19 1950.87) rotate(-90)"/><rect class="cls-6" x="808.63" y="741.23" width="1074.65" height="765.18"/><path class="cls-7" d="M2080.62,707.46H1881.81V526a66.29,66.29,0,0,1,132.58-.61V526l-.05,115.18c0,.56,0,1.16.05,1.72v3.49l.2-.1A66.22,66.22,0,0,0,2080.62,707.46Z" transform="translate(-92.7 -236.75)"/><path class="cls-8" d="M2146.86,601.12v40.1a66.23,66.23,0,0,1-132.27,5.06Z" transform="translate(-92.7 -236.75)"/><path class="cls-8" d="M1948.1,459.7c-1.42,0-2.78.05-4.15.15-.91,0-1.77.1-2.62.2s-1.88.21-2.84.36c-.55,0-1.11.15-1.66.25-.71.1-1.42.25-2.08.41-1,.2-2,.4-3,.65-1.42.36-2.83.76-4.25,1.27-.71.2-1.41.45-2.07.7s-1.37.51-2,.76a27.53,27.53,0,0,0-2.78,1.22,24.36,24.36,0,0,0-2.43,1.16c-.2.1-.46.2-.71.35-.71.36-1.42.76-2.12,1.17a59,59,0,0,0-7.94,5.31c-.71.55-1.47,1.16-2.13,1.71s-1.51,1.32-2.27,2-1.47,1.41-2.17,2.12a66.92,66.92,0,0,0-5.57,6.42c-.76,1-1.46,2-2.17,3a74.17,74.17,0,0,0-5.82,10.66c-.4.91-.75,1.88-1.16,2.84a76,76,0,0,0-2.68,8.89c-.2,1.07-.4,2.08-.61,3.09-.35,2.07-.65,4.2-.8,6.32v929.84H995.86V563.05A103.34,103.34,0,0,1,1099.21,459.7Z" transform="translate(-92.7 -236.75)"/><rect class="cls-9" x="1007.92" y="317.7" width="672.48" height="35.39"/><rect class="cls-9" x="1007.92" y="421.35" width="620.37" height="35.39"/><rect class="cls-9" x="1007.92" y="525.01" width="587.67" height="35.39"/><rect class="cls-9" x="1007.92" y="628.66" width="672.48" height="35.39"/><rect class="cls-9" x="1267.79" y="733.58" width="364.58" height="35.39"/><path class="cls-6" d="M1433.87,1169.07c-4,0-7.73-1.37-10.27-4.87-3.12-4.32-2.9-10.23-2.76-14.14l3.44-91.47,5,.19-3.43,91.46c-.16,4.26-.14,8.31,1.79,11,4.3,5.93,14.64.8,16.67-.29,10.18-5.46,17.49-15.74,24.56-25.68,7.86-11,16-22.47,28.28-27.84,7.3-3.19,12.66,1.49,17,5.23,2.45,2.12,4.76,4.12,7.21,4.85,6.43,1.89,12.83.23,19.6-1.54,6-1.56,12.19-3.2,18.56-2.21,5.82.89,10.52,3.21,15.08,5.45,6.71,3.32,12.53,6.19,20.92,4.15,11.58-2.79,22.34-9.38,32.74-15.75,3-1.85,6-3.7,9.07-5.46,11.69-6.79,29.26-15.36,46.75-11.35l-1.13,4.93c-15.77-3.61-32.14,4.43-43.09,10.79-3,1.75-6,3.57-9,5.4-10.74,6.58-21.85,13.38-34.2,16.36-10.19,2.45-17.4-1.09-24.36-4.53-4.2-2.08-8.54-4.22-13.59-5-5.35-.81-10.77.6-16.52,2.1-7.15,1.87-14.51,3.8-22.32,1.5-3.49-1-6.33-3.5-9.08-5.88-4.51-3.91-7.48-6.21-11.64-4.42-11,4.81-18.38,15.17-26.18,26.15-7.41,10.4-15.07,21.17-26.29,27.19A28.32,28.32,0,0,1,1433.87,1169.07Z" transform="translate(-92.7 -236.75)"/><path class="cls-10" d="M1882.07,1010v440.55H995.86V971.65L1272.69,1202c15.27,12.74,35.29,17.59,55,14.81a105.36,105.36,0,0,1,17.44-1l188.7,5.31a106.75,106.75,0,0,1,19.32,2.38c19.56,4.25,40,.35,56.17-11.58Z" transform="translate(-92.7 -236.75)"/><polygon class="cls-11" points="1212.7 1058.44 1205.32 1066.63 871.81 1436.45 808.65 1506.43 808.65 741.21 1212.7 1058.44"/><polygon class="cls-11" points="1883.28 741.23 1479.22 1058.44 1883.28 1506.41 1883.28 741.23"/><path class="cls-12" d="M1298,1303.39,964.51,1673.2l-63.15,13.91v-136c166.7-119.48,353.73-258,396.46-261Z" transform="translate(-92.7 -236.75)"/><path class="cls-12" d="M1579.32,1303.39l333.51,369.81,63.16,13.91v-136c-166.71-119.48-353.74-258-396.46-261Z" transform="translate(-92.7 -236.75)"/><path class="cls-11" d="M1976,1743.16H901.33l.2-100.66,370.31-335.94a105.63,105.63,0,0,1,71-27.39h188.78a105.67,105.67,0,0,1,70.12,26.63L1977,1639Z" transform="translate(-92.7 -236.75)"/><circle class="cls-13" cx="1904.57" cy="1558.61" r="184.55" transform="translate(-636.97 1566.48) rotate(-45)"/><circle class="cls-14" cx="1960.18" cy="1558.61" r="184.55" transform="translate(-620.68 1605.81) rotate(-45)"/><path class="cls-15" d="M1956.23,1658.61a31.19,31.19,0,0,1-23.16-10.3l-65.29-72.09a15.17,15.17,0,0,1,22.49-20.37l65.29,72.1a.89.89,0,0,0,.88.3.85.85,0,0,0,.73-.57l70.28-160a15.17,15.17,0,1,1,27.78,12.2l-70.28,160a31.45,31.45,0,0,1-28.72,18.73Z" transform="translate(-92.7 -236.75)"/><polygon class="cls-6" points="586.57 1038.22 592.47 1140.18 749.21 1140.18 678.42 1082.04 674.21 1038.22 646.4 1011.25 586.57 1038.22"/><polygon class="cls-6" points="398.64 992.71 373.36 1083.72 502.3 1140.18 464.37 1054.23 473.64 1015.46 441.62 973.33 398.64 992.71"/><path class="cls-16" d="M541.06,777.77S525.89,841,531,980c0,0-44.66,155.9-39.61,249.44l75,22.76c39.3-87.31,71.61-171.31,88.8-248.12a136.26,136.26,0,0,0-.47-83.39L618.59,810.64Z" transform="translate(-92.7 -236.75)"/><path class="cls-17" d="M778.79,982.92,766.91,1275H679.28c-22.85-95.11-31.34-176.31-34.33-230.72-2.48-45.86-1.06-72.65-1.06-72.65-56.33-66.49-89.8-114.53-109.27-150.07-28.92-52.74-27.15-78.12-23.91-96,4.35-23.82,19.82-54.66,30.29-73.62,5.86-10.52,10.16-17.4,10.16-17.4l146.63,47.23L680.3,745,680,746a37.06,37.06,0,0,0,3.59,28.26l76.91,133.94A138.84,138.84,0,0,1,778.79,982.92Z" transform="translate(-92.7 -236.75)"/><path class="cls-16" d="M733.2,1276.87h-.12a1.89,1.89,0,0,1-1.77-2c.18-2.93,18.26-293.32-3.2-339.54-3.77-8.11-10.16-18.48-17.57-30.47-31-50.21-82.81-134.23-71.93-255.33a1.9,1.9,0,0,1,3.78.34c-10.77,119.84,40.66,203.19,71.38,253,7.47,12.09,13.91,22.55,17.78,30.87,21.86,47.08,4.3,329.38,3.54,341.37A1.89,1.89,0,0,1,733.2,1276.87Z" transform="translate(-92.7 -236.75)"/><path class="cls-18" d="M697.79,681.72,680.3,745c-67.45-27.75-116-70-139.3-93.08,5.86-10.52,10.16-17.4,10.16-17.4Z" transform="translate(-92.7 -236.75)"/><path class="cls-15" d="M722.57,1322.88l-1.49-25.33,48.32-.88a1.8,1.8,0,0,1,1.93,1.86,1.89,1.89,0,0,1-1.86,1.93l-44.37.81,1,17.65,44.9-2a1.9,1.9,0,1,1,.17,3.79Z" transform="translate(-92.7 -236.75)"/><path class="cls-15" d="M557.07,1292.88a1.88,1.88,0,0,1-.57-.09l-41.6-13.28,10.38-24.21,36.65,13.25a1.9,1.9,0,1,1-1.29,3.57l-33.29-12L520,1277.17l37.62,12a1.89,1.89,0,0,1-.58,3.7Z" transform="translate(-92.7 -236.75)"/><polygon class="cls-19" points="656.92 165.15 654.18 175.37 643.26 216.68 635.88 244.39 570.15 220.77 601.85 155.9 617.33 133.55 656.92 165.15"/><path class="cls-6" d="M746.89,412.12,736,453.43c-19.36-21-15.42-47.28-15.42-47.28Z" transform="translate(-92.7 -236.75)"/><path class="cls-19" d="M798.93,343.78s-4.21,93.54-51.4,85.53-46.35-88.48-46.35-88.48L762.7,321Z" transform="translate(-92.7 -236.75)"/><path class="cls-6" d="M733.41,357.89s27.07-27.91,65.52-14.11c0,0,17,7.16,23.6-6.74,0,0-54.36-72.06-97-37.29,0,0-76.47,16.74-31,92.9Z" transform="translate(-92.7 -236.75)"/><ellipse class="cls-19" cx="734.24" cy="360" rx="14.52" ry="16.64" transform="translate(-140.23 -116.64) rotate(-9.06)"/><circle class="cls-19" cx="792.19" cy="390.97" r="8.43" transform="translate(186.98 873.77) rotate(-80.81)"/><circle class="cls-20" cx="666.83" cy="145.58" r="14.54"/><path class="cls-19" d="M1032.36,533.62s8.7,11.94-9,23.87c0,0,14.11,9.66-34.53,25.58-5.41,1.77-11.58,3.59-18.66,5.51L950.6,517.7s86.82-29.33,89-19.93-15.52,22.1-15.52,22.1S1055.17,512.23,1032.36,533.62Z" transform="translate(-92.7 -236.75)"/><path class="cls-21" d="M950.61,517.68l-102.8,13.18s-147.9-105.34-178.23-95.23S536.85,610.07,536.85,610.07,509,618.92,510.3,630.3s180.77,104.49,204.78,80.9c15.11-14.84,32.45-133.15,32.45-133.15l65.41,27.21a101.14,101.14,0,0,0,61.3,5.22l95.91-21.88Z" transform="translate(-92.7 -236.75)"/><g class="cls-22"><path class="cls-15" d="M944.11,581c-3.54-13.8-7-27.27-10.12-40.22-.87-3.61-1.67-7.29-2.47-11-.68-3.13-1.38-6.27-2.12-9.4l-3.78.49c.76,3.23,1.49,6.48,2.19,9.71.81,3.73,1.62,7.45,2.5,11.08,3.14,13,6.59,26.45,10.12,40.27q1.62,6.33,3.24,12.69l3.7-.84Q945.73,587.4,944.11,581Z" transform="translate(-92.7 -236.75)"/><path class="cls-15" d="M768.12,478.27l-4.68,1c-28.49,5.93-59,10.73-88.77,5.69a114.74,114.74,0,0,1-40.86-15.06c-.8,1-1.6,2-2.41,3A118.61,118.61,0,0,0,674,488.71c30.42,5.14,61.32.29,90.17-5.72,2.86-.6,5.72-1.23,8.58-1.85Z" transform="translate(-92.7 -236.75)"/><path class="cls-15" d="M728.74,660.4c-8.56.71-17.41,1.45-26,.64-25.25-2.35-47.65-18.06-62.3-29.67-5.2-4.12-10.28-8.39-15.37-12.67-12.94-10.88-26.32-22.12-41.38-30.51a105.8,105.8,0,0,0-26.18-10.38c-.75,1.15-1.45,2.22-2.16,3.33a101.24,101.24,0,0,1,26.5,10.37c14.74,8.2,28,19.33,40.78,30.09,5.11,4.3,10.23,8.6,15.45,12.74,15,11.91,38,28,64.31,30.48,8.93.83,18,.08,26.67-.64l2.6-.18c.29-1.28.58-2.56.88-3.86C731.26,660.24,730,660.3,728.74,660.4Z" transform="translate(-92.7 -236.75)"/></g><path class="cls-23" d="M747.53,578.05,720.9,566.37s6.8,42.31,19.64,48.35Z" transform="translate(-92.7 -236.75)"/><path class="cls-24" d="M988.78,583.07c-5.41,1.77-11.58,3.59-18.66,5.51L950.6,517.7Z" transform="translate(-92.7 -236.75)"/><path class="cls-24" d="M2158.64,1010.78l61.94,27.81,46.16-151.94-60.46-15.89C2190.3,906.48,2174,952.19,2158.64,1010.78Z" transform="translate(-92.7 -236.75)"/><path class="cls-6" d="M2206.28,870.76l60.46,15.89,51.6-141.74S2256,736.48,2206.28,870.76Z" transform="translate(-92.7 -236.75)"/><polygon class="cls-6" points="2040.24 721.36 1995.58 844.39 2162.43 908.44 2196.14 780.35 2040.24 721.36"/><path class="cls-24" d="M2187.83,1122.07c-1.21,3.48-11.2,7.64-17.61,2-12.49-2.21-20.92-3.79-28.71-12.4-7-2.69-10.14-10.3-6.94-16.72,6.13-12.29,15.63-29.61,20.14-28.93,5.67.86,1.57,18.36,1.57,18.36s9.44-22.2,18.41-19.27c4,1.32-5.62,22.45-6.59,24.68,1.51-2,13.5-18.15,18.09-14.76s-6.59,22.5-7.78,24.52c1.3-1.62,11.83-14.31,17-10.11C2197.59,1091.24,2194.1,1104.13,2187.83,1122.07Z" transform="translate(-92.7 -236.75)"/><path class="cls-6" d="M2501.2,1545.48s80.9-8.85,115-83.43l-89.74,5.06Z" transform="translate(-92.7 -236.75)"/><polygon class="cls-24" points="2497.83 1226.14 2420.3 1274.18 2455.18 1325.41 2529.94 1274.47 2497.83 1226.14"/><polygon class="cls-6" points="2577.89 1346.65 2529.94 1274.47 2455.18 1325.41 2467.91 1344.12 2460.33 1443.98 2577.89 1346.65"/><rect class="cls-15" x="2560.59" y="1577.39" width="38.01" height="5.05" transform="translate(-169.63 -103.66) rotate(-2.91)"/><polygon class="cls-24" points="2277.04 1362.66 2191.93 1357.6 2191.93 1426.52 2283.49 1420.7 2277.04 1362.66"/><polygon class="cls-6" points="2191.93 1426.52 2191.93 1442.72 2127.88 1506.76 2293.05 1506.76 2283.49 1420.7 2191.93 1426.52"/><rect class="cls-15" x="2298.3" y="1670.3" width="5.06" height="41.94" transform="translate(-409.81 2594.96) rotate(-59.86)"/><path class="cls-17" d="M2365.44,1159.44c-1.31,31.34-1.56,64.41-1,97.73.51,28.92,1.57,58,3.09,86.52,7.28,141.42,24.12,266.66,24.12,266.66l-131.47,16.89c-62.34-434.84-21.89-618.58-21.89-618.58L2295.57,997l50.86-10.37,57-11.63c-.71,1.07-1.42,2.18-2.08,3.34-8.69,14.21-15.57,33.12-20.88,55.57C2372.17,1068.83,2367.52,1112.21,2365.44,1159.44Z" transform="translate(-92.7 -236.75)"/><path class="cls-16" d="M2367.52,1343.69c-55.12-117.16-34.44-210.29-34.44-210.29l32.36,26c-1.31,31.34-1.56,64.41-1,97.73C2364.94,1286.09,2366,1315.22,2367.52,1343.69Z" transform="translate(-92.7 -236.75)"/><path class="cls-17" d="M2616.23,1462.05c-63.2,24-115,83.43-115,83.43-54.55-96.42-101.12-193.25-136.77-288.31-29.68-79.08-51.77-156.94-64.57-232.28-1.56-9.36-3-18.66-4.29-27.91-.16-.86-.31-1.77-.41-2.63l51.27-7.74,55-8.29,27.76-4.2c3,17.7,7,36.21,11.78,55.27C2488.77,1219.71,2616.23,1462.05,2616.23,1462.05Z" transform="translate(-92.7 -236.75)"/><g class="cls-22"><path class="cls-15" d="M2505,1219.63q-1.21-3-2.41-6c-10.35-6.63-20.27-13.92-28.8-22.67-23.84-24.45-35.89-60.66-31.45-94.51a111.37,111.37,0,0,1,8.57-30.35c-.54-1.85-1.06-3.68-1.59-5.52a116.32,116.32,0,0,0-10.75,35.37c-4.57,35,7.88,72.4,32.5,97.66C2481.11,1203.88,2492.86,1212.14,2505,1219.63Z" transform="translate(-92.7 -236.75)"/><path class="cls-15" d="M2571.16,1370.63c-.53-1.12-1.06-2.24-1.59-3.38-14,5.7-30.66,6.68-48,7.67-17.51,1-35.61,2-51.48,8.21-16.13,6.29-28.64,17.51-37.73,31.27.65,1.33,1.31,2.67,2,4,8.77-14,21.06-25.47,37.14-31.75,15.32-6,33.12-7,50.32-8S2556.36,1376.7,2571.16,1370.63Z" transform="translate(-92.7 -236.75)"/><path class="cls-15" d="M2268.29,1356.23c42.05,21.35,76.11,57.14,106.23,90.71q-.26-3.11-.51-6.24c-29.52-32.73-62.91-67-104-87.85a177.2,177.2,0,0,0-40.1-14.68c.08,1.32.16,2.64.25,4A173.94,173.94,0,0,1,2268.29,1356.23Z" transform="translate(-92.7 -236.75)"/><path class="cls-15" d="M2384.59,1551.28c-10.52,2.51-22,1.88-31.53-.35-9.89-2.31-19.59-6.15-29-9.84-10-3.95-20.32-8-31-10.37a102.21,102.21,0,0,0-45.5.73c.15,1.26.31,2.54.47,3.8a98.44,98.44,0,0,1,44.22-.83c10.43,2.28,20.61,6.3,30.45,10.19,9.51,3.75,19.33,7.64,29.49,10,9.86,2.3,21.78,3,32.81.43C2384.87,1553.84,2384.73,1552.55,2384.59,1551.28Z" transform="translate(-92.7 -236.75)"/><path class="cls-15" d="M2256.89,1195.31c1.38,26.48-10.63,52.53-30.39,69.75.05,1.6.11,3.25.17,4.87,22-17.92,35.5-46.15,34-74.82-1.33-25.49-14.46-49.37-34-65.27q-.11,2.36-.18,4.77C2244,1149.81,2255.66,1171.85,2256.89,1195.31Z" transform="translate(-92.7 -236.75)"/></g><path class="cls-25" d="M2440.93,1029.39a313.91,313.91,0,0,1-60.42,4.5,460.73,460.73,0,0,1-80.65-9c-36.7-7.23-61.58-16.23-61.58-16.23L2295.57,997c-.16-.86-.31-1.77-.41-2.63l51.27-7.74,57-11.63c-.71,1.07-1.42,2.18-2.08,3.34l27.76-4.2C2432.14,991.82,2436.13,1010.33,2440.93,1029.39Z" transform="translate(-92.7 -236.75)"/><path class="cls-16" d="M2364.43,1259.7a2.52,2.52,0,0,1-2.38-1.68l-36.52-102.7-43.9-26.5a2.53,2.53,0,0,1,2.62-4.33l45.44,27.43,37.12,104.41a2.51,2.51,0,0,1-2.38,3.37Z" transform="translate(-92.7 -236.75)"/><path class="cls-16" d="M2450.64,993.74c-84.69,32.21-230.06,14.11-230.06,14.11,5.92-61.54,6.32-243.56,101.13-266.31l42.37,4.45c22.2,8.69,39.54,41.86,52.58,81.25,7.84,23.46,14.11,49.15,19.07,73.21C2446.14,950.76,2450.64,993.74,2450.64,993.74Z" transform="translate(-92.7 -236.75)"/><path class="cls-6" d="M2435.73,900.45c-39.9-23.2-48.29-75.49-48.29-75.49l29.22,2.28C2424.5,850.7,2430.77,876.39,2435.73,900.45Z" transform="translate(-92.7 -236.75)"/><path class="cls-16" d="M2364.05,746l-5.69,81.53,87,46.48L2463,789.49C2386.49,744.3,2364.05,746,2364.05,746Z" transform="translate(-92.7 -236.75)"/><path class="cls-24" d="M2529.82,858a59.52,59.52,0,0,1-23.66,20.78,59,59,0,0,1-53.65-1.06l-7.13-3.79L2463,789.47c4.7,2.83,9.61,5.76,14.81,8.95,0,0,68.87-97.33,73.93-95.41,4.55,1.67-3.19,16.73-4.76,19.72,3-4.4,25.34-37.17,31.3-34.89,4.75,1.77-1.26,16.33-2,18.1,1.36-2,13.35-19.62,20.58-15.37,3.34,2-9.56,21.08-10.82,23,1.57-1.51,15.87-15.37,19.41-11.22s-10.26,20.73-11.83,22.6c1.42-1.26,13.65-11.93,17.55-6.77C2616.28,724.8,2553.69,821.63,2529.82,858Z" transform="translate(-92.7 -236.75)"/><path class="cls-20" d="M2522.79,866.78a57.86,57.86,0,0,1-16.63,12,59,59,0,0,1-29.38,5.82,23.28,23.28,0,0,1-.66-5.61,24.94,24.94,0,0,1,46.67-12.24Z" transform="translate(-92.7 -236.75)"/><path class="cls-7" d="M2311.7,990.72c-37.38,0-70.86-2.39-87.29-3.79l-2-.17a1.9,1.9,0,0,1,.05-3.79c.13,0,.9.06,2.25.18,37.44,3.21,164,11.58,221.32-15.17a1.9,1.9,0,0,1,1.6,3.44C2414.85,986.72,2360,990.72,2311.7,990.72Z" transform="translate(-92.7 -236.75)"/><path class="cls-7" d="M2331.55,799c-20.11,0-29-13.28-29.13-13.48a1.89,1.89,0,0,1,3.18-2.06c.66,1,16.53,24.32,56.5,2.74a1.89,1.89,0,1,1,1.8,3.33C2350.92,796.56,2340.19,799,2331.55,799Z" transform="translate(-92.7 -236.75)"/><path class="cls-26" d="M2398.11,587.47c10.61-6,24.94-6.51,34.36,1.22,4.91,4,8.06,9.81,12.62,14.23,9.77,9.49,25,11.88,34.32,21.77,7.23,7.64,9.81,18.79,9.09,29.28s-4.41,20.54-8.33,30.3c-5.59,13.94-12,28.1-23.21,38.15-4.26,3.83-9.26,7-14.86,8.32s-11.83.46-16.38-3c-4.8-3.7-7.17-9.88-7.59-15.92s.87-12.06,2.15-18a9.59,9.59,0,0,0,14.55-9.3c-.72-6-6.67-9.83-12-12.75l-26.49-14.51c-5.17-2.84-10.45-5.76-14.34-10.18-6.5-7.41-11.72-23.68-7.42-33C2379.35,603.68,2388.13,593.08,2398.11,587.47Z" transform="translate(-92.7 -236.75)"/><path class="cls-21" d="M2293.27,636.62s-.55-59.91,73.85-44.12A55.17,55.17,0,0,1,2398.81,612c12.11,15,19.87,78-14.74,95.44C2340.67,729.32,2293.27,636.62,2293.27,636.62Z" transform="translate(-92.7 -236.75)"/><path class="cls-24" d="M2370.35,687.18l-1.72,60.17a29.39,29.39,0,0,1-27.81,28.47c-.51,0-1,0-1.52,0A29.38,29.38,0,0,1,2310.08,744l.1-1,3.94-45.71,5-.91Z" transform="translate(-92.7 -236.75)"/><path class="cls-6" d="M2344.86,708.67A69.9,69.9,0,0,1,2310.18,743l3.94-45.71,5-.91Z" transform="translate(-92.7 -236.75)"/><path class="cls-24" d="M2293.27,636.62s-19,79,20.85,82.8,56.25-32.24,56.25-32.24l5.06-44.87-24.65-35.4-39.19,12Z" transform="translate(-92.7 -236.75)"/><path class="cls-21" d="M2293.27,636.62s36.63-20.55,49.93,7c9.27,19.17,23.38,29.71,37.29,23.39s2.52-51.83,2.52-51.83l-51.82-13.27-31,17.69Z" transform="translate(-92.7 -236.75)"/><ellipse class="cls-24" cx="2369.9" cy="668.71" rx="17.31" ry="14.31" transform="translate(513.11 2149.98) rotate(-60)"/><path class="cls-6" d="M2366,675.6h-.09a1.26,1.26,0,0,1-1.17-1.35c.32-4.49,3.16-13,11.58-13a1.27,1.27,0,1,1,0,2.53c-8.17,0-9,10.19-9.06,10.62A1.27,1.27,0,0,1,2366,675.6Z" transform="translate(-92.7 -236.75)"/><path class="cls-6" d="M2299.3,665a3.23,3.23,0,1,1-3.23-3.22A3.23,3.23,0,0,1,2299.3,665Z" transform="translate(-92.7 -236.75)"/><circle class="cls-6" cx="2228.06" cy="427.99" r="3.58"/><path class="cls-6" d="M2306.05,684.67c-2.8,0-4.7-.88-5.65-2.62-2.51-4.55,3.29-13.11,4.47-14.77a1.27,1.27,0,0,1,2.07,1.46c-3.08,4.32-5.56,9.86-4.33,12.1.53,1,1.92,1.39,4.07,1.29h.07a1.26,1.26,0,0,1,.07,2.52C2306.55,684.67,2306.3,684.67,2306.05,684.67Z" transform="translate(-92.7 -236.75)"/><circle class="cls-20" cx="2338.69" cy="679.2" r="11.3" transform="translate(-174.6 709.93) rotate(-22.5)"/><path class="cls-6" d="M2307.62,695.61a13.76,13.76,0,0,1-6-1.29,1.26,1.26,0,0,1,1.17-2.24c.29.15,7.1,3.5,14.17-3a1.26,1.26,0,1,1,1.7,1.86A16.12,16.12,0,0,1,2307.62,695.61Z" transform="translate(-92.7 -236.75)"/><path class="cls-6" d="M2303.15,657.86a32.87,32.87,0,0,0-6.54-1.16,8.62,8.62,0,0,0-2.87.32,16.59,16.59,0,0,0-3.08,1.16l-.12.05a.78.78,0,0,1-1-1,6.77,6.77,0,0,1,2.85-3.2,8.5,8.5,0,0,1,4.35-1,10.06,10.06,0,0,1,7.28,3.72.77.77,0,0,1-.77,1.22Z" transform="translate(-92.7 -236.75)"/><path class="cls-6" d="M2312.52,656.77a11.4,11.4,0,0,1,8.75-5.55,9.67,9.67,0,0,1,5.43,1.21,10.14,10.14,0,0,1,3.74,3.67.76.76,0,0,1-1,1.1l-.08,0a28.34,28.34,0,0,0-4-1.71,8.89,8.89,0,0,0-3.83-.48c-2.58,0-5.22,1.36-7.91,2.79l-.09,0a.75.75,0,0,1-1-.31A.76.76,0,0,1,2312.52,656.77Z" transform="translate(-92.7 -236.75)"/><rect class="cls-6" x="16.89" y="1504.24" width="2806.22" height="5.06"/></svg>